<svg width="87" height="87" viewBox="0 0 87 87" fill="none" xmlns="http://www.w3.org/2000/svg">
<g clip-path="url(#clip0_1501_6477)">
<g filter="url(#filter0_d_1501_6477)">
<path d="M72.9678 8.41943H14.0323C10.9324 8.41943 8.41943 10.9324 8.41943 14.0323V72.9678C8.41943 76.0677 10.9324 78.5807 14.0323 78.5807H72.9678C76.0677 78.5807 78.5807 76.0677 78.5807 72.9678V14.0323C78.5807 10.9324 76.0677 8.41943 72.9678 8.41943Z" fill="#12100E"/>
</g>
<mask id="path-2-inside-1_1501_6477" fill="white">
<path d="M61.6543 39.7216V47.2785C61.6543 47.662 61.3434 47.9728 60.96 47.9728C60.542 47.9728 60.2511 47.6472 60.2511 47.2785V39.7216C60.2511 39.3381 60.562 39.0273 60.9454 39.0273C61.3634 39.0273 61.6543 39.3529 61.6543 39.7216ZM26.9245 39.7216V47.2785C26.9245 47.662 26.6136 47.9728 26.2302 47.9728C25.8122 47.9728 25.5213 47.6472 25.5213 47.2785V39.7216C25.5213 39.3381 25.8322 39.0273 26.2156 39.0273C26.6336 39.0273 26.9245 39.3529 26.9245 39.7216ZM39.047 28.674L31.41 32.6468C31.0465 32.8359 30.5987 32.6708 30.4463 32.2904C30.2994 31.9235 30.4617 31.5589 30.7638 31.4017L38.4008 27.4289C38.7643 27.2398 39.2121 27.4049 39.3644 27.7853C39.5113 28.1521 39.3491 28.5168 39.047 28.674ZM39.3697 59.2016C39.2013 59.6171 38.7485 59.7521 38.4007 59.5712L30.7637 55.5984C30.4464 55.4333 30.3066 55.0544 30.4409 54.7229C30.6093 54.3073 31.0621 54.1724 31.4099 54.3533L39.0469 58.3261C39.3643 58.4911 39.5041 58.8701 39.3697 59.2016ZM56.7346 32.2772C56.5662 32.6928 56.1135 32.8277 55.7656 32.6468L48.1286 28.674C47.8113 28.5089 47.6715 28.13 47.8058 27.7985C47.9742 27.3829 48.427 27.248 48.7748 27.4289L56.4118 31.4017C56.7292 31.5668 56.869 31.9457 56.7346 32.2772ZM56.4119 55.5984L48.7749 59.5712C48.4114 59.7603 47.9636 59.5952 47.8112 59.2148C47.6643 58.8479 47.8266 58.4832 48.1287 58.3261L55.7657 54.3533C56.1292 54.1642 56.577 54.3293 56.7294 54.7097C56.8763 55.0765 56.714 55.4412 56.4119 55.5984ZM43.5948 29.994C43.9784 29.994 44.2894 30.305 44.2894 30.6886V31.3095C44.2894 32.2381 42.8862 32.2378 42.8862 31.3095V30.6886C42.8862 30.3226 43.1743 29.994 43.5948 29.994ZM44.2894 55.6906V56.3115C44.2894 56.6951 43.9784 57.0061 43.5948 57.0061C43.175 57.0061 42.8862 56.6781 42.8862 56.3115V55.6906C42.8862 54.762 44.2894 54.7622 44.2894 55.6906ZM32.2997 38.5089L30.7635 37.7044C30.4476 37.5389 30.3082 37.1611 30.4419 36.8304C30.6106 36.4136 31.0647 36.2782 31.4131 36.4606L32.9505 37.2653C33.7751 37.6966 33.1198 38.9399 32.2997 38.5089ZM56.7337 36.8304C56.8674 37.1611 56.728 37.5389 56.4121 37.7044L54.8759 38.5089C54.0599 38.9377 53.3949 37.6995 54.2251 37.2653L55.7624 36.4606C56.1104 36.2785 56.5647 36.413 56.7337 36.8304ZM32.9505 49.7348L31.4131 50.5395C31.049 50.7302 30.5998 50.5645 30.4472 50.1828C30.3011 49.8175 30.4621 49.4536 30.7635 49.2957L32.2997 48.4911C33.1216 48.0602 33.7741 49.304 32.9505 49.7348ZM56.7337 50.1697C56.565 50.5865 56.1109 50.7219 55.7624 50.5395L54.2251 49.7348C53.4034 49.3051 54.0527 48.0596 54.8759 48.4911L56.4121 49.2957C56.728 49.4612 56.8674 49.839 56.7337 50.1697ZM44.5525 58.4093H42.6231C41.4624 58.4093 40.5182 59.3536 40.5182 60.5142V62.4436C40.5182 63.6041 41.4624 64.5484 42.6231 64.5484H44.5525C45.7132 64.5484 46.6574 63.6041 46.6574 62.4436V60.5142C46.6574 59.3536 45.7132 58.4093 44.5525 58.4093ZM44.5525 22.4517H42.6231C41.4624 22.4517 40.5182 23.3959 40.5182 24.5565V26.4859C40.5182 27.6465 41.4624 28.5908 42.6231 28.5908H44.5525C45.7132 28.5908 46.6574 27.6465 46.6574 26.4859V24.5565C46.6574 23.3959 45.7132 22.4517 44.5525 22.4517ZM27.1876 49.3761H25.2582C24.0975 49.3761 23.1533 50.3203 23.1533 51.4809V53.4103C23.1533 54.5709 24.0975 55.5152 25.2582 55.5152H27.1876C28.3482 55.5152 29.2924 54.5709 29.2924 53.4103V51.4809C29.2924 50.3203 28.3482 49.3761 27.1876 49.3761ZM61.9174 31.4849H59.988C58.8274 31.4849 57.8832 32.4292 57.8832 33.5898V35.5192C57.8832 36.6798 58.8274 37.624 59.988 37.624H61.9174C63.0781 37.624 64.0223 36.6798 64.0223 35.5192V33.5898C64.0223 32.4292 63.0781 31.4849 61.9174 31.4849ZM61.9174 49.3761H59.988C58.8274 49.3761 57.8832 50.3203 57.8832 51.4809V53.4103C57.8832 54.5709 58.8274 55.5152 59.988 55.5152H61.9174C63.0781 55.5152 64.0223 54.5709 64.0223 53.4103V51.4809C64.0223 50.3203 63.0781 49.3761 61.9174 49.3761ZM27.1876 31.4849H25.2582C24.0975 31.4849 23.1533 32.4292 23.1533 33.5898V35.5192C23.1533 36.6798 24.0975 37.624 25.2582 37.624H27.1876C28.3482 37.624 29.2924 36.6798 29.2924 35.5192V33.5898C29.2924 32.4292 28.3482 31.4849 27.1876 31.4849Z"/>
</mask>
<path d="M61.6543 39.7216V47.2785C61.6543 47.662 61.3434 47.9728 60.96 47.9728C60.542 47.9728 60.2511 47.6472 60.2511 47.2785V39.7216C60.2511 39.3381 60.562 39.0273 60.9454 39.0273C61.3634 39.0273 61.6543 39.3529 61.6543 39.7216ZM26.9245 39.7216V47.2785C26.9245 47.662 26.6136 47.9728 26.2302 47.9728C25.8122 47.9728 25.5213 47.6472 25.5213 47.2785V39.7216C25.5213 39.3381 25.8322 39.0273 26.2156 39.0273C26.6336 39.0273 26.9245 39.3529 26.9245 39.7216ZM39.047 28.674L31.41 32.6468C31.0465 32.8359 30.5987 32.6708 30.4463 32.2904C30.2994 31.9235 30.4617 31.5589 30.7638 31.4017L38.4008 27.4289C38.7643 27.2398 39.2121 27.4049 39.3644 27.7853C39.5113 28.1521 39.3491 28.5168 39.047 28.674ZM39.3697 59.2016C39.2013 59.6171 38.7485 59.7521 38.4007 59.5712L30.7637 55.5984C30.4464 55.4333 30.3066 55.0544 30.4409 54.7229C30.6093 54.3073 31.0621 54.1724 31.4099 54.3533L39.0469 58.3261C39.3643 58.4911 39.5041 58.8701 39.3697 59.2016ZM56.7346 32.2772C56.5662 32.6928 56.1135 32.8277 55.7656 32.6468L48.1286 28.674C47.8113 28.5089 47.6715 28.13 47.8058 27.7985C47.9742 27.3829 48.427 27.248 48.7748 27.4289L56.4118 31.4017C56.7292 31.5668 56.869 31.9457 56.7346 32.2772ZM56.4119 55.5984L48.7749 59.5712C48.4114 59.7603 47.9636 59.5952 47.8112 59.2148C47.6643 58.8479 47.8266 58.4832 48.1287 58.3261L55.7657 54.3533C56.1292 54.1642 56.577 54.3293 56.7294 54.7097C56.8763 55.0765 56.714 55.4412 56.4119 55.5984ZM43.5948 29.994C43.9784 29.994 44.2894 30.305 44.2894 30.6886V31.3095C44.2894 32.2381 42.8862 32.2378 42.8862 31.3095V30.6886C42.8862 30.3226 43.1743 29.994 43.5948 29.994ZM44.2894 55.6906V56.3115C44.2894 56.6951 43.9784 57.0061 43.5948 57.0061C43.175 57.0061 42.8862 56.6781 42.8862 56.3115V55.6906C42.8862 54.762 44.2894 54.7622 44.2894 55.6906ZM32.2997 38.5089L30.7635 37.7044C30.4476 37.5389 30.3082 37.1611 30.4419 36.8304C30.6106 36.4136 31.0647 36.2782 31.4131 36.4606L32.9505 37.2653C33.7751 37.6966 33.1198 38.9399 32.2997 38.5089ZM56.7337 36.8304C56.8674 37.1611 56.728 37.5389 56.4121 37.7044L54.8759 38.5089C54.0599 38.9377 53.3949 37.6995 54.2251 37.2653L55.7624 36.4606C56.1104 36.2785 56.5647 36.413 56.7337 36.8304ZM32.9505 49.7348L31.4131 50.5395C31.049 50.7302 30.5998 50.5645 30.4472 50.1828C30.3011 49.8175 30.4621 49.4536 30.7635 49.2957L32.2997 48.4911C33.1216 48.0602 33.7741 49.304 32.9505 49.7348ZM56.7337 50.1697C56.565 50.5865 56.1109 50.7219 55.7624 50.5395L54.2251 49.7348C53.4034 49.3051 54.0527 48.0596 54.8759 48.4911L56.4121 49.2957C56.728 49.4612 56.8674 49.839 56.7337 50.1697ZM44.5525 58.4093H42.6231C41.4624 58.4093 40.5182 59.3536 40.5182 60.5142V62.4436C40.5182 63.6041 41.4624 64.5484 42.6231 64.5484H44.5525C45.7132 64.5484 46.6574 63.6041 46.6574 62.4436V60.5142C46.6574 59.3536 45.7132 58.4093 44.5525 58.4093ZM44.5525 22.4517H42.6231C41.4624 22.4517 40.5182 23.3959 40.5182 24.5565V26.4859C40.5182 27.6465 41.4624 28.5908 42.6231 28.5908H44.5525C45.7132 28.5908 46.6574 27.6465 46.6574 26.4859V24.5565C46.6574 23.3959 45.7132 22.4517 44.5525 22.4517ZM27.1876 49.3761H25.2582C24.0975 49.3761 23.1533 50.3203 23.1533 51.4809V53.4103C23.1533 54.5709 24.0975 55.5152 25.2582 55.5152H27.1876C28.3482 55.5152 29.2924 54.5709 29.2924 53.4103V51.4809C29.2924 50.3203 28.3482 49.3761 27.1876 49.3761ZM61.9174 31.4849H59.988C58.8274 31.4849 57.8832 32.4292 57.8832 33.5898V35.5192C57.8832 36.6798 58.8274 37.624 59.988 37.624H61.9174C63.0781 37.624 64.0223 36.6798 64.0223 35.5192V33.5898C64.0223 32.4292 63.0781 31.4849 61.9174 31.4849ZM61.9174 49.3761H59.988C58.8274 49.3761 57.8832 50.3203 57.8832 51.4809V53.4103C57.8832 54.5709 58.8274 55.5152 59.988 55.5152H61.9174C63.0781 55.5152 64.0223 54.5709 64.0223 53.4103V51.4809C64.0223 50.3203 63.0781 49.3761 61.9174 49.3761ZM27.1876 31.4849H25.2582C24.0975 31.4849 23.1533 32.4292 23.1533 33.5898V35.5192C23.1533 36.6798 24.0975 37.624 25.2582 37.624H27.1876C28.3482 37.624 29.2924 36.6798 29.2924 35.5192V33.5898C29.2924 32.4292 28.3482 31.4849 27.1876 31.4849Z" stroke="#F9F9F9" stroke-width="2" mask="url(#path-2-inside-1_1501_6477)"/>
<path d="M43.4995 43.7681V52.1872" stroke="#4285F4" stroke-width="1.64638" stroke-miterlimit="10"/>
<path d="M35.7822 39.1326L43.4996 43.8663" stroke="#4285F4" stroke-width="1.64638" stroke-miterlimit="10"/>
<path d="M51.2169 39.1326L43.4995 43.8663" stroke="#4285F4" stroke-width="1.64638" stroke-miterlimit="10"/>
<path d="M51.217 39.1325V47.6885L43.4996 52.4822L35.7822 47.7462V39.1325L43.4118 34.3792L51.217 39.1325Z" stroke="#4285F4" stroke-width="1.64638" stroke-miterlimit="10"/>
</g>
<defs>
<filter id="filter0_d_1501_6477" x="2.41943" y="2.41943" width="86.1611" height="86.1614" filterUnits="userSpaceOnUse" color-interpolation-filters="sRGB">
<feFlood flood-opacity="0" result="BackgroundImageFix"/>
<feColorMatrix in="SourceAlpha" type="matrix" values="0 0 0 0 0 0 0 0 0 0 0 0 0 0 0 0 0 0 127 0" result="hardAlpha"/>
<feOffset dx="2" dy="2"/>
<feGaussianBlur stdDeviation="4"/>
<feColorMatrix type="matrix" values="0 0 0 0 0.0705882 0 0 0 0 0.0705882 0 0 0 0 0.0705882 0 0 0 0.161 0"/>
<feBlend mode="normal" in2="BackgroundImageFix" result="effect1_dropShadow_1501_6477"/>
<feBlend mode="normal" in="SourceGraphic" in2="effect1_dropShadow_1501_6477" result="shape"/>
</filter>
<clipPath id="clip0_1501_6477">
<rect width="87" height="87" fill="white"/>
</clipPath>
</defs>
</svg>
