<svg width="87" height="87" viewBox="0 0 87 87" fill="none" xmlns="http://www.w3.org/2000/svg">
<g clip-path="url(#clip0_1501_6567)">
<g filter="url(#filter0_d_1501_6567)">
<path d="M72.9678 8.41943H14.0323C10.9324 8.41943 8.41943 10.9324 8.41943 14.0323V72.9678C8.41943 76.0677 10.9324 78.5807 14.0323 78.5807H72.9678C76.0677 78.5807 78.5807 76.0677 78.5807 72.9678V14.0323C78.5807 10.9324 76.0677 8.41943 72.9678 8.41943Z" fill="#12100E"/>
</g>
<path d="M27.9567 28.0645C26.8632 28.0645 25.9615 28.9661 25.9615 30.0597V33.5458C25.9588 33.576 25.9588 33.6034 25.9615 33.6335V58.2338C25.9615 58.6202 26.2767 58.9354 26.6631 58.9354H60.3406C60.727 58.9354 61.0422 58.6202 61.0422 58.2338V33.6774C61.0422 33.6554 61.0422 33.6335 61.0422 33.6116V30.0597C61.0422 28.9661 60.1405 28.0645 59.047 28.0645H27.9567ZM27.9567 29.4677H59.047C59.3841 29.4677 59.639 29.7226 59.639 30.0597V32.9757H27.3648V30.0597C27.3648 29.7226 27.6196 29.4677 27.9567 29.4677ZM27.3648 34.379H59.639V57.5322H27.3648V34.379Z" fill="white"/>
<path d="M35.775 38.5927C35.5092 38.6338 35.2899 38.823 35.2104 39.0778C35.131 39.3355 35.205 39.615 35.4023 39.7986L39.0638 43.5698L35.2927 47.2313C35.0131 47.5027 35.0104 47.9494 35.2817 48.2289C35.553 48.5085 35.9998 48.5112 36.2793 48.2399L40.5328 44.0741L41.0371 43.5917L40.5548 43.0874L36.3889 38.812C36.2629 38.6777 36.0902 38.601 35.9066 38.5927C35.8627 38.5873 35.8189 38.5873 35.775 38.5927ZM41.3221 47.0559C40.9357 47.0916 40.6507 47.4369 40.6863 47.8233C40.7219 48.2098 41.0673 48.4948 41.4537 48.4592H50.5747C50.8268 48.4619 51.0625 48.3304 51.1913 48.1111C51.3174 47.8918 51.3174 47.6233 51.1913 47.404C51.0625 47.1848 50.8268 47.0532 50.5747 47.0559H41.4537C41.4318 47.0559 41.4098 47.0559 41.3879 47.0559C41.366 47.0559 41.3441 47.0559 41.3221 47.0559Z" fill="#4285F4"/>
</g>
<defs>
<filter id="filter0_d_1501_6567" x="2.41943" y="2.41943" width="86.1611" height="86.1614" filterUnits="userSpaceOnUse" color-interpolation-filters="sRGB">
<feFlood flood-opacity="0" result="BackgroundImageFix"/>
<feColorMatrix in="SourceAlpha" type="matrix" values="0 0 0 0 0 0 0 0 0 0 0 0 0 0 0 0 0 0 127 0" result="hardAlpha"/>
<feOffset dx="2" dy="2"/>
<feGaussianBlur stdDeviation="4"/>
<feColorMatrix type="matrix" values="0 0 0 0 0.0705882 0 0 0 0 0.0705882 0 0 0 0 0.0705882 0 0 0 0.161 0"/>
<feBlend mode="normal" in2="BackgroundImageFix" result="effect1_dropShadow_1501_6567"/>
<feBlend mode="normal" in="SourceGraphic" in2="effect1_dropShadow_1501_6567" result="shape"/>
</filter>
<clipPath id="clip0_1501_6567">
<rect width="87" height="87" fill="white"/>
</clipPath>
</defs>
</svg>
