<svg width="87" height="87" viewBox="0 0 87 87" fill="none" xmlns="http://www.w3.org/2000/svg">
<g clip-path="url(#clip0_1501_6591)">
<g filter="url(#filter0_d_1501_6591)">
<path d="M72.9678 8.41943H14.0323C10.9324 8.41943 8.41943 10.9324 8.41943 14.0323V72.9678C8.41943 76.0677 10.9324 78.5807 14.0323 78.5807H72.9678C76.0677 78.5807 78.5807 76.0677 78.5807 72.9678V14.0323C78.5807 10.9324 76.0677 8.41943 72.9678 8.41943Z" fill="#12100E"/>
</g>
<path d="M54.976 46.307C54.8547 46.3131 54.7392 46.3609 54.6491 46.4423C54.5591 46.5238 54.4999 46.6339 54.4818 46.7539L52.9438 56.9162C52.9334 56.9845 52.9366 57.0542 52.9532 57.1213C52.9698 57.1884 52.9994 57.2516 53.0404 57.3072C53.0814 57.3628 53.1329 57.4099 53.1921 57.4456C53.2512 57.4813 53.3168 57.505 53.3852 57.5154C53.4535 57.5257 53.5232 57.5225 53.5903 57.506C53.6574 57.4894 53.7205 57.4598 53.7762 57.4188C53.8318 57.3778 53.8788 57.3262 53.9146 57.2671C53.9503 57.2079 53.974 57.1423 53.9844 57.074L55.5224 46.9117C55.5328 46.8434 55.5296 46.7736 55.513 46.7065C55.4965 46.6394 55.4668 46.5762 55.4259 46.5206C55.3849 46.4649 55.3333 46.4179 55.2741 46.3822C55.215 46.3464 55.1493 46.3227 55.081 46.3124C55.0462 46.3071 55.0111 46.3053 54.976 46.307ZM51.8667 47.9753C51.748 47.9748 51.6326 48.0146 51.5393 48.088L47.2091 51.4951C47.1465 51.5444 47.0959 51.6072 47.0611 51.6788C47.0264 51.7504 47.0083 51.829 47.0083 51.9086C47.0083 51.9883 47.0264 52.0668 47.0611 52.1385C47.0959 52.2101 47.1465 52.2729 47.2091 52.3221L51.5393 55.7293C51.5936 55.772 51.6558 55.8037 51.7224 55.8223C51.7889 55.841 51.8585 55.8464 51.9271 55.8383C51.9957 55.8301 52.062 55.8084 52.1223 55.7746C52.1825 55.7408 52.2356 55.6954 52.2783 55.6411C52.321 55.5868 52.3526 55.5246 52.3713 55.4581C52.39 55.3915 52.3954 55.322 52.3872 55.2534C52.379 55.1847 52.3574 55.1184 52.3236 55.0581C52.2897 54.9979 52.2444 54.9449 52.1901 54.9021L48.3853 51.9086L52.1901 48.9151C52.2444 48.8724 52.2899 48.8193 52.3237 48.759C52.3576 48.6987 52.3792 48.6323 52.3874 48.5637C52.3956 48.495 52.3901 48.4254 52.3714 48.3588C52.3526 48.2922 52.3209 48.23 52.2781 48.1757C52.2291 48.1134 52.1666 48.0631 52.0953 48.0284C52.0241 47.9937 51.9459 47.9755 51.8667 47.9753ZM56.5919 47.9754C56.5154 47.978 56.4404 47.9973 56.3721 48.0319C56.3038 48.0665 56.2438 48.1155 56.1964 48.1757C56.1101 48.2853 56.0708 48.4247 56.0872 48.5633C56.1037 48.7019 56.1745 48.8283 56.2841 48.9146L60.0889 51.9081L56.2841 54.9018C56.2288 54.9442 56.1824 54.9971 56.1477 55.0575C56.113 55.118 56.0906 55.1847 56.0819 55.2538C56.0732 55.323 56.0783 55.3932 56.0969 55.4603C56.1155 55.5275 56.1473 55.5903 56.1904 55.6451C56.2335 55.6998 56.2871 55.7455 56.348 55.7794C56.4088 55.8133 56.4759 55.8348 56.5451 55.8426C56.6144 55.8504 56.6845 55.8443 56.7514 55.8248C56.8183 55.8053 56.8807 55.7726 56.9349 55.7288L61.2651 52.3218C61.3277 52.2726 61.3783 52.2097 61.4131 52.1381C61.4479 52.0665 61.466 51.9879 61.466 51.9082C61.466 51.8286 61.4479 51.75 61.4131 51.6783C61.3783 51.6067 61.3277 51.5439 61.2651 51.4946L56.9349 48.0876C56.8373 48.011 56.7159 47.9712 56.5919 47.9754Z" fill="#4285F4"/>
<path d="M40.3977 25.2581C39.8326 25.2544 39.2738 25.3763 38.7616 25.6152C38.2495 25.8541 37.7969 26.2039 37.4366 26.6393L36.1043 28.24H35.8549C34.2896 26.8104 32.25 26.0116 30.1301 25.998C27.9078 26.0009 25.7773 26.8853 24.2063 28.4571C22.6352 30.029 21.7518 32.1598 21.75 34.3822C21.75 36.6879 22.749 38.9182 24.4153 40.5263V48.9165C24.4153 51.2805 26.3202 53.235 28.6841 53.235H30.113C31.1589 53.2301 32.1673 52.8448 32.9501 52.1511C33.7328 51.4574 34.2365 50.5026 34.367 49.4648L34.9243 45.016C35.0229 44.2343 35.4033 43.5154 35.9942 42.9941C36.5851 42.4728 37.3458 42.185 38.1338 42.1846H38.1442L45.2974 42.2012C45.8001 42.2017 46.2957 42.3197 46.7447 42.5458C47.1938 42.7718 47.5838 43.0996 47.8837 43.503C46.6113 44.4715 45.5798 45.7207 44.8696 47.1534C44.1594 48.5861 43.7897 50.1635 43.7893 51.7625C43.7893 57.4992 48.4631 62.1651 54.2078 62.1651C59.9525 62.1651 64.6407 57.4974 64.6407 51.7608C64.6407 47.7248 62.3024 44.2177 58.9697 42.4934V40.5347C59.8027 39.7689 60.4707 38.8413 60.9328 37.8085C61.3948 36.7757 61.6413 35.6595 61.6571 34.5281C61.7294 29.9859 58.1037 26.1533 53.5838 26.0024C51.3636 25.9303 49.204 26.734 47.5711 28.24H47.2801L45.9478 26.6393C45.5875 26.2039 45.1349 25.8541 44.6227 25.6152C44.1106 25.3764 43.5517 25.2544 42.9866 25.2581H40.3977ZM40.3977 26.3106H42.9866C43.3965 26.307 43.802 26.3948 44.1738 26.5675C44.5455 26.7401 44.8741 26.9934 45.1358 27.3089L45.9161 28.24H37.4683L38.2487 27.3087C38.5104 26.9933 38.839 26.7401 39.2107 26.5674C39.5824 26.3948 39.9879 26.3071 40.3977 26.3106ZM53.3973 27.0576C53.4452 27.0585 53.4931 27.0598 53.541 27.0617C57.491 27.1932 60.6531 30.5362 60.59 34.5083C60.5563 36.629 59.677 38.5425 58.0878 39.8935C58.0316 39.9441 57.9873 40.0064 57.9578 40.0759C57.9284 40.1455 57.9145 40.2207 57.9173 40.2962V42.0276C56.425 41.4654 54.8238 41.2521 53.2363 41.4043C51.6489 41.5565 50.1173 42.07 48.759 42.9055C48.361 42.3618 47.8405 41.9195 47.2397 41.6143C46.639 41.3091 45.9748 41.1496 45.301 41.1487L38.1478 41.1321H38.1339C37.0904 41.1313 36.0825 41.5113 35.2993 42.2009C34.5162 42.8905 34.0116 43.8422 33.8804 44.8774L33.323 49.3386C33.2245 50.1215 32.8444 50.8419 32.2537 51.3652C31.6631 51.8886 30.9021 52.1791 30.113 52.1825H28.6841C26.9004 52.1825 25.4677 50.7004 25.4677 48.9165V40.2962C25.466 40.2219 25.4488 40.1487 25.4172 40.0814C25.3856 40.014 25.3404 39.954 25.2843 39.9052C24.5071 39.2109 23.8842 38.3612 23.4559 37.4112C23.0276 36.4611 22.8034 35.4317 22.7978 34.3896C22.7997 32.9498 23.2254 31.5424 24.0217 30.3428C24.818 29.1433 25.9498 28.2047 27.2759 27.6439C28.6021 27.0832 30.0639 26.9252 31.4792 27.1896C32.8946 27.4541 34.2007 28.1292 35.235 29.1309C35.2437 29.139 35.2516 29.1333 35.2598 29.1418C35.3097 29.192 35.3694 29.2312 35.4351 29.2571C35.5009 29.2831 35.5713 29.2951 35.642 29.2924H47.7828C47.8504 29.295 47.9178 29.2843 47.9812 29.2607C48.0446 29.2372 48.1028 29.2014 48.1523 29.1554C48.8418 28.4726 49.6612 27.9352 50.5622 27.5749C51.4631 27.2145 52.4271 27.0386 53.3973 27.0576ZM53.0733 29.1884C52.6788 29.172 52.2885 29.2751 51.9536 29.4842C51.6186 29.6932 51.3545 29.9985 51.1959 30.3601C51.0372 30.7217 50.9914 31.1227 51.0645 31.5108C51.1375 31.8988 51.326 32.2558 51.6052 32.535C51.7869 32.7177 52.0031 32.8625 52.2411 32.9611C52.4792 33.0597 52.7345 33.11 52.9922 33.1093C53.5054 33.1094 53.9982 32.9084 54.3648 32.5493C54.7315 32.1902 54.9428 31.7017 54.9534 31.1887C54.9641 30.6756 54.7731 30.1787 54.4217 29.8048C54.0702 29.4309 53.5861 29.2096 53.0733 29.1884ZM30.4001 29.3126C29.4003 29.3126 28.4229 29.6091 27.5916 30.1645C26.7603 30.72 26.1124 31.5095 25.7298 32.4332C25.3472 33.3569 25.2471 34.3733 25.4422 35.3538C25.6372 36.3344 26.1186 37.2351 26.8256 37.9421C27.5326 38.6491 28.4333 39.1305 29.4139 39.3256C30.3945 39.5206 31.4109 39.4205 32.3345 39.0379C33.2582 38.6553 34.0477 38.0074 34.6032 37.1761C35.1586 36.3448 35.4551 35.3674 35.4551 34.3676C35.4537 33.0274 34.9206 31.7425 33.9729 30.7948C33.0253 29.8471 31.7403 29.3141 30.4001 29.3126ZM53.0053 30.2391C53.1845 30.2418 53.359 30.2973 53.5067 30.3988C53.6544 30.5002 53.7688 30.6431 53.8356 30.8094C53.9023 30.9757 53.9184 31.1581 53.8819 31.3335C53.8453 31.5089 53.7576 31.6697 53.63 31.7954C53.5023 31.9212 53.3404 32.0065 53.1644 32.0404C52.9884 32.0744 52.8064 32.0556 52.641 31.9864C52.4757 31.9172 52.3346 31.8007 52.2353 31.6515C52.136 31.5023 52.0831 31.3271 52.0831 31.1479C52.0828 31.0284 52.1062 30.9101 52.1519 30.7998C52.1976 30.6895 52.2648 30.5893 52.3495 30.5052C52.4354 30.4192 52.5378 30.3514 52.6504 30.3057C52.7631 30.26 52.8838 30.2374 53.0053 30.2391ZM30.2336 30.3685C30.7728 30.346 31.3109 30.4328 31.8157 30.6237C32.3205 30.8146 32.7814 31.1055 33.1709 31.4791C33.5603 31.8527 33.8702 32.3011 34.0819 32.7975C34.2935 33.2939 34.4027 33.828 34.4027 34.3676C34.4015 35.4288 33.9795 36.4463 33.2291 37.1967C32.4787 37.9471 31.4613 38.3692 30.4001 38.3704C29.3523 38.3714 28.3459 37.9615 27.597 37.2287C26.8481 36.4959 26.4164 35.4986 26.3946 34.451C26.3728 33.4035 26.7626 32.3891 27.4804 31.6258C28.1982 30.8625 29.1867 30.4111 30.2336 30.3685ZM49.4553 32.695C49.134 32.6997 48.8188 32.7832 48.5373 32.9383C48.2559 33.0934 48.0169 33.3153 47.8413 33.5844C47.6657 33.8535 47.5589 34.1617 47.5303 34.4818C47.5017 34.8018 47.5522 35.124 47.6774 35.42C47.8025 35.716 47.9984 35.9767 48.2479 36.1792C48.4974 36.3817 48.7929 36.5198 49.1083 36.5813C49.4237 36.6429 49.7494 36.626 50.0567 36.5322C50.3641 36.4383 50.6436 36.2704 50.8709 36.0432C51.2381 35.6751 51.4444 35.1763 51.4444 34.6563C51.4444 34.1362 51.2381 33.6375 50.8709 33.2693C50.6853 33.0838 50.4645 32.9373 50.2213 32.8387C49.9782 32.74 49.7177 32.6911 49.4553 32.695ZM56.578 32.7075C56.3161 32.6986 56.0551 32.7424 55.8104 32.8361C55.5657 32.9298 55.3423 33.0717 55.1533 33.2532C54.9643 33.4347 54.8136 33.6522 54.7101 33.8929C54.6066 34.1337 54.5523 34.3927 54.5506 34.6547C54.5485 34.9123 54.5974 35.1678 54.6945 35.4065C54.7915 35.6451 54.9347 35.8623 55.1158 36.0454C55.3408 36.2735 55.6182 36.4429 55.9238 36.539C56.2294 36.635 56.5539 36.6548 56.8688 36.5965C57.1838 36.5383 57.4797 36.4037 57.7307 36.2047C57.9817 36.0057 58.1802 35.7482 58.3087 35.4548C58.4372 35.1614 58.4919 34.841 58.468 34.5215C58.4441 34.2021 58.3424 33.8934 58.1716 33.6223C58.0009 33.3513 57.7664 33.1262 57.4886 32.9667C57.2108 32.8073 56.8981 32.7182 56.578 32.7075ZM49.4605 33.7479C49.5837 33.7446 49.7064 33.7665 49.8209 33.8121C49.9355 33.8578 50.0395 33.9262 50.1268 34.0134C50.2119 34.0974 50.2794 34.1975 50.3256 34.3079C50.3717 34.4182 50.3954 34.5366 50.3954 34.6562C50.3954 34.7758 50.3717 34.8942 50.3256 35.0045C50.2794 35.1148 50.2119 35.2149 50.1268 35.2989C50.0218 35.4038 49.8928 35.4814 49.7509 35.5249C49.609 35.5683 49.4587 35.5764 49.313 35.5484C49.1673 35.5204 49.0306 35.4571 48.915 35.3641C48.7994 35.271 48.7084 35.1511 48.6498 35.0148C48.5912 34.8785 48.567 34.7299 48.5791 34.582C48.5912 34.4341 48.6393 34.2914 48.7193 34.1665C48.7993 34.0415 48.9086 33.938 49.0378 33.865C49.167 33.7921 49.3121 33.7518 49.4605 33.7479ZM56.5119 33.7652H56.5182C56.6375 33.7648 56.7556 33.7882 56.8657 33.8342C56.9757 33.8801 57.0755 33.9477 57.159 34.0328C57.2853 34.1607 57.3707 34.3233 57.4046 34.4998C57.4385 34.6764 57.4192 34.859 57.3493 35.0246C57.2794 35.1902 57.1619 35.3314 57.0118 35.4303C56.8616 35.5291 56.6855 35.5812 56.5058 35.58C56.326 35.5788 56.1506 35.5243 56.0018 35.4234C55.8531 35.3225 55.7375 35.1798 55.6699 35.0132C55.6022 34.8467 55.5854 34.6638 55.6217 34.4877C55.658 34.3116 55.7457 34.1503 55.8736 34.024C56.0437 33.8566 56.2732 33.7634 56.5119 33.7652ZM52.9498 36.1804C52.5666 36.1868 52.1936 36.3054 51.8771 36.5216C51.5605 36.7378 51.3143 37.0421 51.169 37.3968C51.0237 37.7515 50.9855 38.1411 51.0594 38.5172C51.1332 38.8934 51.3157 39.2396 51.5843 39.5131C51.7652 39.6953 51.9808 39.8394 52.2184 39.9367C52.456 40.034 52.7107 40.0827 52.9675 40.0797H52.9809C53.2352 40.0833 53.4877 40.0367 53.7239 39.9426C53.9602 39.8485 54.1756 39.7086 54.3577 39.5311C54.5414 39.3539 54.6878 39.1417 54.7881 38.907C54.8884 38.6723 54.9407 38.4199 54.9418 38.1647C54.9451 37.9025 54.8958 37.6424 54.7968 37.3996C54.6978 37.1569 54.551 36.9365 54.3653 36.7514C54.1796 36.5664 53.9586 36.4206 53.7154 36.3225C53.4723 36.2244 53.212 36.1761 52.9498 36.1804ZM52.9625 37.2441C53.0839 37.2417 53.2045 37.2636 53.3173 37.3085C53.4301 37.3535 53.5327 37.4206 53.6191 37.5058C53.7055 37.5911 53.774 37.6928 53.8204 37.805C53.8669 37.9171 53.8904 38.0375 53.8896 38.1588C53.8891 38.2783 53.865 38.3964 53.8185 38.5064C53.7721 38.6164 53.7042 38.7161 53.6189 38.7996C53.5133 38.9039 53.3837 38.9807 53.2415 39.0233C53.0993 39.0659 52.9489 39.073 52.8033 39.044C52.6578 39.015 52.5215 38.9509 52.4065 38.8571C52.2914 38.7633 52.2011 38.6428 52.1434 38.506C52.0857 38.3693 52.0624 38.2205 52.0754 38.0727C52.0885 37.9248 52.1376 37.7824 52.2184 37.6579C52.2992 37.5334 52.4093 37.4306 52.539 37.3585C52.6687 37.2864 52.8141 37.2471 52.9625 37.2441ZM38.7107 37.6241C38.5711 37.6241 38.4373 37.6795 38.3386 37.7782C38.2399 37.8769 38.1845 38.0107 38.1845 38.1503C38.1845 38.2898 38.2399 38.4237 38.3386 38.5224C38.4373 38.621 38.5711 38.6765 38.7107 38.6765H44.6744C44.8139 38.6765 44.9478 38.621 45.0465 38.5224C45.1451 38.4237 45.2006 38.2898 45.2006 38.1503C45.2006 38.0107 45.1451 37.8769 45.0465 37.7782C44.9478 37.6795 44.8139 37.6241 44.6744 37.6241H38.7107ZM54.2075 42.4089C59.3717 42.4089 63.5741 46.604 63.5741 51.7603C63.5741 56.9166 59.3721 61.1117 54.2075 61.1117C49.043 61.1117 44.8416 56.9166 44.8416 51.7603C44.8416 46.604 49.0433 42.4089 54.2075 42.4089Z" fill="white"/>
<path d="M65.25 51.9192C65.25 57.7316 60.3811 62.4434 54.375 62.4434C48.3689 62.4434 43.5 57.7316 43.5 51.9192C43.5 46.1069 48.3689 41.395 54.375 41.395C60.3811 41.395 65.25 46.1069 65.25 51.9192ZM44.9921 51.9192C44.9921 56.9341 49.193 60.9994 54.375 60.9994C59.557 60.9994 63.496 56.9341 63.496 51.9192C63.496 46.9044 59.557 42.839 54.375 42.839C49.193 42.839 44.9921 46.9044 44.9921 51.9192Z" fill="#4285F4"/>
</g>
<defs>
<filter id="filter0_d_1501_6591" x="2.41943" y="2.41943" width="86.1611" height="86.1614" filterUnits="userSpaceOnUse" color-interpolation-filters="sRGB">
<feFlood flood-opacity="0" result="BackgroundImageFix"/>
<feColorMatrix in="SourceAlpha" type="matrix" values="0 0 0 0 0 0 0 0 0 0 0 0 0 0 0 0 0 0 127 0" result="hardAlpha"/>
<feOffset dx="2" dy="2"/>
<feGaussianBlur stdDeviation="4"/>
<feColorMatrix type="matrix" values="0 0 0 0 0.0705882 0 0 0 0 0.0705882 0 0 0 0 0.0705882 0 0 0 0.161 0"/>
<feBlend mode="normal" in2="BackgroundImageFix" result="effect1_dropShadow_1501_6591"/>
<feBlend mode="normal" in="SourceGraphic" in2="effect1_dropShadow_1501_6591" result="shape"/>
</filter>
<clipPath id="clip0_1501_6591">
<rect width="87" height="87" fill="white"/>
</clipPath>
</defs>
</svg>
