<svg width="87" height="87" viewBox="0 0 87 87" fill="none" xmlns="http://www.w3.org/2000/svg">
<g clip-path="url(#clip0_1501_6531)">
<g filter="url(#filter0_d_1501_6531)">
<path d="M72.9678 8.41943H14.0323C10.9324 8.41943 8.41943 10.9324 8.41943 14.0323V72.9678C8.41943 76.0677 10.9324 78.5807 14.0323 78.5807H72.9678C76.0677 78.5807 78.5807 76.0677 78.5807 72.9678V14.0323C78.5807 10.9324 76.0677 8.41943 72.9678 8.41943Z" fill="#12100E"/>
</g>
<path d="M44.5439 30.6935C44.5438 30.0849 44.406 29.4842 44.1408 28.9364C43.8755 28.3887 43.4897 27.908 43.0122 27.5306C42.5348 27.1532 41.9781 26.8887 41.3839 26.7571C40.7897 26.6254 40.1734 26.63 39.5812 26.7705C38.989 26.9109 38.4363 27.1836 37.9645 27.5681C37.4927 27.9526 37.114 28.4389 36.8569 28.9905C36.5999 29.5422 36.471 30.1449 36.48 30.7534C36.489 31.362 36.6356 31.9606 36.9089 32.5044C36.4264 32.2358 35.8832 32.0953 35.331 32.0961C34.3552 32.1457 33.4387 32.5793 32.7814 33.3023C32.1242 34.0252 31.7796 34.9788 31.8229 35.9549C31.815 36.9555 32.1779 37.9235 32.8417 38.6723C32.5969 38.6152 32.3465 38.5857 32.0952 38.5846C29.8689 38.5846 28.063 40.7827 28.063 43.4959C28.063 46.209 29.8689 48.4072 32.0952 48.4072C32.3495 48.4067 32.6031 48.3773 32.8508 48.3195C32.1871 49.0682 31.8242 50.0363 31.8321 51.0368C31.7887 52.0129 32.1333 52.9665 32.7905 53.6895C33.4478 54.4124 34.3643 54.8461 35.3401 54.8957C35.8923 54.8965 36.4355 54.7559 36.918 54.4873C36.6413 55.0312 36.4916 55.6308 36.4803 56.2409C36.4689 56.851 36.5962 57.4558 36.8525 58.0096C37.1088 58.5634 37.4875 59.0518 37.96 59.4379C38.4325 59.8241 38.9864 60.098 39.5802 60.239C40.1739 60.38 40.7918 60.3844 41.3875 60.2518C41.9832 60.1193 42.541 59.8533 43.0189 59.4739C43.4968 59.0944 43.8824 58.6115 44.1465 58.0614C44.4107 57.5113 44.5466 56.9084 44.5439 56.2982V56.1228V30.8711V30.6935Z" stroke="#F9F9F9" stroke-width="2" stroke-linejoin="bevel"/>
<path d="M37.7524 59.1397C38.1248 59.5234 38.5698 59.8291 39.0614 60.0392C39.5531 60.2493 40.0816 60.3596 40.6162 60.3636C41.1509 60.3675 41.6809 60.2652 42.1757 60.0624C42.6704 59.8596 43.1198 59.5605 43.4979 59.1825C43.8759 58.8044 44.1751 58.3549 44.3778 57.8602C44.5806 57.3655 44.683 56.8354 44.679 56.3008C44.675 55.7662 44.5648 55.2376 44.3547 54.746C44.1445 54.2544 43.8388 53.8094 43.4551 53.437H41.1953" stroke="#F9F9F9" stroke-width="2" stroke-miterlimit="10"/>
<path d="M37.5767 27.8429C37.951 27.4684 38.3955 27.1713 38.8846 26.9686C39.3738 26.7659 39.8981 26.6615 40.4276 26.6614C40.9571 26.6613 41.4815 26.7655 41.9707 26.968C42.46 27.1706 42.9045 27.4675 43.279 27.8418C43.6535 28.2162 43.9506 28.6606 44.1533 29.1498C44.356 29.639 44.4604 30.1633 44.4605 30.6928C44.4606 31.2223 44.3564 31.7467 44.1539 32.2359C43.9514 32.7252 43.6544 33.1697 43.2801 33.5442H41.3303" stroke="#F9F9F9" stroke-width="2" stroke-miterlimit="10"/>
<path d="M44.5441 42.6147H40.1611L34.5952 47.8319" stroke="#F9F9F9" stroke-width="2" stroke-miterlimit="10"/>
<path d="M33.8442 41.1511L36.9089 45.4969" stroke="#F9F9F9" stroke-width="2" stroke-miterlimit="10"/>
<path d="M36.9087 54.4781L39.0212 51.5559" stroke="#F9F9F9" stroke-width="2" stroke-miterlimit="10"/>
<path d="M36.9087 32.5325L38.4073 34.9011V38.4092" stroke="#F9F9F9" stroke-width="2" stroke-miterlimit="10"/>
<path d="M52.621 44.2017H44.2017" stroke="#F9F9F9" stroke-width="2" stroke-miterlimit="10"/>
<path d="M44.7192 48.9263H48.9289L51.0338 52.7255" stroke="#F9F9F9" stroke-width="2" stroke-miterlimit="10"/>
<path d="M44.7192 38.2323H48.9289L51.0338 34.4331" stroke="#F9F9F9" stroke-width="2" stroke-miterlimit="10"/>
<path d="M56.1287 46.3065C57.6787 46.3065 58.9352 45.05 58.9352 43.5001C58.9352 41.9501 57.6787 40.6936 56.1287 40.6936C54.5788 40.6936 53.3223 41.9501 53.3223 43.5001C53.3223 45.05 54.5788 46.3065 56.1287 46.3065Z" stroke="#4285F4" stroke-width="2" stroke-miterlimit="10"/>
<path d="M51.9192 58.234C53.4692 58.234 54.7257 57.1346 54.7257 55.7784C54.7257 54.4222 53.4692 53.3228 51.9192 53.3228C50.3693 53.3228 49.1128 54.4222 49.1128 55.7784C49.1128 57.1346 50.3693 58.234 51.9192 58.234Z" stroke="#4285F4" stroke-width="2" stroke-miterlimit="10"/>
<path d="M51.9192 33.6774C53.4692 33.6774 54.7257 32.578 54.7257 31.2218C54.7257 29.8655 53.4692 28.7661 51.9192 28.7661C50.3693 28.7661 49.1128 29.8655 49.1128 31.2218C49.1128 32.578 50.3693 33.6774 51.9192 33.6774Z" stroke="#4285F4" stroke-width="2" stroke-miterlimit="10"/>
</g>
<defs>
<filter id="filter0_d_1501_6531" x="2.41943" y="2.41943" width="86.1611" height="86.1614" filterUnits="userSpaceOnUse" color-interpolation-filters="sRGB">
<feFlood flood-opacity="0" result="BackgroundImageFix"/>
<feColorMatrix in="SourceAlpha" type="matrix" values="0 0 0 0 0 0 0 0 0 0 0 0 0 0 0 0 0 0 127 0" result="hardAlpha"/>
<feOffset dx="2" dy="2"/>
<feGaussianBlur stdDeviation="4"/>
<feColorMatrix type="matrix" values="0 0 0 0 0.0705882 0 0 0 0 0.0705882 0 0 0 0 0.0705882 0 0 0 0.161 0"/>
<feBlend mode="normal" in2="BackgroundImageFix" result="effect1_dropShadow_1501_6531"/>
<feBlend mode="normal" in="SourceGraphic" in2="effect1_dropShadow_1501_6531" result="shape"/>
</filter>
<clipPath id="clip0_1501_6531">
<rect width="87" height="87" fill="white"/>
</clipPath>
</defs>
</svg>
