<svg width="480" height="320" viewBox="0 0 480 320" fill="none" xmlns="http://www.w3.org/2000/svg">
<g clip-path="url(#clip0_3029_6656)">
<rect width="480" height="320" fill="#141414"/>
<path d="M0.524514 187.354L58.825 175.864L74.141 138.141L161.242 174.087L204.207 122.604L253.75 128.902L215.4 219.04L197.291 265.455L120.163 227.035L129.074 272.941L84.601 242.631L14.4456 234.895L0.524514 187.354Z" stroke="#5E5E5E" stroke-width="0.852767" stroke-miterlimit="10"/>
<path d="M14.4463 234.896L58.8257 175.865L84.6017 242.631L120.164 227.036L73.7857 136.918" stroke="#5E5E5E" stroke-width="0.852767" stroke-miterlimit="10"/>
<path d="M58.8253 175.865L120.163 227.036L161.242 174.088L215.4 219.04" stroke="#5E5E5E" stroke-width="0.852767" stroke-miterlimit="10"/>
<path d="M204.207 122.605L215.932 218.078C215.932 218.078 281.721 191.508 285.388 188.663L319.831 164.765" stroke="#5E5E5E" stroke-width="0.852767" stroke-miterlimit="10"/>
<path d="M254.235 128.009L286.067 187.412" stroke="#5E5E5E" stroke-width="0.852767" stroke-miterlimit="10"/>
<path d="M85.3408 262.038L141.046 250.391L166.709 186.662L220.611 189.983L239.831 138.495L307.006 148.819L351.553 108.37L335.523 42.8225L418.031 -7.84113" stroke="#5E5E5E" stroke-width="0.852767" stroke-miterlimit="10"/>
<path d="M377.115 31.844L382.143 -21.1736L422.174 13.875L376.132 33.6551L346.346 4.05975L380.576 -22.024" stroke="#5E5E5E" stroke-width="0.852767" stroke-miterlimit="10"/>
<path d="M417.192 13.159L349.93 4.56494" stroke="#5E5E5E" stroke-width="0.852767" stroke-miterlimit="10"/>
<path d="M376.561 35.287L370.095 72.0824L369.834 73.591L443.187 89.1695L446.439 89.8613L465.28 41.9202L420.132 14.7543L443.191 85.8497" stroke="#5E5E5E" stroke-width="0.852767" stroke-miterlimit="10"/>
<path d="M420.712 12.5983L372.745 74.2129" stroke="#5E5E5E" stroke-width="0.852767" stroke-miterlimit="10"/>
<path d="M286.688 89.7969L368.582 72.9121" stroke="#5E5E5E" stroke-width="0.852767" stroke-miterlimit="10"/>
<path d="M386.99 145.278L369.335 74.5087" stroke="#5E5E5E" stroke-width="0.852767" stroke-miterlimit="10"/>
<path d="M219.815 322.173L333.743 313.576L366.464 248.482L331.146 224.043L328.935 228.12L273.709 270.134L219.815 322.173Z" stroke="#5E5E5E" stroke-width="0.852767" stroke-miterlimit="10"/>
<path d="M197.291 265.455L219.153 320.469" stroke="#5E5E5E" stroke-width="0.852767" stroke-miterlimit="10"/>
<path d="M217.045 223.37L273.709 270.135L286.619 189.32L327.061 221.827" stroke="#5E5E5E" stroke-width="0.852767" stroke-miterlimit="10"/>
<path d="M329.915 219.938L318.376 158.688" stroke="#5E5E5E" stroke-width="0.852767" stroke-miterlimit="10"/>
<path d="M166.656 174.281L281.307 186.438" stroke="#5E5E5E" stroke-width="0.852767" stroke-miterlimit="10"/>
<path d="M351.552 108.37L409.48 103.826L441.024 170.095L494.796 199.27" stroke="#5E5E5E" stroke-width="0.852767" stroke-miterlimit="10"/>
<path d="M526.582 12.401C525.141 15.0567 487.769 57.5484 487.769 57.5484L494.976 102.971L441.023 170.095" stroke="#5E5E5E" stroke-width="0.852767" stroke-miterlimit="10"/>
<path d="M458.882 163.165L444.289 90.3557L384.711 146.07L319.827 164.753L253.751 128.902L285.653 91.7057L318.049 163.788" stroke="#5E5E5E" stroke-width="0.852767" stroke-miterlimit="10"/>
<path d="M462.967 165.381L414.001 226.412L384.711 146.07L454.797 160.948" stroke="#5E5E5E" stroke-width="0.852767" stroke-miterlimit="10"/>
<path d="M382.499 150.147L331.147 224.044L409.951 227.368L366.464 248.482L393.422 257.832" stroke="#5E5E5E" stroke-width="0.852767" stroke-miterlimit="10"/>
<path d="M394.583 258.735L364.466 206.401L337.114 246.603L289.229 244.495L290.516 292.246L239.628 288.699" stroke="#5E5E5E" stroke-width="0.852767" stroke-miterlimit="10"/>
<path d="M206.793 117.838C209.426 119.266 210.403 122.559 208.974 125.191C207.546 127.824 204.253 128.801 201.62 127.372C198.987 125.944 198.011 122.651 199.44 120.018C200.868 117.385 204.16 116.409 206.793 117.838Z" fill="#9D0058"/>
<path d="M288.129 87.1413C290.65 88.509 291.585 91.6612 290.217 94.182C288.85 96.7027 285.697 97.6375 283.177 96.2698C280.656 94.9022 279.721 91.75 281.089 89.2292C282.456 86.7084 285.609 85.7737 288.129 87.1413Z" fill="#9D0058"/>
<path d="M372.051 69.5057C374.307 70.7298 375.144 73.5511 373.92 75.8072C372.696 78.0633 369.874 78.9 367.618 77.6759C365.362 76.4518 364.526 73.6305 365.75 71.3744C366.974 69.1182 369.795 68.2816 372.051 69.5057Z" fill="#9D0058"/>
<path d="M386.927 141.985C389.183 143.209 390.02 146.03 388.796 148.286C387.572 150.542 384.75 151.379 382.494 150.155C380.238 148.931 379.401 146.11 380.626 143.853C381.85 141.597 384.671 140.761 386.927 141.985Z" fill="#9D0058"/>
<path d="M446.505 86.2703C448.761 87.4944 449.598 90.3157 448.374 92.5718C447.15 94.828 444.329 95.6646 442.072 94.4405C439.816 93.2164 438.98 90.3952 440.204 88.139C441.428 85.8829 444.249 85.0463 446.505 86.2703Z" fill="#9D0058"/>
<path d="M461.098 159.079C463.354 160.304 464.19 163.125 462.966 165.381C461.742 167.637 458.921 168.474 456.665 167.25C454.409 166.026 453.572 163.204 454.796 160.948C456.02 158.692 458.841 157.855 461.098 159.079Z" fill="#9D0058"/>
<path d="M466.542 37.9478C469.18 39.3787 470.158 42.6768 468.727 45.3142C467.296 47.9516 463.998 48.9296 461.36 47.4986C458.723 46.0677 457.745 42.7697 459.176 40.1323C460.607 37.4949 463.905 36.5169 466.542 37.9478Z" fill="#9D0058"/>
<path d="M423.1 8.19684C425.737 9.62778 426.715 12.9258 425.284 15.5632C423.853 18.2006 420.555 19.1786 417.918 17.7477C415.281 16.3167 414.303 13.0187 415.734 10.3813C417.164 7.74393 420.463 6.76591 423.1 8.19684Z" fill="#9D0058"/>
<path d="M349.54 -1.82754C352.178 -0.396606 353.156 2.90143 351.725 5.53882C350.294 8.17621 346.996 9.15421 344.358 7.72327C341.721 6.29233 340.743 2.99432 342.174 0.35693C343.605 -2.28046 346.903 -3.25848 349.54 -1.82754Z" fill="#9D0058"/>
<path d="M378.485 29.3194C380.88 30.619 381.769 33.6141 380.469 36.0093C379.17 38.4045 376.174 39.2927 373.779 37.9931C371.384 36.6936 370.496 33.6985 371.795 31.3033C373.095 28.9081 376.09 28.0199 378.485 29.3194Z" fill="#9D0058"/>
<path d="M337.209 39.7117C338.927 40.6438 339.564 42.792 338.632 44.5099C337.7 46.2278 335.552 46.8648 333.834 45.9327C332.116 45.0007 331.479 42.8525 332.411 41.1346C333.343 39.4167 335.492 38.7797 337.209 39.7117Z" fill="#9D0058"/>
<path d="M352.994 105.714C354.461 106.51 355.005 108.344 354.209 109.811C353.413 111.277 351.579 111.821 350.112 111.025C348.646 110.23 348.102 108.395 348.897 106.929C349.693 105.462 351.527 104.918 352.994 105.714Z" fill="#9D0058"/>
<path d="M410.921 101.17C412.388 101.966 412.932 103.8 412.136 105.267C411.34 106.734 409.506 107.278 408.039 106.482C406.573 105.686 406.029 103.852 406.825 102.385C407.62 100.919 409.455 100.375 410.921 101.17Z" fill="#9D0058"/>
<path d="M442.465 167.44C443.931 168.236 444.475 170.07 443.68 171.537C442.884 173.003 441.05 173.547 439.583 172.751C438.116 171.956 437.572 170.122 438.368 168.655C439.164 167.188 440.998 166.644 442.465 167.44Z" fill="#9D0058"/>
<path d="M364.743 202.83C366.209 203.625 366.753 205.46 365.957 206.926C365.162 208.393 363.327 208.937 361.861 208.141C360.394 207.345 359.85 205.511 360.646 204.044C361.442 202.578 363.276 202.034 364.743 202.83Z" fill="#9D0058"/>
<path d="M394.864 255.176C396.33 255.972 396.874 257.806 396.078 259.272C395.283 260.739 393.449 261.283 391.982 260.487C390.515 259.692 389.971 257.857 390.767 256.391C391.563 254.924 393.397 254.38 394.864 255.176Z" fill="#9D0058"/>
<path d="M340.046 244.473C341.513 245.268 342.057 247.103 341.261 248.569C340.465 250.036 338.631 250.58 337.164 249.784C335.698 248.988 335.154 247.154 335.95 245.688C336.745 244.221 338.58 243.677 340.046 244.473Z" fill="#9D0058"/>
<path d="M293.598 239.717C295.065 240.513 295.609 242.347 294.813 243.814C294.017 245.281 292.183 245.825 290.716 245.029C289.25 244.233 288.706 242.399 289.501 240.932C290.297 239.465 292.131 238.922 293.598 239.717Z" fill="#9D0058"/>
<path d="M292.008 292.772C293.474 293.567 294.018 295.401 293.223 296.868C292.427 298.335 290.593 298.879 289.126 298.083C287.659 297.287 287.115 295.453 287.911 293.986C288.707 292.52 290.541 291.976 292.008 292.772Z" fill="#9D0058"/>
<path d="M239.908 285.14C241.375 285.936 241.919 287.77 241.123 289.237C240.327 290.704 238.493 291.247 237.026 290.452C235.56 289.656 235.016 287.822 235.811 286.355C236.607 284.888 238.441 284.344 239.908 285.14Z" fill="#9D0058"/>
<path d="M308.446 146.163C309.913 146.959 310.457 148.793 309.661 150.26C308.865 151.726 307.031 152.27 305.564 151.475C304.098 150.679 303.554 148.845 304.35 147.378C305.145 145.911 306.979 145.367 308.446 146.163Z" fill="#9D0058"/>
<path d="M241.271 135.839C242.738 136.635 243.282 138.469 242.486 139.936C241.69 141.403 239.856 141.947 238.39 141.151C236.923 140.355 236.379 138.521 237.175 137.054C237.971 135.588 239.805 135.044 241.271 135.839Z" fill="#9D0058"/>
<path d="M222.051 187.328C223.517 188.123 224.061 189.958 223.265 191.424C222.47 192.891 220.636 193.435 219.169 192.639C217.702 191.843 217.158 190.009 217.954 188.543C218.75 187.076 220.584 186.532 222.051 187.328Z" fill="#9D0058"/>
<path d="M168.149 184.006C169.616 184.802 170.159 186.636 169.364 188.103C168.568 189.57 166.734 190.114 165.267 189.318C163.8 188.522 163.256 186.688 164.052 185.221C164.848 183.755 166.682 183.211 168.149 184.006Z" fill="#9D0058"/>
<path d="M142.487 247.736C143.953 248.532 144.497 250.366 143.702 251.832C142.906 253.299 141.072 253.843 139.605 253.047C138.138 252.252 137.594 250.417 138.39 248.951C139.186 247.484 141.02 246.94 142.487 247.736Z" fill="#9D0058"/>
<path d="M86.7821 259.383C88.2488 260.179 88.7927 262.013 87.9969 263.479C87.2012 264.946 85.3671 265.49 83.9003 264.694C82.4336 263.899 81.8897 262.064 82.6855 260.598C83.4813 259.131 85.3154 258.587 86.7821 259.383Z" fill="#9D0058"/>
<path d="M163.829 169.32C166.462 170.749 167.438 174.041 166.01 176.674C164.581 179.307 161.289 180.284 158.656 178.855C156.023 177.427 155.047 174.134 156.475 171.501C157.904 168.868 161.196 167.892 163.829 169.32Z" fill="#9D0058"/>
<path d="M61.412 171.097C64.045 172.526 65.0213 175.818 63.5928 178.451C62.1643 181.084 58.8719 182.06 56.239 180.632C53.6061 179.203 52.6297 175.911 54.0582 173.278C55.4867 170.645 58.7791 169.669 61.412 171.097Z" fill="#9D0058"/>
<path d="M122.749 222.268C125.382 223.696 126.359 226.989 124.93 229.622C123.502 232.255 120.209 233.231 117.576 231.802C114.943 230.374 113.967 227.081 115.396 224.449C116.824 221.816 120.117 220.839 122.749 222.268Z" fill="#9D0058"/>
<path d="M131.661 268.175C134.293 269.603 135.27 272.895 133.841 275.528C132.413 278.161 129.12 279.138 126.488 277.709C123.855 276.281 122.878 272.988 124.307 270.355C125.735 267.722 129.028 266.746 131.661 268.175Z" fill="#9D0058"/>
<path d="M86.6276 238.895C88.6909 240.014 89.456 242.595 88.3366 244.658C87.2171 246.721 84.637 247.486 82.5738 246.367C80.5105 245.247 79.7454 242.667 80.8648 240.604C81.9843 238.541 84.5644 237.776 86.6276 238.895Z" fill="#9D0058"/>
<path d="M16.4723 231.16C18.5356 232.279 19.3007 234.859 18.1813 236.922C17.0618 238.986 14.4818 239.751 12.4185 238.631C10.3552 237.512 9.5901 234.932 10.7095 232.869C11.829 230.805 14.4091 230.04 16.4723 231.16Z" fill="#9D0058"/>
<path d="M2.55145 183.618C4.61471 184.738 5.37983 187.318 4.26038 189.381C3.14094 191.444 0.560852 192.209 -1.50241 191.09C-3.56568 189.97 -4.3308 187.39 -3.21135 185.327C-2.09191 183.264 0.488182 182.499 2.55145 183.618Z" fill="#9D0058"/>
<path d="M76.296 134.17C78.4893 135.36 79.3026 138.103 78.1126 140.297C76.9226 142.49 74.1799 143.303 71.9865 142.113C69.7932 140.923 68.9798 138.18 70.1698 135.987C71.3599 133.794 74.1026 132.98 76.296 134.17Z" fill="#9D0058"/>
<path d="M255.962 124.825C258.214 126.047 259.049 128.862 257.827 131.114C256.606 133.366 253.79 134.201 251.538 132.979C249.287 131.757 248.452 128.942 249.673 126.69C250.895 124.438 253.711 123.603 255.962 124.825Z" fill="#9D0058"/>
<path d="M287.604 184.578C289.856 185.799 290.691 188.615 289.469 190.867C288.248 193.118 285.432 193.953 283.181 192.732C280.929 191.51 280.094 188.694 281.316 186.443C282.537 184.191 285.353 183.356 287.604 184.578Z" fill="#9D0058"/>
<path d="M275.922 266.058C278.174 267.279 279.009 270.095 277.787 272.347C276.566 274.598 273.75 275.433 271.498 274.212C269.247 272.99 268.412 270.174 269.633 267.923C270.855 265.671 273.671 264.836 275.922 266.058Z" fill="#9D0058"/>
<path d="M335.956 309.499C338.207 310.721 339.042 313.536 337.821 315.788C336.599 318.04 333.783 318.875 331.532 317.653C329.28 316.431 328.445 313.616 329.667 311.364C330.888 309.112 333.704 308.277 335.956 309.499Z" fill="#9D0058"/>
<path d="M333.358 219.966C335.61 221.188 336.445 224.004 335.223 226.255C334.002 228.507 331.186 229.342 328.934 228.12C326.683 226.899 325.848 224.083 327.069 221.831C328.291 219.58 331.107 218.745 333.358 219.966Z" fill="#9D0058"/>
<path d="M416.213 222.335C418.465 223.557 419.299 226.372 418.078 228.624C416.856 230.876 414.041 231.71 411.789 230.489C409.537 229.267 408.702 226.452 409.924 224.2C411.146 221.948 413.961 221.113 416.213 222.335Z" fill="#9D0058"/>
<path d="M320.547 159.183C322.799 160.404 323.634 163.22 322.412 165.472C321.191 167.723 318.375 168.558 316.123 167.337C313.872 166.115 313.037 163.299 314.258 161.048C315.48 158.796 318.296 157.961 320.547 159.183Z" fill="#9D0058"/>
<path d="M217.612 214.963C219.863 216.184 220.698 219 219.477 221.252C218.255 223.503 215.439 224.338 213.188 223.117C210.936 221.895 210.101 219.079 211.323 216.828C212.544 214.576 215.36 213.741 217.612 214.963Z" fill="#9D0058"/>
<path d="M199.503 261.378C201.755 262.6 202.59 265.416 201.368 267.667C200.147 269.919 197.331 270.754 195.079 269.532C192.828 268.311 191.993 265.495 193.214 263.243C194.436 260.992 197.252 260.157 199.503 261.378Z" fill="#9D0058"/>
<path d="M222.027 318.097C224.279 319.318 225.113 322.134 223.892 324.386C222.67 326.637 219.855 327.472 217.603 326.251C215.351 325.029 214.516 322.213 215.738 319.962C216.96 317.71 219.775 316.875 222.027 318.097Z" fill="#9D0058"/>
<rect width="486" height="322" fill="black" fill-opacity="0.1"/>
<rect x="8" y="96" width="464" height="137.164" fill="url(#paint0_radial_3029_6656)" fill-opacity="0.47"/>
<g filter="url(#filter0_dd_3029_6656)">
<mask id="mask0_3029_6656" style="mask-type:alpha" maskUnits="userSpaceOnUse" x="45" y="117" width="65" height="68">
<path d="M65.561 121.181C60.6404 123.445 53.9625 125.884 50.7993 126.581L45 127.8L46.2301 138.6C46.9331 145.045 49.3934 153.406 52.5566 159.851C58.3559 171.522 71.536 184.935 77.1596 184.935C82.7831 184.935 95.9632 171.522 101.763 159.851C104.926 153.406 107.386 145.045 108.089 138.6L109.319 127.8L103.52 126.581C100.357 125.884 93.6787 123.445 88.7581 121.181C83.8375 118.916 78.5654 117 77.1596 117C75.7537 117 70.4816 118.916 65.561 121.181ZM88.5824 124.664C94.3816 126.929 100.532 129.368 102.465 129.89C105.277 130.761 105.629 132.155 104.574 138.426C102.114 153.58 97.8963 162.638 88.7581 172.219C83.6618 177.27 78.5654 181.451 77.1596 181.451C75.7537 181.451 70.6574 177.27 65.561 172.219C56.4228 162.638 52.2051 153.58 49.7449 138.426C48.6904 132.155 49.0419 130.761 51.8537 129.89C53.7868 129.368 59.586 127.103 64.8581 124.839C77.1596 119.787 76.1052 119.787 88.5824 124.664Z" fill="white"/>
<path d="M66.2322 123.464C61.6586 125.568 55.4516 127.833 52.5114 128.481L47.1211 129.613L48.2645 139.647C48.9179 145.635 51.2047 153.404 54.1448 159.392C59.5351 170.235 71.7858 182.696 77.0128 182.696C82.2397 182.696 94.4904 170.235 99.8807 159.392C102.821 153.404 105.108 145.635 105.761 139.647L106.904 129.613L101.514 128.481C98.574 127.833 92.367 125.568 87.7934 123.464C83.2198 121.36 78.3195 119.58 77.0128 119.58C75.706 119.58 70.8058 121.36 66.2322 123.464ZM87.63 126.7C93.0203 128.804 98.7373 131.07 100.534 131.556C103.148 132.365 103.474 133.659 102.494 139.486C100.207 153.565 96.2872 161.981 87.7934 170.882C83.0565 175.575 78.3195 179.46 77.0128 179.46C75.706 179.46 70.9691 175.575 66.2322 170.882C57.7384 161.981 53.8181 153.565 51.5313 139.486C50.5513 133.659 50.878 132.365 53.4915 131.556C55.2882 131.07 60.6785 128.966 65.5788 126.862C77.0128 122.169 76.0327 122.169 87.63 126.7Z" fill="white"/>
<path d="M74.1405 138.048C71.3412 139.712 71.2246 143.77 71.5162 145.591H74.6651C74.4902 143.799 74.8053 140.233 77.4643 140.302C80.1234 140.371 80.5551 143.857 80.4385 145.591H83.2378C84.0076 141.221 82.0423 138.741 80.9634 138.048C79.8555 137.354 76.9398 136.383 74.1405 138.048Z" fill="white"/>
<path fill-rule="evenodd" clip-rule="evenodd" d="M69.6582 146.903C69.6582 146.006 70.3852 145.279 71.2821 145.279H83.4303C84.3271 145.279 85.0542 146.006 85.0542 146.903V156.314C85.0542 157.211 84.3271 157.938 83.4303 157.938H71.2821C70.3852 157.938 69.6582 157.211 69.6582 156.314V146.903ZM78.4076 152.084C78.8311 151.786 79.1073 151.295 79.1073 150.741C79.1073 149.831 78.3632 149.094 77.4453 149.094C76.5273 149.094 75.7832 149.831 75.7832 150.741C75.7832 151.369 76.1372 151.914 76.6581 152.192V154.816H78.4076V152.084Z" fill="white"/>
</mask>
<g mask="url(#mask0_3029_6656)">
<rect x="20.7646" y="163.158" width="109.239" height="32.1929" transform="rotate(-29.4772 20.7646 163.158)" fill="#C0006C"/>
</g>
<g opacity="0.19">
<path d="M65.561 121.181C60.6404 123.445 53.9625 125.884 50.7993 126.581L45 127.8L46.2301 138.6C46.9331 145.045 49.3934 153.406 52.5566 159.851C58.3559 171.522 71.536 184.935 77.1596 184.935C82.7831 184.935 95.9632 171.522 101.763 159.851C104.926 153.406 107.386 145.045 108.089 138.6L109.319 127.8L103.52 126.581C100.357 125.884 93.6787 123.445 88.7581 121.181C83.8375 118.916 78.5654 117 77.1596 117C75.7537 117 70.4816 118.916 65.561 121.181ZM88.5824 124.664C94.3816 126.929 100.532 129.368 102.465 129.89C105.277 130.761 105.629 132.155 104.574 138.426C102.114 153.58 97.8963 162.638 88.7581 172.219C83.6618 177.27 78.5654 181.451 77.1596 181.451C75.7537 181.451 70.6574 177.27 65.561 172.219C56.4228 162.638 52.2051 153.58 49.7449 138.426C48.6904 132.155 49.0419 130.761 51.8537 129.89C53.7868 129.368 59.586 127.103 64.8581 124.839C77.1596 119.787 76.1052 119.787 88.5824 124.664Z" fill="white"/>
<path d="M66.2322 123.464C61.6586 125.568 55.4516 127.833 52.5114 128.481L47.1211 129.613L48.2645 139.647C48.9179 145.635 51.2047 153.404 54.1448 159.392C59.5351 170.235 71.7858 182.696 77.0128 182.696C82.2397 182.696 94.4904 170.235 99.8807 159.392C102.821 153.404 105.108 145.635 105.761 139.647L106.904 129.613L101.514 128.481C98.574 127.833 92.367 125.568 87.7934 123.464C83.2198 121.36 78.3195 119.58 77.0128 119.58C75.706 119.58 70.8058 121.36 66.2322 123.464ZM87.63 126.7C93.0203 128.804 98.7373 131.07 100.534 131.556C103.148 132.365 103.474 133.659 102.494 139.486C100.207 153.565 96.2872 161.981 87.7934 170.882C83.0565 175.575 78.3195 179.46 77.0128 179.46C75.706 179.46 70.9691 175.575 66.2322 170.882C57.7384 161.981 53.8181 153.565 51.5313 139.486C50.5513 133.659 50.878 132.365 53.4915 131.556C55.2882 131.07 60.6785 128.966 65.5788 126.862C77.0128 122.169 76.0327 122.169 87.63 126.7Z" fill="white"/>
<path d="M74.1405 138.048C71.3412 139.712 71.2246 143.77 71.5162 145.591H74.6651C74.4902 143.799 74.8053 140.233 77.4643 140.302C80.1234 140.371 80.5551 143.857 80.4385 145.591H83.2378C84.0076 141.221 82.0423 138.741 80.9634 138.048C79.8555 137.354 76.9398 136.383 74.1405 138.048Z" fill="white"/>
<path fill-rule="evenodd" clip-rule="evenodd" d="M69.6582 146.903C69.6582 146.006 70.3852 145.279 71.2821 145.279H83.4303C84.3271 145.279 85.0542 146.006 85.0542 146.903V156.314C85.0542 157.211 84.3271 157.938 83.4303 157.938H71.2821C70.3852 157.938 69.6582 157.211 69.6582 156.314V146.903ZM78.4076 152.085C78.8311 151.786 79.1073 151.296 79.1073 150.741C79.1073 149.831 78.3632 149.094 77.4453 149.094C76.5273 149.094 75.7832 149.831 75.7832 150.741C75.7832 151.369 76.1372 151.914 76.6581 152.192V154.816H78.4076V152.085Z" fill="white"/>
</g>
</g>
<path d="M157.744 139V122.674H161.522V139H157.744ZM165.397 139V122.674H168.522L178.154 134.429H176.638V122.674H180.37V139H177.268L167.612 127.245H169.128V139H165.397ZM187.614 139V125.753H182.39V122.674H196.616V125.753H191.392V139H187.614ZM198.649 139V122.674H205.716C207.177 122.674 208.437 122.915 209.494 123.397C210.551 123.864 211.368 124.54 211.943 125.426C212.518 126.313 212.806 127.37 212.806 128.598C212.806 129.811 212.518 130.86 211.943 131.747C211.368 132.617 210.551 133.286 209.494 133.752C208.437 134.219 207.177 134.452 205.716 134.452H200.748L202.427 132.796V139H198.649ZM209.028 139L204.946 133.076H208.981L213.109 139H209.028ZM202.427 133.216L200.748 131.444H205.506C206.672 131.444 207.543 131.195 208.118 130.697C208.693 130.184 208.981 129.484 208.981 128.598C208.981 127.696 208.693 126.997 208.118 126.499C207.543 126.002 206.672 125.753 205.506 125.753H200.748L202.427 123.957V133.216ZM223.729 139.28C222.439 139.28 221.241 139.07 220.137 138.65C219.049 138.23 218.101 137.64 217.292 136.878C216.499 136.116 215.877 135.222 215.426 134.196C214.991 133.169 214.773 132.05 214.773 130.837C214.773 129.624 214.991 128.505 215.426 127.479C215.877 126.453 216.507 125.559 217.315 124.797C218.124 124.035 219.072 123.444 220.161 123.024C221.249 122.604 222.431 122.394 223.706 122.394C224.996 122.394 226.178 122.604 227.251 123.024C228.339 123.444 229.28 124.035 230.073 124.797C230.881 125.559 231.511 126.453 231.962 127.479C232.413 128.489 232.638 129.609 232.638 130.837C232.638 132.05 232.413 133.177 231.962 134.219C231.511 135.245 230.881 136.139 230.073 136.901C229.28 137.647 228.339 138.23 227.251 138.65C226.178 139.07 225.004 139.28 223.729 139.28ZM223.706 136.061C224.436 136.061 225.105 135.937 225.711 135.688C226.333 135.439 226.878 135.082 227.344 134.615C227.81 134.149 228.168 133.597 228.417 132.959C228.681 132.322 228.813 131.615 228.813 130.837C228.813 130.06 228.681 129.352 228.417 128.715C228.168 128.077 227.81 127.525 227.344 127.059C226.893 126.592 226.357 126.235 225.735 125.986C225.113 125.737 224.436 125.613 223.706 125.613C222.975 125.613 222.299 125.737 221.677 125.986C221.07 126.235 220.534 126.592 220.067 127.059C219.601 127.525 219.236 128.077 218.971 128.715C218.722 129.352 218.598 130.06 218.598 130.837C218.598 131.599 218.722 132.306 218.971 132.959C219.236 133.597 219.593 134.149 220.044 134.615C220.511 135.082 221.055 135.439 221.677 135.688C222.299 135.937 222.975 136.061 223.706 136.061ZM235.478 139V122.674H242.894C244.667 122.674 246.229 123.016 247.582 123.7C248.935 124.369 249.992 125.31 250.754 126.522C251.516 127.735 251.897 129.173 251.897 130.837C251.897 132.485 251.516 133.923 250.754 135.152C249.992 136.365 248.935 137.313 247.582 137.997C246.229 138.666 244.667 139 242.894 139H235.478ZM239.256 135.898H242.708C243.796 135.898 244.737 135.696 245.53 135.292C246.338 134.872 246.96 134.281 247.395 133.519C247.846 132.757 248.072 131.863 248.072 130.837C248.072 129.795 247.846 128.901 247.395 128.155C246.96 127.393 246.338 126.81 245.53 126.406C244.737 125.986 243.796 125.776 242.708 125.776H239.256V135.898ZM261.999 139.28C259.683 139.28 257.871 138.635 256.565 137.344C255.259 136.054 254.606 134.211 254.606 131.817V122.674H258.384V131.677C258.384 133.232 258.703 134.351 259.341 135.035C259.978 135.719 260.872 136.061 262.023 136.061C263.173 136.061 264.067 135.719 264.705 135.035C265.342 134.351 265.661 133.232 265.661 131.677V122.674H269.393V131.817C269.393 134.211 268.74 136.054 267.433 137.344C266.127 138.635 264.316 139.28 261.999 139.28ZM280.939 139.28C279.68 139.28 278.506 139.078 277.417 138.673C276.345 138.254 275.412 137.663 274.619 136.901C273.826 136.139 273.204 135.245 272.753 134.219C272.318 133.193 272.1 132.065 272.1 130.837C272.1 129.609 272.318 128.482 272.753 127.455C273.204 126.429 273.826 125.535 274.619 124.773C275.427 124.011 276.368 123.428 277.441 123.024C278.514 122.604 279.688 122.394 280.963 122.394C282.377 122.394 283.652 122.643 284.787 123.141C285.938 123.623 286.902 124.338 287.679 125.286L285.254 127.525C284.694 126.888 284.072 126.414 283.388 126.103C282.704 125.776 281.958 125.613 281.149 125.613C280.387 125.613 279.688 125.737 279.05 125.986C278.413 126.235 277.861 126.592 277.394 127.059C276.928 127.525 276.562 128.077 276.298 128.715C276.049 129.352 275.925 130.06 275.925 130.837C275.925 131.615 276.049 132.322 276.298 132.959C276.562 133.597 276.928 134.149 277.394 134.615C277.861 135.082 278.413 135.439 279.05 135.688C279.688 135.937 280.387 136.061 281.149 136.061C281.958 136.061 282.704 135.906 283.388 135.595C284.072 135.268 284.694 134.779 285.254 134.126L287.679 136.365C286.902 137.313 285.938 138.036 284.787 138.534C283.652 139.031 282.37 139.28 280.939 139.28ZM293.453 139V125.753H288.229V122.674H302.456V125.753H297.231V139H293.453ZM304.488 139V122.674H308.267V139H304.488ZM320.071 139.28C318.78 139.28 317.583 139.07 316.479 138.65C315.391 138.23 314.442 137.64 313.634 136.878C312.841 136.116 312.219 135.222 311.768 134.196C311.333 133.169 311.115 132.05 311.115 130.837C311.115 129.624 311.333 128.505 311.768 127.479C312.219 126.453 312.849 125.559 313.657 124.797C314.466 124.035 315.414 123.444 316.502 123.024C317.591 122.604 318.772 122.394 320.047 122.394C321.338 122.394 322.52 122.604 323.592 123.024C324.681 123.444 325.621 124.035 326.414 124.797C327.223 125.559 327.853 126.453 328.304 127.479C328.754 128.489 328.98 129.609 328.98 130.837C328.98 132.05 328.754 133.177 328.304 134.219C327.853 135.245 327.223 136.139 326.414 136.901C325.621 137.647 324.681 138.23 323.592 138.65C322.52 139.07 321.346 139.28 320.071 139.28ZM320.047 136.061C320.778 136.061 321.447 135.937 322.053 135.688C322.675 135.439 323.219 135.082 323.686 134.615C324.152 134.149 324.51 133.597 324.759 132.959C325.023 132.322 325.155 131.615 325.155 130.837C325.155 130.06 325.023 129.352 324.759 128.715C324.51 128.077 324.152 127.525 323.686 127.059C323.235 126.592 322.698 126.235 322.076 125.986C321.455 125.737 320.778 125.613 320.047 125.613C319.317 125.613 318.64 125.737 318.018 125.986C317.412 126.235 316.876 126.592 316.409 127.059C315.943 127.525 315.577 128.077 315.313 128.715C315.064 129.352 314.94 130.06 314.94 130.837C314.94 131.599 315.064 132.306 315.313 132.959C315.577 133.597 315.935 134.149 316.386 134.615C316.852 135.082 317.396 135.439 318.018 135.688C318.64 135.937 319.317 136.061 320.047 136.061ZM331.819 139V122.674H334.945L344.577 134.429H343.061V122.674H346.792V139H343.691L334.035 127.245H335.551V139H331.819ZM360.642 139V125.753H355.418V122.674H369.644V125.753H364.42V139H360.642ZM379.379 139.28C378.088 139.28 376.891 139.07 375.787 138.65C374.699 138.23 373.75 137.64 372.942 136.878C372.149 136.116 371.527 135.222 371.076 134.196C370.641 133.169 370.423 132.05 370.423 130.837C370.423 129.624 370.641 128.505 371.076 127.479C371.527 126.453 372.157 125.559 372.965 124.797C373.774 124.035 374.722 123.444 375.811 123.024C376.899 122.604 378.081 122.394 379.356 122.394C380.646 122.394 381.828 122.604 382.901 123.024C383.989 123.444 384.93 124.035 385.723 124.797C386.531 125.559 387.161 126.453 387.612 127.479C388.063 128.489 388.288 129.609 388.288 130.837C388.288 132.05 388.063 133.177 387.612 134.219C387.161 135.245 386.531 136.139 385.723 136.901C384.93 137.647 383.989 138.23 382.901 138.65C381.828 139.07 380.654 139.28 379.379 139.28ZM379.356 136.061C380.086 136.061 380.755 135.937 381.361 135.688C381.983 135.439 382.528 135.082 382.994 134.615C383.46 134.149 383.818 133.597 384.067 132.959C384.331 132.322 384.463 131.615 384.463 130.837C384.463 130.06 384.331 129.352 384.067 128.715C383.818 128.077 383.46 127.525 382.994 127.059C382.543 126.592 382.007 126.235 381.385 125.986C380.763 125.737 380.086 125.613 379.356 125.613C378.625 125.613 377.949 125.737 377.327 125.986C376.72 126.235 376.184 126.592 375.717 127.059C375.251 127.525 374.886 128.077 374.621 128.715C374.372 129.352 374.248 130.06 374.248 130.837C374.248 131.599 374.372 132.306 374.621 132.959C374.886 133.597 375.243 134.149 375.694 134.615C376.16 135.082 376.705 135.439 377.327 135.688C377.949 135.937 378.625 136.061 379.356 136.061ZM132.355 182.426C130.44 182.426 128.654 182.118 126.999 181.503C125.367 180.865 123.949 179.966 122.743 178.808C121.537 177.649 120.591 176.289 119.905 174.729C119.243 173.168 118.912 171.454 118.912 169.586C118.912 167.718 119.243 166.003 119.905 164.443C120.591 162.882 121.537 161.522 122.743 160.364C123.972 159.205 125.403 158.318 127.034 157.703C128.666 157.065 130.451 156.746 132.39 156.746C134.542 156.746 136.481 157.124 138.207 157.881C139.957 158.614 141.423 159.701 142.606 161.144L138.917 164.549C138.065 163.579 137.12 162.858 136.079 162.385C135.039 161.889 133.904 161.64 132.674 161.64C131.515 161.64 130.451 161.83 129.482 162.208C128.512 162.586 127.673 163.13 126.963 163.84C126.254 164.549 125.698 165.388 125.296 166.358C124.918 167.327 124.729 168.403 124.729 169.586C124.729 170.768 124.918 171.844 125.296 172.813C125.698 173.783 126.254 174.622 126.963 175.332C127.673 176.041 128.512 176.585 129.482 176.963C130.451 177.342 131.515 177.531 132.674 177.531C133.904 177.531 135.039 177.294 136.079 176.821C137.12 176.325 138.065 175.58 138.917 174.587L142.606 177.992C141.423 179.434 139.957 180.534 138.207 181.291C136.481 182.047 134.53 182.426 132.355 182.426ZM152.45 182V171.856L153.762 175.332L142.837 157.171H148.938L157.309 171.111H153.798L162.204 157.171H167.844L156.919 175.332L158.196 171.856V182H152.45ZM170.04 182V157.171H182.17C185.292 157.171 187.633 157.762 189.193 158.945C190.778 160.127 191.57 161.688 191.57 163.627C191.57 164.927 191.251 166.062 190.612 167.032C189.974 167.978 189.099 168.711 187.987 169.231C186.876 169.751 185.599 170.011 184.157 170.011L184.831 168.557C186.391 168.557 187.775 168.817 188.981 169.337C190.187 169.834 191.121 170.579 191.783 171.572C192.468 172.565 192.811 173.783 192.811 175.225C192.811 177.353 191.972 179.021 190.293 180.227C188.614 181.409 186.143 182 182.88 182H170.04ZM175.75 177.673H182.454C183.944 177.673 185.067 177.436 185.824 176.963C186.604 176.467 186.994 175.686 186.994 174.622C186.994 173.582 186.604 172.813 185.824 172.317C185.067 171.797 183.944 171.536 182.454 171.536H175.325V167.351H181.461C182.856 167.351 183.92 167.115 184.653 166.642C185.41 166.145 185.788 165.4 185.788 164.407C185.788 163.438 185.41 162.716 184.653 162.243C183.92 161.747 182.856 161.499 181.461 161.499H175.75V177.673ZM202.447 167.174H214.4V171.643H202.447V167.174ZM202.872 177.389H216.386V182H197.162V157.171H215.925V161.782H202.872V177.389ZM220.958 182V157.171H231.705C233.928 157.171 235.843 157.538 237.451 158.271C239.059 158.98 240.301 160.009 241.176 161.357C242.051 162.705 242.488 164.313 242.488 166.181C242.488 168.025 242.051 169.621 241.176 170.969C240.301 172.293 239.059 173.31 237.451 174.019C235.843 174.729 233.928 175.083 231.705 175.083H224.15L226.704 172.565V182H220.958ZM236.742 182L230.535 172.991H236.671L242.949 182H236.742ZM226.704 173.204L224.15 170.508H231.386C233.16 170.508 234.484 170.13 235.359 169.373C236.234 168.593 236.671 167.528 236.671 166.181C236.671 164.809 236.234 163.745 235.359 162.988C234.484 162.232 233.16 161.853 231.386 161.853H224.15L226.704 159.122V173.204ZM255.199 182.426C253.212 182.426 251.309 182.166 249.488 181.645C247.667 181.101 246.201 180.404 245.09 179.553L247.041 175.225C248.105 175.982 249.358 176.609 250.8 177.105C252.266 177.578 253.744 177.815 255.234 177.815C256.369 177.815 257.279 177.708 257.965 177.495C258.675 177.259 259.195 176.94 259.526 176.538C259.857 176.136 260.022 175.675 260.022 175.154C260.022 174.492 259.762 173.972 259.242 173.594C258.722 173.192 258.036 172.873 257.185 172.636C256.334 172.376 255.388 172.139 254.347 171.927C253.331 171.69 252.302 171.406 251.261 171.075C250.245 170.744 249.311 170.319 248.459 169.798C247.608 169.278 246.911 168.593 246.367 167.741C245.846 166.89 245.586 165.802 245.586 164.478C245.586 163.059 245.965 161.771 246.721 160.612C247.502 159.43 248.66 158.496 250.197 157.81C251.758 157.1 253.709 156.746 256.05 156.746C257.611 156.746 259.148 156.935 260.661 157.313C262.174 157.668 263.51 158.212 264.669 158.945L262.896 163.308C261.737 162.645 260.578 162.161 259.419 161.853C258.261 161.522 257.126 161.357 256.014 161.357C254.903 161.357 253.993 161.487 253.283 161.747C252.574 162.007 252.065 162.35 251.758 162.776C251.451 163.177 251.297 163.65 251.297 164.194C251.297 164.833 251.557 165.353 252.077 165.755C252.598 166.133 253.283 166.441 254.135 166.677C254.986 166.914 255.92 167.15 256.937 167.387C257.977 167.623 259.006 167.895 260.022 168.202C261.063 168.51 262.009 168.924 262.86 169.444C263.711 169.964 264.397 170.65 264.917 171.501C265.461 172.352 265.733 173.428 265.733 174.729C265.733 176.124 265.343 177.401 264.563 178.559C263.782 179.718 262.612 180.652 261.051 181.362C259.514 182.071 257.563 182.426 255.199 182.426ZM274.944 167.174H286.898V171.643H274.944V167.174ZM275.37 177.389H288.884V182H269.659V157.171H288.423V161.782H275.37V177.389ZM305.338 182.426C303.423 182.426 301.637 182.118 299.982 181.503C298.351 180.865 296.932 179.966 295.726 178.808C294.52 177.649 293.574 176.289 292.888 174.729C292.226 173.168 291.895 171.454 291.895 169.586C291.895 167.718 292.226 166.003 292.888 164.443C293.574 162.882 294.52 161.522 295.726 160.364C296.956 159.205 298.386 158.318 300.018 157.703C301.649 157.065 303.435 156.746 305.374 156.746C307.525 156.746 309.464 157.124 311.191 157.881C312.94 158.614 314.407 159.701 315.589 161.144L311.9 164.549C311.049 163.579 310.103 162.858 309.062 162.385C308.022 161.889 306.887 161.64 305.657 161.64C304.499 161.64 303.435 161.83 302.465 162.208C301.496 162.586 300.656 163.13 299.947 163.84C299.237 164.549 298.682 165.388 298.28 166.358C297.901 167.327 297.712 168.403 297.712 169.586C297.712 170.768 297.901 171.844 298.28 172.813C298.682 173.783 299.237 174.622 299.947 175.332C300.656 176.041 301.496 176.585 302.465 176.963C303.435 177.342 304.499 177.531 305.657 177.531C306.887 177.531 308.022 177.294 309.062 176.821C310.103 176.325 311.049 175.58 311.9 174.587L315.589 177.992C314.407 179.434 312.94 180.534 311.191 181.291C309.464 182.047 307.514 182.426 305.338 182.426ZM330.362 182.426C326.838 182.426 324.084 181.444 322.097 179.482C320.111 177.519 319.118 174.717 319.118 171.075V157.171H324.864V170.863C324.864 173.227 325.349 174.93 326.318 175.97C327.288 177.011 328.647 177.531 330.397 177.531C332.147 177.531 333.507 177.011 334.476 175.97C335.446 174.93 335.93 173.227 335.93 170.863V157.171H341.605V171.075C341.605 174.717 340.612 177.519 338.626 179.482C336.64 181.444 333.885 182.426 330.362 182.426ZM347.284 182V157.171H358.031C360.254 157.171 362.169 157.538 363.777 158.271C365.385 158.98 366.626 160.009 367.501 161.357C368.376 162.705 368.814 164.313 368.814 166.181C368.814 168.025 368.376 169.621 367.501 170.969C366.626 172.293 365.385 173.31 363.777 174.019C362.169 174.729 360.254 175.083 358.031 175.083H350.476L353.03 172.565V182H347.284ZM363.068 182L356.86 172.991H362.997L369.275 182H363.068ZM353.03 173.204L350.476 170.508H357.712C359.485 170.508 360.809 170.13 361.684 169.373C362.559 168.593 362.997 167.528 362.997 166.181C362.997 164.809 362.559 163.745 361.684 162.988C360.809 162.232 359.485 161.853 357.712 161.853H350.476L353.03 159.122V173.204ZM373.366 182V157.171H379.112V182H373.366ZM390.148 182V161.853H382.203V157.171H403.839V161.853H395.894V182H390.148ZM412.617 182V171.856L413.93 175.332L403.005 157.171H409.106L417.477 171.111H413.965L422.372 157.171H428.011L417.087 175.332L418.364 171.856V182H412.617Z" fill="white"/>
</g>
<defs>
<filter id="filter0_dd_3029_6656" x="41.3246" y="114.243" width="71.6701" height="78.0419" filterUnits="userSpaceOnUse" color-interpolation-filters="sRGB">
<feFlood flood-opacity="0" result="BackgroundImageFix"/>
<feColorMatrix in="SourceAlpha" type="matrix" values="0 0 0 0 0 0 0 0 0 0 0 0 0 0 0 0 0 0 127 0" result="hardAlpha"/>
<feOffset dy="0.918847"/>
<feGaussianBlur stdDeviation="1.83769"/>
<feComposite in2="hardAlpha" operator="out"/>
<feColorMatrix type="matrix" values="0 0 0 0 0.9875 0 0 0 0 0.9875 0 0 0 0 0.9875 0 0 0 0.5 0"/>
<feBlend mode="normal" in2="BackgroundImageFix" result="effect1_dropShadow_3029_6656"/>
<feColorMatrix in="SourceAlpha" type="matrix" values="0 0 0 0 0 0 0 0 0 0 0 0 0 0 0 0 0 0 127 0" result="hardAlpha"/>
<feOffset dy="3.67539"/>
<feGaussianBlur stdDeviation="1.83769"/>
<feComposite in2="hardAlpha" operator="out"/>
<feColorMatrix type="matrix" values="0 0 0 0 0 0 0 0 0 0 0 0 0 0 0 0 0 0 0.25 0"/>
<feBlend mode="normal" in2="effect1_dropShadow_3029_6656" result="effect2_dropShadow_3029_6656"/>
<feBlend mode="normal" in="SourceGraphic" in2="effect2_dropShadow_3029_6656" result="shape"/>
</filter>
<radialGradient id="paint0_radial_3029_6656" cx="0" cy="0" r="1" gradientUnits="userSpaceOnUse" gradientTransform="translate(240 164.582) rotate(90) scale(68.582 232)">
<stop/>
<stop offset="1" stop-opacity="0"/>
</radialGradient>
<clipPath id="clip0_3029_6656">
<rect width="480" height="320" fill="white"/>
</clipPath>
</defs>
</svg>
