<svg width="480" height="320" viewBox="0 0 480 320" fill="none" xmlns="http://www.w3.org/2000/svg">
<g clip-path="url(#clip0_3029_7111)">
<rect width="480" height="320" fill="#141414"/>
<path d="M140.131 102V87.8633H143.402V102H140.131ZM146.757 102V87.8633H149.463L157.804 98.0417H156.491V87.8633H159.723V102H157.037L148.676 91.8216H149.988V102H146.757ZM165.996 102V90.5291H161.472V87.8633H173.791V90.5291H169.267V102H165.996ZM175.551 102V87.8633H181.67C182.936 87.8633 184.027 88.072 184.942 88.4893C185.858 88.8932 186.564 89.4789 187.063 90.2463C187.561 91.0137 187.81 91.9293 187.81 92.9929C187.81 94.043 187.561 94.9518 187.063 95.7193C186.564 96.4732 185.858 97.0521 184.942 97.4561C184.027 97.86 182.936 98.0619 181.67 98.0619H177.369L178.823 96.628V102H175.551ZM184.538 102L181.004 96.8704H184.498L188.072 102H184.538ZM178.823 96.9916L177.369 95.4567H181.489C182.498 95.4567 183.252 95.2413 183.751 94.8105C184.249 94.3662 184.498 93.7603 184.498 92.9929C184.498 92.212 184.249 91.6061 183.751 91.1753C183.252 90.7445 182.498 90.5291 181.489 90.5291H177.369L178.823 88.974V96.9916ZM197.268 102.242C196.151 102.242 195.114 102.061 194.158 101.697C193.216 101.334 192.395 100.822 191.694 100.162C191.008 99.5025 190.469 98.7284 190.079 97.8398C189.702 96.9512 189.513 95.9818 189.513 94.9316C189.513 93.8815 189.702 92.9121 190.079 92.0235C190.469 91.1349 191.015 90.3608 191.715 89.701C192.415 89.0413 193.236 88.5297 194.178 88.1662C195.121 87.8027 196.144 87.6209 197.248 87.6209C198.366 87.6209 199.389 87.8027 200.318 88.1662C201.26 88.5297 202.075 89.0413 202.761 89.701C203.462 90.3608 204.007 91.1349 204.397 92.0235C204.788 92.8986 204.983 93.868 204.983 94.9316C204.983 95.9818 204.788 96.9579 204.397 97.86C204.007 98.7486 203.462 99.5227 202.761 100.182C202.075 100.829 201.26 101.334 200.318 101.697C199.389 102.061 198.372 102.242 197.268 102.242ZM197.248 99.4554C197.881 99.4554 198.46 99.3477 198.985 99.1323C199.523 98.9168 199.995 98.6072 200.399 98.2033C200.803 97.7994 201.112 97.3214 201.328 96.7694C201.556 96.2174 201.671 95.6048 201.671 94.9316C201.671 94.2585 201.556 93.6459 201.328 93.0939C201.112 92.5419 200.803 92.0639 200.399 91.66C200.008 91.2561 199.544 90.9464 199.005 90.731C198.467 90.5156 197.881 90.4079 197.248 90.4079C196.615 90.4079 196.03 90.5156 195.491 90.731C194.966 90.9464 194.502 91.2561 194.098 91.66C193.694 92.0639 193.377 92.5419 193.148 93.0939C192.933 93.6459 192.825 94.2585 192.825 94.9316C192.825 95.5913 192.933 96.2039 193.148 96.7694C193.377 97.3214 193.687 97.7994 194.077 98.2033C194.481 98.6072 194.953 98.9168 195.491 99.1323C196.03 99.3477 196.615 99.4554 197.248 99.4554ZM207.442 102V87.8633H213.864C215.399 87.8633 216.752 88.1595 217.923 88.7519C219.094 89.3308 220.01 90.1453 220.67 91.1955C221.329 92.2457 221.659 93.491 221.659 94.9316C221.659 96.3588 221.329 97.6042 220.67 98.6678C220.01 99.7179 219.094 100.539 217.923 101.132C216.752 101.711 215.399 102 213.864 102H207.442ZM210.713 99.314H213.702C214.645 99.314 215.459 99.139 216.146 98.7889C216.846 98.4254 217.385 97.9138 217.762 97.2541C218.152 96.5944 218.347 95.8202 218.347 94.9316C218.347 94.0296 218.152 93.2554 217.762 92.6092C217.385 91.9495 216.846 91.4446 216.146 91.0945C215.459 90.731 214.645 90.5493 213.702 90.5493H210.713V99.314ZM230.407 102.242C228.401 102.242 226.833 101.684 225.702 100.566C224.571 99.4487 224.005 97.8532 224.005 95.7798V87.8633H227.277V95.6587C227.277 97.005 227.553 97.9744 228.105 98.5668C228.657 99.1592 229.431 99.4554 230.427 99.4554C231.424 99.4554 232.198 99.1592 232.75 98.5668C233.302 97.9744 233.578 97.005 233.578 95.6587V87.8633H236.809V95.7798C236.809 97.8532 236.244 99.4487 235.113 100.566C233.982 101.684 232.413 102.242 230.407 102.242ZM246.808 102.242C245.717 102.242 244.701 102.067 243.758 101.717C242.829 101.354 242.021 100.842 241.335 100.182C240.648 99.5227 240.11 98.7486 239.719 97.86C239.342 96.9714 239.154 95.9953 239.154 94.9316C239.154 93.868 239.342 92.8919 239.719 92.0033C240.11 91.1147 240.648 90.3406 241.335 89.6809C242.035 89.0211 242.849 88.5163 243.778 88.1662C244.707 87.8027 245.724 87.6209 246.828 87.6209C248.053 87.6209 249.157 87.8363 250.14 88.2672C251.136 88.6845 251.971 89.3039 252.644 90.1251L250.544 92.0639C250.059 91.5119 249.521 91.1013 248.928 90.832C248.336 90.5493 247.689 90.4079 246.989 90.4079C246.33 90.4079 245.724 90.5156 245.172 90.731C244.62 90.9464 244.142 91.2561 243.738 91.66C243.334 92.0639 243.018 92.5419 242.789 93.0939C242.573 93.6459 242.466 94.2585 242.466 94.9316C242.466 95.6048 242.573 96.2174 242.789 96.7694C243.018 97.3214 243.334 97.7994 243.738 98.2033C244.142 98.6072 244.62 98.9168 245.172 99.1323C245.724 99.3477 246.33 99.4554 246.989 99.4554C247.689 99.4554 248.336 99.3208 248.928 99.0515C249.521 98.7687 250.059 98.3446 250.544 97.7792L252.644 99.7179C251.971 100.539 251.136 101.165 250.14 101.596C249.157 102.027 248.046 102.242 246.808 102.242ZM257.644 102V90.5291H253.12V87.8633H265.439V90.5291H260.915V102H257.644ZM267.199 102V87.8633H270.471V102H267.199ZM280.692 102.242C279.575 102.242 278.538 102.061 277.582 101.697C276.64 101.334 275.819 100.822 275.118 100.162C274.432 99.5025 273.893 98.7284 273.503 97.8398C273.126 96.9512 272.937 95.9818 272.937 94.9316C272.937 93.8815 273.126 92.9121 273.503 92.0235C273.893 91.1349 274.439 90.3608 275.139 89.701C275.839 89.0413 276.66 88.5297 277.602 88.1662C278.545 87.8027 279.568 87.6209 280.672 87.6209C281.79 87.6209 282.813 87.8027 283.742 88.1662C284.684 88.5297 285.499 89.0413 286.186 89.701C286.886 90.3608 287.431 91.1349 287.821 92.0235C288.212 92.8986 288.407 93.868 288.407 94.9316C288.407 95.9818 288.212 96.9579 287.821 97.86C287.431 98.7486 286.886 99.5227 286.186 100.182C285.499 100.829 284.684 101.334 283.742 101.697C282.813 102.061 281.796 102.242 280.692 102.242ZM280.672 99.4554C281.305 99.4554 281.884 99.3477 282.409 99.1323C282.948 98.9168 283.419 98.6072 283.823 98.2033C284.227 97.7994 284.536 97.3214 284.752 96.7694C284.981 96.2174 285.095 95.6048 285.095 94.9316C285.095 94.2585 284.981 93.6459 284.752 93.0939C284.536 92.5419 284.227 92.0639 283.823 91.66C283.432 91.2561 282.968 90.9464 282.429 90.731C281.891 90.5156 281.305 90.4079 280.672 90.4079C280.039 90.4079 279.454 90.5156 278.915 90.731C278.39 90.9464 277.926 91.2561 277.522 91.66C277.118 92.0639 276.801 92.5419 276.573 93.0939C276.357 93.6459 276.249 94.2585 276.249 94.9316C276.249 95.5913 276.357 96.2039 276.573 96.7694C276.801 97.3214 277.111 97.7994 277.502 98.2033C277.905 98.6072 278.377 98.9168 278.915 99.1323C279.454 99.3477 280.039 99.4554 280.672 99.4554ZM290.866 102V87.8633H293.572L301.913 98.0417H300.6V87.8633H303.831V102H301.145L292.784 91.8216H294.097V102H290.866ZM315.824 102V90.5291H311.3V87.8633H323.619V90.5291H319.095V102H315.824ZM332.048 102.242C330.931 102.242 329.894 102.061 328.938 101.697C327.996 101.334 327.175 100.822 326.475 100.162C325.788 99.5025 325.249 98.7284 324.859 97.8398C324.482 96.9512 324.293 95.9818 324.293 94.9316C324.293 93.8815 324.482 92.9121 324.859 92.0235C325.249 91.1349 325.795 90.3608 326.495 89.701C327.195 89.0413 328.016 88.5297 328.959 88.1662C329.901 87.8027 330.924 87.6209 332.028 87.6209C333.146 87.6209 334.169 87.8027 335.098 88.1662C336.04 88.5297 336.855 89.0413 337.542 89.701C338.242 90.3608 338.787 91.1349 339.177 92.0235C339.568 92.8986 339.763 93.868 339.763 94.9316C339.763 95.9818 339.568 96.9579 339.177 97.86C338.787 98.7486 338.242 99.5227 337.542 100.182C336.855 100.829 336.04 101.334 335.098 101.697C334.169 102.061 333.152 102.242 332.048 102.242ZM332.028 99.4554C332.661 99.4554 333.24 99.3477 333.765 99.1323C334.304 98.9168 334.775 98.6072 335.179 98.2033C335.583 97.7994 335.892 97.3214 336.108 96.7694C336.337 96.2174 336.451 95.6048 336.451 94.9316C336.451 94.2585 336.337 93.6459 336.108 93.0939C335.892 92.5419 335.583 92.0639 335.179 91.66C334.788 91.2561 334.324 90.9464 333.785 90.731C333.247 90.5156 332.661 90.4079 332.028 90.4079C331.395 90.4079 330.81 90.5156 330.271 90.731C329.746 90.9464 329.282 91.2561 328.878 91.66C328.474 92.0639 328.157 92.5419 327.929 93.0939C327.713 93.6459 327.605 94.2585 327.605 94.9316C327.605 95.5913 327.713 96.2039 327.929 96.7694C328.157 97.3214 328.467 97.7994 328.858 98.2033C329.261 98.6072 329.733 98.9168 330.271 99.1323C330.81 99.3477 331.395 99.4554 332.028 99.4554ZM75.1217 139.369C73.4222 139.369 71.8558 139.102 70.4225 138.57C69.0097 138.017 67.7709 137.239 66.7062 136.236C65.6619 135.232 64.8429 134.055 64.2491 132.704C63.6758 131.352 63.3891 129.868 63.3891 128.25C63.3891 126.633 63.6758 125.148 64.2491 123.797C64.8429 122.445 65.6721 121.268 66.7369 120.265C67.8016 119.261 69.0507 118.493 70.484 117.961C71.9173 117.408 73.4939 117.132 75.2139 117.132C77.1181 117.132 78.8279 117.449 80.3431 118.084C81.8787 118.719 83.1687 119.64 84.213 120.848L81.0188 123.797C80.2407 122.978 79.3909 122.374 78.4695 121.985C77.5481 121.575 76.5448 121.37 75.4596 121.37C74.4153 121.37 73.4632 121.534 72.6032 121.862C71.7432 122.189 70.9959 122.66 70.3611 123.275C69.7468 123.889 69.2656 124.616 68.9176 125.455C68.5899 126.295 68.4261 127.226 68.4261 128.25C68.4261 129.254 68.5899 130.175 68.9176 131.014C69.2656 131.854 69.7468 132.591 70.3611 133.226C70.9959 133.84 71.733 134.311 72.5725 134.639C73.4325 134.966 74.3744 135.13 75.3982 135.13C76.381 135.13 77.3331 134.977 78.2545 134.669C79.1964 134.342 80.1076 133.799 80.9881 133.042L83.8137 136.635C82.6466 137.516 81.285 138.191 79.7288 138.662C78.1931 139.133 76.6574 139.369 75.1217 139.369ZM79.2681 135.99V127.912H83.8137V136.635L79.2681 135.99ZM85.61 139L95.1927 117.5H100.107L109.72 139H104.499L96.6362 120.019H98.6019L90.7085 139H85.61ZM90.4013 134.393L91.722 130.615H102.779L104.13 134.393H90.4013ZM111.951 139V117.5H116.066L125.219 132.673H123.038L132.038 117.5H136.123L136.184 139H131.515L131.485 124.657H132.345L125.158 136.727H122.916L115.575 124.657H116.619V139H111.951ZM145.861 126.162H156.212V130.032H145.861V126.162ZM146.23 135.007H157.932V139H141.285V117.5H157.532V121.493H146.23V135.007ZM170.589 139V117.5H180.356C182.69 117.5 184.748 117.951 186.529 118.852C188.311 119.732 189.703 120.971 190.706 122.568C191.71 124.165 192.211 126.059 192.211 128.25C192.211 130.421 191.71 132.315 190.706 133.932C189.703 135.529 188.311 136.778 186.529 137.679C184.748 138.56 182.69 139 180.356 139H170.589ZM175.564 134.915H180.11C181.543 134.915 182.782 134.649 183.826 134.117C184.891 133.564 185.71 132.786 186.284 131.782C186.877 130.779 187.174 129.602 187.174 128.25C187.174 126.878 186.877 125.701 186.284 124.718C185.71 123.715 184.891 122.947 183.826 122.415C182.782 121.862 181.543 121.585 180.11 121.585H175.564V134.915ZM200.54 126.162H210.891V130.032H200.54V126.162ZM200.909 135.007H212.611V139H195.964V117.5H212.211V121.493H200.909V135.007ZM222.719 139L213.444 117.5H218.819L226.927 136.543H223.764L231.995 117.5H236.94L227.634 139H222.719ZM243.311 126.162H253.662V130.032H243.311V126.162ZM243.68 135.007H255.382V139H238.735V117.5H254.982V121.493H243.68V135.007ZM259.341 139V117.5H264.316V134.946H275.097V139H259.341ZM287.96 139.369C286.26 139.369 284.684 139.092 283.23 138.539C281.796 137.986 280.547 137.208 279.483 136.205C278.438 135.202 277.619 134.024 277.026 132.673C276.452 131.322 276.166 129.847 276.166 128.25C276.166 126.653 276.452 125.179 277.026 123.827C277.619 122.476 278.449 121.299 279.513 120.295C280.578 119.292 281.827 118.514 283.26 117.961C284.694 117.408 286.25 117.132 287.929 117.132C289.628 117.132 291.185 117.408 292.597 117.961C294.031 118.514 295.27 119.292 296.314 120.295C297.379 121.299 298.208 122.476 298.802 123.827C299.395 125.158 299.692 126.633 299.692 128.25C299.692 129.847 299.395 131.332 298.802 132.704C298.208 134.055 297.379 135.232 296.314 136.236C295.27 137.219 294.031 137.986 292.597 138.539C291.185 139.092 289.639 139.369 287.96 139.369ZM287.929 135.13C288.891 135.13 289.772 134.966 290.57 134.639C291.389 134.311 292.106 133.84 292.72 133.226C293.335 132.612 293.805 131.885 294.133 131.045C294.481 130.206 294.655 129.274 294.655 128.25C294.655 127.226 294.481 126.295 294.133 125.455C293.805 124.616 293.335 123.889 292.72 123.275C292.126 122.66 291.42 122.189 290.601 121.862C289.782 121.534 288.891 121.37 287.929 121.37C286.967 121.37 286.076 121.534 285.257 121.862C284.458 122.189 283.752 122.66 283.138 123.275C282.523 123.889 282.042 124.616 281.694 125.455C281.366 126.295 281.203 127.226 281.203 128.25C281.203 129.254 281.366 130.185 281.694 131.045C282.042 131.885 282.513 132.612 283.107 133.226C283.721 133.84 284.438 134.311 285.257 134.639C286.076 134.966 286.967 135.13 287.929 135.13ZM303.432 139V117.5H312.738C314.663 117.5 316.321 117.818 317.714 118.453C319.106 119.067 320.181 119.957 320.939 121.125C321.696 122.292 322.075 123.684 322.075 125.302C322.075 126.899 321.696 128.281 320.939 129.448C320.181 130.615 319.106 131.516 317.714 132.151C316.321 132.765 314.663 133.072 312.738 133.072H306.196L308.407 130.83V139H303.432ZM308.407 131.383L306.196 129.018H312.462C313.997 129.018 315.144 128.69 315.901 128.035C316.659 127.38 317.038 126.469 317.038 125.302C317.038 124.114 316.659 123.193 315.901 122.537C315.144 121.882 313.997 121.555 312.462 121.555H306.196L308.407 119.19V131.383ZM325.627 139V117.5H329.743L338.895 132.673H336.715L345.714 117.5H349.799L349.86 139H345.192L345.161 124.657H346.021L338.834 136.727H336.592L329.251 124.657H330.296V139H325.627ZM359.538 126.162H369.888V130.032H359.538V126.162ZM359.906 135.007H371.608V139H354.961V117.5H371.209V121.493H359.906V135.007ZM375.567 139V117.5H379.683L392.367 132.98H390.371V117.5H395.285V139H391.2L378.485 123.52H380.481V139H375.567ZM404.825 139V121.555H397.945V117.5H416.681V121.555H409.801V139H404.825Z" fill="white"/>
<path d="M270.903 225.367C270.903 225.367 266.791 205.329 266.591 205.21C266.524 205.167 266.275 204.372 265.74 203.286C264.64 201.056 262.317 197.591 257.784 196.835C257.765 196.83 257.741 196.825 257.717 196.82C251.249 196.289 249.012 199.261 249.012 199.261L230.582 199.18C230.582 199.18 226.36 195.772 221.751 196.844C221.321 196.945 220.886 197.084 220.451 197.266C220.451 197.266 214.671 198.773 213.046 204.76L208.485 226.674C208.485 226.674 207.266 232.618 211.984 234.168C216.708 235.714 219.552 233.355 221.183 231.072C222.708 228.933 228.526 221.137 229.248 220.175C228.684 219.39 228.354 218.433 228.354 217.389C228.354 214.743 230.496 212.594 233.144 212.594C235.788 212.594 237.934 214.743 237.934 217.389C237.934 217.61 237.92 217.825 237.887 218.04L241.85 218.122C241.85 218.122 242.988 221.95 246.243 222.151C249.499 222.357 250.436 220.074 250.436 220.074L259.348 232.292C259.348 232.292 262.111 236.121 267.322 234.25C272.528 232.374 270.903 225.367 270.903 225.367ZM223.807 212.877C221.159 212.877 219.017 210.728 219.017 208.081C219.017 205.43 221.159 203.286 223.807 203.286C224.563 203.286 225.275 203.458 225.906 203.769L225.911 203.774C226.733 204.176 227.421 204.803 227.895 205.578C228.339 206.306 228.598 207.162 228.598 208.081C228.598 210.728 226.451 212.877 223.807 212.877ZM246.655 221.807C244.011 221.807 241.864 219.658 241.864 217.011C241.864 214.36 244.011 212.216 246.655 212.216C249.303 212.216 251.45 214.36 251.45 217.011C251.45 219.658 249.303 221.807 246.655 221.807ZM251.263 210.249C250.044 210.249 249.055 209.259 249.055 208.038C249.055 206.813 250.044 205.822 251.263 205.822H251.321C252.516 205.856 253.472 206.832 253.472 208.038C253.472 209.259 252.482 210.249 251.263 210.249ZM255.681 214.805C254.462 214.805 253.472 213.815 253.472 212.594C253.472 211.374 254.462 210.383 255.681 210.383C256.905 210.383 257.894 211.374 257.894 212.594C257.894 213.815 256.905 214.805 255.681 214.805ZM255.681 205.693C254.462 205.693 253.472 204.703 253.472 203.477C253.472 202.257 254.462 201.266 255.681 201.266C256.905 201.266 257.894 202.257 257.894 203.477C257.894 204.703 256.905 205.693 255.681 205.693ZM260.275 210.249C259.056 210.249 258.066 209.259 258.066 208.038C258.066 206.813 259.056 205.822 260.275 205.822C261.499 205.822 262.489 206.813 262.489 208.038C262.489 209.259 261.499 210.249 260.275 210.249Z" stroke="#414040" stroke-width="0.99856" stroke-miterlimit="10" stroke-linecap="round" stroke-linejoin="round"/>
<path d="M227.894 205.579C227.187 205.028 226.527 204.425 225.91 203.774C226.732 204.176 227.421 204.803 227.894 205.579Z" stroke="#414040" stroke-width="0.49928" stroke-miterlimit="10" stroke-linecap="round" stroke-linejoin="round"/>
<path d="M237.876 218.122C237.781 218.754 237.561 219.347 237.241 219.874C237.91 218.969 237.905 218.333 237.876 218.122ZM230.6 221.458C231.379 222.022 232.508 222.468 233.975 222.109C233.708 222.161 233.426 222.185 233.143 222.185C232.206 222.185 231.336 221.917 230.6 221.458Z" stroke="#414040" stroke-width="0.49928" stroke-miterlimit="10" stroke-linecap="round" stroke-linejoin="round"/>
<path d="M251.318 205.823H251.261C250.042 205.823 249.052 206.813 249.052 208.039C249.052 209.259 250.042 210.25 251.261 210.25C252.48 210.25 253.47 209.259 253.47 208.039C253.47 206.833 252.514 205.856 251.318 205.823ZM251.261 209.656C250.367 209.656 249.645 208.929 249.645 208.039C249.645 207.144 250.367 206.416 251.261 206.416C252.155 206.416 252.877 207.144 252.877 208.039C252.877 208.929 252.155 209.656 251.261 209.656Z" stroke="#414040" stroke-width="0.49928" stroke-miterlimit="10" stroke-linecap="round" stroke-linejoin="round"/>
<path d="M255.68 210.384C254.461 210.384 253.472 211.374 253.472 212.595C253.472 213.815 254.461 214.806 255.68 214.806C256.904 214.806 257.894 213.815 257.894 212.595C257.894 211.374 256.904 210.384 255.68 210.384ZM255.68 214.212C254.791 214.212 254.064 213.49 254.064 212.595C254.064 211.7 254.791 210.977 255.68 210.977C256.574 210.977 257.301 211.7 257.301 212.595C257.301 213.49 256.574 214.212 255.68 214.212Z" stroke="#414040" stroke-width="0.49928" stroke-miterlimit="10" stroke-linecap="round" stroke-linejoin="round"/>
<path d="M255.68 201.267C254.461 201.267 253.472 202.258 253.472 203.478C253.472 204.703 254.461 205.694 255.68 205.694C256.904 205.694 257.894 204.703 257.894 203.478C257.894 202.258 256.904 201.267 255.68 201.267ZM255.68 205.1C254.791 205.1 254.064 204.373 254.064 203.478C254.064 202.588 254.791 201.861 255.68 201.861C256.574 201.861 257.301 202.588 257.301 203.478C257.301 204.373 256.574 205.1 255.68 205.1Z" stroke="#414040" stroke-width="0.49928" stroke-miterlimit="10" stroke-linecap="round" stroke-linejoin="round"/>
<path d="M260.272 205.823C259.053 205.823 258.063 206.813 258.063 208.039C258.063 209.259 259.053 210.25 260.272 210.25C261.496 210.25 262.486 209.259 262.486 208.039C262.486 206.813 261.496 205.823 260.272 205.823ZM260.272 209.656C259.383 209.656 258.656 208.929 258.656 208.039C258.656 207.144 259.383 206.416 260.272 206.416C261.166 206.416 261.893 207.144 261.893 208.039C261.893 208.929 261.166 209.656 260.272 209.656Z" stroke="#414040" stroke-width="0.49928" stroke-miterlimit="10" stroke-linecap="round" stroke-linejoin="round"/>
<path d="M225.911 203.774C226.527 204.425 227.187 205.028 227.895 205.578C228.339 206.306 228.597 207.163 228.597 208.081C228.597 210.728 226.451 212.877 223.807 212.877C221.158 212.877 219.017 210.728 219.017 208.081C219.017 205.43 221.158 203.286 223.807 203.286C224.562 203.286 225.275 203.458 225.906 203.769L225.911 203.774Z" stroke="#414040" stroke-width="0.49928" stroke-miterlimit="10"/>
<path d="M227.896 205.579C227.188 205.028 226.528 204.425 225.912 203.774C226.734 204.176 227.422 204.803 227.896 205.579Z" stroke="#414040" stroke-width="0.49928" stroke-miterlimit="10"/>
<path d="M237.862 218.041C237.862 218.041 237.871 218.065 237.876 218.113C237.885 218.089 237.885 218.065 237.885 218.041H237.862ZM235.581 221.458C235.007 221.783 234.472 221.994 233.975 222.109C235.342 221.874 236.513 221.051 237.216 219.907C236.872 220.362 236.356 220.889 235.581 221.458ZM229.318 220.075C229.318 220.075 229.294 220.108 229.247 220.175C229.605 220.683 230.059 221.113 230.58 221.444C229.744 220.826 229.318 220.075 229.318 220.075Z" stroke="#414040" stroke-width="0.99856" stroke-miterlimit="10"/>
<path d="M237.933 217.39C237.933 214.744 235.787 212.595 233.143 212.595C230.494 212.595 228.353 214.744 228.353 217.39C228.353 218.433 228.682 219.39 229.247 220.175C229.294 220.108 229.318 220.075 229.318 220.075C229.318 220.075 229.744 220.826 230.58 221.444C230.585 221.448 230.59 221.453 230.6 221.458C231.336 221.917 232.206 222.185 233.143 222.185C233.425 222.185 233.707 222.161 233.975 222.109C234.472 221.994 235.007 221.783 235.581 221.458C236.356 220.888 236.872 220.362 237.216 219.907C237.226 219.898 237.23 219.888 237.24 219.874C237.56 219.347 237.78 218.754 237.876 218.122C237.881 218.117 237.876 218.113 237.876 218.113C237.871 218.065 237.862 218.041 237.862 218.041H237.885C237.919 217.826 237.933 217.61 237.933 217.39Z" stroke="#414040" stroke-width="0.99856" stroke-miterlimit="10"/>
<path d="M252.874 208.039C252.874 208.929 252.152 209.656 251.258 209.656C250.364 209.656 249.643 208.929 249.643 208.039C249.643 207.144 250.364 206.417 251.258 206.417C252.152 206.417 252.874 207.144 252.874 208.039Z" stroke="#414040" stroke-width="0.24964" stroke-miterlimit="10"/>
<path d="M251.317 205.823H251.26C250.04 205.823 249.051 206.813 249.051 208.039C249.051 209.259 250.04 210.25 251.26 210.25C252.479 210.25 253.468 209.259 253.468 208.039C253.468 206.833 252.512 205.856 251.317 205.823ZM251.26 209.656C250.366 209.656 249.644 208.929 249.644 208.039C249.644 207.144 250.366 206.416 251.26 206.416C252.154 206.416 252.875 207.144 252.875 208.039C252.875 208.929 252.154 209.656 251.26 209.656Z" stroke="#414040" stroke-width="0.24964" stroke-miterlimit="10"/>
<path d="M257.298 212.594C257.298 213.489 256.571 214.212 255.677 214.212C254.788 214.212 254.061 213.489 254.061 212.594C254.061 211.699 254.788 210.977 255.677 210.977C256.571 210.977 257.298 211.699 257.298 212.594Z" stroke="#414040" stroke-width="0.24964" stroke-miterlimit="10"/>
<path d="M255.677 210.384C254.458 210.384 253.469 211.374 253.469 212.595C253.469 213.815 254.458 214.806 255.677 214.806C256.901 214.806 257.891 213.815 257.891 212.595C257.891 211.374 256.901 210.384 255.677 210.384ZM255.677 214.212C254.788 214.212 254.062 213.49 254.062 212.595C254.062 211.7 254.788 210.977 255.677 210.977C256.571 210.977 257.298 211.7 257.298 212.595C257.298 213.49 256.571 214.212 255.677 214.212Z" stroke="#414040" stroke-width="0.24964" stroke-miterlimit="10"/>
<path d="M261.891 208.039C261.891 208.929 261.165 209.656 260.271 209.656C259.381 209.656 258.655 208.929 258.655 208.039C258.655 207.144 259.381 206.417 260.271 206.417C261.165 206.417 261.891 207.144 261.891 208.039Z" stroke="#414040" stroke-width="0.24964" stroke-miterlimit="10"/>
<path d="M260.272 205.823C259.053 205.823 258.063 206.813 258.063 208.039C258.063 209.259 259.053 210.25 260.272 210.25C261.496 210.25 262.486 209.259 262.486 208.039C262.486 206.813 261.496 205.823 260.272 205.823ZM260.272 209.656C259.383 209.656 258.656 208.929 258.656 208.039C258.656 207.144 259.383 206.416 260.272 206.416C261.166 206.416 261.893 207.144 261.893 208.039C261.893 208.929 261.166 209.656 260.272 209.656Z" stroke="#414040" stroke-width="0.24964" stroke-miterlimit="10"/>
<path d="M257.298 203.478C257.298 204.373 256.571 205.101 255.677 205.101C254.788 205.101 254.061 204.373 254.061 203.478C254.061 202.588 254.788 201.861 255.677 201.861C256.571 201.861 257.298 202.588 257.298 203.478Z" stroke="#414040" stroke-width="0.24964" stroke-miterlimit="10"/>
<path d="M255.677 201.267C254.458 201.267 253.469 202.258 253.469 203.478C253.469 204.703 254.458 205.694 255.677 205.694C256.901 205.694 257.891 204.703 257.891 203.478C257.891 202.258 256.901 201.267 255.677 201.267ZM255.677 205.1C254.788 205.1 254.062 204.373 254.062 203.478C254.062 202.588 254.788 201.861 255.677 201.861C256.571 201.861 257.298 202.588 257.298 203.478C257.298 204.373 256.571 205.1 255.677 205.1Z" stroke="#414040" stroke-width="0.24964" stroke-miterlimit="10"/>
<path d="M258.657 191.313C258.657 193.237 258.351 195.094 257.782 196.836C257.763 196.831 257.739 196.826 257.715 196.821C251.246 196.29 249.009 199.262 249.009 199.262L230.579 199.181C230.579 199.181 226.358 195.773 221.749 196.845C221.18 195.098 220.874 193.242 220.874 191.313C220.874 181.182 229.331 172.974 239.768 172.974C250.199 172.974 258.657 181.182 258.657 191.313Z" stroke="#414040" stroke-width="2.4964" stroke-miterlimit="10"/>
<path d="M213.245 203.478H209.831L208 196.635L213.656 194.007V189.528L208 187.082L209.707 180.325L216.175 180.65L218.25 176.941L214.712 171.648L219.593 166.762L224.8 170.261L228.706 167.983L228.055 161.79L234.892 160L237.617 165.661H242.135L244.779 160L251.453 161.871L250.965 168.064L254.909 170.222L259.958 166.719L264.958 171.687L261.421 176.822L263.539 180.607L269.926 180.162L271.675 186.676L266.058 189.571L266.101 194.213L271.675 196.635L269.883 203.478L265.738 203.282" stroke="#414040" stroke-width="2.4964" stroke-miterlimit="10"/>
<mask id="mask0_3029_7111" style="mask-type:alpha" maskUnits="userSpaceOnUse" x="206" y="158" width="68" height="78">
<path d="M270.903 225.367C270.903 225.367 266.791 205.329 266.591 205.21C266.524 205.167 266.275 204.372 265.74 203.286C264.64 201.056 262.317 197.591 257.784 196.835C257.765 196.83 257.741 196.825 257.717 196.82C251.249 196.289 249.012 199.261 249.012 199.261L230.582 199.18C230.582 199.18 226.36 195.772 221.751 196.844C221.321 196.945 220.886 197.084 220.451 197.266C220.451 197.266 214.671 198.773 213.046 204.76L208.485 226.674C208.485 226.674 207.266 232.618 211.984 234.168C216.708 235.714 219.552 233.355 221.183 231.072C222.708 228.933 228.526 221.137 229.248 220.175C228.684 219.39 228.354 218.433 228.354 217.389C228.354 214.743 230.496 212.594 233.144 212.594C235.788 212.594 237.934 214.743 237.934 217.389C237.934 217.61 237.92 217.825 237.887 218.04L241.85 218.122C241.85 218.122 242.988 221.95 246.243 222.151C249.499 222.357 250.436 220.074 250.436 220.074L259.348 232.292C259.348 232.292 262.111 236.121 267.322 234.25C272.528 232.374 270.903 225.367 270.903 225.367ZM223.807 212.877C221.159 212.877 219.017 210.728 219.017 208.081C219.017 205.43 221.159 203.286 223.807 203.286C224.563 203.286 225.275 203.458 225.906 203.769L225.911 203.774C226.733 204.176 227.421 204.803 227.895 205.578C228.339 206.306 228.598 207.162 228.598 208.081C228.598 210.728 226.451 212.877 223.807 212.877ZM246.655 221.807C244.011 221.807 241.864 219.658 241.864 217.011C241.864 214.36 244.011 212.216 246.655 212.216C249.303 212.216 251.45 214.36 251.45 217.011C251.45 219.658 249.303 221.807 246.655 221.807ZM251.263 210.249C250.044 210.249 249.055 209.259 249.055 208.038C249.055 206.813 250.044 205.822 251.263 205.822H251.321C252.516 205.856 253.472 206.832 253.472 208.038C253.472 209.259 252.482 210.249 251.263 210.249ZM255.681 214.805C254.462 214.805 253.472 213.815 253.472 212.594C253.472 211.374 254.462 210.383 255.681 210.383C256.905 210.383 257.894 211.374 257.894 212.594C257.894 213.815 256.905 214.805 255.681 214.805ZM255.681 205.693C254.462 205.693 253.472 204.703 253.472 203.477C253.472 202.257 254.462 201.266 255.681 201.266C256.905 201.266 257.894 202.257 257.894 203.477C257.894 204.703 256.905 205.693 255.681 205.693ZM260.275 210.249C259.056 210.249 258.066 209.259 258.066 208.038C258.066 206.813 259.056 205.822 260.275 205.822C261.499 205.822 262.489 206.813 262.489 208.038C262.489 209.259 261.499 210.249 260.275 210.249Z" stroke="#414040" stroke-width="0.99856" stroke-miterlimit="10" stroke-linecap="round" stroke-linejoin="round"/>
<path d="M227.894 205.579C227.187 205.028 226.527 204.425 225.91 203.774C226.732 204.176 227.421 204.803 227.894 205.579Z" stroke="#414040" stroke-width="0.49928" stroke-miterlimit="10" stroke-linecap="round" stroke-linejoin="round"/>
<path d="M237.876 218.122C237.781 218.754 237.561 219.347 237.241 219.874C237.91 218.969 237.905 218.333 237.876 218.122ZM230.6 221.458C231.379 222.022 232.508 222.468 233.975 222.109C233.708 222.161 233.426 222.185 233.143 222.185C232.206 222.185 231.336 221.917 230.6 221.458Z" stroke="#414040" stroke-width="0.49928" stroke-miterlimit="10" stroke-linecap="round" stroke-linejoin="round"/>
<path d="M251.318 205.823H251.261C250.042 205.823 249.052 206.813 249.052 208.039C249.052 209.259 250.042 210.25 251.261 210.25C252.48 210.25 253.47 209.259 253.47 208.039C253.47 206.833 252.514 205.856 251.318 205.823ZM251.261 209.656C250.367 209.656 249.645 208.929 249.645 208.039C249.645 207.144 250.367 206.416 251.261 206.416C252.155 206.416 252.877 207.144 252.877 208.039C252.877 208.929 252.155 209.656 251.261 209.656Z" stroke="#414040" stroke-width="0.49928" stroke-miterlimit="10" stroke-linecap="round" stroke-linejoin="round"/>
<path d="M255.68 210.384C254.461 210.384 253.472 211.374 253.472 212.595C253.472 213.815 254.461 214.806 255.68 214.806C256.904 214.806 257.894 213.815 257.894 212.595C257.894 211.374 256.904 210.384 255.68 210.384ZM255.68 214.212C254.791 214.212 254.064 213.49 254.064 212.595C254.064 211.7 254.791 210.977 255.68 210.977C256.574 210.977 257.301 211.7 257.301 212.595C257.301 213.49 256.574 214.212 255.68 214.212Z" stroke="#414040" stroke-width="0.49928" stroke-miterlimit="10" stroke-linecap="round" stroke-linejoin="round"/>
<path d="M255.68 201.267C254.461 201.267 253.472 202.258 253.472 203.478C253.472 204.703 254.461 205.694 255.68 205.694C256.904 205.694 257.894 204.703 257.894 203.478C257.894 202.258 256.904 201.267 255.68 201.267ZM255.68 205.1C254.791 205.1 254.064 204.373 254.064 203.478C254.064 202.588 254.791 201.861 255.68 201.861C256.574 201.861 257.301 202.588 257.301 203.478C257.301 204.373 256.574 205.1 255.68 205.1Z" stroke="#414040" stroke-width="0.49928" stroke-miterlimit="10" stroke-linecap="round" stroke-linejoin="round"/>
<path d="M260.272 205.823C259.053 205.823 258.063 206.813 258.063 208.039C258.063 209.259 259.053 210.25 260.272 210.25C261.496 210.25 262.486 209.259 262.486 208.039C262.486 206.813 261.496 205.823 260.272 205.823ZM260.272 209.656C259.383 209.656 258.656 208.929 258.656 208.039C258.656 207.144 259.383 206.416 260.272 206.416C261.166 206.416 261.893 207.144 261.893 208.039C261.893 208.929 261.166 209.656 260.272 209.656Z" stroke="#414040" stroke-width="0.49928" stroke-miterlimit="10" stroke-linecap="round" stroke-linejoin="round"/>
<path d="M225.911 203.774C226.527 204.425 227.187 205.028 227.895 205.578C228.339 206.306 228.597 207.163 228.597 208.081C228.597 210.728 226.451 212.877 223.807 212.877C221.158 212.877 219.017 210.728 219.017 208.081C219.017 205.43 221.158 203.286 223.807 203.286C224.562 203.286 225.275 203.458 225.906 203.769L225.911 203.774Z" stroke="#414040" stroke-width="0.49928" stroke-miterlimit="10"/>
<path d="M227.896 205.579C227.188 205.028 226.528 204.425 225.912 203.774C226.734 204.176 227.422 204.803 227.896 205.579Z" stroke="#414040" stroke-width="0.49928" stroke-miterlimit="10"/>
<path d="M237.862 218.041C237.862 218.041 237.871 218.065 237.876 218.113C237.885 218.089 237.885 218.065 237.885 218.041H237.862ZM235.581 221.458C235.007 221.783 234.472 221.994 233.975 222.109C235.342 221.874 236.513 221.051 237.216 219.907C236.872 220.362 236.356 220.889 235.581 221.458ZM229.318 220.075C229.318 220.075 229.294 220.108 229.247 220.175C229.605 220.683 230.059 221.113 230.58 221.444C229.744 220.826 229.318 220.075 229.318 220.075Z" stroke="#414040" stroke-width="0.99856" stroke-miterlimit="10"/>
<path d="M237.933 217.39C237.933 214.744 235.787 212.595 233.143 212.595C230.494 212.595 228.353 214.744 228.353 217.39C228.353 218.433 228.682 219.39 229.247 220.175C229.294 220.108 229.318 220.075 229.318 220.075C229.318 220.075 229.744 220.826 230.58 221.444C230.585 221.448 230.59 221.453 230.6 221.458C231.336 221.917 232.206 222.185 233.143 222.185C233.425 222.185 233.707 222.161 233.975 222.109C234.472 221.994 235.007 221.783 235.581 221.458C236.356 220.888 236.872 220.362 237.216 219.907C237.226 219.898 237.23 219.888 237.24 219.874C237.56 219.347 237.78 218.754 237.876 218.122C237.881 218.117 237.876 218.113 237.876 218.113C237.871 218.065 237.862 218.041 237.862 218.041H237.885C237.919 217.826 237.933 217.61 237.933 217.39Z" stroke="#414040" stroke-width="0.99856" stroke-miterlimit="10"/>
<path d="M252.874 208.039C252.874 208.929 252.152 209.656 251.258 209.656C250.364 209.656 249.643 208.929 249.643 208.039C249.643 207.144 250.364 206.417 251.258 206.417C252.152 206.417 252.874 207.144 252.874 208.039Z" stroke="#414040" stroke-width="0.24964" stroke-miterlimit="10"/>
<path d="M251.317 205.823H251.26C250.04 205.823 249.051 206.813 249.051 208.039C249.051 209.259 250.04 210.25 251.26 210.25C252.479 210.25 253.468 209.259 253.468 208.039C253.468 206.833 252.512 205.856 251.317 205.823ZM251.26 209.656C250.366 209.656 249.644 208.929 249.644 208.039C249.644 207.144 250.366 206.416 251.26 206.416C252.154 206.416 252.875 207.144 252.875 208.039C252.875 208.929 252.154 209.656 251.26 209.656Z" stroke="#414040" stroke-width="0.24964" stroke-miterlimit="10"/>
<path d="M257.298 212.594C257.298 213.489 256.571 214.212 255.677 214.212C254.788 214.212 254.061 213.489 254.061 212.594C254.061 211.699 254.788 210.977 255.677 210.977C256.571 210.977 257.298 211.699 257.298 212.594Z" stroke="#414040" stroke-width="0.24964" stroke-miterlimit="10"/>
<path d="M255.677 210.384C254.458 210.384 253.469 211.374 253.469 212.595C253.469 213.815 254.458 214.806 255.677 214.806C256.901 214.806 257.891 213.815 257.891 212.595C257.891 211.374 256.901 210.384 255.677 210.384ZM255.677 214.212C254.788 214.212 254.062 213.49 254.062 212.595C254.062 211.7 254.788 210.977 255.677 210.977C256.571 210.977 257.298 211.7 257.298 212.595C257.298 213.49 256.571 214.212 255.677 214.212Z" stroke="#414040" stroke-width="0.24964" stroke-miterlimit="10"/>
<path d="M261.891 208.039C261.891 208.929 261.165 209.656 260.271 209.656C259.381 209.656 258.655 208.929 258.655 208.039C258.655 207.144 259.381 206.417 260.271 206.417C261.165 206.417 261.891 207.144 261.891 208.039Z" stroke="#414040" stroke-width="0.24964" stroke-miterlimit="10"/>
<path d="M260.272 205.823C259.053 205.823 258.063 206.813 258.063 208.039C258.063 209.259 259.053 210.25 260.272 210.25C261.496 210.25 262.486 209.259 262.486 208.039C262.486 206.813 261.496 205.823 260.272 205.823ZM260.272 209.656C259.383 209.656 258.656 208.929 258.656 208.039C258.656 207.144 259.383 206.416 260.272 206.416C261.166 206.416 261.893 207.144 261.893 208.039C261.893 208.929 261.166 209.656 260.272 209.656Z" stroke="#414040" stroke-width="0.24964" stroke-miterlimit="10"/>
<path d="M257.298 203.478C257.298 204.373 256.571 205.101 255.677 205.101C254.788 205.101 254.061 204.373 254.061 203.478C254.061 202.588 254.788 201.861 255.677 201.861C256.571 201.861 257.298 202.588 257.298 203.478Z" stroke="#414040" stroke-width="0.24964" stroke-miterlimit="10"/>
<path d="M255.677 201.267C254.458 201.267 253.469 202.258 253.469 203.478C253.469 204.703 254.458 205.694 255.677 205.694C256.901 205.694 257.891 204.703 257.891 203.478C257.891 202.258 256.901 201.267 255.677 201.267ZM255.677 205.1C254.788 205.1 254.062 204.373 254.062 203.478C254.062 202.588 254.788 201.861 255.677 201.861C256.571 201.861 257.298 202.588 257.298 203.478C257.298 204.373 256.571 205.1 255.677 205.1Z" stroke="#414040" stroke-width="0.24964" stroke-miterlimit="10"/>
<path d="M258.657 191.313C258.657 193.237 258.351 195.094 257.782 196.836C257.763 196.831 257.739 196.826 257.715 196.821C251.246 196.29 249.009 199.262 249.009 199.262L230.579 199.181C230.579 199.181 226.358 195.773 221.749 196.845C221.18 195.098 220.874 193.242 220.874 191.313C220.874 181.182 229.331 172.974 239.768 172.974C250.199 172.974 258.657 181.182 258.657 191.313Z" stroke="#414040" stroke-width="2.4964" stroke-miterlimit="10"/>
<path d="M213.245 203.478H209.831L208 196.635L213.656 194.007V189.528L208 187.082L209.707 180.325L216.175 180.65L218.25 176.941L214.712 171.648L219.593 166.762L224.8 170.261L228.706 167.983L228.055 161.79L234.892 160L237.617 165.661H242.135L244.779 160L251.453 161.871L250.965 168.064L254.909 170.222L259.958 166.719L264.958 171.687L261.421 176.822L263.539 180.607L269.926 180.162L271.675 186.676L266.058 189.571L266.101 194.213L271.675 196.635L269.883 203.478L265.738 203.282" stroke="#414040" stroke-width="2.4964" stroke-miterlimit="10"/>
</mask>
<g mask="url(#mask0_3029_7111)">
<rect x="171.074" y="214.423" width="128.2" height="37.7808" transform="rotate(-29.4772 171.074 214.423)" fill="#C0006C"/>
</g>
<g style="mix-blend-mode:lighten" opacity="0.04">
<line x1="365.334" y1="423.142" x2="300.688" y2="323.463" stroke="white" stroke-width="18.1828"/>
<path d="M513.916 110.896L377.375 199.448" stroke="white" stroke-width="18.1828"/>
<line x1="485.649" y1="67.3094" x2="316.822" y2="176.801" stroke="white" stroke-width="18.1828"/>
<line x1="458.872" y1="26.0232" x2="254.449" y2="158.6" stroke="white" stroke-width="18.1828"/>
<line x1="483.31" y1="346.63" x2="380.794" y2="188.559" stroke="white" stroke-width="18.1828"/>
<line x1="444.154" y1="372.024" x2="314.862" y2="172.666" stroke="white" stroke-width="18.1828"/>
<line x1="410.084" y1="394.12" x2="254.016" y2="153.474" stroke="white" stroke-width="18.1828"/>
<line y1="-9.09142" x2="294.995" y2="-9.09142" transform="matrix(-0.544128 -0.839003 -0.839002 0.544128 632.382 254.575)" stroke="white" stroke-width="18.1828"/>
<line x1="102.559" y1="259.62" x2="15.0946" y2="316.344" stroke="white" stroke-width="18.1828"/>
<line x1="129.336" y1="300.907" x2="41.871" y2="357.631" stroke="white" stroke-width="18.1828"/>
<mask id="mask1_3029_7111" style="mask-type:alpha" maskUnits="userSpaceOnUse" x="457" y="159" width="155" height="159">
<rect x="545.348" y="159.361" width="120.916" height="104.248" transform="rotate(57.0349 545.348 159.361)" fill="white"/>
</mask>
<g mask="url(#mask1_3029_7111)">
<line y1="-9.09142" x2="168.473" y2="-9.09142" transform="matrix(0.95996 0.280138 -0.13574 0.990745 458.59 226.897)" stroke="white" stroke-width="18.1828"/>
</g>
<mask id="mask2_3029_7111" style="mask-type:alpha" maskUnits="userSpaceOnUse" x="126" y="173" width="155" height="159">
<rect width="120.916" height="104.248" transform="matrix(0.544128 0.839003 0.839003 -0.544128 126.95 230.452)" fill="white"/>
</mask>
<g mask="url(#mask2_3029_7111)">
<line y1="-9.09142" x2="90.4665" y2="-9.09142" transform="matrix(-0.14391 0.989591 0.962238 0.272208 171.77 198.87)" stroke="white" stroke-width="18.1828"/>
<line y1="-9.09142" x2="90.4665" y2="-9.09142" transform="matrix(-0.14391 0.989591 0.962238 0.272208 264.446 232.61)" stroke="white" stroke-width="18.1828"/>
<line y1="-9.09142" x2="168.473" y2="-9.09142" transform="matrix(-0.13574 0.990745 0.95996 0.280138 223.998 178.783)" stroke="white" stroke-width="18.1828"/>
</g>
</g>
<path d="M458.5 295.5V23L190 23" stroke="#C0006C" stroke-width="1.5" stroke-linecap="round"/>
<path d="M19 47L19 293L281 293" stroke="#C0006C" stroke-width="1.5" stroke-linecap="round"/>
</g>
<defs>
<clipPath id="clip0_3029_7111">
<rect width="480" height="320" fill="white"/>
</clipPath>
</defs>
</svg>
