<svg width="480" height="320" viewBox="0 0 480 320" fill="none" xmlns="http://www.w3.org/2000/svg">
<g clip-path="url(#clip0_3029_6095)">
<rect width="480" height="320" fill="url(#paint0_linear_3029_6095)"/>
<path d="M539.88 100.213L539.869 100.319L539.97 100.354L554.475 105.379L541.926 132.652L527.396 127.618L527.312 127.589L527.252 127.655C524.661 130.501 521.76 133.078 518.602 135.355L518.51 135.422L518.56 135.524L524.715 147.965L493.592 159.559L487.425 147.093L487.383 147.01L487.29 147.019C483.212 147.437 479.058 147.488 474.893 147.157L474.8 147.149L474.76 147.235L468.964 159.833L437.507 148.934L443.293 136.359L443.34 136.256L443.247 136.192C439.966 133.943 436.996 131.426 434.372 128.686L434.311 128.622L434.228 128.653L419.851 134.009L406.501 107.024L420.852 101.678L420.953 101.64L420.938 101.534C420.457 97.9981 420.398 94.3979 420.78 90.7874L420.791 90.681L420.69 90.646L406.184 85.6205L418.734 58.3479L433.264 63.382L433.348 63.4111L433.408 63.3454C435.999 60.499 438.9 57.9219 442.057 55.6451L442.15 55.5784L442.099 55.4761L435.945 43.0351L467.068 31.4408L473.235 43.9067L473.277 43.9905L473.369 43.9809C477.448 43.5626 481.601 43.5119 485.766 43.8432L485.86 43.8506L485.899 43.7652L491.696 31.1672L523.152 42.0665L517.367 54.6405L517.319 54.7437L517.413 54.8079C520.694 57.0567 523.664 59.5743 526.287 62.3137L526.349 62.3777L526.432 62.3468L540.809 56.9909L554.159 83.9758L539.808 89.322L539.707 89.3596L539.721 89.4664C540.203 93.0019 540.261 96.6021 539.88 100.213ZM454.746 86.6206C449.092 98.9086 455.997 112.828 470.119 117.72C484.235 122.612 500.265 116.652 505.914 104.377C511.568 92.0888 504.663 78.1699 490.54 73.277C476.424 68.3863 460.394 74.3452 454.746 86.6206Z" fill="#342F68" fill-opacity="0.7" stroke="#9188DD" stroke-width="0.269311"/>
<path d="M65.6544 209.809L65.641 209.938L65.7636 209.981L86.7757 217.385L68.599 257.56L47.5601 250.147L47.4561 250.11L47.3825 250.192C43.6337 254.381 39.4363 258.173 34.8681 261.523L34.7572 261.605L34.8174 261.728L43.7355 280.062L-1.33416 297.138L-10.2654 278.777L-10.3159 278.673L-10.4308 278.685C-16.331 279.301 -22.3393 279.375 -28.3647 278.888L-28.4804 278.879L-28.5282 278.984L-36.9226 297.54L-82.4745 281.488L-74.0918 262.958L-74.0353 262.834L-74.1477 262.755C-78.8945 259.446 -83.1912 255.742 -86.9869 251.711L-87.0624 251.63L-87.1653 251.669L-107.982 259.556L-127.319 219.805L-106.53 211.929L-106.408 211.882L-106.425 211.753C-107.122 206.549 -107.206 201.251 -106.654 195.937L-106.641 195.808L-106.764 195.765L-127.776 188.361L-109.599 148.186L-88.5601 155.599L-88.4561 155.636L-88.3825 155.554C-84.6337 151.365 -80.4363 147.573 -75.8681 144.223L-75.7572 144.141L-75.8174 144.018L-84.7355 125.684L-39.6658 108.608L-30.7346 126.969L-30.6841 127.073L-30.5692 127.061C-24.669 126.445 -18.6607 126.371 -12.6353 126.858L-12.5196 126.867L-12.4718 126.762L-4.07736 108.206L41.4745 124.258L33.0917 142.788L33.0352 142.912L33.1477 142.991C37.8945 146.3 42.1913 150.004 45.9869 154.035L46.0624 154.116L46.1653 154.077L66.9825 146.19L86.3191 185.941L65.53 193.817L65.4076 193.864L65.4249 193.993C66.1219 199.197 66.2062 204.495 65.6544 209.809ZM-57.4743 189.827C-65.6404 207.878 -55.6711 228.333 -35.2579 235.525C-14.8528 242.717 8.31323 233.953 16.4743 215.915C24.6404 197.864 14.6711 177.41 -5.74209 170.217C-26.1483 163.027 -49.3143 171.79 -57.4743 189.827Z" fill="#342F68" fill-opacity="0.7" stroke="#9188DD" stroke-width="0.329783"/>
<path d="M333.508 181.833C337.08 181.697 335.812 181.473 337.08 181.697C337.67 181.809 338.235 182.025 338.747 182.333L339.67 183.208L340.885 185.025L341.501 188.725L342.085 196.156L342.587 201.534L345.011 212.565L346.727 216.968L347.321 219.19C347.506 219.887 347.491 220.621 347.278 221.31L346.811 222.806L346.558 223.502L345.943 223.929L343.343 224.838L340.575 225.265L335.505 226.061L328.152 226.667H323.636L321.923 221.477L320.76 216.39L319.972 211.063L319.665 203.036L320.587 193.722L321.418 190.963L323.132 187.226L325.9 184.226L329.592 182.142L333.508 181.833Z" stroke="#9188DD" stroke-width="0.751536" stroke-miterlimit="10"/>
<path d="M333.508 181.833C337.08 181.697 335.812 181.473 337.08 181.697C337.67 181.809 338.235 182.025 338.747 182.333L339.67 183.208L340.885 185.025L341.501 188.725L342.085 196.156L342.587 201.534L345.011 212.565L346.727 216.968L347.321 219.19C347.506 219.887 347.491 220.621 347.278 221.31L346.811 222.806L346.558 223.502L345.943 223.929L343.343 224.838L340.575 225.265L335.505 226.061L328.152 226.667H323.636L321.923 221.477L320.76 216.39L319.972 211.063L319.665 203.036L320.587 193.722L321.418 190.963L323.132 187.226L325.9 184.226L329.592 182.142L333.508 181.833Z" stroke="#9188DD" stroke-width="0.751536" stroke-miterlimit="10"/>
<path d="M323.716 230.976C323.696 230.857 323.7 230.736 323.727 230.619C323.755 230.502 323.806 230.391 323.878 230.294C323.95 230.196 324.04 230.114 324.144 230.051C324.248 229.988 324.364 229.946 324.485 229.928L336.058 229.02L343.398 228.441H343.46L346.143 228.193C346.367 228.193 348.342 228.544 348.499 228.723L349.145 229.465C349.844 230.279 350.318 231.256 350.523 232.302L351.391 236.632C351.391 236.665 351.391 236.702 351.391 236.738L352.185 245.292C352.188 245.343 352.196 245.394 352.209 245.444L355.313 257.907C355.329 257.97 355.352 258.031 355.381 258.089L358.919 265.556L362.137 272.178L362.171 272.251L365.013 279.564C365.034 279.613 365.05 279.665 365.059 279.718L366.597 286.964C366.646 287.192 366.614 287.429 366.508 287.636L365.416 289.726L365.388 289.783L365.081 290.507C365.041 290.614 364.978 290.712 364.896 290.793C364.814 290.874 364.715 290.935 364.605 290.974C364.496 291.013 364.38 291.028 364.264 291.017C364.148 291.006 364.036 290.971 363.936 290.913L362.958 290.322L362.251 289.895L357.396 286.967L347.881 281.229L338.769 275.733L332.831 272.084L331.801 271.512C331.686 271.445 331.587 271.355 331.511 271.248C331.435 271.14 331.384 271.017 331.361 270.888L328.761 258.016L327.112 249.84L325.103 241.401C325.094 241.371 325.088 241.339 325.085 241.307L324.399 236.363L323.716 230.976Z" stroke="#9188DD" stroke-width="0.751536" stroke-miterlimit="10"/>
<path d="M323.716 230.976C323.696 230.857 323.7 230.736 323.727 230.619C323.755 230.502 323.806 230.391 323.878 230.294C323.95 230.196 324.04 230.114 324.144 230.051C324.248 229.988 324.364 229.946 324.485 229.928L336.058 229.02L343.398 228.441H343.46L346.143 228.193C346.367 228.193 348.342 228.544 348.499 228.723L349.145 229.465C349.844 230.279 350.318 231.256 350.523 232.302L351.391 236.632C351.391 236.665 351.391 236.702 351.391 236.738L352.185 245.292C352.188 245.343 352.196 245.394 352.209 245.444L355.313 257.907C355.329 257.97 355.352 258.031 355.381 258.089L358.919 265.556L362.137 272.178L362.171 272.251L365.013 279.564C365.034 279.613 365.05 279.665 365.059 279.718L366.597 286.964C366.646 287.192 366.614 287.429 366.508 287.636L365.416 289.726L365.388 289.783L365.081 290.507C365.041 290.614 364.978 290.712 364.896 290.793C364.814 290.874 364.715 290.935 364.605 290.974C364.496 291.013 364.38 291.028 364.264 291.017C364.148 291.006 364.036 290.971 363.936 290.913L362.958 290.322L362.251 289.895L357.396 286.967L347.881 281.229L338.769 275.733L332.831 272.084L331.801 271.512C331.686 271.445 331.587 271.355 331.511 271.248C331.435 271.14 331.384 271.017 331.361 270.888L328.761 258.016L327.112 249.84L325.103 241.401C325.094 241.371 325.088 241.339 325.085 241.307L324.399 236.363L323.716 230.976Z" stroke="#9188DD" stroke-width="0.751536" stroke-miterlimit="10"/>
<path d="M318.744 266.812L320.452 257.038L321.873 249.474L322.87 239.86L323.596 232.45L331.437 271.315H325.091H321.873L319.655 270.752L318.034 269.017L318.744 266.812Z" stroke="#9188DD" stroke-width="0.751536" stroke-miterlimit="10"/>
<path d="M318.744 266.812L320.452 257.038L321.873 249.474L322.87 239.86L323.596 232.45L331.437 271.315H325.091H321.873L319.655 270.752L318.034 269.017L318.744 266.812Z" stroke="#9188DD" stroke-width="0.751536" stroke-miterlimit="10"/>
<path d="M366.997 293.217L368.016 295.279C368.155 295.565 368.244 295.872 368.277 296.188L369.44 306.913C369.44 307.013 369.455 307.113 369.455 307.216V325.178C369.456 325.514 369.394 325.848 369.274 326.162L368.253 328.833C368.133 329.151 367.95 329.443 367.714 329.69L364.475 333.051C364.25 333.287 363.976 333.471 363.672 333.59L360.392 334.862C360.152 334.955 359.897 335.004 359.639 335.004H353.544C353.356 335.003 353.169 334.978 352.988 334.929L347.788 333.472C347.646 333.432 347.508 333.378 347.376 333.312L343.438 331.259C343.29 331.181 343.151 331.087 343.023 330.98L336.369 325.339C336.288 325.271 336.212 325.197 336.141 325.118L329.893 318.193L324.925 312.942C324.797 312.806 324.684 312.657 324.589 312.497L319.667 304.109L315.388 296.902C315.363 296.863 315.339 296.821 315.311 296.784L312.672 292.848C312.542 292.66 312.439 292.457 312.364 292.242L310.983 288.194C310.884 287.906 310.834 287.604 310.835 287.3V280.978C310.834 280.803 310.851 280.629 310.884 280.457L311.53 277.051C311.609 276.631 311.788 276.237 312.053 275.9L314.324 273.047C314.579 272.722 314.921 272.471 315.311 272.324L317.689 271.446C317.919 271.359 318.163 271.315 318.409 271.315H330.862C331.247 271.316 331.623 271.421 331.951 271.618L366.099 292.209C366.489 292.455 366.8 292.805 366.997 293.217V293.217Z" stroke="#9188DD" stroke-width="0.751536" stroke-miterlimit="10"/>
<path d="M366.997 293.217L368.016 295.279C368.155 295.565 368.244 295.872 368.277 296.188L369.44 306.913C369.44 307.013 369.455 307.113 369.455 307.216V325.178C369.456 325.514 369.394 325.848 369.274 326.162L368.253 328.833C368.133 329.151 367.95 329.443 367.714 329.69L364.475 333.051C364.25 333.287 363.976 333.471 363.672 333.59L360.392 334.862C360.152 334.955 359.897 335.004 359.639 335.004H353.544C353.356 335.003 353.169 334.978 352.988 334.929L347.788 333.472C347.646 333.432 347.508 333.378 347.376 333.312L343.438 331.259C343.29 331.181 343.151 331.087 343.023 330.98L336.369 325.339C336.288 325.271 336.212 325.197 336.141 325.118L329.893 318.193L324.925 312.942C324.797 312.806 324.684 312.657 324.589 312.497L319.667 304.109L315.388 296.902C315.363 296.863 315.339 296.821 315.311 296.784L312.672 292.848C312.542 292.66 312.439 292.457 312.364 292.242L310.983 288.194C310.884 287.906 310.834 287.604 310.835 287.3V280.978C310.834 280.803 310.851 280.629 310.884 280.457L311.53 277.051C311.609 276.631 311.788 276.237 312.053 275.9L314.324 273.047C314.579 272.722 314.921 272.471 315.311 272.324L317.689 271.446C317.919 271.359 318.163 271.315 318.409 271.315H330.862C331.247 271.316 331.623 271.421 331.951 271.618L366.099 292.209C366.489 292.455 366.8 292.805 366.997 293.217V293.217Z" stroke="#9188DD" stroke-width="0.751536" stroke-miterlimit="10"/>
<path d="M323.211 227.878L323.301 227.633C323.384 227.367 323.549 227.133 323.773 226.964C323.998 226.794 324.27 226.698 324.553 226.688H331.97C332.047 226.688 334.997 226.14 333.41 226.446L339.424 225.456L343.177 224.871C343.283 224.857 343.386 224.83 343.485 224.79L345.389 224.126C344.02 224.702 346.718 223.521 347.075 223.787L347.998 224.287C348.233 224.424 348.427 224.62 348.559 224.856C348.691 225.091 348.758 225.356 348.751 225.625V225.971C348.766 226.315 348.655 226.654 348.439 226.926C348.222 227.197 347.914 227.384 347.57 227.451L340.399 228.441L336.092 229.032H336.021L331.991 229.335L328.238 229.638L325.442 229.856L324.562 229.922C324.269 229.936 323.979 229.854 323.737 229.69C323.495 229.526 323.315 229.288 323.224 229.014V229.014C323.086 228.648 323.082 228.247 323.211 227.878V227.878Z" stroke="#9188DD" stroke-width="0.751536" stroke-miterlimit="10"/>
<path d="M323.211 227.878L323.301 227.633C323.384 227.367 323.549 227.133 323.773 226.964C323.998 226.794 324.27 226.698 324.553 226.688H331.97C332.047 226.688 334.997 226.14 333.41 226.446L339.424 225.456L343.177 224.871C343.283 224.857 343.386 224.83 343.485 224.79L345.389 224.126C344.02 224.702 346.718 223.521 347.075 223.787L347.998 224.287C348.233 224.424 348.427 224.62 348.559 224.856C348.691 225.091 348.758 225.356 348.751 225.625V225.971C348.766 226.315 348.655 226.654 348.439 226.926C348.222 227.197 347.914 227.384 347.57 227.451L340.399 228.441L336.092 229.032H336.021L331.991 229.335L328.238 229.638L325.442 229.856L324.562 229.922C324.269 229.936 323.979 229.854 323.737 229.69C323.495 229.526 323.315 229.288 323.224 229.014V229.014C323.086 228.648 323.082 228.247 323.211 227.878V227.878Z" stroke="#9188DD" stroke-width="0.751536" stroke-miterlimit="10"/>
<path d="M366.115 288.881H367.247L368.077 289.256L368.379 290.428L368.037 291.264L367.247 291.933L366.678 292.566L365.401 291.797L364.69 291.37L364.315 291.143L365.404 289.75L366.115 288.881Z" stroke="#9188DD" stroke-width="0.751536" stroke-miterlimit="10"/>
<path d="M366.115 288.881H367.247L368.077 289.256L368.379 290.428L368.037 291.264L367.247 291.933L366.678 292.566L365.401 291.797L364.69 291.37L364.315 291.143L365.404 289.75L366.115 288.881Z" stroke="#9188DD" stroke-width="0.751536" stroke-miterlimit="10"/>
<path d="M319.123 270.786L315.111 269.196L303.978 268.72L286.092 267.533L276.669 266.228L265.102 264.566L264.169 266.346L262.745 270.786V274.77V275.957L266.923 278.689L274.097 281.892L314.598 271.9L319.123 270.786Z" stroke="#9188DD" stroke-width="0.751536" stroke-miterlimit="10"/>
<path d="M319.123 270.786L315.111 269.196L303.978 268.72L286.092 267.533L276.669 266.228L265.102 264.566L264.169 266.346L262.745 270.786V274.77V275.957L266.923 278.689L274.097 281.892L314.598 271.9L319.123 270.786Z" stroke="#9188DD" stroke-width="0.751536" stroke-miterlimit="10"/>
<path d="M286.203 288.881L292.863 292.566L298.268 296.036L304.049 301.184L308.826 305.084L313.601 310.513L319.138 317.338L324.75 323.189L327.189 326.52H325.306L323.611 327.355L321.51 328.345L319.114 329.599L318.025 330.156H315.856L310.82 326.12L304.427 319.434L298.274 313.444L291.74 306.762L285.077 300.772L279.296 296.593L273.263 292.566L268.864 289.632L265.597 287.543L262.751 286.277L259.438 285.023L256.549 283.77L253.658 282.516C253.54 282.562 253.412 282.579 253.286 282.564C253.16 282.55 253.04 282.505 252.936 282.434C252.832 282.362 252.747 282.267 252.69 282.155C252.633 282.044 252.605 281.92 252.608 281.795L252.402 278.337L253.018 275.554L254.651 274.719L257.038 275.554L260.422 276.53L262.73 277.502L265.828 278.337L270.981 280.427L286.203 288.881Z" stroke="#9188DD" stroke-width="0.751536" stroke-miterlimit="10"/>
<path d="M286.203 288.881L292.863 292.566L298.268 296.036L304.049 301.184L308.826 305.084L313.601 310.513L319.138 317.338L324.75 323.189L327.189 326.52H325.306L323.611 327.355L321.51 328.345L319.114 329.599L318.025 330.156H315.856L310.82 326.12L304.427 319.434L298.274 313.444L291.74 306.762L285.077 300.772L279.296 296.593L273.263 292.566L268.864 289.632L265.597 287.543L262.751 286.277L259.438 285.023L256.549 283.77L253.658 282.516C253.54 282.562 253.412 282.579 253.286 282.564C253.16 282.55 253.04 282.505 252.936 282.434C252.832 282.362 252.747 282.267 252.69 282.155C252.633 282.044 252.605 281.92 252.608 281.795L252.402 278.337L253.018 275.554L254.651 274.719L257.038 275.554L260.422 276.53L262.73 277.502L265.828 278.337L270.981 280.427L286.203 288.881Z" stroke="#9188DD" stroke-width="0.751536" stroke-miterlimit="10"/>
<path d="M265.102 264.566L258.198 262.507L252.396 260.502L243.875 256.566L232.772 249.822L224.533 245.059L219.162 241.883L214.144 239.094L209.133 232.45L205.923 226.741L200.538 220.444L196.157 215.333C194.606 213.505 193.147 212.462 190.892 211.147C189.479 210.478 187.929 209.225 187.26 207.829L181.916 197.028L175.114 188.298L167.593 181.6L161.504 177.967L158.087 176.61C157.247 176.275 156.331 176.169 155.435 176.304C154.54 176.439 153.698 176.809 152.998 177.376L152.149 179.457C151.791 182.269 152.079 185.125 152.992 187.814L154.699 191.078L157.564 197.825L160.437 203.799L165.085 212.508L170.817 220.281L175.828 229.998L182.993 243.857L195.883 260.511L200.898 264.575L205.555 269.262L208.632 273.238L212.702 274.752L225.595 271.336H228.44C230.363 271.334 232.279 271.572 234.141 272.045L235.153 272.302C237.622 272.959 239.792 274.422 241.306 276.451L242.792 278.395L265.102 264.566Z" stroke="#9188DD" stroke-width="0.751536" stroke-miterlimit="10"/>
<path d="M265.102 264.566L258.198 262.507L252.396 260.502L243.875 256.566L232.772 249.822L224.533 245.059L219.162 241.883L214.144 239.094L209.133 232.45L205.923 226.741L200.538 220.444L196.157 215.333C194.606 213.505 193.147 212.462 190.892 211.147C189.479 210.478 187.929 209.225 187.26 207.829L181.916 197.028L175.114 188.298L167.593 181.6L161.504 177.967L158.087 176.61C157.247 176.275 156.331 176.169 155.435 176.304C154.54 176.439 153.698 176.809 152.998 177.376L152.149 179.457C151.791 182.269 152.079 185.125 152.992 187.814L154.699 191.078L157.564 197.825L160.437 203.799L165.085 212.508L170.817 220.281L175.828 229.998L182.993 243.857L195.883 260.511L200.898 264.575L205.555 269.262L208.632 273.238L212.702 274.752L225.595 271.336H228.44C230.363 271.334 232.279 271.572 234.141 272.045L235.153 272.302C237.622 272.959 239.792 274.422 241.306 276.451L242.792 278.395L265.102 264.566Z" stroke="#9188DD" stroke-width="0.751536" stroke-miterlimit="10"/>
<path d="M210.637 280.669L211.102 279.34C212.717 274.731 212.717 274.731 215.824 273.98L218.384 273.229L224.296 271.663C225.168 271.432 226.074 271.356 226.973 271.439L233.941 272.075C234.348 272.112 234.751 272.181 235.147 272.281L236.11 272.526C237.951 273.017 239.568 274.108 240.696 275.621L242.807 278.38L245.237 284.072C245.627 284.631 245.929 285.243 246.136 285.889L249.643 292.636C249.738 292.881 251.442 296.875 250.907 295.125C251.36 296.501 251.486 297.961 251.277 299.393C251.068 300.825 250.529 302.19 249.701 303.385V303.385C248.554 305.129 246.788 306.389 244.748 306.919L242.287 307.525C241.683 307.673 241.063 307.748 240.441 307.749H233.119C232.196 307.749 228.606 306.268 226.465 305.511C225.191 305.06 223.946 304.533 222.737 303.933L217.433 301.314C216.07 300.227 214.75 298.946 213.852 297.329L212.726 295.3C212.486 294.867 212.281 294.417 212.111 293.953L210.665 290.077C210.428 289.435 209.954 286.916 209.788 285.535C209.735 285.108 209.77 284.674 209.89 284.26L210.111 283.482C210.184 283.213 210.226 282.937 210.234 282.658C210.273 281.98 210.408 281.31 210.637 280.669V280.669Z" stroke="#9188DD" stroke-width="0.751536" stroke-miterlimit="10"/>
<path d="M210.637 280.669L211.102 279.34C212.717 274.731 212.717 274.731 215.824 273.98L218.384 273.229L224.296 271.663C225.168 271.432 226.074 271.356 226.973 271.439L233.941 272.075C234.348 272.112 234.751 272.181 235.147 272.281L236.11 272.526C237.951 273.017 239.568 274.108 240.696 275.621L242.807 278.38L245.237 284.072C245.627 284.631 245.929 285.243 246.136 285.889L249.643 292.636C249.738 292.881 251.442 296.875 250.907 295.125C251.36 296.501 251.486 297.961 251.277 299.393C251.068 300.825 250.529 302.19 249.701 303.385V303.385C248.554 305.129 246.788 306.389 244.748 306.919L242.287 307.525C241.683 307.673 241.063 307.748 240.441 307.749H233.119C232.196 307.749 228.606 306.268 226.465 305.511C225.191 305.06 223.946 304.533 222.737 303.933L217.433 301.314C216.07 300.227 214.75 298.946 213.852 297.329L212.726 295.3C212.486 294.867 212.281 294.417 212.111 293.953L210.665 290.077C210.428 289.435 209.954 286.916 209.788 285.535C209.735 285.108 209.77 284.674 209.89 284.26L210.111 283.482C210.184 283.213 210.226 282.937 210.234 282.658C210.273 281.98 210.408 281.31 210.637 280.669V280.669Z" stroke="#9188DD" stroke-width="0.751536" stroke-miterlimit="10"/>
<path d="M252.867 291.464L252.252 299.107C252.252 299.228 252.236 299.349 252.236 299.473V311.712C252.228 313.952 252.844 316.152 254.018 318.071L254.156 318.295C254.817 319.373 255.67 320.324 256.676 321.102L264.837 327.404C264.908 327.458 264.979 327.51 265.053 327.558L268.649 329.962C268.739 330.023 268.827 330.087 268.91 330.156L274.872 334.898L283.406 341.826L283.597 341.972L289.288 346.041C289.511 346.201 289.75 346.337 290.002 346.447L294.115 348.221C294.384 348.338 294.639 348.485 294.875 348.658L297.995 350.956C298.667 351.46 299.496 351.722 300.342 351.697C301.187 351.673 301.999 351.363 302.64 350.82L306.276 347.81C306.52 347.607 306.739 347.378 306.928 347.125L310.362 342.583C310.568 342.308 310.741 342.009 310.875 341.693L314.764 332.609L308.802 328.851C308.514 328.672 308.251 328.456 308.02 328.209L297.536 317.096L292.429 311.773C292.356 311.695 292.279 311.622 292.199 311.552L288.593 308.336L283.363 303.352C283.256 303.25 283.143 303.153 283.025 303.064L275.869 297.614L268.464 292.581C268.309 292.488 268.148 292.405 267.981 292.333L262.542 289.653C262.45 289.608 262.358 289.565 262.262 289.529L258.143 287.9C255.719 286.928 253.095 288.699 252.867 291.464Z" stroke="#9188DD" stroke-width="0.751536" stroke-miterlimit="10"/>
<path d="M252.867 291.464L252.252 299.107C252.252 299.228 252.236 299.349 252.236 299.473V311.712C252.228 313.952 252.844 316.152 254.018 318.071L254.156 318.295C254.817 319.373 255.67 320.324 256.676 321.102L264.837 327.404C264.908 327.458 264.979 327.51 265.053 327.558L268.649 329.962C268.739 330.023 268.827 330.087 268.91 330.156L274.872 334.898L283.406 341.826L283.597 341.972L289.288 346.041C289.511 346.201 289.75 346.337 290.002 346.447L294.115 348.221C294.384 348.338 294.639 348.485 294.875 348.658L297.995 350.956C298.667 351.46 299.496 351.722 300.342 351.697C301.187 351.673 301.999 351.363 302.64 350.82L306.276 347.81C306.52 347.607 306.739 347.378 306.928 347.125L310.362 342.583C310.568 342.308 310.741 342.009 310.875 341.693L314.764 332.609L308.802 328.851C308.514 328.672 308.251 328.456 308.02 328.209L297.536 317.096L292.429 311.773C292.356 311.695 292.279 311.622 292.199 311.552L288.593 308.336L283.363 303.352C283.256 303.25 283.143 303.153 283.025 303.064L275.869 297.614L268.464 292.581C268.309 292.488 268.148 292.405 267.981 292.333L262.542 289.653C262.45 289.608 262.358 289.565 262.262 289.529L258.143 287.9C255.719 286.928 253.095 288.699 252.867 291.464Z" stroke="#9188DD" stroke-width="0.751536" stroke-miterlimit="10"/>
<path d="M215.683 229.459C216.169 227.945 218.03 222.192 218.03 222.192L220.217 216.181L222.238 210.049L224.426 207.481L226.367 207.033H227.742L228.634 207.751L229.686 208.559L230.818 210.049L231.711 212.057L232.437 216.989V226.407L231.951 228.738L231.791 231.248L231.627 232.323L230.828 232.681L225.487 231.694L222.005 230.976L218.621 230.068L215.683 229.459Z" stroke="#9188DD" stroke-width="0.751536" stroke-miterlimit="10"/>
<path d="M215.683 229.459C216.169 227.945 218.03 222.192 218.03 222.192L220.217 216.181L222.238 210.049L224.426 207.481L226.367 207.033H227.742L228.634 207.751L229.686 208.559L230.818 210.049L231.711 212.057L232.437 216.989V226.407L231.951 228.738L231.791 231.248L231.627 232.323L230.828 232.681L225.487 231.694L222.005 230.976L218.621 230.068L215.683 229.459Z" stroke="#9188DD" stroke-width="0.751536" stroke-miterlimit="10"/>
<path d="M213.348 236.811L214.317 234.21V232.687L218.688 233.583L221.602 234.122L223.543 234.749L227.185 235.736L230.019 235.824L231.151 236.184L230.828 239.681L230.342 243.179L229.533 247.306L226.13 245.968L222.574 243.539L219.162 241.871L216.569 240.435L214.148 239.094L213.348 236.811Z" stroke="#9188DD" stroke-width="0.751536" stroke-miterlimit="10"/>
<path d="M213.348 236.811L214.317 234.21V232.687L218.688 233.583L221.602 234.122L223.543 234.749L227.185 235.736L230.019 235.824L231.151 236.184L230.828 239.681L230.342 243.179L229.533 247.306L226.13 245.968L222.574 243.539L219.162 241.871L216.569 240.435L214.148 239.094L213.348 236.811Z" stroke="#9188DD" stroke-width="0.751536" stroke-miterlimit="10"/>
<path d="M231.636 232.326L232.123 233.026C232.334 233.335 232.446 233.7 232.446 234.073L231.544 235.587L230.006 235.836L227.173 235.748L224.773 235.097L220.183 233.886L216.098 232.681H214.316V231.167L214.722 230.258L215.692 229.453L218.608 230.079L223.383 231.26L226.376 231.693L228.32 232.142L229.6 232.417L231.636 232.326Z" stroke="#9188DD" stroke-width="0.751536" stroke-miterlimit="10"/>
<path d="M231.636 232.326L232.123 233.026C232.334 233.335 232.446 233.7 232.446 234.073L231.544 235.587L230.006 235.836L227.173 235.748L224.773 235.097L220.183 233.886L216.098 232.681H214.316V231.167L214.722 230.258L215.692 229.453L218.608 230.079L223.383 231.26L226.376 231.693L228.32 232.142L229.6 232.417L231.636 232.326Z" stroke="#9188DD" stroke-width="0.751536" stroke-miterlimit="10"/>
<path d="M194.579 187.705L196.692 186.957C196.951 186.865 197.232 186.858 197.495 186.936L200.916 187.938C201.178 188.019 201.411 188.172 201.587 188.38L205.771 193.316C205.868 193.43 205.947 193.558 206.007 193.694L208.259 198.682C209.033 200.399 209.657 202.178 210.124 203.999L212.459 213.056C212.483 213.148 212.499 213.242 212.508 213.337L213.338 222.894C213.342 222.944 213.342 222.995 213.338 223.045V226.927C213.339 227.102 213.314 227.275 213.262 227.442L212.671 229.35C212.647 229.425 212.628 229.502 212.616 229.58L212.216 231.975C213.354 237.353 211.446 236.841 209.641 232.526L208.647 230.891L206.355 226.903C206.299 226.806 206.233 226.715 206.158 226.63L202.34 222.431L200.845 220.786C200.639 220.553 200.503 220.268 200.455 219.963L198.64 210.088L198.621 209.994L197.372 204.822L196.111 200.168L195.148 195.905C195.137 195.851 195.122 195.797 195.105 195.744L193.677 191.429C193.619 191.254 193.59 191.071 193.591 190.887V189.207C193.581 188.887 193.67 188.572 193.846 188.304C194.023 188.035 194.278 187.826 194.579 187.705Z" stroke="#9188DD" stroke-width="0.751536" stroke-miterlimit="10"/>
<path d="M194.579 187.705L196.692 186.957C196.951 186.865 197.232 186.858 197.495 186.936L200.916 187.938C201.178 188.019 201.411 188.172 201.587 188.38L205.771 193.316C205.868 193.43 205.947 193.558 206.007 193.694L208.259 198.682C209.033 200.399 209.657 202.178 210.124 203.999L212.459 213.056C212.483 213.148 212.499 213.242 212.508 213.337L213.338 222.894C213.342 222.944 213.342 222.995 213.338 223.045V226.927C213.339 227.102 213.314 227.275 213.262 227.442L212.671 229.35C212.647 229.425 212.628 229.502 212.616 229.58L212.216 231.975C213.354 237.353 211.446 236.841 209.641 232.526L208.647 230.891L206.355 226.903C206.299 226.806 206.233 226.715 206.158 226.63L202.34 222.431L200.845 220.786C200.639 220.553 200.503 220.268 200.455 219.963L198.64 210.088L198.621 209.994L197.372 204.822L196.111 200.168L195.148 195.905C195.137 195.851 195.122 195.797 195.105 195.744L193.677 191.429C193.619 191.254 193.59 191.071 193.591 190.887V189.207C193.581 188.887 193.67 188.572 193.846 188.304C194.023 188.035 194.278 187.826 194.579 187.705Z" stroke="#9188DD" stroke-width="0.751536" stroke-miterlimit="10"/>
<path d="M169.924 182.312L170.186 178.821C170.332 176.806 170.984 174.858 172.084 173.152L172.582 172.383L174.963 170.675L176.785 170H179.024L181.685 170.675L183.507 172.071L185.186 173.936L186.869 176.002L189.109 179.057L190.788 182.315L192.188 185.11L193.591 188.059V191.16L197.372 204.823L198.63 210.061L199.273 213.558L200.122 218.179L200.54 220.453L196.812 216.462L193.736 212.526L191.97 211.717L188.364 210.07L186.589 206.385L184.346 202.349L182.245 198.766L178.606 192.408L175.114 188.298L171.204 184.816L170.038 183.781L169.924 182.966V182.312Z" stroke="#9188DD" stroke-width="0.751536" stroke-miterlimit="10"/>
<path d="M169.924 182.312L170.186 178.821C170.332 176.806 170.984 174.858 172.084 173.152L172.582 172.383L174.963 170.675L176.785 170H179.024L181.685 170.675L183.507 172.071L185.186 173.936L186.869 176.002L189.109 179.057L190.788 182.315L192.188 185.11L193.591 188.059V191.16L197.372 204.823L198.63 210.061L199.273 213.558L200.122 218.179L200.54 220.453L196.812 216.462L193.736 212.526L191.97 211.717L188.364 210.07L186.589 206.385L184.346 202.349L182.245 198.766L178.606 192.408L175.114 188.298L171.204 184.816L170.038 183.781L169.924 182.966V182.312Z" stroke="#9188DD" stroke-width="0.751536" stroke-miterlimit="10"/>
<path d="M182.778 243.857V251.884L183.876 256.169L188.198 264.566L193.376 269.977L201.928 278.38L205.743 281.892L208.109 283.355L209.549 284.072L209.995 281.892L210.791 279.615L211.416 277.832L212.068 275.969L212.502 274.731L209.995 273.804L208.432 273.229L206.454 270.592L204.725 268.678L200.682 264.566L195.668 260.502L194.293 258.283L190.884 254.334L188.629 251.336L185.017 246.749L182.778 243.857Z" stroke="#9188DD" stroke-width="0.751536" stroke-miterlimit="10"/>
<path d="M182.778 243.857V251.884L183.876 256.169L188.198 264.566L193.376 269.977L201.928 278.38L205.743 281.892L208.109 283.355L209.549 284.072L209.995 281.892L210.791 279.615L211.416 277.832L212.068 275.969L212.502 274.731L209.995 273.804L208.432 273.229L206.454 270.592L204.725 268.678L200.682 264.566L195.668 260.502L194.293 258.283L190.884 254.334L188.629 251.336L185.017 246.749L182.778 243.857Z" stroke="#9188DD" stroke-width="0.751536" stroke-miterlimit="10"/>
<path d="M242.798 278.38L247.508 275.464L255.134 270.74L259.983 267.745L263.806 265.383L264.305 265.786L263.816 267.464L262.751 269.644V270.785L253.685 274.722L252.833 275.436L252.427 277.253C252.411 277.333 252.403 277.414 252.402 277.495V280.642C252.402 280.749 252.412 280.857 252.433 280.963L252.608 281.795L252.83 282.207L253.138 282.549C253.272 282.631 253.379 282.749 253.447 282.889C253.515 283.029 253.541 283.185 253.522 283.34L253.368 285.259L253.076 289.529L252.399 298.334L251.852 297.359L250.209 293.726L248.037 289.538L245.628 284.941L244.219 281.913L242.989 278.967L242.798 278.38Z" stroke="#9188DD" stroke-width="0.751536" stroke-miterlimit="10"/>
<path d="M242.798 278.38L247.508 275.464L255.134 270.74L259.983 267.745L263.806 265.383L264.305 265.786L263.816 267.464L262.751 269.644V270.785L253.685 274.722L252.833 275.436L252.427 277.253C252.411 277.333 252.403 277.414 252.402 277.495V280.642C252.402 280.749 252.412 280.857 252.433 280.963L252.608 281.795L252.83 282.207L253.138 282.549C253.272 282.631 253.379 282.749 253.447 282.889C253.515 283.029 253.541 283.185 253.522 283.34L253.368 285.259L253.076 289.529L252.399 298.334L251.852 297.359L250.209 293.726L248.037 289.538L245.628 284.941L244.219 281.913L242.989 278.967L242.798 278.38Z" stroke="#9188DD" stroke-width="0.751536" stroke-miterlimit="10"/>
<path d="M165.085 212.508L187.263 207.83L188.364 210.055L185.233 212.508L177.569 214.137L169.925 215.772H167.491L165.085 212.508Z" stroke="#9188DD" stroke-width="0.751536" stroke-miterlimit="10"/>
<path d="M165.085 212.508L187.263 207.83L188.364 210.055L185.233 212.508L177.569 214.137L169.925 215.772H167.491L165.085 212.508Z" stroke="#9188DD" stroke-width="0.751536" stroke-miterlimit="10"/>
<path d="M212.216 236.532L207.847 239.996L197.64 249.489L190.884 254.334L188.629 251.336L209.641 232.52" stroke="#9188DD" stroke-width="0.751536" stroke-miterlimit="10"/>
<path d="M212.216 236.532L207.847 239.996L197.64 249.489L190.884 254.334L188.629 251.336L209.641 232.52" stroke="#9188DD" stroke-width="0.751536" stroke-miterlimit="10"/>
<path d="M210.791 279.615L219.436 278.768L225.764 279.461C226.705 279.566 227.612 279.867 228.425 280.345L234.815 284.073L239.183 287.612L242.798 292.566L247.966 303.501C248.274 304.173 248.012 305.015 247.465 305.802L245.524 306.692L240.82 296.397L238.091 292.578L234.27 288.881L228.807 285.248L223.374 284.073L218.639 283.122H213.345L210.099 283.491L210.791 279.615Z" stroke="#9188DD" stroke-width="0.751536" stroke-miterlimit="10"/>
<path d="M210.791 279.615L219.436 278.768L225.764 279.461C226.705 279.566 227.612 279.867 228.425 280.345L234.815 284.073L239.183 287.612L242.798 292.566L247.966 303.501C248.274 304.173 248.012 305.015 247.465 305.802L245.524 306.692L240.82 296.397L238.091 292.578L234.27 288.881L228.807 285.248L223.374 284.073L218.639 283.122H213.345L210.099 283.491L210.791 279.615Z" stroke="#9188DD" stroke-width="0.751536" stroke-miterlimit="10"/>
<path d="M228.422 280.345L230.489 271.406L233.932 272.075L231.178 281.892L228.422 280.345Z" stroke="#9188DD" stroke-width="0.751536" stroke-miterlimit="10"/>
<path d="M228.422 280.345L230.489 271.406L233.932 272.075L231.178 281.892L228.422 280.345Z" stroke="#9188DD" stroke-width="0.751536" stroke-miterlimit="10"/>
<path d="M211.681 209.937L199.323 213.652L198.627 210.17L210.859 206.933" stroke="#9188DD" stroke-width="0.751536" stroke-miterlimit="10"/>
<path d="M211.681 209.937L199.323 213.652L198.627 210.17L210.859 206.933" stroke="#9188DD" stroke-width="0.751536" stroke-miterlimit="10"/>
<path d="M196.111 200.159L184.347 202.33L186.039 205.165L196.828 202.848L196.111 200.159Z" stroke="#9188DD" stroke-width="0.751536" stroke-miterlimit="10"/>
<path d="M196.111 200.159L184.347 202.33L186.039 205.165L196.828 202.848L196.111 200.159Z" stroke="#9188DD" stroke-width="0.751536" stroke-miterlimit="10"/>
<path d="M187.38 250.294L183.273 252.665C182.965 252.832 182.987 252.823 183.067 253.174L183.261 253.78L183.46 254.564L183.728 254.534C183.771 254.516 183.812 254.494 183.851 254.47L184.845 253.846L186.238 253.074H186.266L187.592 252.469C187.647 252.444 187.694 252.406 187.73 252.36L188.109 251.899C188.228 251.75 188.292 251.565 188.29 251.375V251.375C188.291 251.218 188.248 251.064 188.164 250.93L187.857 250.455C187.815 250.372 187.741 250.308 187.652 250.278C187.563 250.248 187.465 250.254 187.38 250.294V250.294Z" stroke="#9188DD" stroke-width="0.751536" stroke-miterlimit="10"/>
<path d="M187.38 250.294L183.273 252.665C182.965 252.832 182.987 252.823 183.067 253.174L183.261 253.78L183.46 254.564L183.728 254.534C183.771 254.516 183.812 254.494 183.851 254.47L184.845 253.846L186.238 253.074H186.266L187.592 252.469C187.647 252.444 187.694 252.406 187.73 252.36L188.109 251.899C188.228 251.75 188.292 251.565 188.29 251.375V251.375C188.291 251.218 188.248 251.064 188.164 250.93L187.857 250.455C187.815 250.372 187.741 250.308 187.652 250.278C187.563 250.248 187.465 250.254 187.38 250.294V250.294Z" stroke="#9188DD" stroke-width="0.751536" stroke-miterlimit="10"/>
<path d="M237.9 273.229L238.534 270.51L240.611 263.309L242.413 258.11L242.798 255.902L243.875 256.553L245.127 257.135L244.49 259.109L243.315 264.008L242.143 268.108L240.881 271.406L240.34 273.807L239.909 274.731L237.9 273.229Z" stroke="#9188DD" stroke-width="0.751536" stroke-miterlimit="10"/>
<path d="M237.9 273.229L238.534 270.51L240.611 263.309L242.413 258.11L242.798 255.902L243.875 256.553L245.127 257.135L244.49 259.109L243.315 264.008L242.143 268.108L240.881 271.406L240.34 273.807L239.909 274.731L237.9 273.229Z" stroke="#9188DD" stroke-width="0.751536" stroke-miterlimit="10"/>
<path d="M100.262 140.326H97.3613V147.754H96.5589V140.326H93.6586V139.615H100.262V140.326ZM100.558 146.035C100.558 145.66 100.665 145.339 100.879 145.072C101.093 144.797 101.387 144.587 101.762 144.441C102.144 144.289 102.583 144.212 103.08 144.212C103.37 144.212 103.672 144.235 103.986 144.281C104.299 144.327 104.578 144.396 104.822 144.487V143.983C104.822 143.479 104.673 143.077 104.375 142.779C104.077 142.481 103.665 142.332 103.137 142.332C102.816 142.332 102.499 142.393 102.186 142.516C101.88 142.63 101.559 142.802 101.223 143.031L100.925 142.481C101.315 142.214 101.697 142.015 102.071 141.885C102.446 141.748 102.828 141.679 103.218 141.679C103.951 141.679 104.532 141.889 104.96 142.309C105.388 142.73 105.602 143.31 105.602 144.052V146.814C105.602 146.921 105.625 147.002 105.671 147.055C105.717 147.101 105.789 147.128 105.889 147.135V147.754C105.804 147.762 105.732 147.77 105.671 147.777C105.61 147.785 105.564 147.785 105.533 147.777C105.342 147.77 105.197 147.709 105.098 147.594C104.998 147.479 104.945 147.357 104.937 147.227L104.926 146.791C104.658 147.135 104.31 147.403 103.882 147.594C103.454 147.777 103.019 147.869 102.576 147.869C102.193 147.869 101.846 147.789 101.532 147.628C101.227 147.46 100.986 147.239 100.81 146.963C100.642 146.681 100.558 146.371 100.558 146.035ZM104.559 146.493C104.643 146.386 104.708 146.283 104.754 146.184C104.8 146.085 104.822 145.997 104.822 145.92V145.049C104.563 144.95 104.291 144.873 104.009 144.82C103.733 144.766 103.454 144.739 103.172 144.739C102.614 144.739 102.163 144.85 101.819 145.072C101.475 145.294 101.303 145.595 101.303 145.978C101.303 146.199 101.36 146.409 101.475 146.608C101.59 146.799 101.758 146.96 101.98 147.09C102.201 147.212 102.461 147.273 102.759 147.273C103.134 147.273 103.481 147.2 103.802 147.055C104.131 146.91 104.383 146.723 104.559 146.493ZM112.468 147.754L110.255 144.694L108.983 145.886V147.754H108.203V139.386H108.983V145.049L112.365 141.793H113.224L110.783 144.235L113.316 147.754H112.468ZM117.465 147.869C117.037 147.869 116.64 147.789 116.273 147.628C115.906 147.46 115.589 147.235 115.321 146.952C115.054 146.662 114.844 146.329 114.691 145.955C114.546 145.58 114.473 145.179 114.473 144.751C114.473 144.193 114.599 143.681 114.851 143.215C115.111 142.749 115.467 142.378 115.917 142.103C116.368 141.82 116.88 141.679 117.454 141.679C118.042 141.679 118.554 141.82 118.99 142.103C119.433 142.386 119.781 142.76 120.033 143.226C120.285 143.685 120.411 144.189 120.411 144.739C120.411 144.801 120.411 144.862 120.411 144.923C120.411 144.976 120.407 145.018 120.4 145.049H115.287C115.325 145.477 115.444 145.859 115.642 146.195C115.849 146.524 116.112 146.788 116.433 146.986C116.762 147.177 117.117 147.273 117.499 147.273C117.889 147.273 118.256 147.174 118.6 146.975C118.951 146.776 119.196 146.516 119.334 146.195L120.01 146.379C119.888 146.662 119.7 146.918 119.448 147.147C119.196 147.376 118.898 147.556 118.554 147.686C118.218 147.808 117.855 147.869 117.465 147.869ZM115.264 144.487H119.677C119.647 144.052 119.528 143.67 119.322 143.341C119.123 143.012 118.86 142.756 118.531 142.573C118.21 142.382 117.855 142.286 117.465 142.286C117.075 142.286 116.72 142.382 116.399 142.573C116.078 142.756 115.814 143.016 115.608 143.352C115.409 143.681 115.295 144.059 115.264 144.487ZM129.236 147.468C129.175 147.491 129.079 147.533 128.949 147.594C128.819 147.655 128.663 147.709 128.479 147.754C128.296 147.8 128.097 147.823 127.883 147.823C127.661 147.823 127.451 147.781 127.253 147.697C127.061 147.613 126.909 147.487 126.794 147.319C126.679 147.143 126.622 146.929 126.622 146.677V142.401H125.797V141.782H126.622V139.764H127.402V141.782H128.777V142.401H127.402V146.459C127.417 146.673 127.493 146.833 127.631 146.94C127.776 147.047 127.94 147.101 128.124 147.101C128.338 147.101 128.533 147.067 128.708 146.998C128.884 146.921 128.991 146.868 129.029 146.837L129.236 147.468ZM136.148 147.754H135.368V144.419C135.368 143.746 135.25 143.242 135.013 142.905C134.776 142.561 134.436 142.389 133.993 142.389C133.702 142.389 133.412 142.466 133.121 142.619C132.839 142.764 132.586 142.966 132.365 143.226C132.151 143.479 131.998 143.769 131.906 144.098V147.754H131.127V139.386H131.906V143.135C132.143 142.691 132.472 142.34 132.892 142.08C133.32 141.812 133.775 141.679 134.256 141.679C134.6 141.679 134.891 141.74 135.128 141.862C135.372 141.984 135.567 142.164 135.712 142.401C135.865 142.63 135.976 142.902 136.045 143.215C136.113 143.521 136.148 143.868 136.148 144.258V147.754ZM141.306 147.869C140.878 147.869 140.481 147.789 140.114 147.628C139.747 147.46 139.43 147.235 139.163 146.952C138.895 146.662 138.685 146.329 138.532 145.955C138.387 145.58 138.314 145.179 138.314 144.751C138.314 144.193 138.441 143.681 138.693 143.215C138.953 142.749 139.308 142.378 139.759 142.103C140.21 141.82 140.722 141.679 141.295 141.679C141.883 141.679 142.395 141.82 142.831 142.103C143.274 142.386 143.622 142.76 143.874 143.226C144.126 143.685 144.253 144.189 144.253 144.739C144.253 144.801 144.253 144.862 144.253 144.923C144.253 144.976 144.249 145.018 144.241 145.049H139.128C139.167 145.477 139.285 145.859 139.484 146.195C139.69 146.524 139.954 146.788 140.275 146.986C140.603 147.177 140.959 147.273 141.341 147.273C141.731 147.273 142.097 147.174 142.441 146.975C142.793 146.776 143.037 146.516 143.175 146.195L143.851 146.379C143.729 146.662 143.542 146.918 143.29 147.147C143.037 147.376 142.739 147.556 142.395 147.686C142.059 147.808 141.696 147.869 141.306 147.869ZM139.105 144.487H143.519C143.488 144.052 143.37 143.67 143.164 143.341C142.965 143.012 142.701 142.756 142.373 142.573C142.052 142.382 141.696 142.286 141.306 142.286C140.917 142.286 140.561 142.382 140.24 142.573C139.919 142.756 139.656 143.016 139.449 143.352C139.251 143.681 139.136 144.059 139.105 144.487ZM150.498 142.401H149.672V141.782H150.498V141.621C150.498 141.339 150.54 141.06 150.624 140.785C150.708 140.509 150.834 140.257 151.002 140.028C151.178 139.799 151.396 139.615 151.656 139.478C151.923 139.34 152.24 139.271 152.607 139.271C152.89 139.271 153.142 139.302 153.364 139.363C153.593 139.424 153.792 139.497 153.96 139.581C154.128 139.665 154.254 139.741 154.338 139.81L153.983 140.372C153.86 140.257 153.677 140.162 153.432 140.085C153.196 140.001 152.936 139.959 152.653 139.959C152.332 139.959 152.068 140.043 151.862 140.211C151.663 140.372 151.514 140.578 151.415 140.83C151.323 141.083 151.277 141.339 151.277 141.598V141.782H154.269V147.754H153.49V142.401H151.277V147.754H150.498V142.401ZM159.885 142.47C159.366 142.485 158.907 142.63 158.51 142.905C158.12 143.18 157.845 143.559 157.684 144.04V147.754H156.905V141.782H157.639V143.215C157.845 142.795 158.116 142.454 158.452 142.195C158.796 141.935 159.159 141.79 159.541 141.759C159.618 141.751 159.683 141.748 159.736 141.748C159.797 141.748 159.847 141.751 159.885 141.759V142.47ZM163.801 147.869C163.312 147.869 162.857 147.789 162.437 147.628C162.017 147.468 161.654 147.223 161.348 146.895L161.669 146.344C162.005 146.658 162.341 146.887 162.678 147.032C163.022 147.17 163.385 147.239 163.767 147.239C164.233 147.239 164.611 147.147 164.902 146.963C165.192 146.772 165.337 146.501 165.337 146.15C165.337 145.913 165.265 145.733 165.119 145.611C164.982 145.481 164.779 145.378 164.512 145.301C164.252 145.217 163.939 145.129 163.572 145.038C163.159 144.923 162.811 144.804 162.529 144.682C162.254 144.552 162.043 144.392 161.898 144.201C161.761 144.002 161.692 143.746 161.692 143.433C161.692 143.043 161.787 142.722 161.978 142.47C162.177 142.21 162.445 142.015 162.781 141.885C163.125 141.748 163.507 141.679 163.927 141.679C164.386 141.679 164.791 141.751 165.142 141.897C165.494 142.042 165.781 142.244 166.002 142.504L165.624 143.031C165.41 142.787 165.154 142.607 164.856 142.493C164.565 142.37 164.241 142.309 163.881 142.309C163.637 142.309 163.404 142.344 163.182 142.412C162.96 142.474 162.777 142.581 162.632 142.733C162.494 142.879 162.426 143.081 162.426 143.341C162.426 143.555 162.479 143.723 162.586 143.845C162.693 143.96 162.853 144.059 163.067 144.143C163.281 144.22 163.545 144.304 163.858 144.396C164.309 144.518 164.703 144.644 165.039 144.774C165.375 144.896 165.635 145.057 165.819 145.255C166.002 145.454 166.094 145.733 166.094 146.092C166.094 146.65 165.884 147.086 165.463 147.399C165.043 147.712 164.489 147.869 163.801 147.869ZM171.165 147.468C171.104 147.491 171.009 147.533 170.879 147.594C170.749 147.655 170.592 147.709 170.409 147.754C170.225 147.8 170.027 147.823 169.813 147.823C169.591 147.823 169.381 147.781 169.182 147.697C168.991 147.613 168.838 147.487 168.724 147.319C168.609 147.143 168.552 146.929 168.552 146.677V142.401H167.726V141.782H168.552V139.764H169.331V141.782H170.707V142.401H169.331V146.459C169.346 146.673 169.423 146.833 169.56 146.94C169.706 147.047 169.87 147.101 170.053 147.101C170.267 147.101 170.462 147.067 170.638 146.998C170.814 146.921 170.921 146.868 170.959 146.837L171.165 147.468ZM178.856 147.869C178.366 147.869 177.912 147.789 177.491 147.628C177.071 147.468 176.708 147.223 176.402 146.895L176.723 146.344C177.06 146.658 177.396 146.887 177.732 147.032C178.076 147.17 178.439 147.239 178.821 147.239C179.287 147.239 179.666 147.147 179.956 146.963C180.246 146.772 180.392 146.501 180.392 146.15C180.392 145.913 180.319 145.733 180.174 145.611C180.036 145.481 179.834 145.378 179.566 145.301C179.306 145.217 178.993 145.129 178.626 145.038C178.214 144.923 177.866 144.804 177.583 144.682C177.308 144.552 177.098 144.392 176.953 144.201C176.815 144.002 176.746 143.746 176.746 143.433C176.746 143.043 176.842 142.722 177.033 142.47C177.232 142.21 177.499 142.015 177.835 141.885C178.179 141.748 178.561 141.679 178.982 141.679C179.44 141.679 179.845 141.751 180.197 141.897C180.548 142.042 180.835 142.244 181.057 142.504L180.678 143.031C180.464 142.787 180.208 142.607 179.91 142.493C179.62 142.37 179.295 142.309 178.936 142.309C178.691 142.309 178.458 142.344 178.236 142.412C178.015 142.474 177.831 142.581 177.686 142.733C177.549 142.879 177.48 143.081 177.48 143.341C177.48 143.555 177.533 143.723 177.64 143.845C177.747 143.96 177.908 144.059 178.122 144.143C178.336 144.22 178.599 144.304 178.913 144.396C179.364 144.518 179.757 144.644 180.094 144.774C180.43 144.896 180.69 145.057 180.873 145.255C181.057 145.454 181.148 145.733 181.148 146.092C181.148 146.65 180.938 147.086 180.518 147.399C180.097 147.712 179.543 147.869 178.856 147.869ZM186.22 147.468C186.159 147.491 186.063 147.533 185.933 147.594C185.803 147.655 185.646 147.709 185.463 147.754C185.28 147.8 185.081 147.823 184.867 147.823C184.645 147.823 184.435 147.781 184.236 147.697C184.045 147.613 183.893 147.487 183.778 147.319C183.663 147.143 183.606 146.929 183.606 146.677V142.401H182.781V141.782H183.606V139.764H184.385V141.782H185.761V142.401H184.385V146.459C184.401 146.673 184.477 146.833 184.615 146.94C184.76 147.047 184.924 147.101 185.108 147.101C185.322 147.101 185.517 147.067 185.692 146.998C185.868 146.921 185.975 146.868 186.013 146.837L186.22 147.468ZM190.589 147.869C190.161 147.869 189.764 147.789 189.397 147.628C189.03 147.46 188.713 147.235 188.446 146.952C188.178 146.662 187.968 146.329 187.815 145.955C187.67 145.58 187.597 145.179 187.597 144.751C187.597 144.193 187.723 143.681 187.976 143.215C188.235 142.749 188.591 142.378 189.042 142.103C189.493 141.82 190.005 141.679 190.578 141.679C191.166 141.679 191.678 141.82 192.114 142.103C192.557 142.386 192.905 142.76 193.157 143.226C193.409 143.685 193.535 144.189 193.535 144.739C193.535 144.801 193.535 144.862 193.535 144.923C193.535 144.976 193.532 145.018 193.524 145.049H188.411C188.449 145.477 188.568 145.859 188.767 146.195C188.973 146.524 189.237 146.788 189.558 146.986C189.886 147.177 190.241 147.273 190.624 147.273C191.013 147.273 191.38 147.174 191.724 146.975C192.076 146.776 192.32 146.516 192.458 146.195L193.134 146.379C193.012 146.662 192.825 146.918 192.572 147.147C192.32 147.376 192.022 147.556 191.678 147.686C191.342 147.808 190.979 147.869 190.589 147.869ZM188.388 144.487H192.802C192.771 144.052 192.653 143.67 192.446 143.341C192.248 143.012 191.984 142.756 191.655 142.573C191.334 142.382 190.979 142.286 190.589 142.286C190.199 142.286 189.844 142.382 189.523 142.573C189.202 142.756 188.938 143.016 188.732 143.352C188.533 143.681 188.419 144.059 188.388 144.487ZM198.704 147.869C198.208 147.869 197.761 147.739 197.363 147.479C196.973 147.219 196.664 146.898 196.435 146.516V150.196H195.655V141.782H196.354V142.94C196.591 142.565 196.908 142.263 197.306 142.034C197.703 141.797 198.127 141.679 198.578 141.679C198.991 141.679 199.369 141.767 199.713 141.942C200.057 142.111 200.355 142.34 200.607 142.63C200.86 142.921 201.054 143.253 201.192 143.628C201.337 143.994 201.41 144.376 201.41 144.774C201.41 145.332 201.295 145.848 201.066 146.321C200.844 146.788 200.531 147.162 200.126 147.445C199.721 147.728 199.247 147.869 198.704 147.869ZM198.487 147.181C198.815 147.181 199.109 147.116 199.369 146.986C199.629 146.849 199.851 146.665 200.034 146.436C200.225 146.207 200.37 145.951 200.47 145.668C200.569 145.378 200.619 145.08 200.619 144.774C200.619 144.453 200.561 144.147 200.447 143.857C200.34 143.566 200.183 143.31 199.977 143.089C199.771 142.867 199.534 142.691 199.266 142.561C198.999 142.432 198.708 142.367 198.395 142.367C198.196 142.367 197.99 142.405 197.776 142.481C197.562 142.558 197.356 142.668 197.157 142.814C196.966 142.951 196.805 143.108 196.675 143.284C196.545 143.459 196.465 143.647 196.435 143.845V145.679C196.557 145.962 196.721 146.218 196.928 146.448C197.134 146.669 197.371 146.849 197.638 146.986C197.913 147.116 198.196 147.181 198.487 147.181ZM210.352 147.468C210.291 147.491 210.195 147.533 210.066 147.594C209.936 147.655 209.779 147.709 209.596 147.754C209.412 147.8 209.213 147.823 208.999 147.823C208.778 147.823 208.568 147.781 208.369 147.697C208.178 147.613 208.025 147.487 207.91 147.319C207.796 147.143 207.738 146.929 207.738 146.677V142.401H206.913V141.782H207.738V139.764H208.518V141.782H209.894V142.401H208.518V146.459C208.533 146.673 208.61 146.833 208.747 146.94C208.892 147.047 209.057 147.101 209.24 147.101C209.454 147.101 209.649 147.067 209.825 146.998C210.001 146.921 210.108 146.868 210.146 146.837L210.352 147.468ZM214.687 147.869C214.259 147.869 213.862 147.789 213.495 147.628C213.136 147.46 212.823 147.235 212.555 146.952C212.295 146.662 212.093 146.333 211.948 145.966C211.802 145.592 211.73 145.198 211.73 144.785C211.73 144.357 211.802 143.96 211.948 143.593C212.093 143.219 212.299 142.89 212.567 142.607C212.834 142.317 213.147 142.091 213.507 141.931C213.873 141.763 214.271 141.679 214.699 141.679C215.127 141.679 215.52 141.763 215.88 141.931C216.239 142.091 216.552 142.317 216.82 142.607C217.087 142.89 217.293 143.219 217.439 143.593C217.584 143.96 217.656 144.357 217.656 144.785C217.656 145.198 217.584 145.592 217.439 145.966C217.293 146.333 217.087 146.662 216.82 146.952C216.56 147.235 216.246 147.46 215.88 147.628C215.52 147.789 215.123 147.869 214.687 147.869ZM212.521 144.797C212.521 145.24 212.616 145.645 212.807 146.012C213.006 146.371 213.27 146.658 213.598 146.872C213.927 147.078 214.29 147.181 214.687 147.181C215.085 147.181 215.448 147.074 215.776 146.86C216.105 146.646 216.369 146.356 216.567 145.989C216.766 145.615 216.865 145.209 216.865 144.774C216.865 144.331 216.766 143.926 216.567 143.559C216.369 143.192 216.105 142.902 215.776 142.688C215.448 142.474 215.085 142.367 214.687 142.367C214.29 142.367 213.927 142.477 213.598 142.699C213.277 142.921 213.017 143.215 212.819 143.582C212.62 143.941 212.521 144.346 212.521 144.797ZM227.196 141.782H227.964L225.396 147.754H224.72L223.47 144.785L222.232 147.754H221.556L218.988 141.782H219.744L221.922 146.952L223.023 144.258L222.014 141.793H222.713L223.47 143.731L224.238 141.793H224.926L223.929 144.258L225.029 146.952L227.196 141.782ZM229.291 146.035C229.291 145.66 229.398 145.339 229.612 145.072C229.826 144.797 230.12 144.587 230.495 144.441C230.877 144.289 231.316 144.212 231.813 144.212C232.103 144.212 232.405 144.235 232.719 144.281C233.032 144.327 233.311 144.396 233.555 144.487V143.983C233.555 143.479 233.406 143.077 233.108 142.779C232.81 142.481 232.398 142.332 231.87 142.332C231.549 142.332 231.232 142.393 230.919 142.516C230.613 142.63 230.292 142.802 229.956 143.031L229.658 142.481C230.048 142.214 230.43 142.015 230.804 141.885C231.179 141.748 231.561 141.679 231.951 141.679C232.684 141.679 233.265 141.889 233.693 142.309C234.121 142.73 234.335 143.31 234.335 144.052V146.814C234.335 146.921 234.358 147.002 234.404 147.055C234.45 147.101 234.522 147.128 234.622 147.135V147.754C234.537 147.762 234.465 147.77 234.404 147.777C234.343 147.785 234.297 147.785 234.266 147.777C234.075 147.77 233.93 147.709 233.831 147.594C233.731 147.479 233.678 147.357 233.67 147.227L233.659 146.791C233.391 147.135 233.043 147.403 232.615 147.594C232.187 147.777 231.752 147.869 231.309 147.869C230.926 147.869 230.579 147.789 230.265 147.628C229.96 147.46 229.719 147.239 229.543 146.963C229.375 146.681 229.291 146.371 229.291 146.035ZM233.292 146.493C233.376 146.386 233.441 146.283 233.487 146.184C233.533 146.085 233.555 145.997 233.555 145.92V145.049C233.296 144.95 233.024 144.873 232.742 144.82C232.466 144.766 232.187 144.739 231.905 144.739C231.347 144.739 230.896 144.85 230.552 145.072C230.208 145.294 230.036 145.595 230.036 145.978C230.036 146.199 230.093 146.409 230.208 146.608C230.323 146.799 230.491 146.96 230.713 147.09C230.934 147.212 231.194 147.273 231.492 147.273C231.866 147.273 232.214 147.2 232.535 147.055C232.864 146.91 233.116 146.723 233.292 146.493ZM239.917 142.47C239.397 142.485 238.939 142.63 238.541 142.905C238.151 143.18 237.876 143.559 237.716 144.04V147.754H236.936V141.782H237.67V143.215C237.876 142.795 238.148 142.454 238.484 142.195C238.828 141.935 239.191 141.79 239.573 141.759C239.649 141.751 239.714 141.748 239.768 141.748C239.829 141.748 239.879 141.751 239.917 141.759V142.47ZM241.303 144.785C241.303 144.22 241.418 143.704 241.647 143.238C241.884 142.764 242.209 142.386 242.621 142.103C243.034 141.82 243.504 141.679 244.031 141.679C244.528 141.679 244.971 141.812 245.361 142.08C245.759 142.34 246.068 142.657 246.29 143.031V139.386H247.069V146.814C247.069 146.921 247.092 147.002 247.138 147.055C247.184 147.101 247.253 147.128 247.344 147.135V147.754C247.192 147.777 247.073 147.785 246.989 147.777C246.829 147.77 246.687 147.705 246.565 147.582C246.443 147.46 246.382 147.326 246.382 147.181V146.597C246.145 146.986 245.824 147.296 245.419 147.525C245.014 147.754 244.593 147.869 244.158 147.869C243.745 147.869 243.363 147.785 243.011 147.617C242.667 147.449 242.365 147.219 242.106 146.929C241.853 146.639 241.655 146.31 241.51 145.943C241.372 145.569 241.303 145.183 241.303 144.785ZM246.29 145.702V143.857C246.19 143.582 246.03 143.333 245.808 143.112C245.587 142.882 245.335 142.703 245.052 142.573C244.777 142.435 244.501 142.367 244.226 142.367C243.905 142.367 243.615 142.435 243.355 142.573C243.095 142.703 242.87 142.882 242.679 143.112C242.495 143.341 242.354 143.601 242.255 143.891C242.155 144.182 242.106 144.48 242.106 144.785C242.106 145.106 242.159 145.412 242.266 145.702C242.381 145.993 242.541 146.253 242.748 146.482C242.954 146.704 243.191 146.876 243.458 146.998C243.726 147.12 244.016 147.181 244.33 147.181C244.528 147.181 244.735 147.143 244.949 147.067C245.163 146.99 245.365 146.887 245.556 146.757C245.755 146.62 245.919 146.459 246.049 146.276C246.179 146.092 246.259 145.901 246.29 145.702ZM251.713 147.869C251.224 147.869 250.769 147.789 250.349 147.628C249.928 147.468 249.565 147.223 249.26 146.895L249.581 146.344C249.917 146.658 250.253 146.887 250.589 147.032C250.933 147.17 251.296 147.239 251.678 147.239C252.145 147.239 252.523 147.147 252.813 146.963C253.104 146.772 253.249 146.501 253.249 146.15C253.249 145.913 253.176 145.733 253.031 145.611C252.894 145.481 252.691 145.378 252.424 145.301C252.164 145.217 251.85 145.129 251.484 145.038C251.071 144.923 250.723 144.804 250.44 144.682C250.165 144.552 249.955 144.392 249.81 144.201C249.672 144.002 249.604 143.746 249.604 143.433C249.604 143.043 249.699 142.722 249.89 142.47C250.089 142.21 250.356 142.015 250.693 141.885C251.036 141.748 251.419 141.679 251.839 141.679C252.297 141.679 252.703 141.751 253.054 141.897C253.406 142.042 253.692 142.244 253.914 142.504L253.536 143.031C253.322 142.787 253.066 142.607 252.767 142.493C252.477 142.37 252.152 142.309 251.793 142.309C251.549 142.309 251.315 142.344 251.094 142.412C250.872 142.474 250.689 142.581 250.544 142.733C250.406 142.879 250.337 143.081 250.337 143.341C250.337 143.555 250.391 143.723 250.498 143.845C250.605 143.96 250.765 144.059 250.979 144.143C251.193 144.22 251.457 144.304 251.77 144.396C252.221 144.518 252.615 144.644 252.951 144.774C253.287 144.896 253.547 145.057 253.73 145.255C253.914 145.454 254.006 145.733 254.006 146.092C254.006 146.65 253.795 147.086 253.375 147.399C252.955 147.712 252.401 147.869 251.713 147.869ZM262.916 147.468C262.855 147.491 262.759 147.533 262.629 147.594C262.499 147.655 262.343 147.709 262.159 147.754C261.976 147.8 261.777 147.823 261.563 147.823C261.342 147.823 261.131 147.781 260.933 147.697C260.742 147.613 260.589 147.487 260.474 147.319C260.36 147.143 260.302 146.929 260.302 146.677V142.401H259.477V141.782H260.302V139.764H261.082V141.782H262.457V142.401H261.082V146.459C261.097 146.673 261.173 146.833 261.311 146.94C261.456 147.047 261.621 147.101 261.804 147.101C262.018 147.101 262.213 147.067 262.389 146.998C262.564 146.921 262.671 146.868 262.71 146.837L262.916 147.468ZM269.828 147.754H269.048V144.419C269.048 143.746 268.93 143.242 268.693 142.905C268.456 142.561 268.116 142.389 267.673 142.389C267.382 142.389 267.092 142.466 266.802 142.619C266.519 142.764 266.267 142.966 266.045 143.226C265.831 143.479 265.678 143.769 265.586 144.098V147.754H264.807V139.386H265.586V143.135C265.823 142.691 266.152 142.34 266.572 142.08C267 141.812 267.455 141.679 267.936 141.679C268.28 141.679 268.571 141.74 268.808 141.862C269.052 141.984 269.247 142.164 269.392 142.401C269.545 142.63 269.656 142.902 269.725 143.215C269.794 143.521 269.828 143.868 269.828 144.258V147.754ZM274.987 147.869C274.559 147.869 274.161 147.789 273.794 147.628C273.428 147.46 273.11 147.235 272.843 146.952C272.575 146.662 272.365 146.329 272.212 145.955C272.067 145.58 271.995 145.179 271.995 144.751C271.995 144.193 272.121 143.681 272.373 143.215C272.633 142.749 272.988 142.378 273.439 142.103C273.89 141.82 274.402 141.679 274.975 141.679C275.564 141.679 276.076 141.82 276.511 142.103C276.955 142.386 277.302 142.76 277.554 143.226C277.807 143.685 277.933 144.189 277.933 144.739C277.933 144.801 277.933 144.862 277.933 144.923C277.933 144.976 277.929 145.018 277.921 145.049H272.809C272.847 145.477 272.965 145.859 273.164 146.195C273.37 146.524 273.634 146.788 273.955 146.986C274.284 147.177 274.639 147.273 275.021 147.273C275.411 147.273 275.778 147.174 276.122 146.975C276.473 146.776 276.718 146.516 276.855 146.195L277.532 146.379C277.409 146.662 277.222 146.918 276.97 147.147C276.718 147.376 276.42 147.556 276.076 147.686C275.739 147.808 275.376 147.869 274.987 147.869ZM272.786 144.487H277.199C277.169 144.052 277.05 143.67 276.844 143.341C276.645 143.012 276.381 142.756 276.053 142.573C275.732 142.382 275.376 142.286 274.987 142.286C274.597 142.286 274.242 142.382 273.921 142.573C273.6 142.756 273.336 143.016 273.13 143.352C272.931 143.681 272.816 144.059 272.786 144.487ZM291.087 141.782H291.855L289.287 147.754H288.611L287.361 144.785L286.123 147.754H285.447L282.879 141.782H283.636L285.814 146.952L286.914 144.258L285.905 141.793H286.605L287.361 143.731L288.129 141.793H288.817L287.82 144.258L288.92 146.952L291.087 141.782ZM296.153 147.869C295.725 147.869 295.327 147.789 294.96 147.628C294.601 147.46 294.288 147.235 294.02 146.952C293.761 146.662 293.558 146.333 293.413 145.966C293.268 145.592 293.195 145.198 293.195 144.785C293.195 144.357 293.268 143.96 293.413 143.593C293.558 143.219 293.764 142.89 294.032 142.607C294.299 142.317 294.613 142.091 294.972 141.931C295.339 141.763 295.736 141.679 296.164 141.679C296.592 141.679 296.986 141.763 297.345 141.931C297.704 142.091 298.017 142.317 298.285 142.607C298.552 142.89 298.759 143.219 298.904 143.593C299.049 143.96 299.122 144.357 299.122 144.785C299.122 145.198 299.049 145.592 298.904 145.966C298.759 146.333 298.552 146.662 298.285 146.952C298.025 147.235 297.712 147.46 297.345 147.628C296.986 147.789 296.588 147.869 296.153 147.869ZM293.986 144.797C293.986 145.24 294.082 145.645 294.273 146.012C294.471 146.371 294.735 146.658 295.064 146.872C295.392 147.078 295.755 147.181 296.153 147.181C296.55 147.181 296.913 147.074 297.242 146.86C297.57 146.646 297.834 146.356 298.033 145.989C298.231 145.615 298.331 145.209 298.331 144.774C298.331 144.331 298.231 143.926 298.033 143.559C297.834 143.192 297.57 142.902 297.242 142.688C296.913 142.474 296.55 142.367 296.153 142.367C295.755 142.367 295.392 142.477 295.064 142.699C294.743 142.921 294.483 143.215 294.284 143.582C294.085 143.941 293.986 144.346 293.986 144.797ZM304.323 142.47C303.803 142.485 303.345 142.63 302.947 142.905C302.558 143.18 302.282 143.559 302.122 144.04V147.754H301.342V141.782H302.076V143.215C302.282 142.795 302.554 142.454 302.89 142.195C303.234 141.935 303.597 141.79 303.979 141.759C304.055 141.751 304.12 141.748 304.174 141.748C304.235 141.748 304.285 141.751 304.323 141.759V142.47ZM306.313 139.386H307.092V146.402C307.092 146.7 307.146 146.895 307.253 146.986C307.36 147.078 307.49 147.124 307.643 147.124C307.78 147.124 307.918 147.109 308.055 147.078C308.193 147.047 308.311 147.017 308.411 146.986L308.548 147.617C308.403 147.678 308.223 147.728 308.009 147.766C307.803 147.804 307.624 147.823 307.471 147.823C307.119 147.823 306.836 147.72 306.622 147.514C306.416 147.307 306.313 147.025 306.313 146.665V139.386ZM309.918 144.785C309.918 144.22 310.032 143.704 310.262 143.238C310.498 142.764 310.823 142.386 311.236 142.103C311.649 141.82 312.119 141.679 312.646 141.679C313.143 141.679 313.586 141.812 313.976 142.08C314.373 142.34 314.683 142.657 314.904 143.031V139.386H315.684V146.814C315.684 146.921 315.707 147.002 315.753 147.055C315.798 147.101 315.867 147.128 315.959 147.135V147.754C315.806 147.777 315.688 147.785 315.604 147.777C315.443 147.77 315.302 147.705 315.179 147.582C315.057 147.46 314.996 147.326 314.996 147.181V146.597C314.759 146.986 314.438 147.296 314.033 147.525C313.628 147.754 313.208 147.869 312.772 147.869C312.359 147.869 311.977 147.785 311.626 147.617C311.282 147.449 310.98 147.219 310.72 146.929C310.468 146.639 310.269 146.31 310.124 145.943C309.986 145.569 309.918 145.183 309.918 144.785ZM314.904 145.702V143.857C314.805 143.582 314.644 143.333 314.423 143.112C314.201 142.882 313.949 142.703 313.666 142.573C313.391 142.435 313.116 142.367 312.841 142.367C312.52 142.367 312.229 142.435 311.97 142.573C311.71 142.703 311.484 142.882 311.293 143.112C311.11 143.341 310.968 143.601 310.869 143.891C310.77 144.182 310.72 144.48 310.72 144.785C310.72 145.106 310.774 145.412 310.881 145.702C310.995 145.993 311.156 146.253 311.362 146.482C311.568 146.704 311.805 146.876 312.073 146.998C312.34 147.12 312.631 147.181 312.944 147.181C313.143 147.181 313.349 147.143 313.563 147.067C313.777 146.99 313.98 146.887 314.171 146.757C314.369 146.62 314.534 146.459 314.664 146.276C314.793 146.092 314.874 145.901 314.904 145.702ZM324.751 147.869C324.323 147.869 323.926 147.789 323.559 147.628C323.2 147.46 322.886 147.235 322.619 146.952C322.359 146.662 322.156 146.333 322.011 145.966C321.866 145.592 321.793 145.198 321.793 144.785C321.793 144.357 321.866 143.96 322.011 143.593C322.156 143.219 322.363 142.89 322.63 142.607C322.898 142.317 323.211 142.091 323.57 141.931C323.937 141.763 324.334 141.679 324.762 141.679C325.19 141.679 325.584 141.763 325.943 141.931C326.302 142.091 326.616 142.317 326.883 142.607C327.151 142.89 327.357 143.219 327.502 143.593C327.647 143.96 327.72 144.357 327.72 144.785C327.72 145.198 327.647 145.592 327.502 145.966C327.357 146.333 327.151 146.662 326.883 146.952C326.623 147.235 326.31 147.46 325.943 147.628C325.584 147.789 325.187 147.869 324.751 147.869ZM322.584 144.797C322.584 145.24 322.68 145.645 322.871 146.012C323.07 146.371 323.333 146.658 323.662 146.872C323.991 147.078 324.354 147.181 324.751 147.181C325.148 147.181 325.511 147.074 325.84 146.86C326.169 146.646 326.432 146.356 326.631 145.989C326.83 145.615 326.929 145.209 326.929 144.774C326.929 144.331 326.83 143.926 326.631 143.559C326.432 143.192 326.169 142.902 325.84 142.688C325.511 142.474 325.148 142.367 324.751 142.367C324.354 142.367 323.991 142.477 323.662 142.699C323.341 142.921 323.081 143.215 322.882 143.582C322.684 143.941 322.584 144.346 322.584 144.797ZM330.127 147.754V142.401H329.301V141.782H330.127V141.621C330.127 141.132 330.195 140.712 330.333 140.36C330.478 140.009 330.681 139.741 330.94 139.558C331.208 139.367 331.521 139.271 331.88 139.271C332.117 139.271 332.347 139.306 332.568 139.375C332.79 139.443 332.981 139.535 333.141 139.65L332.901 140.211C332.801 140.127 332.671 140.062 332.511 140.017C332.35 139.971 332.19 139.948 332.03 139.948C331.67 139.948 331.391 140.089 331.193 140.372C331.002 140.655 330.906 141.064 330.906 141.598V141.782H332.557V142.401H330.906V147.754H330.127ZM341.103 142.47C340.583 142.485 340.125 142.63 339.727 142.905C339.338 143.18 339.062 143.559 338.902 144.04V147.754H338.122V141.782H338.856V143.215C339.062 142.795 339.334 142.454 339.67 142.195C340.014 141.935 340.377 141.79 340.759 141.759C340.835 141.751 340.9 141.748 340.954 141.748C341.015 141.748 341.065 141.751 341.103 141.759V142.47ZM345.413 147.869C344.985 147.869 344.588 147.789 344.221 147.628C343.862 147.46 343.548 147.235 343.281 146.952C343.021 146.662 342.818 146.333 342.673 145.966C342.528 145.592 342.455 145.198 342.455 144.785C342.455 144.357 342.528 143.96 342.673 143.593C342.818 143.219 343.025 142.89 343.292 142.607C343.56 142.317 343.873 142.091 344.232 141.931C344.599 141.763 344.996 141.679 345.424 141.679C345.852 141.679 346.246 141.763 346.605 141.931C346.964 142.091 347.278 142.317 347.545 142.607C347.813 142.89 348.019 143.219 348.164 143.593C348.309 143.96 348.382 144.357 348.382 144.785C348.382 145.198 348.309 145.592 348.164 145.966C348.019 146.333 347.813 146.662 347.545 146.952C347.285 147.235 346.972 147.46 346.605 147.628C346.246 147.789 345.849 147.869 345.413 147.869ZM343.246 144.797C343.246 145.24 343.342 145.645 343.533 146.012C343.732 146.371 343.995 146.658 344.324 146.872C344.653 147.078 345.016 147.181 345.413 147.181C345.81 147.181 346.173 147.074 346.502 146.86C346.831 146.646 347.094 146.356 347.293 145.989C347.492 145.615 347.591 145.209 347.591 144.774C347.591 144.331 347.492 143.926 347.293 143.559C347.094 143.192 346.831 142.902 346.502 142.688C346.173 142.474 345.81 142.367 345.413 142.367C345.016 142.367 344.653 142.477 344.324 142.699C344.003 142.921 343.743 143.215 343.544 143.582C343.346 143.941 343.246 144.346 343.246 144.797ZM353.526 147.869C353.06 147.869 352.628 147.751 352.231 147.514C351.833 147.269 351.524 146.963 351.302 146.597V147.754H350.603V139.386H351.382V143.031C351.65 142.626 351.971 142.302 352.345 142.057C352.72 141.805 353.155 141.679 353.652 141.679C354.072 141.679 354.447 141.767 354.776 141.942C355.112 142.118 355.398 142.355 355.635 142.653C355.872 142.944 356.052 143.276 356.174 143.65C356.296 144.017 356.357 144.396 356.357 144.785C356.357 145.206 356.285 145.599 356.14 145.966C356.002 146.333 355.803 146.662 355.544 146.952C355.284 147.235 354.982 147.46 354.638 147.628C354.302 147.789 353.931 147.869 353.526 147.869ZM353.343 147.181C353.664 147.181 353.962 147.116 354.237 146.986C354.512 146.856 354.749 146.677 354.947 146.448C355.146 146.218 355.299 145.962 355.406 145.679C355.513 145.389 355.567 145.091 355.567 144.785C355.567 144.365 355.475 143.971 355.291 143.605C355.116 143.23 354.867 142.932 354.546 142.71C354.233 142.481 353.862 142.367 353.434 142.367C353.129 142.367 352.842 142.435 352.575 142.573C352.315 142.71 352.082 142.894 351.875 143.123C351.677 143.345 351.512 143.589 351.382 143.857V145.714C351.413 145.92 351.493 146.115 351.623 146.299C351.753 146.474 351.913 146.627 352.105 146.757C352.303 146.887 352.51 146.99 352.724 147.067C352.938 147.143 353.144 147.181 353.343 147.181ZM361.14 147.869C360.712 147.869 360.315 147.789 359.948 147.628C359.589 147.46 359.275 147.235 359.008 146.952C358.748 146.662 358.545 146.333 358.4 145.966C358.255 145.592 358.182 145.198 358.182 144.785C358.182 144.357 358.255 143.96 358.4 143.593C358.545 143.219 358.752 142.89 359.019 142.607C359.287 142.317 359.6 142.091 359.959 141.931C360.326 141.763 360.723 141.679 361.151 141.679C361.579 141.679 361.973 141.763 362.332 141.931C362.691 142.091 363.005 142.317 363.272 142.607C363.54 142.89 363.746 143.219 363.891 143.593C364.036 143.96 364.109 144.357 364.109 144.785C364.109 145.198 364.036 145.592 363.891 145.966C363.746 146.333 363.54 146.662 363.272 146.952C363.012 147.235 362.699 147.46 362.332 147.628C361.973 147.789 361.576 147.869 361.14 147.869ZM358.973 144.797C358.973 145.24 359.069 145.645 359.26 146.012C359.459 146.371 359.722 146.658 360.051 146.872C360.38 147.078 360.743 147.181 361.14 147.181C361.537 147.181 361.9 147.074 362.229 146.86C362.558 146.646 362.821 146.356 363.02 145.989C363.219 145.615 363.318 145.209 363.318 144.774C363.318 144.331 363.219 143.926 363.02 143.559C362.821 143.192 362.558 142.902 362.229 142.688C361.9 142.474 361.537 142.367 361.14 142.367C360.743 142.367 360.38 142.477 360.051 142.699C359.73 142.921 359.47 143.215 359.271 143.582C359.073 143.941 358.973 144.346 358.973 144.797ZM369.106 147.468C369.045 147.491 368.949 147.533 368.819 147.594C368.69 147.655 368.533 147.709 368.349 147.754C368.166 147.8 367.967 147.823 367.753 147.823C367.532 147.823 367.322 147.781 367.123 147.697C366.932 147.613 366.779 147.487 366.664 147.319C366.55 147.143 366.492 146.929 366.492 146.677V142.401H365.667V141.782H366.492V139.764H367.272V141.782H368.648V142.401H367.272V146.459C367.287 146.673 367.364 146.833 367.501 146.94C367.646 147.047 367.811 147.101 367.994 147.101C368.208 147.101 368.403 147.067 368.579 146.998C368.755 146.921 368.862 146.868 368.9 146.837L369.106 147.468ZM370.997 147.754V141.782H371.777V147.754H370.997ZM370.997 140.532V139.386H371.777V140.532H370.997ZM377.001 147.869C376.566 147.869 376.165 147.789 375.798 147.628C375.439 147.46 375.121 147.231 374.846 146.94C374.579 146.65 374.369 146.318 374.216 145.943C374.071 145.569 373.998 145.171 373.998 144.751C373.998 144.185 374.124 143.67 374.376 143.203C374.628 142.737 374.98 142.367 375.431 142.091C375.882 141.816 376.401 141.679 376.99 141.679C377.548 141.679 378.041 141.809 378.469 142.068C378.897 142.321 379.214 142.665 379.42 143.1L378.664 143.341C378.495 143.035 378.259 142.798 377.953 142.63C377.655 142.454 377.322 142.367 376.956 142.367C376.558 142.367 376.195 142.47 375.867 142.676C375.538 142.882 375.274 143.165 375.076 143.524C374.884 143.884 374.789 144.292 374.789 144.751C374.789 145.202 374.888 145.611 375.087 145.978C375.286 146.344 375.549 146.639 375.878 146.86C376.207 147.074 376.57 147.181 376.967 147.181C377.227 147.181 377.475 147.135 377.712 147.044C377.957 146.952 378.167 146.83 378.343 146.677C378.526 146.516 378.648 146.344 378.709 146.161L379.478 146.39C379.371 146.673 379.191 146.929 378.939 147.158C378.694 147.38 378.404 147.556 378.068 147.686C377.739 147.808 377.384 147.869 377.001 147.869ZM383.579 147.869C383.09 147.869 382.636 147.789 382.215 147.628C381.795 147.468 381.432 147.223 381.126 146.895L381.447 146.344C381.784 146.658 382.12 146.887 382.456 147.032C382.8 147.17 383.163 147.239 383.545 147.239C384.011 147.239 384.39 147.147 384.68 146.963C384.97 146.772 385.116 146.501 385.116 146.15C385.116 145.913 385.043 145.733 384.898 145.611C384.76 145.481 384.558 145.378 384.29 145.301C384.03 145.217 383.717 145.129 383.35 145.038C382.938 144.923 382.59 144.804 382.307 144.682C382.032 144.552 381.822 144.392 381.677 144.201C381.539 144.002 381.47 143.746 381.47 143.433C381.47 143.043 381.566 142.722 381.757 142.47C381.955 142.21 382.223 142.015 382.559 141.885C382.903 141.748 383.285 141.679 383.706 141.679C384.164 141.679 384.569 141.751 384.921 141.897C385.272 142.042 385.559 142.244 385.78 142.504L385.402 143.031C385.188 142.787 384.932 142.607 384.634 142.493C384.344 142.37 384.019 142.309 383.66 142.309C383.415 142.309 383.182 142.344 382.96 142.412C382.739 142.474 382.555 142.581 382.41 142.733C382.273 142.879 382.204 143.081 382.204 143.341C382.204 143.555 382.257 143.723 382.364 143.845C382.471 143.96 382.632 144.059 382.846 144.143C383.06 144.22 383.323 144.304 383.637 144.396C384.088 144.518 384.481 144.644 384.818 144.774C385.154 144.896 385.414 145.057 385.597 145.255C385.78 145.454 385.872 145.733 385.872 146.092C385.872 146.65 385.662 147.086 385.242 147.399C384.821 147.712 384.267 147.869 383.579 147.869Z" fill="white"/>
<path d="M95.4424 124V104.104H104.055C105.836 104.104 107.371 104.398 108.659 104.985C109.948 105.553 110.942 106.378 111.643 107.458C112.345 108.538 112.695 109.826 112.695 111.323C112.695 112.801 112.345 114.08 111.643 115.16C110.942 116.222 109.948 117.036 108.659 117.605C107.371 118.173 105.836 118.458 104.055 118.458H98.0005L100.047 116.439V124H95.4424ZM108.091 124L103.117 116.781H108.034L113.065 124H108.091ZM100.047 116.951L98.0005 114.791H103.799C105.22 114.791 106.281 114.488 106.982 113.881C107.683 113.256 108.034 112.403 108.034 111.323C108.034 110.224 107.683 109.372 106.982 108.765C106.281 108.159 105.22 107.856 103.799 107.856H98.0005L100.047 105.667V116.951ZM126.007 124.341C124.434 124.341 122.975 124.085 121.63 123.574C120.304 123.062 119.148 122.342 118.162 121.414C117.196 120.485 116.438 119.395 115.889 118.145C115.358 116.894 115.093 115.53 115.093 114.052C115.093 112.574 115.358 111.21 115.889 109.959C116.438 108.708 117.205 107.619 118.191 106.69C119.176 105.762 120.332 105.042 121.658 104.53C122.985 104.019 124.425 103.763 125.979 103.763C127.551 103.763 128.991 104.019 130.299 104.53C131.625 105.042 132.772 105.762 133.738 106.69C134.723 107.619 135.491 108.708 136.04 109.959C136.59 111.191 136.865 112.555 136.865 114.052C136.865 115.53 136.59 116.904 136.04 118.173C135.491 119.424 134.723 120.513 133.738 121.442C132.772 122.351 131.625 123.062 130.299 123.574C128.991 124.085 127.561 124.341 126.007 124.341ZM125.979 120.419C126.869 120.419 127.684 120.267 128.423 119.964C129.181 119.661 129.844 119.225 130.413 118.656C130.981 118.088 131.417 117.415 131.72 116.638C132.042 115.862 132.203 114.999 132.203 114.052C132.203 113.105 132.042 112.242 131.72 111.465C131.417 110.689 130.981 110.016 130.413 109.447C129.863 108.879 129.209 108.443 128.451 108.14C127.694 107.837 126.869 107.685 125.979 107.685C125.088 107.685 124.264 107.837 123.506 108.14C122.767 108.443 122.113 108.879 121.545 109.447C120.976 110.016 120.531 110.689 120.209 111.465C119.906 112.242 119.754 113.105 119.754 114.052C119.754 114.98 119.906 115.843 120.209 116.638C120.531 117.415 120.967 118.088 121.516 118.656C122.085 119.225 122.748 119.661 123.506 119.964C124.264 120.267 125.088 120.419 125.979 120.419ZM140.325 124V104.104H150.046C152.547 104.104 154.423 104.578 155.674 105.525C156.943 106.473 157.578 107.723 157.578 109.277C157.578 110.319 157.322 111.229 156.81 112.006C156.299 112.763 155.598 113.351 154.707 113.768C153.817 114.185 152.793 114.393 151.637 114.393L152.178 113.228C153.428 113.228 154.537 113.436 155.503 113.853C156.469 114.251 157.218 114.848 157.748 115.644C158.298 116.439 158.573 117.415 158.573 118.571C158.573 120.277 157.9 121.612 156.555 122.579C155.209 123.526 153.229 124 150.614 124H140.325ZM144.901 120.532H150.273C151.467 120.532 152.367 120.343 152.973 119.964C153.599 119.566 153.911 118.941 153.911 118.088C153.911 117.254 153.599 116.638 152.973 116.241C152.367 115.824 151.467 115.615 150.273 115.615H144.56V112.261H149.477C150.595 112.261 151.448 112.072 152.035 111.693C152.642 111.295 152.945 110.698 152.945 109.902C152.945 109.125 152.642 108.547 152.035 108.168C151.448 107.77 150.595 107.572 149.477 107.572H144.901V120.532ZM171.723 124.341C170.15 124.341 168.691 124.085 167.345 123.574C166.019 123.062 164.863 122.342 163.878 121.414C162.911 120.485 162.153 119.395 161.604 118.145C161.073 116.894 160.808 115.53 160.808 114.052C160.808 112.574 161.073 111.21 161.604 109.959C162.153 108.708 162.921 107.619 163.906 106.69C164.892 105.762 166.047 105.042 167.374 104.53C168.7 104.019 170.14 103.763 171.694 103.763C173.267 103.763 174.707 104.019 176.014 104.53C177.341 105.042 178.487 105.762 179.454 106.69C180.439 107.619 181.206 108.708 181.756 109.959C182.305 111.191 182.58 112.555 182.58 114.052C182.58 115.53 182.305 116.904 181.756 118.173C181.206 119.424 180.439 120.513 179.454 121.442C178.487 122.351 177.341 123.062 176.014 123.574C174.707 124.085 173.276 124.341 171.723 124.341ZM171.694 120.419C172.585 120.419 173.399 120.267 174.138 119.964C174.896 119.661 175.56 119.225 176.128 118.656C176.697 118.088 177.132 117.415 177.436 116.638C177.758 115.862 177.919 114.999 177.919 114.052C177.919 113.105 177.758 112.242 177.436 111.465C177.132 110.689 176.697 110.016 176.128 109.447C175.579 108.879 174.925 108.443 174.167 108.14C173.409 107.837 172.585 107.685 171.694 107.685C170.804 107.685 169.979 107.837 169.221 108.14C168.482 108.443 167.829 108.879 167.26 109.447C166.692 110.016 166.246 110.689 165.924 111.465C165.621 112.242 165.469 113.105 165.469 114.052C165.469 114.98 165.621 115.843 165.924 116.638C166.246 117.415 166.682 118.088 167.232 118.656C167.8 119.225 168.463 119.661 169.221 119.964C169.979 120.267 170.804 120.419 171.694 120.419ZM189.884 124V107.856H183.518V104.104H200.856V107.856H194.489V124H189.884ZM203.333 124V104.104H207.938V124H203.333ZM222.181 124.341C220.646 124.341 219.216 124.095 217.889 123.602C216.582 123.09 215.445 122.37 214.478 121.442C213.512 120.513 212.754 119.424 212.205 118.173C211.674 116.923 211.409 115.549 211.409 114.052C211.409 112.555 211.674 111.181 212.205 109.931C212.754 108.68 213.512 107.59 214.478 106.662C215.464 105.734 216.61 105.023 217.918 104.53C219.225 104.019 220.656 103.763 222.209 103.763C223.934 103.763 225.488 104.066 226.871 104.672C228.273 105.26 229.448 106.131 230.395 107.287L227.439 110.016C226.757 109.239 225.999 108.661 225.165 108.282C224.332 107.884 223.422 107.685 222.437 107.685C221.508 107.685 220.656 107.837 219.879 108.14C219.102 108.443 218.429 108.879 217.861 109.447C217.292 110.016 216.847 110.689 216.525 111.465C216.222 112.242 216.07 113.105 216.07 114.052C216.07 114.999 216.222 115.862 216.525 116.638C216.847 117.415 217.292 118.088 217.861 118.656C218.429 119.225 219.102 119.661 219.879 119.964C220.656 120.267 221.508 120.419 222.437 120.419C223.422 120.419 224.332 120.229 225.165 119.85C225.999 119.452 226.757 118.855 227.439 118.06L230.395 120.788C229.448 121.944 228.273 122.825 226.871 123.432C225.488 124.038 223.924 124.341 222.181 124.341ZM239.931 124.341C238.339 124.341 236.814 124.133 235.355 123.716C233.896 123.28 232.721 122.721 231.83 122.039L233.394 118.571C234.246 119.178 235.251 119.68 236.407 120.078C237.581 120.457 238.766 120.646 239.959 120.646C240.869 120.646 241.598 120.561 242.148 120.39C242.716 120.201 243.133 119.945 243.399 119.623C243.664 119.301 243.796 118.931 243.796 118.514C243.796 117.984 243.588 117.567 243.171 117.264C242.754 116.942 242.205 116.686 241.523 116.496C240.84 116.288 240.083 116.098 239.249 115.928C238.434 115.738 237.61 115.511 236.776 115.246C235.961 114.98 235.213 114.639 234.531 114.223C233.848 113.806 233.289 113.256 232.854 112.574C232.437 111.892 232.228 111.02 232.228 109.959C232.228 108.822 232.532 107.789 233.138 106.861C233.763 105.914 234.692 105.165 235.923 104.616C237.174 104.047 238.737 103.763 240.613 103.763C241.864 103.763 243.095 103.914 244.308 104.218C245.521 104.502 246.591 104.938 247.52 105.525L246.099 109.021C245.17 108.491 244.242 108.102 243.313 107.856C242.385 107.59 241.475 107.458 240.585 107.458C239.694 107.458 238.965 107.562 238.396 107.77C237.828 107.979 237.42 108.254 237.174 108.595C236.928 108.917 236.804 109.296 236.804 109.732C236.804 110.243 237.013 110.66 237.43 110.982C237.847 111.285 238.396 111.532 239.078 111.721C239.76 111.911 240.509 112.1 241.324 112.29C242.157 112.479 242.982 112.697 243.796 112.943C244.63 113.19 245.388 113.521 246.07 113.938C246.752 114.355 247.302 114.905 247.719 115.587C248.155 116.269 248.373 117.131 248.373 118.173C248.373 119.291 248.06 120.314 247.435 121.243C246.809 122.171 245.871 122.92 244.621 123.488C243.389 124.057 241.826 124.341 239.931 124.341ZM266.106 124.341C264.514 124.341 262.989 124.133 261.53 123.716C260.07 123.28 258.896 122.721 258.005 122.039L259.568 118.571C260.421 119.178 261.425 119.68 262.581 120.078C263.756 120.457 264.94 120.646 266.134 120.646C267.044 120.646 267.773 120.561 268.323 120.39C268.891 120.201 269.308 119.945 269.573 119.623C269.838 119.301 269.971 118.931 269.971 118.514C269.971 117.984 269.763 117.567 269.346 117.264C268.929 116.942 268.379 116.686 267.697 116.496C267.015 116.288 266.257 116.098 265.423 115.928C264.609 115.738 263.784 115.511 262.951 115.246C262.136 114.98 261.387 114.639 260.705 114.223C260.023 113.806 259.464 113.256 259.028 112.574C258.611 111.892 258.403 111.02 258.403 109.959C258.403 108.822 258.706 107.789 259.313 106.861C259.938 105.914 260.866 105.165 262.098 104.616C263.349 104.047 264.912 103.763 266.788 103.763C268.038 103.763 269.27 103.914 270.483 104.218C271.695 104.502 272.766 104.938 273.695 105.525L272.273 109.021C271.345 108.491 270.416 108.102 269.488 107.856C268.559 107.59 267.65 107.458 266.759 107.458C265.869 107.458 265.139 107.562 264.571 107.77C264.002 107.979 263.595 108.254 263.349 108.595C263.102 108.917 262.979 109.296 262.979 109.732C262.979 110.243 263.188 110.66 263.604 110.982C264.021 111.285 264.571 111.532 265.253 111.721C265.935 111.911 266.684 112.1 267.498 112.29C268.332 112.479 269.156 112.697 269.971 112.943C270.805 113.19 271.563 113.521 272.245 113.938C272.927 114.355 273.477 114.905 273.893 115.587C274.329 116.269 274.547 117.131 274.547 118.173C274.547 119.291 274.235 120.314 273.609 121.243C272.984 122.171 272.046 122.92 270.795 123.488C269.564 124.057 268 124.341 266.106 124.341ZM281.929 112.119H291.507V115.7H281.929V112.119ZM282.27 120.305H293.099V124H277.694V104.104H292.729V107.799H282.27V120.305ZM303.3 124.341C301.708 124.341 300.183 124.133 298.724 123.716C297.265 123.28 296.09 122.721 295.199 122.039L296.762 118.571C297.615 119.178 298.619 119.68 299.775 120.078C300.95 120.457 302.134 120.646 303.328 120.646C304.238 120.646 304.967 120.561 305.517 120.39C306.085 120.201 306.502 119.945 306.767 119.623C307.033 119.301 307.165 118.931 307.165 118.514C307.165 117.984 306.957 117.567 306.54 117.264C306.123 116.942 305.574 116.686 304.891 116.496C304.209 116.288 303.451 116.098 302.618 115.928C301.803 115.738 300.978 115.511 300.145 115.246C299.33 114.98 298.581 114.639 297.899 114.223C297.217 113.806 296.658 113.256 296.222 112.574C295.806 111.892 295.597 111.02 295.597 109.959C295.597 108.822 295.9 107.789 296.507 106.861C297.132 105.914 298.06 105.165 299.292 104.616C300.543 104.047 302.106 103.763 303.982 103.763C305.232 103.763 306.464 103.914 307.677 104.218C308.89 104.502 309.96 104.938 310.889 105.525L309.467 109.021C308.539 108.491 307.611 108.102 306.682 107.856C305.754 107.59 304.844 107.458 303.953 107.458C303.063 107.458 302.333 107.562 301.765 107.77C301.196 107.979 300.789 108.254 300.543 108.595C300.296 108.917 300.173 109.296 300.173 109.732C300.173 110.243 300.382 110.66 300.798 110.982C301.215 111.285 301.765 111.532 302.447 111.721C303.129 111.911 303.878 112.1 304.692 112.29C305.526 112.479 306.35 112.697 307.165 112.943C307.999 113.19 308.757 113.521 309.439 113.938C310.121 114.355 310.671 114.905 311.088 115.587C311.523 116.269 311.741 117.131 311.741 118.173C311.741 119.291 311.429 120.314 310.803 121.243C310.178 122.171 309.24 122.92 307.989 123.488C306.758 124.057 305.195 124.341 303.3 124.341ZM321.425 124.341C319.833 124.341 318.308 124.133 316.849 123.716C315.39 123.28 314.215 122.721 313.324 122.039L314.888 118.571C315.74 119.178 316.745 119.68 317.9 120.078C319.075 120.457 320.26 120.646 321.453 120.646C322.363 120.646 323.092 120.561 323.642 120.39C324.21 120.201 324.627 119.945 324.892 119.623C325.158 119.301 325.29 118.931 325.29 118.514C325.29 117.984 325.082 117.567 324.665 117.264C324.248 116.942 323.699 116.686 323.017 116.496C322.334 116.288 321.576 116.098 320.743 115.928C319.928 115.738 319.104 115.511 318.27 115.246C317.455 114.98 316.707 114.639 316.025 114.223C315.342 113.806 314.783 113.256 314.348 112.574C313.931 111.892 313.722 111.02 313.722 109.959C313.722 108.822 314.025 107.789 314.632 106.861C315.257 105.914 316.186 105.165 317.417 104.616C318.668 104.047 320.231 103.763 322.107 103.763C323.358 103.763 324.589 103.914 325.802 104.218C327.015 104.502 328.085 104.938 329.014 105.525L327.593 109.021C326.664 108.491 325.736 108.102 324.807 107.856C323.879 107.59 322.969 107.458 322.079 107.458C321.188 107.458 320.459 107.562 319.89 107.77C319.322 107.979 318.914 108.254 318.668 108.595C318.422 108.917 318.298 109.296 318.298 109.732C318.298 110.243 318.507 110.66 318.924 110.982C319.341 111.285 319.89 111.532 320.572 111.721C321.254 111.911 322.003 112.1 322.818 112.29C323.651 112.479 324.476 112.697 325.29 112.943C326.124 113.19 326.882 113.521 327.564 113.938C328.246 114.355 328.796 114.905 329.213 115.587C329.649 116.269 329.867 117.131 329.867 118.173C329.867 119.291 329.554 120.314 328.929 121.243C328.303 122.171 327.365 122.92 326.115 123.488C324.883 124.057 323.32 124.341 321.425 124.341ZM333.013 124V104.104H337.617V124H333.013ZM352.003 124.341C350.43 124.341 348.971 124.085 347.626 123.574C346.299 123.062 345.143 122.342 344.158 121.414C343.192 120.485 342.434 119.395 341.884 118.145C341.354 116.894 341.088 115.53 341.088 114.052C341.088 112.574 341.354 111.21 341.884 109.959C342.434 108.708 343.201 107.619 344.187 106.69C345.172 105.762 346.328 105.042 347.654 104.53C348.981 104.019 350.421 103.763 351.974 103.763C353.547 103.763 354.987 104.019 356.295 104.53C357.621 105.042 358.768 105.762 359.734 106.69C360.719 107.619 361.487 108.708 362.036 109.959C362.586 111.191 362.86 112.555 362.86 114.052C362.86 115.53 362.586 116.904 362.036 118.173C361.487 119.424 360.719 120.513 359.734 121.442C358.768 122.351 357.621 123.062 356.295 123.574C354.987 124.085 353.557 124.341 352.003 124.341ZM351.974 120.419C352.865 120.419 353.68 120.267 354.419 119.964C355.177 119.661 355.84 119.225 356.408 118.656C356.977 118.088 357.413 117.415 357.716 116.638C358.038 115.862 358.199 114.999 358.199 114.052C358.199 113.105 358.038 112.242 357.716 111.465C357.413 110.689 356.977 110.016 356.408 109.447C355.859 108.879 355.205 108.443 354.447 108.14C353.689 107.837 352.865 107.685 351.974 107.685C351.084 107.685 350.26 107.837 349.502 108.14C348.763 108.443 348.109 108.879 347.54 109.447C346.972 110.016 346.527 110.689 346.205 111.465C345.901 112.242 345.75 113.105 345.75 114.052C345.75 114.98 345.901 115.843 346.205 116.638C346.527 117.415 346.963 118.088 347.512 118.656C348.081 119.225 348.744 119.661 349.502 119.964C350.26 120.267 351.084 120.419 351.974 120.419ZM366.321 124V104.104H370.13L381.868 118.429H380.021V104.104H384.568V124H380.788L369.021 109.675H370.869V124H366.321Z" fill="white"/>
</g>
<defs>
<linearGradient id="paint0_linear_3029_6095" x1="-4.5" y1="160" x2="480" y2="160" gradientUnits="userSpaceOnUse">
<stop stop-color="#131031"/>
<stop offset="0.503112" stop-color="#2F2A61"/>
<stop offset="0.998116" stop-color="#151235"/>
<stop offset="1" stop-color="#141414" stop-opacity="0"/>
</linearGradient>
<clipPath id="clip0_3029_6095">
<rect width="480" height="320" fill="white"/>
</clipPath>
</defs>
</svg>
