<svg width="480" height="320" viewBox="0 0 480 320" fill="none" xmlns="http://www.w3.org/2000/svg">
<g clip-path="url(#clip0_3029_7021)">
<rect width="480" height="320" fill="#141414"/>
<g style="mix-blend-mode:lighten" opacity="0.06">
<line x1="215.659" y1="197.358" x2="215.659" y2="115.609" stroke="white" stroke-width="16.6318"/>
<line x1="176.852" y1="197.358" x2="176.852" y2="115.609" stroke="white" stroke-width="16.6318"/>
<line x1="138.045" y1="197.358" x2="138.045" y2="115.609" stroke="white" stroke-width="16.6318"/>
<line x1="485.095" y1="76.0366" x2="345.942" y2="76.0366" stroke="white" stroke-width="16.6318"/>
<line x1="485.095" y1="42.1763" x2="301.036" y2="42.1763" stroke="white" stroke-width="16.6318"/>
<line x1="485.095" y1="8.31591" x2="262.228" y2="8.3159" stroke="white" stroke-width="16.6318"/>
<line x1="344.278" y1="197.357" x2="344.278" y2="67.7206" stroke="white" stroke-width="16.6318"/>
<line x1="301.59" y1="197.357" x2="301.59" y2="33.8603" stroke="white" stroke-width="16.6318"/>
<line x1="264.446" y1="197.357" x2="264.446" y2="-0.000106812" stroke="white" stroke-width="16.6318"/>
<line x1="95.3555" y1="9.76757" x2="-0.000244141" y2="9.76757" stroke="white" stroke-width="16.6318"/>
<line x1="95.3555" y1="76.0371" x2="-0.000244141" y2="76.0371" stroke="white" stroke-width="16.6318"/>
<line x1="95.3555" y1="43.6279" x2="-0.000244141" y2="43.6279" stroke="white" stroke-width="16.6318"/>
<mask id="mask0_3029_7021" style="mask-type:alpha" maskUnits="userSpaceOnUse" x="389" y="115" width="97" height="84">
<rect x="485.095" y="115.609" width="83.1997" height="95.3557" transform="rotate(90 485.095 115.609)" fill="white"/>
</mask>
<g mask="url(#mask0_3029_7021)">
<line y1="-8.31591" x2="71.8792" y2="-8.31591" transform="matrix(0.758897 0.65121 -0.758897 0.65121 434.98 114.158)" stroke="white" stroke-width="16.6318"/>
<line y1="-8.31591" x2="71.8792" y2="-8.31591" transform="matrix(0.758897 0.65121 -0.758897 0.65121 380.65 168.335)" stroke="white" stroke-width="16.6318"/>
<line y1="-8.31591" x2="133.543" y2="-8.31591" transform="matrix(0.753502 0.657445 -0.753502 0.657445 384.9 122.116)" stroke="white" stroke-width="16.6318"/>
</g>
<mask id="mask1_3029_7021" style="mask-type:alpha" maskUnits="userSpaceOnUse" x="128" y="0" width="96" height="84">
<rect width="83.1997" height="95.3557" transform="matrix(0 1 1 0 128.62 0)" fill="white"/>
</mask>
<g mask="url(#mask1_3029_7021)">
<line y1="-8.31591" x2="71.8792" y2="-8.31591" transform="matrix(-0.758897 0.65121 0.758897 0.65121 178.735 -1.45117)" stroke="white" stroke-width="16.6318"/>
<line y1="-8.31591" x2="71.8792" y2="-8.31591" transform="matrix(-0.758897 0.65121 0.758897 0.65121 233.065 52.7256)" stroke="white" stroke-width="16.6318"/>
<line y1="-8.31591" x2="133.543" y2="-8.31591" transform="matrix(-0.753502 0.657445 0.753502 0.657445 228.815 6.50684)" stroke="white" stroke-width="16.6318"/>
</g>
<mask id="mask2_3029_7021" style="mask-type:alpha" maskUnits="userSpaceOnUse" x="0" y="115" width="96" height="84">
<rect y="198.809" width="83.1997" height="95.3557" transform="rotate(-90 0 198.809)" fill="white"/>
</mask>
<g mask="url(#mask2_3029_7021)">
<line y1="-8.31591" x2="71.8792" y2="-8.31591" transform="matrix(-0.758897 -0.65121 0.758897 -0.65121 50.1138 200.26)" stroke="white" stroke-width="16.6318"/>
<line y1="-8.31591" x2="71.8792" y2="-8.31591" transform="matrix(-0.758897 -0.65121 0.758897 -0.65121 104.444 146.083)" stroke="white" stroke-width="16.6318"/>
<line y1="-8.31591" x2="133.543" y2="-8.31591" transform="matrix(-0.753502 -0.657445 0.753502 -0.657445 100.192 192.302)" stroke="white" stroke-width="16.6318"/>
</g>
<line y1="-8.31591" x2="81.7624" y2="-8.31591" transform="matrix(0 1 1 0 223.975 196.473)" stroke="white" stroke-width="16.6318"/>
<line y1="-8.31591" x2="81.7624" y2="-8.31591" transform="matrix(0 1 1 0 185.168 196.188)" stroke="white" stroke-width="16.6318"/>
<line y1="-8.31591" x2="81.7624" y2="-8.31591" transform="matrix(0 1 1 0 146.361 199.609)" stroke="white" stroke-width="16.6318"/>
<path d="M485.095 321.125L336.235 321.125" stroke="white" stroke-width="16.6318"/>
<line y1="-8.31591" x2="129.659" y2="-8.31591" transform="matrix(0 1 1 0 352.594 196.474)" stroke="white" stroke-width="16.6318"/>
<line y1="-8.31591" x2="163.525" y2="-8.31591" transform="matrix(0 1 1 0 309.906 196.474)" stroke="white" stroke-width="16.6318"/>
<line y1="-8.31591" x2="197.391" y2="-8.31591" transform="matrix(0 1 1 0 272.762 196.474)" stroke="white" stroke-width="16.6318"/>
<line y1="-8.31591" x2="95.3557" y2="-8.31591" transform="matrix(-1 0 0 1 95.3555 329.268)" stroke="white" stroke-width="16.6318"/>
<mask id="mask3_3029_7021" style="mask-type:alpha" maskUnits="userSpaceOnUse" x="389" y="198" width="97" height="84">
<rect width="83.2138" height="95.3557" transform="matrix(0 -1 -1 0 485.095 281.371)" fill="white"/>
</mask>
<g mask="url(#mask3_3029_7021)">
<line y1="-8.31591" x2="71.8843" y2="-8.31591" transform="matrix(0.758843 -0.651273 -0.758843 -0.651273 434.98 282.822)" stroke="white" stroke-width="16.6318"/>
<line y1="-8.31591" x2="71.8843" y2="-8.31591" transform="matrix(0.758843 -0.651273 -0.758843 -0.651273 380.65 228.636)" stroke="white" stroke-width="16.6318"/>
<line y1="-8.31591" x2="133.553" y2="-8.31591" transform="matrix(0.753447 -0.657508 -0.753447 -0.657508 384.9 274.863)" stroke="white" stroke-width="16.6318"/>
</g>
<mask id="mask4_3029_7021" style="mask-type:alpha" maskUnits="userSpaceOnUse" x="128" y="313" width="96" height="84">
<rect x="128.62" y="397" width="83.2138" height="95.3557" transform="rotate(-90 128.62 397)" fill="white"/>
</mask>
<g mask="url(#mask4_3029_7021)">
<line y1="-8.31591" x2="71.8843" y2="-8.31591" transform="matrix(-0.758843 -0.651273 0.758843 -0.651273 233.065 344.266)" stroke="white" stroke-width="16.6318"/>
<line y1="-8.31591" x2="133.553" y2="-8.31591" transform="matrix(-0.753447 -0.657508 0.753447 -0.657508 228.815 390.492)" stroke="white" stroke-width="16.6318"/>
</g>
<mask id="mask5_3029_7021" style="mask-type:alpha" maskUnits="userSpaceOnUse" x="0" y="198" width="96" height="84">
<rect width="83.2138" height="95.3557" transform="matrix(0 1 1 0 0 198.158)" fill="white"/>
</mask>
<g mask="url(#mask5_3029_7021)">
<line y1="-8.31591" x2="71.8843" y2="-8.31591" transform="matrix(-0.758843 0.651273 0.758843 0.651273 50.1138 196.706)" stroke="white" stroke-width="16.6318"/>
<line y1="-8.31591" x2="71.8843" y2="-8.31591" transform="matrix(-0.758843 0.651273 0.758843 0.651273 104.444 250.892)" stroke="white" stroke-width="16.6318"/>
<line y1="-8.31591" x2="133.553" y2="-8.31591" transform="matrix(-0.753447 0.657508 0.753447 0.657508 100.192 204.666)" stroke="white" stroke-width="16.6318"/>
</g>
</g>
<g filter="url(#filter0_f_3029_7021)">
<circle cx="29.5" cy="542.5" r="608.5" fill="url(#paint0_linear_3029_7021)" fill-opacity="0.36"/>
</g>
<path d="M101.883 171V151.28H106.447V171H101.883ZM111.127 171V151.28H114.902L126.537 165.478H124.706V151.28H129.213V171H125.466L113.803 156.801H115.634V171H111.127ZM137.964 171V154.998H131.653V151.28H148.838V154.998H142.528V171H137.964ZM151.294 171V151.28H159.83C161.595 151.28 163.116 151.571 164.394 152.153C165.671 152.717 166.657 153.533 167.352 154.604C168.047 155.675 168.394 156.952 168.394 158.435C168.394 159.9 168.047 161.168 167.352 162.239C166.657 163.29 165.671 164.098 164.394 164.661C163.116 165.225 161.595 165.507 159.83 165.507H153.829L155.858 163.506V171H151.294ZM163.83 171L158.9 163.844H163.774L168.76 171H163.83ZM155.858 164.013L153.829 161.872H159.576C160.985 161.872 162.037 161.572 162.731 160.971C163.426 160.351 163.774 159.506 163.774 158.435C163.774 157.346 163.426 156.501 162.731 155.9C162.037 155.299 160.985 154.998 159.576 154.998H153.829L155.858 152.829V164.013ZM181.588 171.338C180.029 171.338 178.583 171.085 177.25 170.577C175.935 170.07 174.79 169.357 173.813 168.436C172.855 167.516 172.104 166.436 171.559 165.197C171.033 163.957 170.77 162.605 170.77 161.14C170.77 159.675 171.033 158.323 171.559 157.083C172.104 155.844 172.864 154.764 173.841 153.843C174.818 152.923 175.963 152.209 177.278 151.702C178.593 151.195 180.02 150.942 181.56 150.942C183.119 150.942 184.546 151.195 185.842 151.702C187.157 152.209 188.293 152.923 189.251 153.843C190.228 154.764 190.988 155.844 191.533 157.083C192.078 158.304 192.35 159.656 192.35 161.14C192.35 162.605 192.078 163.966 191.533 165.225C190.988 166.464 190.228 167.544 189.251 168.465C188.293 169.366 187.157 170.07 185.842 170.577C184.546 171.085 183.128 171.338 181.588 171.338ZM181.56 167.45C182.443 167.45 183.25 167.3 183.983 167C184.734 166.699 185.391 166.267 185.955 165.704C186.518 165.14 186.95 164.474 187.251 163.704C187.57 162.933 187.73 162.079 187.73 161.14C187.73 160.201 187.57 159.346 187.251 158.576C186.95 157.806 186.518 157.139 185.955 156.576C185.41 156.013 184.762 155.581 184.011 155.28C183.26 154.98 182.443 154.829 181.56 154.829C180.677 154.829 179.86 154.98 179.109 155.28C178.377 155.581 177.729 156.013 177.165 156.576C176.602 157.139 176.161 157.806 175.841 158.576C175.541 159.346 175.391 160.201 175.391 161.14C175.391 162.06 175.541 162.915 175.841 163.704C176.161 164.474 176.593 165.14 177.137 165.704C177.701 166.267 178.358 166.699 179.109 167C179.86 167.3 180.677 167.45 181.56 167.45ZM195.78 171V151.28H204.738C206.88 151.28 208.767 151.693 210.401 152.519C212.035 153.327 213.312 154.463 214.232 155.928C215.153 157.393 215.613 159.13 215.613 161.14C215.613 163.131 215.153 164.868 214.232 166.352C213.312 167.817 212.035 168.962 210.401 169.789C208.767 170.596 206.88 171 204.738 171H195.78ZM200.344 167.253H204.513C205.828 167.253 206.964 167.009 207.922 166.521C208.898 166.014 209.65 165.3 210.176 164.38C210.72 163.459 210.993 162.379 210.993 161.14C210.993 159.882 210.72 158.802 210.176 157.9C209.65 156.98 208.898 156.276 207.922 155.787C206.964 155.28 205.828 155.027 204.513 155.027H200.344V167.253ZM227.816 171.338C225.018 171.338 222.83 170.559 221.252 169C219.674 167.441 218.886 165.215 218.886 162.323V151.28H223.449V162.154C223.449 164.032 223.834 165.384 224.604 166.211C225.374 167.037 226.454 167.45 227.844 167.45C229.234 167.45 230.314 167.037 231.084 166.211C231.854 165.384 232.239 164.032 232.239 162.154V151.28H236.746V162.323C236.746 165.215 235.958 167.441 234.38 169C232.802 170.559 230.614 171.338 227.816 171.338ZM250.694 171.338C249.173 171.338 247.755 171.094 246.44 170.606C245.144 170.099 244.017 169.385 243.059 168.465C242.102 167.544 241.35 166.464 240.806 165.225C240.28 163.985 240.017 162.624 240.017 161.14C240.017 159.656 240.28 158.295 240.806 157.055C241.35 155.815 242.102 154.735 243.059 153.815C244.036 152.895 245.172 152.191 246.468 151.702C247.764 151.195 249.182 150.942 250.722 150.942C252.431 150.942 253.971 151.242 255.342 151.843C256.732 152.425 257.896 153.289 258.836 154.435L255.906 157.139C255.23 156.369 254.478 155.797 253.652 155.421C252.826 155.027 251.924 154.829 250.947 154.829C250.027 154.829 249.182 154.98 248.412 155.28C247.642 155.581 246.975 156.013 246.412 156.576C245.848 157.139 245.407 157.806 245.088 158.576C244.787 159.346 244.637 160.201 244.637 161.14C244.637 162.079 244.787 162.933 245.088 163.704C245.407 164.474 245.848 165.14 246.412 165.704C246.975 166.267 247.642 166.699 248.412 167C249.182 167.3 250.027 167.45 250.947 167.45C251.924 167.45 252.826 167.263 253.652 166.887C254.478 166.493 255.23 165.901 255.906 165.112L258.836 167.817C257.896 168.962 256.732 169.836 255.342 170.437C253.971 171.038 252.422 171.338 250.694 171.338ZM265.81 171V154.998H259.499V151.28H276.684V154.998H270.374V171H265.81ZM279.14 171V151.28H283.704V171H279.14ZM297.962 171.338C296.403 171.338 294.957 171.085 293.624 170.577C292.309 170.07 291.163 169.357 290.187 168.436C289.229 167.516 288.477 166.436 287.933 165.197C287.407 163.957 287.144 162.605 287.144 161.14C287.144 159.675 287.407 158.323 287.933 157.083C288.477 155.844 289.238 154.764 290.215 153.843C291.191 152.923 292.337 152.209 293.652 151.702C294.966 151.195 296.394 150.942 297.934 150.942C299.493 150.942 300.92 151.195 302.216 151.702C303.531 152.209 304.667 152.923 305.625 153.843C306.601 154.764 307.362 155.844 307.907 157.083C308.451 158.304 308.724 159.656 308.724 161.14C308.724 162.605 308.451 163.966 307.907 165.225C307.362 166.464 306.601 167.544 305.625 168.465C304.667 169.366 303.531 170.07 302.216 170.577C300.92 171.085 299.502 171.338 297.962 171.338ZM297.934 167.45C298.817 167.45 299.624 167.3 300.357 167C301.108 166.699 301.765 166.267 302.329 165.704C302.892 165.14 303.324 164.474 303.624 163.704C303.944 162.933 304.103 162.079 304.103 161.14C304.103 160.201 303.944 159.346 303.624 158.576C303.324 157.806 302.892 157.139 302.329 156.576C301.784 156.013 301.136 155.581 300.385 155.28C299.633 154.98 298.817 154.829 297.934 154.829C297.051 154.829 296.234 154.98 295.483 155.28C294.75 155.581 294.102 156.013 293.539 156.576C292.976 157.139 292.534 157.806 292.215 158.576C291.914 159.346 291.764 160.201 291.764 161.14C291.764 162.06 291.914 162.915 292.215 163.704C292.534 164.474 292.966 165.14 293.511 165.704C294.074 166.267 294.732 166.699 295.483 167C296.234 167.3 297.051 167.45 297.934 167.45ZM312.153 171V151.28H315.929L327.563 165.478H325.732V151.28H330.24V171H326.493L314.83 156.801H316.661V171H312.153ZM346.969 171V154.998H340.658V151.28H357.843V154.998H351.533V171H346.969ZM369.602 171.338C368.043 171.338 366.597 171.085 365.263 170.577C363.949 170.07 362.803 169.357 361.826 168.436C360.869 167.516 360.117 166.436 359.573 165.197C359.047 163.957 358.784 162.605 358.784 161.14C358.784 159.675 359.047 158.323 359.573 157.083C360.117 155.844 360.878 154.764 361.855 153.843C362.831 152.923 363.977 152.209 365.292 151.702C366.606 151.195 368.034 150.942 369.574 150.942C371.133 150.942 372.56 151.195 373.856 151.702C375.171 152.209 376.307 152.923 377.265 153.843C378.241 154.764 379.002 155.844 379.547 157.083C380.091 158.304 380.364 159.656 380.364 161.14C380.364 162.605 380.091 163.966 379.547 165.225C379.002 166.464 378.241 167.544 377.265 168.465C376.307 169.366 375.171 170.07 373.856 170.577C372.56 171.085 371.142 171.338 369.602 171.338ZM369.574 167.45C370.456 167.45 371.264 167.3 371.997 167C372.748 166.699 373.405 166.267 373.969 165.704C374.532 165.14 374.964 164.474 375.264 163.704C375.584 162.933 375.743 162.079 375.743 161.14C375.743 160.201 375.584 159.346 375.264 158.576C374.964 157.806 374.532 157.139 373.969 156.576C373.424 156.013 372.776 155.581 372.025 155.28C371.273 154.98 370.456 154.829 369.574 154.829C368.691 154.829 367.874 154.98 367.123 155.28C366.39 155.581 365.742 156.013 365.179 156.576C364.615 157.139 364.174 157.806 363.855 158.576C363.554 159.346 363.404 160.201 363.404 161.14C363.404 162.06 363.554 162.915 363.855 163.704C364.174 164.474 364.606 165.14 365.151 165.704C365.714 166.267 366.372 166.699 367.123 167C367.874 167.3 368.691 167.45 369.574 167.45ZM177.051 223V193.42H182.714L195.307 214.295H192.306L204.688 193.42H210.308L210.393 223H203.969L203.927 203.266H205.11L195.222 219.873H192.137L182.038 203.266H183.474V223H177.051ZM223.707 205.336H237.948V210.661H223.707V205.336ZM224.214 217.507H240.314V223H217.411V193.42H239.765V198.913H224.214V217.507ZM245.761 223V193.42H258.565C261.213 193.42 263.495 193.856 265.411 194.73C267.327 195.575 268.806 196.8 269.848 198.406C270.89 200.012 271.412 201.928 271.412 204.153C271.412 206.35 270.89 208.252 269.848 209.858C268.806 211.435 267.327 212.647 265.411 213.492C263.495 214.337 261.213 214.76 258.565 214.76H249.564L252.607 211.759V223H245.761ZM264.566 223L257.171 212.267H264.481L271.961 223H264.566ZM252.607 212.52L249.564 209.309H258.185C260.298 209.309 261.876 208.858 262.918 207.956C263.96 207.027 264.481 205.759 264.481 204.153C264.481 202.519 263.96 201.251 262.918 200.35C261.876 199.448 260.298 198.998 258.185 198.998H249.564L252.607 195.744V212.52ZM276.835 223V193.42H282.498L299.95 214.717H297.204V193.42H303.965V223H298.345L280.85 201.702H283.597V223H276.835Z" fill="white"/>
<path fill-rule="evenodd" clip-rule="evenodd" d="M288.551 107.16V51.4013C288.551 51.4013 289.315 48 285.149 48H194.261C194.261 48 192.099 48.0569 192.099 50.1587C192.12 51.1198 192.138 51.4013 192.138 51.4013V106.902C192.048 107.112 192 107.346 192 107.588V113.058V113.058C192 113.87 192.44 115.001 194.89 115.001H231.439L230.175 120.199V120.199L228.938 125.298H226.186C224.71 125.298 225.015 126.469 225.015 126.469H257.432C257.432 126.469 257.74 125.298 256.261 125.298H253.509L252.272 120.199V120.199L251.011 115.001H286.18C286.18 115.001 287.514 115.087 288.181 114.067C288.403 113.726 288.551 113.263 288.551 112.633M288.551 107.16V107.16V107.16ZM288.551 107.16V112.633V107.16Z" fill="#303030"/>
<mask id="mask6_3029_7021" style="mask-type:alpha" maskUnits="userSpaceOnUse" x="192" y="48" width="97" height="79">
<path fill-rule="evenodd" clip-rule="evenodd" d="M288.551 107.16V51.4013C288.551 51.4013 289.315 48 285.149 48H194.261C194.261 48 192.099 48.0569 192.099 50.1587C192.12 51.1198 192.138 51.4013 192.138 51.4013V106.902C192.048 107.112 192 107.346 192 107.588V113.058V113.058C192 113.87 192.44 115.001 194.89 115.001H231.439L230.175 120.199V120.199L228.938 125.298H226.186C224.71 125.298 225.015 126.469 225.015 126.469H257.432C257.432 126.469 257.74 125.298 256.261 125.298H253.509L252.272 120.199V120.199L251.011 115.001H286.18C286.18 115.001 287.514 115.087 288.181 114.067C288.403 113.726 288.551 113.263 288.551 112.633M288.551 107.16V107.16V107.16ZM288.551 107.16V112.633V107.16Z" fill="#808080"/>
</mask>
<g mask="url(#mask6_3029_7021)">
<rect x="290.893" y="-73.897" width="89.2879" height="211.044" transform="rotate(45 290.893 -73.897)" fill="#C0006C"/>
</g>
<path d="M283.353 102.924H197.262C196.291 102.924 195.504 102.136 195.504 101.166V53.7702C195.504 52.8001 196.291 52.0127 197.262 52.0127H283.353C284.323 52.0127 285.111 52.8001 285.111 53.7702V101.166C285.111 102.136 284.323 102.924 283.353 102.924Z" fill="black"/>
</g>
<defs>
<filter id="filter0_f_3029_7021" x="-1079" y="-566" width="2217" height="2217" filterUnits="userSpaceOnUse" color-interpolation-filters="sRGB">
<feFlood flood-opacity="0" result="BackgroundImageFix"/>
<feBlend mode="normal" in="SourceGraphic" in2="BackgroundImageFix" result="shape"/>
<feGaussianBlur stdDeviation="250" result="effect1_foregroundBlur_3029_7021"/>
</filter>
<linearGradient id="paint0_linear_3029_7021" x1="-119.158" y1="501.453" x2="670.727" y2="795.441" gradientUnits="userSpaceOnUse">
<stop stop-color="#C30A72" stop-opacity="0.8"/>
<stop offset="1" stop-color="#C30A72" stop-opacity="0"/>
</linearGradient>
<clipPath id="clip0_3029_7021">
<rect width="480" height="320" fill="white"/>
</clipPath>
</defs>
</svg>
