<svg width="20" height="20" viewBox="0 0 20 20" fill="none" xmlns="http://www.w3.org/2000/svg">
<path d="M17.3 16.2222H3.7C3.24913 16.2222 2.81673 16.0481 2.49792 15.7381C2.17911 15.4282 2 15.0078 2 14.5694V4.58088C2.01907 4.15512 2.20656 3.75297 2.52333 3.4584C2.8401 3.16383 3.26166 2.9996 3.7 3H17.3C17.7509 3 18.1833 3.17413 18.5021 3.48409C18.8209 3.79404 19 4.21443 19 4.65278V14.5694C19 15.0078 18.8209 15.4282 18.5021 15.7381C18.1833 16.0481 17.7509 16.2222 17.3 16.2222ZM3.7 6.19647V14.5694H17.3V6.19647L10.5 10.6028L3.7 6.19647ZM4.38 4.65278L10.5 8.61945L16.62 4.65278H4.38Z" fill="white"/>
</svg>
