<svg width="20" height="20" viewBox="0 0 20 20" fill="none" xmlns="http://www.w3.org/2000/svg">
<path d="M9.49258 1.41553C4.904 1.41367 1.1875 5.12832 1.1875 9.71318C1.1875 13.3388 3.5124 16.4207 6.7502 17.5525C7.18623 17.662 7.11943 17.3521 7.11943 17.1406V15.7026C4.60156 15.9977 4.49951 14.3314 4.33066 14.0531C3.98926 13.4705 3.18213 13.3221 3.42334 13.0437C3.99668 12.7487 4.58115 13.118 5.2584 14.1181C5.74824 14.8436 6.70381 14.7211 7.18809 14.6005C7.29385 14.1645 7.52022 13.7748 7.83193 13.4724C5.22314 13.0048 4.13584 11.4128 4.13584 9.52021C4.13584 8.60176 4.43828 7.75752 5.03203 7.07656C4.65352 5.954 5.06729 4.99287 5.12295 4.85C6.20098 4.75352 7.32168 5.62188 7.40889 5.69053C8.02119 5.52539 8.7207 5.43818 9.50371 5.43818C10.2904 5.43818 10.9918 5.5291 11.6097 5.69609C11.8193 5.53652 12.8584 4.79063 13.8604 4.88154C13.9142 5.02441 14.3187 5.96328 13.9624 7.071C14.5636 7.75381 14.8697 8.60547 14.8697 9.52578C14.8697 11.4221 13.775 13.0159 11.1588 13.4761C11.3829 13.6964 11.5608 13.9593 11.6822 14.2492C11.8036 14.5391 11.866 14.8503 11.8657 15.1645V17.252C11.8806 17.4189 11.8657 17.5841 12.144 17.5841C15.4301 16.4764 17.7958 13.3722 17.7958 9.71504C17.7958 5.12832 14.0774 1.41553 9.49258 1.41553Z" fill="white"/>
</svg>
