<svg width="20" height="20" viewBox="0 0 20 20" fill="none" xmlns="http://www.w3.org/2000/svg">
<g clip-path="url(#clip0_2624_6003)">
<path d="M5.55556 0C2.49222 0 0 2.49222 0 5.55556V14.4444C0 17.5078 2.49222 20 5.55556 20H14.4444C17.5078 20 20 17.5078 20 14.4444V5.55556C20 2.49222 17.5078 0 14.4444 0H5.55556ZM5.55556 2.22222H14.4444C16.2822 2.22222 17.7778 3.71778 17.7778 5.55556V14.4444C17.7778 16.2822 16.2822 17.7778 14.4444 17.7778H5.55556C3.71778 17.7778 2.22222 16.2822 2.22222 14.4444V5.55556C2.22222 3.71778 3.71778 2.22222 5.55556 2.22222ZM15.5556 3.33333C15.2609 3.33333 14.9783 3.4504 14.7699 3.65877C14.5615 3.86714 14.4444 4.14976 14.4444 4.44444C14.4444 4.73913 14.5615 5.02174 14.7699 5.23012C14.9783 5.43849 15.2609 5.55556 15.5556 5.55556C15.8502 5.55556 16.1329 5.43849 16.3412 5.23012C16.5496 5.02174 16.6667 4.73913 16.6667 4.44444C16.6667 4.14976 16.5496 3.86714 16.3412 3.65877C16.1329 3.4504 15.8502 3.33333 15.5556 3.33333ZM10 4.44444C6.93667 4.44444 4.44444 6.93667 4.44444 10C4.44444 13.0633 6.93667 15.5556 10 15.5556C13.0633 15.5556 15.5556 13.0633 15.5556 10C15.5556 6.93667 13.0633 4.44444 10 4.44444ZM10 6.66667C11.8378 6.66667 13.3333 8.16222 13.3333 10C13.3333 11.8378 11.8378 13.3333 10 13.3333C8.16222 13.3333 6.66667 11.8378 6.66667 10C6.66667 8.16222 8.16222 6.66667 10 6.66667Z" fill="#0066A1"/>
</g>
<defs>
<clipPath id="clip0_2624_6003">
<rect width="20" height="20" fill="white"/>
</clipPath>
</defs>
</svg>
