<svg width="20" height="21" viewBox="0 0 20 21" fill="none" xmlns="http://www.w3.org/2000/svg">
<g clip-path="url(#clip0)">
<path d="M8.11369 6.08114L9.88145 4.31337C10.2684 3.92646 10.7277 3.61955 11.2332 3.41015C11.7387 3.20076 12.2806 3.09298 12.8277 3.09298C13.3749 3.09298 13.9167 3.20076 14.4222 3.41015C14.9278 3.61955 15.3871 3.92646 15.774 4.31337C16.1609 4.70028 16.4678 5.15961 16.6772 5.66513C16.8866 6.17066 16.9944 6.71247 16.9944 7.25965C16.9944 7.80682 16.8866 8.34864 16.6772 8.85416C16.4678 9.35969 16.1609 9.81902 15.774 10.2059L14.0062 11.9737M11.8849 14.095L10.1172 15.8628C9.73024 16.2497 9.27092 16.5566 8.76539 16.766C8.25987 16.9754 7.71805 17.0832 7.17088 17.0832C6.06581 17.0832 5.006 16.6442 4.2246 15.8628C3.4432 15.0814 3.00421 14.0216 3.00421 12.9165C3.00421 11.8114 3.4432 10.7516 4.2246 9.97023L5.99237 8.20246" stroke="black" stroke-width="2" stroke-linecap="round" stroke-linejoin="round"/>
<path d="M7.64355 12.4446L12.3576 7.73053" stroke="black" stroke-width="2" stroke-linecap="round" stroke-linejoin="round"/>
</g>
<defs>
<clipPath id="clip0">
<rect width="20" height="20" fill="white" transform="translate(0 0.0881348)"/>
</clipPath>
</defs>
</svg>
