<svg width="480" height="320" viewBox="0 0 480 320" fill="none" xmlns="http://www.w3.org/2000/svg">
<g clip-path="url(#clip0_3004_6773)">
<rect width="480" height="320" fill="#141414"/>
<g clip-path="url(#clip1_3004_6773)">
<g opacity="0.25">
<path d="M-33.8267 -24.1973L-32.9109 -23.7554L-23.0097 -35.6825L-29.7244 -21.711L-28.941 -21.0628L-16.4731 -30.2738L-26.3363 -18.3152L-25.7308 -17.4983L-11.4209 -23.458L-23.8594 -14.2073L-23.467 -13.2692L-8.1466 -15.6311L-22.4375 -9.62595L-22.281 -8.62126L-6.84055 -7.24811L-22.1533 -4.83747L-22.2418 -3.82451L-7.57865 1.20387L-23.0234 -0.12013L-23.3517 0.842225L-10.318 9.2336L-24.9971 4.25192L-25.5461 5.10774L-14.8994 16.3744L-27.9597 8.02459L-28.6976 8.72414L-21.0565 22.2114L-31.7391 10.9786L-32.623 11.4813L-28.4317 26.4052L-36.1156 12.9424L-37.0941 13.2188L-36.5961 28.7122L-40.8349 13.8017L-41.8512 13.8359L-45.0755 28.9983L-45.6228 13.5066L-46.6177 13.2967L-53.3768 27.2468L-50.2008 12.0743L-51.1166 11.6324L-61.0178 23.5595L-54.3031 9.58798L-55.0865 8.93975L-67.5544 18.1508L-57.6912 6.19219L-58.2967 5.37533L-72.6066 11.335L-60.1681 2.08427L-60.5605 1.14623L-75.8809 3.50813L-61.59 -2.49705L-61.7465 -3.50175L-77.1869 -4.87489L-61.8742 -7.28553L-61.7857 -8.29849L-76.4488 -13.3269L-61.0041 -12.0029L-60.6758 -12.9652L-73.7095 -21.3566L-59.0304 -16.3749L-58.4814 -17.2307L-69.1281 -28.4975L-56.0678 -20.1476L-55.3299 -20.8471L-62.971 -34.3344L-52.2884 -23.1016L-51.4045 -23.6043L-55.5958 -38.5282L-47.9119 -25.0654L-46.9334 -25.3419L-47.4314 -40.8352L-43.1926 -25.9247L-42.1763 -25.9589L-38.9521 -41.1213L-38.4047 -25.6296L-37.4098 -25.4197L-30.6507 -39.3698L-33.8267 -24.1973Z" stroke="white" stroke-width="1.04766"/>
<path d="M50.7291 -58.3755L51.6449 -57.9336L61.5461 -69.8608L54.8314 -55.8892L55.6148 -55.241L68.0827 -64.4521L58.2195 -52.4934L58.825 -51.6766L73.1349 -57.6362L60.6964 -48.3855L61.0888 -47.4475L76.4092 -49.8094L62.1183 -43.8042L62.2748 -42.7995L77.7152 -41.4263L62.4025 -39.0157L62.314 -38.0027L76.9771 -32.9744L61.5324 -34.2984L61.2041 -33.336L74.2378 -24.9446L59.5587 -29.9263L59.0097 -29.0705L69.6564 -17.8038L56.5961 -26.1536L55.8582 -25.4541L63.4993 -11.9668L52.8167 -23.1996L51.9328 -22.697L56.1241 -7.77301L48.4401 -21.2359L47.4616 -20.9594L47.9597 -5.46603L43.7208 -20.3766L42.7046 -20.3423L39.4803 -5.17996L38.933 -20.6716L37.9381 -20.8816L31.1789 -6.93144L34.3549 -22.104L33.4392 -22.5459L23.5379 -10.6187L30.2527 -24.5902L29.4693 -25.2385L17.0014 -16.0274L26.8646 -27.986L26.2591 -28.8029L11.9492 -22.8432L24.3877 -32.0939L23.9952 -33.032L8.67488 -30.6701L22.9658 -36.6753L22.8093 -37.68L7.36885 -39.0531L22.6816 -41.4638L22.7701 -42.4767L8.10694 -47.5051L23.5516 -46.1811L23.88 -47.1435L10.8463 -55.5348L25.5253 -50.5531L26.0744 -51.409L15.4277 -62.6757L28.488 -54.3258L29.2259 -55.0254L21.5848 -68.5126L32.2674 -57.2799L33.1513 -57.7825L28.9599 -72.7065L36.6439 -59.2436L37.6224 -59.5201L37.1244 -75.0134L41.3632 -60.1029L42.3795 -60.1372L45.6037 -75.2995L46.151 -59.8078L47.146 -59.5979L53.9051 -73.548L50.7291 -58.3755Z" stroke="white" stroke-width="1.04766"/>
<path d="M9.94079 84.0825L10.8566 84.5244L20.7578 72.5972L14.0431 86.5688L14.8265 87.217L27.2943 78.006L17.4311 89.9646L18.0366 90.7815L32.3466 84.8218L19.9081 94.0725L20.3005 95.0106L35.6209 92.6487L21.3299 98.6538L21.4865 99.6585L36.9269 101.032L21.6141 103.442L21.5257 104.455L36.1888 109.484L20.7441 108.16L20.4158 109.122L33.4495 117.513L18.7704 112.532L18.2213 113.388L28.8681 124.654L15.8078 116.304L15.0698 117.004L22.7109 130.491L12.0284 119.258L11.1445 119.761L15.3358 134.685L7.65182 121.222L6.67332 121.499L7.17132 136.992L2.93251 122.081L1.91627 122.116L-1.30799 137.278L-1.85531 121.786L-2.85022 121.576L-9.60938 135.527L-6.43339 120.354L-7.34915 119.912L-17.2504 131.839L-10.5357 117.868L-11.3191 117.22L-23.7869 126.431L-13.9237 114.472L-14.5292 113.655L-28.8392 119.615L-16.4007 110.364L-16.7931 109.426L-32.1135 111.788L-17.8225 105.783L-17.9791 104.778L-33.4195 103.405L-18.1067 100.994L-18.0183 99.9813L-32.6814 94.9529L-17.2367 96.2769L-16.9084 95.3146L-29.9421 86.9232L-15.263 91.9049L-14.7139 91.049L-25.3607 79.7823L-12.3004 88.1322L-11.5624 87.4326L-19.2035 73.9454L-8.52095 85.1781L-7.63705 84.6755L-11.8284 69.7516L-4.14441 83.2144L-3.16591 82.9379L-3.66392 67.4446L0.574897 82.3551L1.59114 82.3208L4.81541 67.1585L5.36272 82.6502L6.35763 82.8601L13.1168 68.91L9.94079 84.0825Z" stroke="white" stroke-width="1.04766"/>
<path d="M94.4967 49.9038L95.4125 50.3457L105.314 38.4185L98.599 52.3901L99.3824 53.0383L111.85 43.8272L101.987 55.7859L102.593 56.6027L116.902 50.6431L104.464 59.8938L104.856 60.8318L120.177 58.4699L105.886 64.4751L106.042 65.4798L121.483 66.853L106.17 69.2636L106.082 70.2766L120.745 75.3049L105.3 73.9809L104.972 74.9433L118.005 83.3347L103.326 78.353L102.777 79.2088L113.424 90.4755L100.364 82.1257L99.6257 82.8252L107.267 96.3125L96.5843 85.0797L95.7004 85.5823L99.8917 100.506L92.2077 87.0434L91.2292 87.3199L91.7272 102.813L87.4884 87.9027L86.4722 87.937L83.2479 103.099L82.7006 87.6077L81.7057 87.3977L74.9465 101.348L78.1225 86.1753L77.2068 85.7334L67.3055 97.6606L74.0203 83.6891L73.2369 83.0408L60.769 92.2519L70.6322 80.2933L70.0267 79.4764L55.7167 85.4361L68.1552 76.1853L67.7628 75.2473L52.4425 77.6092L66.7334 71.604L66.5768 70.5993L51.1364 69.2262L66.4492 66.8155L66.5376 65.8026L51.8745 60.7742L67.3192 62.0982L67.6475 61.1358L54.6139 52.7445L69.2929 57.7262L69.842 56.8703L59.1952 45.6036L72.2556 53.9535L72.9935 53.2539L65.3524 39.7667L76.035 50.9994L76.9189 50.4968L72.7275 35.5728L80.4115 49.0357L81.39 48.7592L80.892 33.2659L85.1308 48.1764L86.147 48.1421L89.3713 32.9798L89.9186 48.4715L90.9135 48.6814L97.6727 34.7313L94.4967 49.9038Z" stroke="white" stroke-width="1.04766"/>
<path d="M179.058 15.7305L179.974 16.1724L189.875 4.2452L183.161 18.2168L183.944 18.865L196.412 9.65391L186.549 21.6125L187.154 22.4294L201.464 16.4697L189.026 25.7205L189.418 26.6585L204.739 24.2966L190.448 30.3018L190.604 31.3065L206.045 32.6796L190.732 35.0903L190.643 36.1032L205.306 41.1316L189.862 39.8076L189.533 40.77L202.567 49.1613L187.888 44.1797L187.339 45.0355L197.986 56.3022L184.925 47.9523L184.188 48.6519L191.829 62.1391L181.146 50.9064L180.262 51.409L184.453 66.3329L176.769 52.8701L175.791 53.1466L176.289 68.6399L172.05 53.7294L171.034 53.7637L167.81 68.926L167.262 53.4343L166.267 53.2244L159.508 67.1745L162.684 52.002L161.769 51.5601L151.867 63.4873L158.582 49.5157L157.799 48.8675L145.331 58.0786L155.194 46.1199L154.588 45.3031L140.279 51.2627L152.717 42.012L152.325 41.074L137.004 43.4359L151.295 37.4307L151.139 36.426L135.698 35.0528L151.011 32.6422L151.099 31.6292L136.436 26.6009L151.881 27.9249L152.209 26.9625L139.176 18.5711L153.855 23.5528L154.404 22.697L143.757 11.4303L156.817 19.7801L157.555 19.0806L149.914 5.59333L160.597 16.8261L161.481 16.3235L157.289 1.3995L164.973 14.8624L165.952 14.5859L165.454 -0.907475L169.693 14.0031L170.709 13.9688L173.933 -1.19354L174.48 14.2982L175.475 14.5081L182.234 0.557948L179.058 15.7305Z" stroke="white" stroke-width="1.04766"/>
<path d="M263.62 -18.4482L264.536 -18.0063L274.437 -29.9335L267.723 -15.962L268.506 -15.3137L280.974 -24.5248L271.111 -12.5662L271.716 -11.7493L286.026 -17.709L273.588 -8.45825L273.98 -7.52021L289.3 -9.88211L275.009 -3.87693L275.166 -2.87223L290.606 -1.49909L275.294 0.911549L275.205 1.92451L289.868 6.95289L274.424 5.62889L274.095 6.59125L287.129 14.9826L272.45 10.0009L271.901 10.8568L282.548 22.1235L269.487 13.7736L268.749 14.4732L276.39 27.9604L265.708 16.7277L264.824 17.2303L269.015 32.1542L261.331 18.6914L260.353 18.9679L260.851 34.4612L256.612 19.5507L255.596 19.585L252.371 34.7473L251.824 19.2556L250.829 19.0457L244.07 32.9958L247.246 17.8233L246.33 17.3814L236.429 29.3086L243.144 15.337L242.36 14.6888L229.893 23.8999L239.756 11.9412L239.15 11.1243L224.84 17.084L237.279 7.8333L236.886 6.89526L221.566 9.25715L235.857 3.25197L235.7 2.24728L220.26 0.874134L235.573 -1.53651L235.661 -2.54947L220.998 -7.57784L236.443 -6.25385L236.771 -7.2162L223.737 -15.6076L238.416 -10.6259L238.966 -11.4817L228.319 -22.7484L241.379 -14.3986L242.117 -15.0981L234.476 -28.5854L245.158 -17.3526L246.042 -17.8552L241.851 -32.7792L249.535 -19.3163L250.514 -19.5928L250.016 -35.0862L254.254 -20.1756L255.271 -20.2099L258.495 -35.3723L259.042 -19.8806L260.037 -19.6706L266.796 -33.6208L263.62 -18.4482Z" stroke="white" stroke-width="1.04766"/>
<path d="M348.176 -52.626L349.092 -52.1841L358.993 -64.1112L352.278 -50.1397L353.062 -49.4915L365.53 -58.7025L355.666 -46.7439L356.272 -45.927L370.582 -51.8867L358.143 -42.636L358.536 -41.6979L373.856 -44.0598L359.565 -38.0547L359.722 -37.05L375.162 -35.6768L359.849 -33.2662L359.761 -32.2532L374.424 -27.2248L358.979 -28.5488L358.651 -27.5865L371.685 -19.1951L357.006 -24.1768L356.457 -23.321L367.103 -12.0543L354.043 -20.4041L353.305 -19.7046L360.946 -6.21731L350.264 -17.4501L349.38 -16.9475L353.571 -2.0235L345.887 -15.4863L344.909 -15.2099L345.407 0.283486L341.168 -14.6271L340.152 -14.5928L336.927 0.569551L336.38 -14.9221L335.385 -15.132L328.626 -1.18193L331.802 -16.3544L330.886 -16.7963L320.985 -4.86916L327.7 -18.8407L326.916 -19.489L314.448 -10.2779L324.312 -22.2365L323.706 -23.0534L309.396 -17.0937L321.835 -26.3444L321.442 -27.2825L306.122 -24.9206L320.413 -30.9258L320.256 -31.9305L304.816 -33.3036L320.129 -35.7142L320.217 -36.7272L305.554 -41.7556L320.999 -40.4316L321.327 -41.3939L308.293 -49.7853L322.972 -44.8036L323.521 -45.6595L312.875 -56.9262L325.935 -48.5763L326.673 -49.2759L319.032 -62.7631L329.714 -51.5303L330.598 -52.033L326.407 -66.9569L334.091 -53.4941L335.069 -53.7706L334.571 -69.2639L338.81 -54.3534L339.826 -54.3877L343.051 -69.55L343.598 -54.0583L344.593 -53.8484L351.352 -67.7985L348.176 -52.626Z" stroke="white" stroke-width="1.04766"/>
<path d="M-26.604 213.712L-25.6882 214.154L-15.787 202.227L-22.5017 216.199L-21.7183 216.847L-9.25046 207.636L-19.1137 219.594L-18.5082 220.411L-4.19824 214.452L-16.6367 223.702L-16.2443 224.64L-0.923947 222.279L-15.2149 228.284L-15.0583 229.288L0.382105 230.662L-14.9307 233.072L-15.0191 234.085L-0.355998 239.114L-15.8007 237.79L-16.129 238.752L-3.09533 247.143L-17.7744 242.162L-18.3235 243.017L-7.67671 254.284L-20.737 245.934L-21.475 246.634L-13.8339 260.121L-24.5164 248.888L-25.4003 249.391L-21.209 264.315L-28.893 250.852L-29.8715 251.129L-29.3735 266.622L-33.6123 251.711L-34.6285 251.746L-37.8528 266.908L-38.4001 251.416L-39.395 251.206L-46.1542 265.156L-42.9782 249.984L-43.894 249.542L-53.7952 261.469L-47.0805 247.498L-47.8639 246.849L-60.3317 256.06L-50.4685 244.102L-51.074 243.285L-65.384 249.245L-52.9455 239.994L-53.3379 239.056L-68.6583 241.418L-54.3673 235.413L-54.5239 234.408L-69.9643 233.035L-54.6515 230.624L-54.5631 229.611L-69.2262 224.583L-53.7815 225.907L-53.4532 224.944L-66.4869 216.553L-51.8078 221.535L-51.2587 220.679L-61.9055 209.412L-48.8452 217.762L-48.1072 217.063L-55.7483 203.575L-45.0657 214.808L-44.1818 214.305L-48.3732 199.381L-40.6892 212.844L-39.7107 212.568L-40.2087 197.074L-35.9699 211.985L-34.9537 211.951L-31.7294 196.788L-31.1821 212.28L-30.1872 212.49L-23.428 198.54L-26.604 213.712Z" stroke="white" stroke-width="1.04766"/>
<path d="M57.9578 179.534L58.8735 179.976L68.7748 168.048L62.06 182.02L62.8434 182.668L75.3113 173.457L65.4481 185.416L66.0536 186.233L80.3635 180.273L67.925 189.524L68.3175 190.462L83.6378 188.1L69.3469 194.105L69.5034 195.11L84.9439 196.483L69.6311 198.893L69.5426 199.906L84.2058 204.935L68.7611 203.611L68.4328 204.573L81.4664 212.965L66.7874 207.983L66.2383 208.839L76.8851 220.105L63.8247 211.756L63.0868 212.455L70.7279 225.942L60.0453 214.71L59.1614 215.212L63.3527 230.136L55.6688 216.673L54.6903 216.95L55.1883 232.443L50.9495 217.533L49.9332 217.567L46.709 232.729L46.1617 217.238L45.1667 217.028L38.4076 230.978L41.5836 215.805L40.6678 215.363L30.7666 227.291L37.4813 213.319L36.6979 212.671L24.23 221.882L34.0933 209.923L33.4877 209.106L19.1778 215.066L31.6163 205.815L31.2239 204.877L15.9035 207.239L30.1944 201.234L30.0379 200.229L14.5975 198.856L29.9102 196.445L29.9987 195.432L15.3356 190.404L30.7803 191.728L31.1086 190.766L18.0749 182.374L32.754 187.356L33.303 186.5L22.6563 175.234L35.7166 183.583L36.4545 182.884L28.8135 169.397L39.496 180.629L40.3799 180.127L36.1886 165.203L43.8726 178.666L44.8511 178.389L44.3531 162.896L48.5919 177.806L49.6081 177.772L52.8324 162.61L53.3797 178.101L54.3746 178.311L61.1338 164.361L57.9578 179.534Z" stroke="white" stroke-width="1.04766"/>
<path d="M142.508 145.363L143.423 145.805L153.325 133.878L146.61 147.849L147.393 148.497L159.861 139.286L149.998 151.245L150.603 152.062L164.913 146.102L152.475 155.353L152.867 156.291L168.188 153.929L153.897 159.934L154.053 160.939L169.494 162.312L154.181 164.723L154.092 165.736L168.756 170.764L153.311 169.44L152.983 170.402L166.016 178.794L151.337 173.812L150.788 174.668L161.435 185.935L148.375 177.585L147.637 178.284L155.278 191.771L144.595 180.539L143.711 181.041L147.903 195.965L140.219 182.502L139.24 182.779L139.738 198.272L135.499 183.362L134.483 183.396L131.259 198.558L130.711 183.067L129.717 182.857L122.957 196.807L126.133 181.634L125.218 181.192L115.316 193.12L122.031 179.148L121.248 178.5L108.78 187.711L118.643 175.752L118.038 174.935L103.728 180.895L116.166 171.644L115.774 170.706L100.453 173.068L114.744 167.063L114.588 166.058L99.1473 164.685L114.46 162.275L114.549 161.262L99.8854 156.233L115.33 157.557L115.658 156.595L102.625 148.203L117.304 153.185L117.853 152.329L107.206 141.063L120.266 149.412L121.004 148.713L113.363 135.226L124.046 146.458L124.93 145.956L120.738 131.032L128.422 144.495L129.401 144.218L128.903 128.725L133.142 143.635L134.158 143.601L137.382 128.439L137.929 143.93L138.924 144.14L145.684 130.19L142.508 145.363Z" stroke="white" stroke-width="1.04766"/>
<path d="M227.069 111.183L227.985 111.625L237.886 99.6973L231.172 113.669L231.955 114.317L244.423 105.106L234.56 117.065L235.165 117.882L249.475 111.922L237.037 121.173L237.429 122.111L252.749 119.749L238.458 125.754L238.615 126.759L254.055 128.132L238.743 130.542L238.654 131.555L253.317 136.584L237.873 135.26L237.544 136.222L250.578 144.613L235.899 139.632L235.35 140.488L245.997 151.754L232.936 143.404L232.198 144.104L239.839 157.591L229.157 146.359L228.273 146.861L232.464 161.785L224.78 148.322L223.802 148.599L224.3 164.092L220.061 149.182L219.045 149.216L215.821 164.378L215.273 148.886L214.278 148.677L207.519 162.627L210.695 147.454L209.779 147.012L199.878 158.939L206.593 144.968L205.809 144.32L193.342 153.531L203.205 141.572L202.599 140.755L188.289 146.715L200.728 137.464L200.335 136.526L185.015 138.888L199.306 132.883L199.149 131.878L183.709 130.505L199.022 128.094L199.11 127.081L184.447 122.053L199.892 123.377L200.22 122.415L187.186 114.023L201.866 119.005L202.415 118.149L191.768 106.882L204.828 115.232L205.566 114.533L197.925 101.045L208.608 112.278L209.491 111.776L205.3 96.8517L212.984 110.315L213.963 110.038L213.465 94.5447L217.703 109.455L218.72 109.421L221.944 94.2586L222.491 109.75L223.486 109.96L230.245 96.0101L227.069 111.183Z" stroke="white" stroke-width="1.04766"/>
<path d="M311.631 77.0102L312.547 77.4522L322.448 65.525L315.733 79.4965L316.517 80.1448L328.985 70.9337L319.122 82.8923L319.727 83.7092L334.037 77.7495L321.599 87.0002L321.991 87.9383L337.311 85.5764L323.02 91.5816L323.177 92.5863L338.617 93.9594L323.305 96.37L323.216 97.383L337.879 102.411L322.435 101.087L322.106 102.05L335.14 110.441L320.461 105.459L319.912 106.315L330.559 117.582L317.498 109.232L316.76 109.932L324.401 123.419L313.719 112.186L312.835 112.689L317.026 127.613L309.342 114.15L308.364 114.426L308.862 129.92L304.623 115.009L303.607 115.043L300.382 130.206L299.835 114.714L298.84 114.504L292.081 128.454L295.257 113.282L294.341 112.84L284.44 124.767L291.155 110.795L290.371 110.147L277.903 119.358L287.767 107.4L287.161 106.583L272.851 112.543L285.29 103.292L284.897 102.354L269.577 104.716L283.868 98.7105L283.711 97.7058L268.271 96.3326L283.584 93.922L283.672 92.909L269.009 87.8807L284.454 89.2046L284.782 88.2423L271.748 79.8509L286.427 84.8326L286.977 83.9768L276.33 72.7101L289.39 81.0599L290.128 80.3604L282.487 66.8731L293.169 78.1059L294.053 77.6033L289.862 62.6793L297.546 76.1422L298.525 75.8657L298.027 60.3723L302.265 75.2829L303.282 75.2486L306.506 60.0862L307.053 75.5779L308.048 75.7879L314.807 61.8377L311.631 77.0102Z" stroke="white" stroke-width="1.04766"/>
<path d="M396.187 42.832L397.103 43.2739L407.004 31.3468L400.289 45.3183L401.073 45.9665L413.541 36.7555L403.677 48.7141L404.283 49.531L418.593 43.5713L406.154 52.822L406.547 53.7601L421.867 51.3982L407.576 57.4033L407.733 58.408L423.173 59.7812L407.86 62.1918L407.772 63.2048L422.435 68.2332L406.99 66.9092L406.662 67.8715L419.696 76.2629L405.017 71.2812L404.468 72.137L415.114 83.4037L402.054 75.0539L401.316 75.7534L408.957 89.2407L398.275 78.0079L397.391 78.5106L401.582 93.4345L393.898 79.9717L392.92 80.2481L393.418 95.7415L389.179 80.831L388.162 80.8652L384.938 96.0276L384.391 80.5359L383.396 80.326L376.637 94.2761L379.813 79.1036L378.897 78.6617L368.996 90.5888L375.711 76.6173L374.927 75.969L362.459 85.1801L372.322 73.2215L371.717 72.4046L357.407 78.3643L369.846 69.1136L369.453 68.1755L354.133 70.5374L368.424 64.5322L368.267 63.5275L352.827 62.1544L368.139 59.7438L368.228 58.7308L353.565 53.7024L369.01 55.0264L369.338 54.0641L356.304 45.6727L370.983 50.6544L371.532 49.7986L360.886 38.5318L373.946 46.8817L374.684 46.1821L367.043 32.6949L377.725 43.9277L378.609 43.425L374.418 28.5011L382.102 41.9639L383.08 41.6874L382.582 26.1941L386.821 41.1046L387.837 41.0704L391.062 25.908L391.609 41.3997L392.604 41.6096L399.363 27.6595L396.187 42.832Z" stroke="white" stroke-width="1.04766"/>
<path d="M480.749 8.6582L481.665 9.10011L491.566 -2.82707L484.851 11.1445L485.634 11.7927L498.102 2.58164L488.239 14.5403L488.845 15.3571L503.155 9.39748L490.716 18.6482L491.108 19.5862L506.429 17.2243L492.138 23.2295L492.294 24.2342L507.735 25.6074L492.422 28.018L492.334 29.031L506.997 34.0593L491.552 32.7353L491.224 33.6977L504.257 42.0891L489.578 37.1074L489.029 37.9632L499.676 49.2299L486.616 40.8801L485.878 41.5796L493.519 55.0669L482.836 43.8341L481.952 44.3367L486.144 59.2607L478.46 45.7978L477.481 46.0743L477.979 61.5677L473.74 46.6571L472.724 46.6914L469.5 61.8537L468.953 46.362L467.958 46.1521L461.199 60.1023L464.375 44.9297L463.459 44.4878L453.558 56.415L460.272 42.4434L459.489 41.7952L447.021 51.0063L456.884 39.0477L456.279 38.2308L441.969 44.1905L454.407 34.9397L454.015 34.0017L438.695 36.3636L452.985 30.3584L452.829 29.3537L437.389 27.9806L452.701 25.5699L452.79 24.557L438.127 19.5286L453.571 20.8526L453.9 19.8902L440.866 11.4989L455.545 16.4805L456.094 15.6247L445.447 4.35802L458.508 12.7079L459.246 12.0083L451.604 -1.47893L462.287 9.75383L463.171 9.25121L458.98 -5.67276L466.664 7.7901L467.642 7.51361L467.144 -7.97974L471.383 6.93081L472.399 6.89652L475.623 -8.26581L476.171 7.22589L477.166 7.4358L483.925 -6.51432L480.749 8.6582Z" stroke="white" stroke-width="1.04766"/>
<path d="M17.1636 321.994L18.0793 322.436L27.9806 310.508L21.2658 324.48L22.0492 325.128L34.5171 315.917L24.6539 327.876L25.2594 328.693L39.5693 322.733L27.1308 331.984L27.5233 332.922L42.8436 330.56L28.5527 336.565L28.7093 337.57L44.1497 338.943L28.8369 341.353L28.7484 342.366L43.4116 347.395L27.9669 346.071L27.6386 347.033L40.6722 355.425L25.9932 350.443L25.4441 351.299L36.0909 362.565L23.0305 354.216L22.2926 354.915L29.9337 368.402L19.2511 357.17L18.3672 357.672L22.5586 372.596L14.8746 359.133L13.8961 359.41L14.3941 374.903L10.1553 359.993L9.13905 360.027L5.91478 375.189L5.36747 359.697L4.37256 359.488L-2.3866 373.438L0.789393 358.265L-0.126375 357.823L-10.0276 369.75L-3.31288 355.779L-4.09628 355.131L-16.5642 364.342L-6.70094 352.383L-7.30644 351.566L-21.6164 357.526L-9.17788 348.275L-9.5703 347.337L-24.8907 349.699L-10.5998 343.694L-10.7563 342.689L-26.1967 341.316L-10.8839 338.905L-10.7955 337.892L-25.4586 332.864L-10.0139 334.188L-9.6856 333.226L-22.7193 324.834L-8.04022 329.816L-7.49114 328.96L-18.1379 317.693L-5.07758 326.043L-4.33965 325.344L-11.9807 311.857L-1.29817 323.089L-0.414269 322.587L-4.60561 307.663L3.07837 321.126L4.05687 320.849L3.55886 305.356L7.79768 320.266L8.81391 320.232L12.0382 305.07L12.5855 320.561L13.5804 320.771L20.3396 306.821L17.1636 321.994Z" stroke="white" stroke-width="1.04766"/>
<path d="M101.725 287.815L102.641 288.257L112.542 276.33L105.828 290.301L106.611 290.949L119.079 281.738L109.216 293.697L109.821 294.514L124.131 288.554L111.693 297.805L112.085 298.743L127.405 296.381L113.114 302.386L113.271 303.391L128.711 304.764L113.399 307.175L113.31 308.188L127.973 313.216L112.529 311.892L112.2 312.854L125.234 321.246L110.555 316.264L110.006 317.12L120.653 328.387L107.592 320.037L106.854 320.736L114.495 334.224L103.813 322.991L102.929 323.493L107.12 338.417L99.4364 324.955L98.4579 325.231L98.9559 340.724L94.7171 325.814L93.7008 325.848L90.4766 341.01L89.9292 325.519L88.9343 325.309L82.1752 339.259L85.3512 324.086L84.4354 323.645L74.5342 335.572L81.2489 321.6L80.4655 320.952L67.9976 330.163L77.8608 318.204L77.2553 317.388L62.9454 323.347L75.3839 314.096L74.9915 313.158L59.6711 315.52L73.962 309.515L73.8055 308.51L58.3651 307.137L73.6778 304.727L73.7663 303.714L59.1032 298.685L74.5479 300.009L74.8762 299.047L61.8425 290.656L76.5216 295.637L77.0706 294.781L66.4239 283.515L79.4842 291.865L80.2221 291.165L72.581 277.678L83.2636 288.911L84.1475 288.408L79.9562 273.484L87.6401 286.947L88.6186 286.67L88.1206 271.177L92.3594 286.088L93.3757 286.053L96.6 270.891L97.1473 286.383L98.1422 286.593L104.901 272.642L101.725 287.815Z" stroke="white" stroke-width="1.04766"/>
<path d="M186.281 253.641L187.197 254.083L197.098 242.156L190.383 256.127L191.167 256.776L203.635 247.565L193.771 259.523L194.377 260.34L208.687 254.38L196.248 263.631L196.641 264.569L211.961 262.207L197.67 268.212L197.827 269.217L213.267 270.59L197.954 273.001L197.866 274.014L212.529 279.042L197.084 277.718L196.756 278.681L209.79 287.072L195.111 282.09L194.562 282.946L205.208 294.213L192.148 285.863L191.41 286.563L199.051 300.05L188.369 288.817L187.485 289.32L191.676 304.244L183.992 290.781L183.014 291.057L183.512 306.551L179.273 291.64L178.257 291.674L175.032 306.837L174.485 291.345L173.49 291.135L166.731 305.085L169.907 289.913L168.991 289.471L159.09 301.398L165.805 287.426L165.021 286.778L152.553 295.989L162.417 284.031L161.811 283.214L147.501 289.173L159.94 279.923L159.547 278.985L144.227 281.347L158.518 275.341L158.361 274.337L142.921 272.963L158.234 270.553L158.322 269.54L143.659 264.512L159.104 265.836L159.432 264.873L146.398 256.482L161.077 261.463L161.626 260.608L150.98 249.341L164.04 257.691L164.778 256.991L157.137 243.504L167.819 254.737L168.703 254.234L164.512 239.31L172.196 252.773L173.174 252.497L172.676 237.003L176.915 251.914L177.931 251.879L181.156 236.717L181.703 252.209L182.698 252.419L189.457 238.469L186.281 253.641Z" stroke="white" stroke-width="1.04766"/>
<path d="M270.837 219.464L271.753 219.906L281.654 207.979L274.939 221.95L275.723 222.598L288.19 213.387L278.327 225.346L278.933 226.163L293.243 220.203L280.804 229.454L281.197 230.392L296.517 228.03L282.226 234.035L282.383 235.04L297.823 236.413L282.51 238.824L282.422 239.837L297.085 244.865L281.64 243.541L281.312 244.503L294.346 252.895L279.667 247.913L279.117 248.769L289.764 260.036L276.704 251.686L275.966 252.385L283.607 265.873L272.924 254.64L272.041 255.142L276.232 270.066L268.548 256.603L267.569 256.88L268.067 272.373L263.829 257.463L262.812 257.497L259.588 272.659L259.041 257.168L258.046 256.958L251.287 270.908L254.463 255.735L253.547 255.293L243.646 267.221L250.36 253.249L249.577 252.601L237.109 261.812L246.972 249.853L246.367 249.036L232.057 254.996L244.495 245.745L244.103 244.807L228.783 247.169L243.074 241.164L242.917 240.159L227.477 238.786L242.789 236.376L242.878 235.363L228.215 230.334L243.659 231.658L243.988 230.696L230.954 222.305L245.633 227.286L246.182 226.43L235.535 215.164L248.596 223.514L249.334 222.814L241.693 209.327L252.375 220.559L253.259 220.057L249.068 205.133L256.752 218.596L257.73 218.319L257.232 202.826L261.471 217.736L262.487 217.702L265.712 202.54L266.259 218.032L267.254 218.241L274.013 204.291L270.837 219.464Z" stroke="white" stroke-width="1.04766"/>
<path d="M355.399 185.29L356.314 185.731L366.216 173.804L359.501 187.776L360.284 188.424L372.752 179.213L362.889 191.172L363.495 191.988L377.804 186.029L365.366 195.28L365.758 196.218L381.079 193.856L366.788 199.861L366.944 200.866L382.385 202.239L367.072 204.649L366.984 205.662L381.647 210.691L366.202 209.367L365.874 210.329L378.907 218.72L364.228 213.739L363.679 214.595L374.326 225.861L361.266 217.511L360.528 218.211L368.169 231.698L357.486 220.465L356.602 220.968L360.794 235.892L353.11 222.429L352.131 222.706L352.629 238.199L348.39 223.288L347.374 223.323L344.15 238.485L343.603 222.993L342.608 222.783L335.849 236.734L339.025 221.561L338.109 221.119L328.207 233.046L334.922 219.075L334.139 218.427L321.671 227.638L331.534 215.679L330.929 214.862L316.619 220.822L329.057 211.571L328.665 210.633L313.344 212.995L327.635 206.99L327.479 205.985L312.038 204.612L327.351 202.201L327.44 201.188L312.776 196.16L328.221 197.484L328.55 196.522L315.516 188.13L330.195 193.112L330.744 192.256L320.097 180.989L333.158 189.339L333.895 188.64L326.254 175.152L336.937 186.385L337.821 185.883L333.63 170.959L341.313 184.421L342.292 184.145L341.794 168.652L346.033 183.562L347.049 183.528L350.273 168.366L350.821 183.857L351.816 184.067L358.575 170.117L355.399 185.29Z" stroke="white" stroke-width="1.04766"/>
<path d="M439.954 151.111L440.87 151.553L450.771 139.626L444.057 153.598L444.84 154.246L457.308 145.035L447.445 156.993L448.05 157.81L462.36 151.851L449.922 161.101L450.314 162.039L465.635 159.677L451.344 165.683L451.5 166.687L466.941 168.06L451.628 170.471L451.539 171.484L466.202 176.512L450.758 175.188L450.429 176.151L463.463 184.542L448.784 179.561L448.235 180.416L458.882 191.683L445.821 183.333L445.084 184.033L452.725 197.52L442.042 186.287L441.158 186.79L445.349 201.714L437.665 188.251L436.687 188.527L437.185 204.021L432.946 189.11L431.93 189.145L428.706 204.307L428.158 188.815L427.163 188.605L420.404 202.555L423.58 187.383L422.665 186.941L412.763 198.868L419.478 184.897L418.695 184.248L406.227 193.459L416.09 181.501L415.484 180.684L401.175 186.644L413.613 177.393L413.221 176.455L397.9 178.817L412.191 172.812L412.035 171.807L396.594 170.434L411.907 168.023L411.995 167.01L397.332 161.982L412.777 163.306L413.105 162.343L400.072 153.952L414.751 158.934L415.3 158.078L404.653 146.811L417.713 155.161L418.451 154.461L410.81 140.974L421.493 152.207L422.377 151.704L418.185 136.78L425.869 150.243L426.848 149.967L426.35 134.473L430.589 149.384L431.605 149.35L434.829 134.187L435.376 149.679L436.371 149.889L443.13 135.939L439.954 151.111Z" stroke="white" stroke-width="1.04766"/>
<path d="M524.516 116.94L525.432 117.382L535.333 105.455L528.619 119.426L529.402 120.074L541.87 110.863L532.007 122.822L532.612 123.639L546.922 117.679L534.484 126.93L534.876 127.868L550.196 125.506L535.906 131.511L536.062 132.516L551.502 133.889L536.19 136.3L536.101 137.313L550.764 142.341L535.32 141.017L534.991 141.979L548.025 150.371L533.346 145.389L532.797 146.245L543.444 157.512L530.383 149.162L529.645 149.861L537.286 163.349L526.604 152.116L525.72 152.618L529.911 167.542L522.227 154.08L521.249 154.356L521.747 169.849L517.508 154.939L516.492 154.973L513.268 170.135L512.72 154.644L511.725 154.434L504.966 168.384L508.142 153.211L507.226 152.77L497.325 164.697L504.04 150.725L503.257 150.077L490.789 159.288L500.652 147.329L500.046 146.513L485.736 152.472L498.175 143.221L497.782 142.283L482.462 144.645L496.753 138.64L496.596 137.635L481.156 136.262L496.469 133.852L496.557 132.839L481.894 127.81L497.339 129.134L497.667 128.172L484.634 119.781L499.313 124.762L499.862 123.906L489.215 112.64L502.275 120.99L503.013 120.29L495.372 106.803L506.055 118.036L506.939 117.533L502.747 102.609L510.431 116.072L511.41 115.795L510.912 100.302L515.15 115.213L516.167 115.178L519.391 100.016L519.938 115.508L520.933 115.718L527.692 101.767L524.516 116.94Z" stroke="white" stroke-width="1.04766"/>
<path d="M314.596 327.74L315.512 328.182L325.413 316.254L318.699 330.226L319.482 330.874L331.95 321.663L322.087 333.622L322.692 334.439L337.002 328.479L324.564 337.73L324.956 338.668L340.276 336.306L325.986 342.311L326.142 343.316L341.583 344.689L326.27 347.1L326.181 348.112L340.844 353.141L325.4 351.817L325.071 352.779L338.105 361.171L323.426 356.189L322.877 357.045L333.524 368.311L320.463 359.962L319.725 360.661L327.367 374.148L316.684 362.916L315.8 363.418L319.991 378.342L312.307 364.879L311.329 365.156L311.827 380.649L307.588 365.739L306.572 365.773L303.348 380.935L302.8 365.444L301.805 365.234L295.046 379.184L298.222 364.011L297.306 363.569L287.405 375.497L294.12 361.525L293.337 360.877L280.869 370.088L290.732 358.129L290.126 357.312L275.816 363.272L288.255 354.021L287.863 353.083L272.542 355.445L286.833 349.44L286.677 348.435L271.236 347.062L286.549 344.651L286.637 343.639L271.974 338.61L287.419 339.934L287.747 338.972L274.714 330.58L289.393 335.562L289.942 334.706L279.295 323.44L292.355 331.789L293.093 331.09L285.452 317.603L296.135 328.835L297.019 328.333L292.827 313.409L300.511 326.872L301.49 326.595L300.992 311.102L305.231 326.012L306.247 325.978L309.471 310.816L310.018 326.307L311.013 326.517L317.772 312.567L314.596 327.74Z" stroke="white" stroke-width="1.04766"/>
<path d="M399.158 293.567L400.074 294.009L409.975 282.082L403.26 296.053L404.044 296.701L416.512 287.49L406.649 299.449L407.254 300.266L421.564 294.306L409.125 303.557L409.518 304.495L424.838 302.133L410.547 308.138L410.704 309.143L426.144 310.516L410.832 312.927L410.743 313.94L425.406 318.968L409.961 317.644L409.633 318.606L422.667 326.998L407.988 322.016L407.439 322.872L418.085 334.139L405.025 325.789L404.287 326.488L411.928 339.976L401.246 328.743L400.362 329.245L404.553 344.169L396.869 330.707L395.891 330.983L396.389 346.476L392.15 331.566L391.134 331.6L387.909 346.762L387.362 331.271L386.367 331.061L379.608 345.011L382.784 329.838L381.868 329.397L371.967 341.324L378.682 327.352L377.898 326.704L365.43 335.915L375.294 323.956L374.688 323.139L360.378 329.099L372.817 319.848L372.424 318.91L357.104 321.272L371.395 315.267L371.238 314.262L355.798 312.889L371.111 310.479L371.199 309.466L356.536 304.437L371.981 305.761L372.309 304.799L359.275 296.408L373.954 301.389L374.503 300.533L363.857 289.267L376.917 297.617L377.655 296.917L370.014 283.43L380.696 294.663L381.58 294.16L377.389 279.236L385.073 292.699L386.051 292.422L385.553 276.929L389.792 291.839L390.809 291.805L394.033 276.643L394.58 292.135L395.575 292.344L402.334 278.394L399.158 293.567Z" stroke="white" stroke-width="1.04766"/>
<path d="M483.714 259.389L484.63 259.831L494.531 247.903L487.816 261.875L488.6 262.523L501.068 253.312L491.204 265.271L491.81 266.088L506.12 260.128L493.681 269.379L494.074 270.317L509.394 267.955L495.103 273.96L495.26 274.965L510.7 276.338L495.387 278.748L495.299 279.761L509.962 284.79L494.517 283.466L494.189 284.428L507.223 292.82L492.544 287.838L491.995 288.694L502.641 299.96L489.581 291.611L488.843 292.31L496.484 305.797L485.802 294.565L484.918 295.067L489.109 309.991L481.425 296.528L480.447 296.805L480.945 312.298L476.706 297.388L475.689 297.422L472.465 312.584L471.918 297.093L470.923 296.883L464.164 310.833L467.34 295.66L466.424 295.218L456.523 307.145L463.238 293.174L462.454 292.526L449.986 301.737L459.849 289.778L459.244 288.961L444.934 294.921L457.373 285.67L456.98 284.732L441.66 287.094L455.951 281.089L455.794 280.084L440.354 278.711L455.666 276.3L455.755 275.287L441.092 270.259L456.537 271.583L456.865 270.621L443.831 262.229L458.51 267.211L459.059 266.355L448.413 255.088L461.473 263.438L462.211 262.739L454.57 249.252L465.252 260.484L466.136 259.982L461.945 245.058L469.629 258.521L470.607 258.244L470.109 242.751L474.348 257.661L475.364 257.627L478.589 242.465L479.136 257.956L480.131 258.166L486.89 244.216L483.714 259.389Z" stroke="white" stroke-width="1.04766"/>
</g>
<path fill-rule="evenodd" clip-rule="evenodd" d="M-137.77 177.43C-137.771 177.487 -137.77 177.544 -137.767 177.6C-137.705 178.673 -136.827 179.535 -135.734 179.559L-102.022 180.302L-136.902 194.664L-135.465 198.568L-100.598 187.201L-127.301 211.689L-124.63 214.878L-98.0804 194.605L-115.963 223.489L-112.519 225.822L-92.5204 198.766L-101.69 232.93L-97.705 234.13L-86.8928 201.815L-85.9084 227.817C-85.7749 231.344 -80.6591 231.643 -80.116 228.155L-76.7093 206.282L-73.9594 231.085C-73.5881 234.433 -68.7756 234.587 -68.192 231.268L-63.5463 204.853L-60.232 231.556C-59.8183 234.889 -55.0259 234.994 -54.4658 231.683L-50.1433 206.131L-47.3268 231.535C-46.9543 234.895 -42.12 235.033 -41.5562 231.7L-37.2788 206.414L-34.4326 232.087C-34.0625 235.425 -29.2717 235.593 -28.6685 232.289L-23.6631 204.874L-19.8535 232.609C-19.398 235.925 -14.6258 235.983 -14.0891 232.679L-9.92025 207.017L-6.90113 232.713C-6.50928 236.048 -1.71757 236.185 -1.13592 232.878L3.47795 206.643L6.56053 232.879C6.95368 236.225 11.767 236.347 12.329 233.025L17.1429 204.567L22.3582 232.966C22.9506 236.192 27.6879 235.813 27.7602 232.534L28.6354 192.838C28.6607 191.689 27.7494 190.736 26.5999 190.711C25.4504 190.686 24.498 191.597 24.4727 192.746L23.9081 218.354L19.9591 196.85C19.3702 193.643 14.7625 193.676 14.2187 196.89L9.67815 223.732L6.61866 197.693C6.22681 194.358 1.4351 194.221 0.853437 197.528L-3.76042 223.763L-6.82686 197.664C-7.22131 194.307 -12.0564 194.2 -12.5984 197.537L-16.8626 223.786L-20.6012 196.568C-21.0522 193.285 -25.7606 193.181 -26.3559 196.441L-31.2335 223.156L-34.1244 197.081C-34.4969 193.721 -39.3312 193.583 -39.895 196.916L-44.1723 222.202L-46.9889 196.798C-47.3613 193.438 -52.1957 193.3 -52.7595 196.633L-57.1497 222.586L-60.4407 196.07C-60.853 192.749 -65.6239 192.628 -66.2037 195.924L-70.7821 221.957L-73.604 196.506C-73.9789 193.124 -78.857 193.016 -79.3807 196.378L-82.2375 214.721L-82.9913 194.812C-83.0725 192.668 -85.0828 191.659 -86.7311 192.113C-87.0684 190.413 -88.951 189.393 -90.5478 189.936C-90.231 188.061 -91.9279 186.371 -93.7538 186.573L-93.5381 186.375C-91.8298 184.809 -92.5904 182.337 -94.3078 181.549C-93.2373 180.802 -92.9167 179.525 -93.2158 178.413C-92.8682 177.316 -93.1322 176.025 -94.1686 175.232C-92.4182 174.521 -91.5494 172.085 -93.187 170.445L-93.3937 170.238C-91.5785 170.52 -89.8088 168.906 -90.0427 167.019C-88.4714 167.633 -86.5456 166.697 -86.1337 165.013C-84.5071 165.539 -82.4542 164.62 -82.2786 162.481L-80.6481 142.625L-78.6025 161.076C-78.2275 164.457 -73.3494 164.565 -72.8257 161.203L-68.8849 135.9L-65.4583 162.11C-65.0244 165.428 -60.2527 165.518 -59.6945 162.218L-55.238 135.873L-51.9959 161.995C-51.5795 165.349 -46.7438 165.424 -46.2236 162.084L-42.2901 136.829L-39.1314 162.278C-38.7151 165.633 -33.8793 165.708 -33.3591 162.368L-29.3219 136.446L-25.6264 163.35C-25.1754 166.633 -20.467 166.737 -19.8717 163.477L-14.9372 136.45L-11.834 162.862C-11.4395 166.219 -6.60447 166.325 -6.06245 162.989L-1.84873 137.051L1.60441 163.463C2.03974 166.793 6.83281 166.867 7.37129 163.553L11.5755 137.673L15.5101 169.374C15.6517 170.515 16.6915 171.325 17.8325 171.184C18.9287 171.048 19.7195 170.083 19.6544 168.995L24.37 138.718L27.5161 167.095C27.8224 169.858 31.8586 169.8 32.0861 167.03L34.7405 134.704L44.1179 167.464L48.1519 166.441L40.497 131.906L59.2833 159.817L62.827 157.638L46.2351 127.994L71.8655 149.417L74.674 146.349L49.0768 120.708L83.4082 133.601L85.0168 129.764L50.803 113.879L84.5155 114.622C84.5874 114.624 84.6585 114.622 84.7286 114.616C85.7805 114.533 86.6189 113.664 86.6427 112.587M42.0884 111.605C41.7411 112.702 42.0053 113.992 43.0414 114.785C41.291 115.496 40.4223 117.932 42.0598 119.572L42.2666 119.779C40.4514 119.497 38.6817 121.111 38.9156 122.997C37.3442 122.384 35.4184 123.32 35.0065 125.004C33.3799 124.478 31.327 125.397 31.1514 127.536L29.5209 147.392L27.4753 128.941C27.1004 125.559 22.2222 125.452 21.6986 128.814L17.7879 153.923L14.6333 128.506C14.2183 125.163 9.40426 125.072 8.864 128.398L4.6281 154.473L1.17496 128.06C0.739648 124.73 -4.05344 124.656 -4.5919 127.971L-8.7406 153.508L-11.7744 127.687C-12.165 124.363 -16.9351 124.211 -17.5363 127.504L-22.5645 155.044L-26.3568 127.435C-26.8138 124.108 -31.6074 124.065 -32.1242 127.383L-36.0992 152.905L-39.2579 127.455C-39.6743 124.101 -44.51 124.026 -45.0302 127.366L-48.9637 152.621L-52.1558 126.903C-52.5694 123.57 -57.3618 123.465 -57.9219 126.776L-62.41 153.307L-65.8869 126.712C-66.3237 123.372 -71.1383 123.313 -71.6568 126.642L-75.4971 151.299L-77.9365 129.297C-78.3254 125.789 -83.4494 125.862 -83.7382 129.379L-85.8677 155.313L-95.2451 122.553L-99.2791 123.576L-91.6242 158.111L-110.41 130.2L-113.954 132.379L-97.3622 162.023L-122.993 140.599L-125.801 143.668L-100.204 169.309L-134.535 156.416L-136.144 160.253L-101.93 176.138L-135.643 175.395C-136.792 175.369 -137.745 176.281 -137.77 177.43M86.556 111.942C86.3038 111.101 85.5328 110.48 84.6074 110.459L50.8947 109.716L85.7753 95.3551L84.3374 91.4507L49.4712 102.818L76.1736 78.3295L73.503 75.1406L46.9533 95.4139L64.8357 66.5301L61.3914 64.1967L41.3933 91.2524L50.5628 57.0886L46.5778 55.8884L35.7657 88.2034L34.7812 62.2014C34.6477 58.6749 29.532 58.3758 28.9888 61.8632L25.5821 83.7366L22.1916 53.1549C22.0649 52.0122 21.0358 51.1885 19.893 51.3152C18.7502 51.4418 17.9265 52.471 18.0532 53.6137L18.1573 54.5526C17.9441 54.8152 17.792 55.1336 17.727 55.4898L11.9139 87.3281L9.02304 61.2534C8.65054 57.8936 3.81622 57.7555 3.25243 61.0884L-1.0249 86.374L-3.84144 60.9697C-4.21394 57.6099 -9.04826 57.4719 -9.61205 60.8048L-14.0023 86.7579L-17.2933 60.2425C-17.7056 56.921 -22.4765 56.8002 -23.0563 60.0967L-27.6347 86.1297L-30.4566 60.6778C-30.8315 57.2957 -35.7096 57.1883 -36.2333 60.5504L-39.0901 78.8932L-39.8439 58.9844C-39.9251 56.8402 -41.9354 55.8308 -43.5836 56.2851C-43.9209 54.5848 -45.8036 53.5648 -47.4004 54.1081C-47.0836 52.2336 -48.7805 50.5431 -50.6064 50.7455L-50.3907 50.5476C-48.6824 48.981 -49.443 46.5096 -51.1603 45.7217C-49.824 44.7891 -49.6562 43.0291 -50.4041 41.7985C-49.2925 40.6293 -49.2413 38.5666 -50.6815 37.4642C-48.931 36.7528 -48.0623 34.3172 -49.6998 32.6769L-49.9066 32.4697C-48.0914 32.7523 -46.3217 31.1383 -46.5556 29.2516C-44.9843 29.8648 -43.0585 28.9288 -42.6466 27.245C-41.0199 27.7715 -38.967 26.8517 -38.7914 24.7131L-37.1609 4.85689L-35.1153 23.3078C-34.7404 26.6897 -29.8623 26.7974 -29.3386 23.4351L-25.3977 -1.86771L-21.9711 24.3418C-21.5372 27.6606 -16.7656 27.7503 -16.2074 24.4501L-11.7509 -1.89451L-8.50875 24.2269C-8.0924 27.5814 -3.25669 27.6566 -2.73647 24.3165L1.197 -0.938991L4.35574 24.5106C4.77207 27.865 9.60778 27.9402 10.128 24.6001L14.1653 -1.32186L17.8607 25.582C18.3117 28.8653 23.0202 28.969 23.6154 25.7089L28.55 -1.31761L31.6531 25.0937C32.0476 28.451 36.8827 28.5574 37.4247 25.2209L41.6384 -0.717089L45.0915 25.6954C45.5269 29.0252 50.32 29.0995 50.8584 25.7849L55.0626 -0.0943482L58.9911 31.5571C59.0072 31.7191 59.0423 31.8769 59.0943 32.0277C59.1886 32.3025 59.3379 32.549 59.5277 32.7559C59.7416 32.9899 60.0101 33.1766 60.318 33.2942C60.5293 33.3754 60.756 33.4229 60.9907 33.4307C61.2434 33.4399 61.4899 33.4026 61.7205 33.3256C62.0161 33.2276 62.2795 33.0663 62.4971 32.8594C62.7099 32.6575 62.8816 32.4095 62.9948 32.1273C63.0529 31.9834 63.0953 31.832 63.1199 31.6756L68.5592 1.88489L70.7869 31.7648C70.8723 32.9114 71.8711 33.7716 73.0177 33.6861C74.1643 33.6006 75.0245 32.6018 74.939 31.4553L71.987 -8.14119C71.7327 -11.5515 66.8275 -11.8121 66.2133 -8.44799L61.4556 17.6096L58.1204 -9.2616C57.7054 -12.6051 52.8914 -12.6955 52.3511 -9.36996L48.1152 16.7047L44.6621 -9.7078C44.2268 -13.0376 39.4337 -13.112 38.8952 -9.79732L34.7465 15.7405L31.7127 -10.0805C31.3222 -13.4046 26.552 -13.5565 25.9508 -10.2639L20.9226 17.2757L17.1303 -10.3332C16.6733 -13.66 11.8798 -13.7033 11.3629 -10.3851L7.38796 15.137L4.22923 -10.3126C3.81286 -13.6672 -1.02286 -13.7421 -1.54306 -10.4021L-5.47653 14.8534L-8.82904 -12.1575C-9.21557 -15.2717 -13.6941 -15.3705 -14.2176 -12.2763L-18.9228 15.5392L-22.5726 -12.3771C-22.9808 -15.499 -27.48 -15.5542 -27.9646 -12.4431L-32.01 13.5313L-35.034 -13.744C-35.3546 -16.636 -39.5787 -16.5755 -39.8168 -13.6759L-42.3805 17.5449L-51.7579 -15.2152L-55.7919 -14.1917L-48.137 20.3429L-66.9233 -7.56783L-70.4671 -5.38856L-53.8751 24.2553L-79.5055 2.83162L-82.314 5.89976L-56.7168 31.5412L-91.0482 18.6483L-92.6568 22.4856L-58.4427 38.3702L-92.1556 37.6269C-93.3051 37.6016 -94.2575 38.5129 -94.2828 39.6624C-94.2882 39.9074 -94.2511 40.1434 -94.1781 40.3635C-94.4475 40.7057 -94.6121 41.135 -94.6225 41.604C-94.6478 42.7535 -93.7365 43.7059 -92.587 43.7312L-58.8741 44.4745L-93.755 58.8357L-92.3171 62.7401L-57.4509 51.3729L-84.1533 75.8613L-81.4828 79.0502L-54.933 58.777L-72.8154 87.6608L-69.3712 89.9941L-49.373 62.9384L-58.5425 97.1022L-54.5575 98.3024L-43.7454 65.9875L-42.761 91.9894C-42.6274 95.5159 -37.5117 95.8151 -36.9686 92.3276L-33.5619 70.4542L-30.812 95.2569C-30.4407 98.6057 -25.6282 98.7589 -25.0446 95.4406L-20.3989 69.0251L-17.0846 95.7284C-16.6709 99.0609 -11.8785 99.1665 -11.3184 95.8555L-6.9959 70.3029L-4.17935 95.7072C-3.80688 99.0669 1.02745 99.2051 1.59125 95.8721L5.86858 70.5865L8.71484 96.259C9.08491 99.5967 13.8757 99.7648 14.4789 96.4613L19.6585 68.0926L22.4768 93.5131C22.8518 96.8951 27.7299 97.0025 28.2535 93.6404L31.1104 75.2976L31.8641 95.2064C31.9453 97.3506 33.9557 98.36 35.6039 97.9057C35.9412 99.606 37.8239 100.626 39.4207 100.083C39.1039 101.957 40.8007 103.648 42.6266 103.445L42.4109 103.643C40.7027 105.21 41.4632 107.681 43.1806 108.469C42.1104 109.216 41.7897 110.493 42.0884 111.605M86.556 111.942C86.6171 112.146 86.6478 112.363 86.6428 112.587L86.556 111.942Z" fill="url(#paint0_linear_3004_6773)"/>
<path d="M151.535 254.863V64.5347H339.465V254.863H151.535Z" fill="white" stroke="#0A0A0A" stroke-width="7.06948"/>
<path d="M189.828 65.9487H152.714V101.839H189.828V65.9487Z" fill="#93E928"/>
<path d="M226.939 65.9482H189.824V101.839H226.939V65.9482Z" fill="#35A7FF"/>
<path d="M264.056 65.9482H226.941V101.839H264.056V65.9482Z" fill="#FDE74C"/>
<path d="M301.172 65.9482H264.057V101.839H301.172V65.9482Z" fill="#FA8426"/>
<path d="M338.286 65.9482H301.171V101.839H338.286V65.9482Z" fill="#FB2022"/>
<path d="M151.535 254.863V64.5347H339.465V254.863H151.535Z" stroke="#0A0A0A" stroke-width="7.06948"/>
<path d="M178.287 225.397C178.287 223.764 177.853 222.599 176.985 221.903C176.132 221.208 174.93 220.86 173.379 220.86H167.254V230.105H173.379C174.93 230.105 176.132 229.728 176.985 228.976C177.853 228.223 178.287 227.03 178.287 225.397ZM184.795 225.354C184.795 229.061 183.856 231.681 181.979 233.215C180.101 234.749 177.419 235.516 173.934 235.516H167.254V246.806H160.725V215.406H174.424C177.583 215.406 180.101 216.216 181.979 217.835C183.856 219.454 184.795 221.96 184.795 225.354Z" fill="#0A0A0A"/>
<path d="M202.059 235.516C201.675 235.757 201.284 235.956 200.885 236.112C200.501 236.254 199.968 236.389 199.285 236.517L197.919 236.772C196.639 237 195.721 237.277 195.166 237.603C194.227 238.157 193.758 239.016 193.758 240.181C193.758 241.218 194.042 241.97 194.612 242.439C195.195 242.893 195.899 243.121 196.724 243.121C198.033 243.121 199.235 242.737 200.33 241.97C201.44 241.203 202.016 239.804 202.059 237.774V235.516ZM198.367 232.682C199.491 232.54 200.295 232.363 200.779 232.15C201.646 231.781 202.08 231.205 202.08 230.424C202.08 229.473 201.746 228.82 201.077 228.465C200.423 228.095 199.456 227.911 198.175 227.911C196.738 227.911 195.721 228.266 195.124 228.976C194.697 229.501 194.412 230.211 194.27 231.106H188.402C188.53 229.075 189.099 227.407 190.109 226.1C191.716 224.055 194.476 223.032 198.389 223.032C200.935 223.032 203.197 223.537 205.175 224.545C207.152 225.553 208.141 227.456 208.141 230.254V240.905C208.141 241.644 208.155 242.538 208.183 243.589C208.226 244.384 208.347 244.924 208.546 245.208C208.745 245.492 209.044 245.726 209.442 245.911V246.806H202.827C202.642 246.337 202.514 245.897 202.443 245.485C202.372 245.073 202.315 244.605 202.272 244.079C201.433 244.988 200.466 245.762 199.37 246.401C198.061 247.154 196.582 247.53 194.932 247.53C192.826 247.53 191.083 246.934 189.703 245.741C188.338 244.534 187.655 242.829 187.655 240.628C187.655 237.774 188.757 235.707 190.962 234.429C192.172 233.733 193.95 233.236 196.297 232.938L198.367 232.682Z" fill="#0A0A0A"/>
<path d="M219.771 246.806H213.689V215.406H219.771V246.806Z" fill="#0A0A0A"/>
<path d="M234.9 227.975C233.492 227.975 232.396 228.415 231.614 229.295C230.846 230.176 230.362 231.369 230.163 232.874H239.616C239.517 231.269 239.026 230.055 238.144 229.231C237.276 228.394 236.195 227.975 234.9 227.975ZM234.9 222.969C236.835 222.969 238.578 223.331 240.128 224.055C241.679 224.779 242.959 225.922 243.969 227.485C244.88 228.862 245.47 230.46 245.741 232.278C245.897 233.343 245.961 234.877 245.933 236.879H230.014C230.099 239.208 230.832 240.841 232.211 241.778C233.051 242.361 234.061 242.652 235.242 242.652C236.494 242.652 237.511 242.297 238.293 241.587C238.72 241.203 239.097 240.671 239.424 239.989H245.634C245.477 241.367 244.759 242.765 243.479 244.186C241.487 246.444 238.699 247.573 235.114 247.573C232.155 247.573 229.544 246.621 227.282 244.718C225.02 242.815 223.889 239.719 223.889 235.43C223.889 231.411 224.906 228.33 226.941 226.185C228.989 224.041 231.642 222.969 234.9 222.969Z" fill="#0A0A0A"/>
<path d="M247.661 228.124V223.799H250.905V217.323H256.922V223.799H260.7V228.124H256.922V240.394C256.922 241.345 257.043 241.942 257.285 242.183C257.527 242.41 258.267 242.524 259.505 242.524C259.689 242.524 259.882 242.524 260.081 242.524C260.294 242.51 260.5 242.496 260.7 242.481V247.019L257.819 247.125C254.945 247.225 252.982 246.728 251.929 245.634C251.246 244.938 250.905 243.866 250.905 242.418V228.124H247.661Z" fill="#0A0A0A"/>
<path d="M262.215 228.124V223.799H265.458V217.323H271.476V223.799H275.253V228.124H271.476V240.394C271.476 241.345 271.597 241.942 271.839 242.183C272.081 242.41 272.82 242.524 274.058 242.524C274.243 242.524 274.435 242.524 274.634 242.524C274.848 242.51 275.054 242.496 275.253 242.481V247.019L272.372 247.125C269.498 247.225 267.535 246.728 266.482 245.634C265.8 244.938 265.458 243.866 265.458 242.418V228.124H262.215Z" fill="#0A0A0A"/>
<path d="M288.334 227.975C286.926 227.975 285.83 228.415 285.048 229.295C284.28 230.176 283.796 231.369 283.597 232.874H293.05C292.95 231.269 292.46 230.055 291.578 229.231C290.71 228.394 289.629 227.975 288.334 227.975ZM288.334 222.969C290.269 222.969 292.011 223.331 293.562 224.055C295.113 224.779 296.393 225.922 297.403 227.485C298.314 228.862 298.904 230.46 299.174 232.278C299.331 233.343 299.395 234.877 299.366 236.879H283.447C283.533 239.208 284.265 240.841 285.645 241.778C286.485 242.361 287.495 242.652 288.675 242.652C289.927 242.652 290.945 242.297 291.727 241.587C292.154 241.203 292.531 240.671 292.858 239.989H299.068C298.911 241.367 298.193 242.765 296.912 244.186C294.921 246.444 292.132 247.573 288.547 247.573C285.588 247.573 282.978 246.621 280.716 244.718C278.454 242.815 277.323 239.719 277.323 235.43C277.323 231.411 278.34 228.33 280.374 226.185C282.423 224.041 285.076 222.969 288.334 222.969Z" fill="#0A0A0A"/>
<path fill-rule="evenodd" clip-rule="evenodd" d="M455.003 187.046L452.796 163L450.588 187.046L444.123 163.781L446.244 187.834L435.728 166.097L442.111 189.385L427.883 169.876L438.32 191.65L420.838 174.994L434.996 194.555L414.82 181.288L432.243 198.006L410.022 188.556L430.151 201.894L406.6 196.563L428.787 206.093L404.662 205.053L428.194 210.468L404.271 213.752L428.392 214.879L405.44 222.382L429.374 219.183L408.131 230.663L431.11 223.243L412.258 238.332L433.542 226.927L417.687 245.14L436.593 230.119L424.245 250.869L440.165 232.714L431.721 255.336L444.142 234.629L439.873 258.396L448.398 235.804L448.442 259.95L452.796 236.2L457.15 259.95L457.193 235.804L465.718 258.396L461.449 234.629L473.871 255.336L465.427 232.714L481.346 250.869L468.998 230.119L487.904 245.14L472.049 226.927L493.333 238.332L474.482 223.243L497.46 230.663L476.217 219.183L500.151 222.382L477.199 214.879L501.32 213.752L477.397 210.468L500.929 205.053L476.805 206.093L498.991 196.563L475.44 201.894L495.569 188.556L473.348 198.006L490.771 181.288L470.596 194.555L484.754 174.994L467.271 191.65L477.709 169.876L463.481 189.385L469.863 166.097L459.347 187.834L461.469 163.781L455.003 187.046ZM448.403 204.114C448.403 205.177 447.882 204.954 447.082 204.612C446.559 204.389 445.917 204.114 445.223 204.114C444.528 204.114 443.886 204.389 443.363 204.612C442.563 204.954 442.042 205.177 442.042 204.114C442.042 202.358 443.466 200.934 445.223 200.934C446.979 200.934 448.403 202.358 448.403 204.114ZM463.552 204.114C463.552 205.177 463.031 204.954 462.231 204.612C461.708 204.389 461.066 204.114 460.372 204.114C459.677 204.114 459.035 204.389 458.512 204.612C457.712 204.954 457.191 205.177 457.191 204.114C457.191 202.358 458.615 200.934 460.372 200.934C462.128 200.934 463.552 202.358 463.552 204.114ZM461.098 222.327C463.252 220.664 464.85 218.398 465.697 215.83C465.9 215.214 465.505 214.579 464.873 214.429C464.242 214.28 453.405 213.851 452.473 213.851C452.286 213.851 451.718 213.846 450.925 213.839H450.925H450.924H450.924C447.78 213.812 441.108 213.756 440.599 213.851C439.961 213.97 439.535 214.585 439.709 215.21C440.433 217.816 441.921 220.155 443.994 221.919C446.366 223.938 449.36 225.08 452.473 225.154C455.587 225.228 458.632 224.23 461.098 222.327Z" fill="#93E928"/>
<path d="M461.691 223.626C465.539 216.96 475.16 216.96 479.008 223.626L529.602 311.257C533.45 317.922 528.64 326.254 520.943 326.254H419.756C412.059 326.254 407.249 317.922 411.097 311.257L461.691 223.626Z" fill="#0101FF"/>
<path fill-rule="evenodd" clip-rule="evenodd" d="M440.876 269.725C447.679 260.747 458.456 254.948 470.588 254.948C482.442 254.948 493.002 260.484 499.825 269.111C493.023 278.088 482.245 283.887 470.113 283.887C458.26 283.887 447.699 278.352 440.876 269.725Z" fill="#FB2022"/>
<circle cx="470.35" cy="269.417" r="13.4353" fill="white"/>
<circle cx="470.351" cy="269.418" r="8.16051" fill="#0A0A0A"/>
<path d="M440.187 314.231H437.639V302.849H441.823C443.426 302.849 444.628 303.159 445.43 303.779C446.231 304.388 446.632 305.286 446.632 306.472C446.632 307.648 446.178 308.572 445.269 309.245C444.372 309.919 443.105 310.255 441.47 310.255H440.187V314.231ZM441.807 304.981H440.187V308.091H441.598C442.421 308.091 443.03 307.968 443.426 307.722C443.821 307.477 444.019 307.07 444.019 306.504C444.019 305.938 443.837 305.542 443.474 305.318C443.121 305.093 442.565 304.981 441.807 304.981ZM445.322 314.231L450.26 302.849H452.456L457.201 314.231H454.54L453.626 311.906H448.929L447.984 314.231H445.322ZM449.827 309.726H452.761L451.318 306.055L449.827 309.726ZM457.959 314.231V302.849H460.572V311.939H465.494L465.333 314.231H457.959ZM474.282 305.109H469.056V307.37H473.946V309.63H469.056V311.971H474.443L474.282 314.231H466.491V302.849H474.282V305.109ZM484.669 302.849L484.332 305.141H480.886V314.231H478.257V305.141H474.65V302.849H484.669ZM494.923 302.849L494.587 305.141H491.14V314.231H488.511V305.141H484.904V302.849H494.923ZM503.432 305.109H498.206V307.37H503.096V309.63H498.206V311.971H503.593L503.432 314.231H495.641V302.849H503.432V305.109Z" fill="white"/>
<g filter="url(#filter0_d_3004_6773)">
<circle cx="383.802" cy="319.312" r="48.8018" fill="#84D321"/>
<path d="M363.461 288.958L365.927 297.991L374.058 293.348L369.415 301.479L378.448 303.945L369.415 306.411L374.058 314.542L365.927 309.899L363.461 318.932L360.995 309.899L352.864 314.542L357.507 306.411L348.474 303.945L357.507 301.479L352.864 293.348L360.995 297.991L363.461 288.958Z" fill="#0A0A0A"/>
<path d="M404.139 288.958L406.605 297.991L414.736 293.348L410.093 301.479L419.126 303.945L410.093 306.411L414.736 314.542L406.605 309.899L404.139 318.932L401.673 309.899L393.542 314.542L398.185 306.411L389.152 303.945L398.185 301.479L393.542 293.348L401.673 297.991L404.139 288.958Z" fill="#0A0A0A"/>
</g>
<g filter="url(#filter2_d_3004_6773)">
<path d="M405.825 232.77C406.091 231.793 407.477 231.793 407.744 232.77L415.381 260.742C415.552 261.37 416.269 261.667 416.834 261.344L442.013 246.965C442.893 246.463 443.873 247.442 443.37 248.322L428.991 273.501C428.669 274.066 428.966 274.783 429.593 274.954L457.565 282.591C458.542 282.858 458.542 284.244 457.565 284.511L429.593 292.147C428.966 292.319 428.669 293.036 428.991 293.6L443.37 318.78C443.873 319.659 442.893 320.639 442.013 320.137L416.834 305.758C416.269 305.435 415.552 305.732 415.381 306.359L407.744 334.332C407.477 335.309 406.091 335.309 405.825 334.332L398.188 306.359C398.017 305.732 397.299 305.435 396.735 305.758L371.555 320.137C370.676 320.639 369.696 319.659 370.198 318.78L384.578 293.6C384.9 293.036 384.603 292.319 383.976 292.147L356.003 284.511C355.026 284.244 355.026 282.858 356.003 282.591L383.976 274.954C384.603 274.783 384.9 274.066 384.578 273.501L370.198 248.322C369.696 247.442 370.676 246.463 371.555 246.965L396.735 261.344C397.299 261.667 398.017 261.37 398.188 260.742L405.825 232.77Z" fill="#FDE74C"/>
<path d="M405.825 249.143C406.092 248.166 407.478 248.166 407.744 249.143L412.687 267.248C412.858 267.875 413.575 268.172 414.14 267.85L430.437 258.543C431.317 258.04 432.297 259.02 431.794 259.9L422.488 276.197C422.165 276.762 422.462 277.479 423.089 277.65L441.194 282.593C442.171 282.86 442.171 284.245 441.194 284.512L423.089 289.455C422.462 289.626 422.165 290.343 422.488 290.908L431.794 307.205C432.297 308.084 431.317 309.064 430.437 308.562L414.14 299.255C413.575 298.933 412.858 299.23 412.687 299.857L407.744 317.962C407.478 318.939 406.092 318.939 405.825 317.962L400.882 299.857C400.711 299.23 399.994 298.933 399.429 299.255L383.132 308.562C382.253 309.064 381.273 308.084 381.775 307.205L391.082 290.908C391.404 290.343 391.107 289.626 390.48 289.455L372.375 284.512C371.398 284.245 371.398 282.86 372.375 282.593L390.48 277.65C391.107 277.479 391.404 276.762 391.082 276.197L381.775 259.9C381.273 259.02 382.253 258.04 383.132 258.543L399.429 267.85C399.994 268.172 400.711 267.875 400.882 267.248L405.825 249.143Z" fill="#FDE74C"/>
<path d="M405.825 259.538C406.092 258.561 407.478 258.561 407.745 259.538L410.977 271.377C411.148 272.004 411.865 272.301 412.43 271.979L423.087 265.893C423.966 265.391 424.946 266.371 424.444 267.25L418.358 277.907C418.036 278.472 418.333 279.189 418.96 279.36L430.799 282.592C431.776 282.859 431.776 284.245 430.799 284.511L418.96 287.744C418.333 287.915 418.036 288.632 418.358 289.197L424.444 299.853C424.946 300.733 423.966 301.713 423.087 301.211L412.43 295.125C411.865 294.802 411.148 295.099 410.977 295.727L407.745 307.565C407.478 308.542 406.092 308.542 405.825 307.565L402.593 295.727C402.422 295.099 401.705 294.802 401.14 295.125L390.483 301.211C389.604 301.713 388.624 300.733 389.126 299.853L395.212 289.197C395.534 288.632 395.237 287.915 394.61 287.744L382.771 284.511C381.794 284.245 381.794 282.859 382.771 282.592L394.61 279.36C395.237 279.189 395.534 278.472 395.212 277.907L389.126 267.25C388.624 266.371 389.604 265.391 390.483 265.893L401.14 271.979C401.705 272.301 402.422 272.004 402.593 271.377L405.825 259.538Z" fill="#FB2022"/>
</g>
<g filter="url(#filter3_d_3004_6773)">
<circle cx="527.353" cy="224.727" r="48.5538" fill="#FB2022"/>
</g>
</g>
</g>
<defs>
<filter id="filter0_d_3004_6773" x="320.078" y="261.556" width="127.448" height="127.448" filterUnits="userSpaceOnUse" color-interpolation-filters="sRGB">
<feFlood flood-opacity="0" result="BackgroundImageFix"/>
<feColorMatrix in="SourceAlpha" type="matrix" values="0 0 0 0 0 0 0 0 0 0 0 0 0 0 0 0 0 0 127 0" result="hardAlpha"/>
<feOffset dy="5.96886"/>
<feGaussianBlur stdDeviation="7.46107"/>
<feColorMatrix type="matrix" values="0 0 0 0 0 0 0 0 0 0 0 0 0 0 0 0 0 0 0.25 0"/>
<feBlend mode="normal" in2="BackgroundImageFix" result="effect1_dropShadow_3004_6773"/>
<feBlend mode="normal" in="SourceGraphic" in2="effect1_dropShadow_3004_6773" result="shape"/>
</filter>
<filter id="filter2_d_3004_6773" x="340.348" y="223.084" width="132.872" height="132.872" filterUnits="userSpaceOnUse" color-interpolation-filters="sRGB">
<feFlood flood-opacity="0" result="BackgroundImageFix"/>
<feColorMatrix in="SourceAlpha" type="matrix" values="0 0 0 0 0 0 0 0 0 0 0 0 0 0 0 0 0 0 127 0" result="hardAlpha"/>
<feOffset dy="5.96886"/>
<feGaussianBlur stdDeviation="7.46107"/>
<feColorMatrix type="matrix" values="0 0 0 0 0 0 0 0 0 0 0 0 0 0 0 0 0 0 0.25 0"/>
<feBlend mode="normal" in2="BackgroundImageFix" result="effect1_dropShadow_3004_6773"/>
<feBlend mode="normal" in="SourceGraphic" in2="effect1_dropShadow_3004_6773" result="shape"/>
</filter>
<filter id="filter3_d_3004_6773" x="464.804" y="169.176" width="125.097" height="125.097" filterUnits="userSpaceOnUse" color-interpolation-filters="sRGB">
<feFlood flood-opacity="0" result="BackgroundImageFix"/>
<feColorMatrix in="SourceAlpha" type="matrix" values="0 0 0 0 0 0 0 0 0 0 0 0 0 0 0 0 0 0 127 0" result="hardAlpha"/>
<feOffset dy="6.99733"/>
<feGaussianBlur stdDeviation="6.99733"/>
<feColorMatrix type="matrix" values="0 0 0 0 0 0 0 0 0 0 0 0 0 0 0 0 0 0 0.48 0"/>
<feBlend mode="normal" in2="BackgroundImageFix" result="effect1_dropShadow_3004_6773"/>
<feBlend mode="normal" in="SourceGraphic" in2="effect1_dropShadow_3004_6773" result="shape"/>
</filter>
<linearGradient id="paint0_linear_3004_6773" x1="-26.9288" y1="206.929" x2="-13.7144" y2="19.0848" gradientUnits="userSpaceOnUse">
<stop stop-color="#FC8FC8"/>
<stop offset="0.203991" stop-color="#FF4B2D"/>
<stop offset="0.353503" stop-color="#FA5322"/>
<stop offset="0.488929" stop-color="#FFD632"/>
<stop offset="0.619192" stop-color="#5AC455"/>
<stop offset="0.821734" stop-color="#00BE63"/>
<stop offset="1" stop-color="#86C9FE"/>
</linearGradient>
<clipPath id="clip0_3004_6773">
<rect width="480" height="320" fill="white"/>
</clipPath>
<clipPath id="clip1_3004_6773">
<rect width="544" height="526.874" fill="white" transform="translate(-32 -181)"/>
</clipPath>
</defs>
</svg>
