<svg width="16" height="16" viewBox="0 0 16 16" fill="none" xmlns="http://www.w3.org/2000/svg">
<path d="M1.72391 1.05306C1.64021 1.0112 1.54644 0.993663 1.45327 1.00246C1.36009 1.01125 1.27126 1.04601 1.19687 1.1028C1.12248 1.15958 1.06552 1.2361 1.03247 1.32365C0.999414 1.41121 0.991597 1.50628 1.00991 1.59806L2.41291 6.44806C2.43907 6.53844 2.4902 6.61961 2.56043 6.68223C2.63065 6.74485 2.71713 6.78638 2.80991 6.80206L8.49991 7.75506C8.76791 7.80806 8.76791 8.19206 8.49991 8.24506L2.80991 9.19806C2.71713 9.21373 2.63065 9.25527 2.56043 9.31789C2.4902 9.38051 2.43907 9.46168 2.41291 9.55206L1.00991 14.4021C0.991597 14.4938 0.999414 14.5889 1.03247 14.6765C1.06552 14.764 1.12248 14.8405 1.19687 14.8973C1.27126 14.9541 1.36009 14.9889 1.45327 14.9977C1.54644 15.0065 1.64021 14.9889 1.72391 14.9471L14.7239 8.44706C14.8068 8.40549 14.8766 8.34166 14.9253 8.26272C14.9741 8.18378 14.9999 8.09283 14.9999 8.00006C14.9999 7.90728 14.9741 7.81634 14.9253 7.7374C14.8766 7.65845 14.8068 7.59463 14.7239 7.55306L1.72391 1.05306Z" fill="#121212"/>
</svg>
