<svg width="20" height="20" viewBox="0 0 20 20" fill="none" xmlns="http://www.w3.org/2000/svg">
<path d="M13.1655 2C10.9935 2 9.22945 3.76565 9.22945 5.93605C9.22945 6.3429 9.3655 6.61457 9.3655 6.88527C6.10911 6.75071 3.26015 5.12282 1.36046 2.81627C0.953605 3.35927 0.816274 4.03559 0.816274 4.71473C0.816274 6.07142 1.49578 7.15984 2.58177 8.10968C1.90422 7.97354 1.35927 7.83621 0.816274 7.5655C0.816274 9.46519 2.1725 10.9587 3.93605 11.3655C3.5292 11.5016 3.25762 11.5015 2.85077 11.5015C2.71463 11.5015 2.44125 11.3655 2.17055 11.3655C2.71354 12.8583 4.07095 14.0771 5.8345 14.0771C4.4778 15.027 2.71277 15.7066 0.949227 15.7066H0C1.76355 16.791 3.80015 17.4721 5.97055 17.4721C13.1625 17.4721 17.0985 11.5003 17.0985 6.34418V5.8C17.7776 5.25701 18.4538 4.57928 19 3.76241C18.1863 4.17084 17.5071 4.30649 16.6934 4.44264C17.5071 3.90122 18.1851 3.22194 18.4558 2.27209C17.7767 2.67894 16.963 3.08517 16.0132 3.22132C15.334 2.40762 14.2515 2 13.1655 2Z" fill="white"/>
</svg>
