<svg width="480" height="320" viewBox="0 0 480 320" fill="none" xmlns="http://www.w3.org/2000/svg">
<g clip-path="url(#clip0_3029_6096)">
<rect width="480" height="320" fill="#141414"/>
<g style="mix-blend-mode:lighten" opacity="0.04">
<line x1="221.758" y1="165.901" x2="221.758" y2="74.6078" stroke="white" stroke-width="18.1828"/>
<line x1="179.331" y1="166.219" x2="179.331" y2="74.9261" stroke="white" stroke-width="18.1828"/>
<line x1="136.905" y1="162.4" x2="136.905" y2="71.1068" stroke="white" stroke-width="18.1828"/>
<path d="M516.32 26.7187L353.578 26.7187" stroke="white" stroke-width="18.1828"/>
<line x1="362.372" y1="165.901" x2="362.372" y2="21.1284" stroke="white" stroke-width="18.1828"/>
<line x1="315.703" y1="165.901" x2="315.703" y2="-16.6854" stroke="white" stroke-width="18.1828"/>
<line x1="275.095" y1="165.901" x2="275.095" y2="-54.4991" stroke="white" stroke-width="18.1828"/>
<line x1="90.249" y1="26.7189" x2="-13.9993" y2="26.7189" stroke="white" stroke-width="18.1828"/>
<mask id="mask0_3029_6096" style="mask-type:alpha" maskUnits="userSpaceOnUse" x="412" y="71" width="105" height="94">
<rect x="516.32" y="71.1069" width="92.9137" height="104.248" transform="rotate(90 516.32 71.1069)" fill="white"/>
</mask>
<g mask="url(#mask0_3029_6096)">
<line y1="-9.09142" x2="79.303" y2="-9.09142" transform="matrix(0.752001 0.659162 -0.752001 0.659162 461.533 69.4858)" stroke="white" stroke-width="18.1828"/>
<line y1="-9.09142" x2="79.303" y2="-9.09142" transform="matrix(0.752001 0.659162 -0.752001 0.659162 402.135 129.988)" stroke="white" stroke-width="18.1828"/>
<line y1="-9.09142" x2="147.362" y2="-9.09142" transform="matrix(0.746525 0.665358 -0.746525 0.665358 406.783 78.373)" stroke="white" stroke-width="18.1828"/>
</g>
<mask id="mask1_3029_6096" style="mask-type:alpha" maskUnits="userSpaceOnUse" x="126" y="-58" width="105" height="93">
<rect width="92.9137" height="104.248" transform="matrix(0 1 1 0 126.601 -58)" fill="white"/>
</mask>
<g mask="url(#mask1_3029_6096)">
<line y1="-9.09142" x2="79.303" y2="-9.09142" transform="matrix(-0.752001 0.659162 0.752001 0.659162 240.786 0.881348)" stroke="white" stroke-width="18.1828"/>
<line y1="-9.09142" x2="147.362" y2="-9.09142" transform="matrix(-0.746525 0.665358 0.746525 0.665358 236.138 -50.7334)" stroke="white" stroke-width="18.1828"/>
</g>
<mask id="mask2_3029_6096" style="mask-type:alpha" maskUnits="userSpaceOnUse" x="-14" y="71" width="105" height="94">
<rect x="-14" y="164.021" width="92.9137" height="104.248" transform="rotate(-90 -14 164.021)" fill="white"/>
</mask>
<g mask="url(#mask2_3029_6096)">
<line y1="-9.09142" x2="79.303" y2="-9.09142" transform="matrix(-0.752001 -0.659162 0.752001 -0.659162 40.7871 165.641)" stroke="white" stroke-width="18.1828"/>
<line y1="-9.09142" x2="79.303" y2="-9.09142" transform="matrix(-0.752001 -0.659162 0.752001 -0.659162 100.185 105.139)" stroke="white" stroke-width="18.1828"/>
<line y1="-9.09142" x2="147.362" y2="-9.09142" transform="matrix(-0.746525 -0.665358 0.746525 -0.665358 95.5366 156.754)" stroke="white" stroke-width="18.1828"/>
</g>
</g>
<g filter="url(#filter0_f_3029_6096)">
<circle cx="308" cy="-87" r="308" fill="url(#paint0_linear_3029_6096)" fill-opacity="0.5"/>
</g>
<mask id="mask3_3029_6096" style="mask-type:alpha" maskUnits="userSpaceOnUse" x="218" y="184" width="44" height="76">
<path d="M223.81 214.013C223.81 214.013 228.055 225.186 232.917 227.365C237.78 229.545 239.565 228.595 248.113 225.576C256.66 222.556 257.054 219.094 256.104 215.238C255.154 211.383 249.566 210.267 246.55 211.44C244.519 212.105 244.366 212.236 244.366 212.236C244.366 212.236 246.607 213.536 247.224 215.602C245.434 216.188 239.71 217.667 239.71 217.667C239.71 217.667 238.817 215.431 233.928 213.615C232.861 213.216 231.854 212.936 230.931 212.744C227.613 212.057 225.294 212.525 224.685 213.028C223.893 213.676 223.81 214.013 223.81 214.013Z" stroke="white" stroke-width="1.64649" stroke-miterlimit="10"/>
<path d="M244.362 212.236C244.362 212.236 239.005 208.49 230.922 212.748" stroke="white" stroke-width="1.64649" stroke-miterlimit="10"/>
<path d="M223.81 214.459C223.81 214.459 215.04 218.372 221.184 225.746C227.049 229.024 230.922 225.746 230.922 225.746" stroke="white" stroke-width="1.64649" stroke-miterlimit="10"/>
<path d="M227.107 212.083L222.358 211.496C222.358 211.496 221.168 199.877 231.225 192.279C241.282 184.682 252.753 192.205 255.063 195.632C257.041 197.719 258.368 199.487 260.354 207.251C260.354 207.251 251.974 204.905 242.197 209.317C231.299 209.654 227.107 212.083 227.107 212.083Z" stroke="white" stroke-width="1.64649" stroke-miterlimit="10"/>
<path d="M234.313 206.358C235.485 206.358 236.435 205.408 236.435 204.235C236.435 203.063 235.485 202.113 234.313 202.113C233.14 202.113 232.19 203.063 232.19 204.235C232.19 205.408 233.14 206.358 234.313 206.358Z" fill="white" stroke="white" stroke-width="1.64649" stroke-miterlimit="10"/>
<path d="M247.334 203.115C248.506 203.115 249.456 202.165 249.456 200.993C249.456 199.82 248.506 198.87 247.334 198.87C246.161 198.87 245.211 199.82 245.211 200.993C245.211 202.165 246.161 203.115 247.334 203.115Z" fill="white" stroke="white" stroke-width="1.64649" stroke-miterlimit="10"/>
<path d="M243.04 208.949L256.463 210.45C256.463 210.45 259.863 209.562 260.349 207.247C249.885 205.312 243.04 208.949 243.04 208.949Z" fill="white" stroke="white" stroke-width="1.64649" stroke-miterlimit="10"/>
<path d="M242.686 209.103C242.686 209.103 256.104 208.892 259.903 212.394C260.796 215.076 260.35 238.841 260.35 238.841C260.35 238.841 260.87 240.254 258.787 242.416C258.936 245.917 259.754 257.165 259.754 257.165C259.754 257.165 256.179 261.187 246.866 257.611C244.778 251.055 243.811 246.661 243.811 246.661C243.811 246.661 242.993 247.256 240.831 247.108C241.33 249.865 241.798 254.408 241.798 254.408C241.798 254.408 232.782 257.834 228.686 254.705C227.421 250.162 225.706 243.309 225.706 243.309C225.706 243.309 223.106 241.817 223.027 238.613C222.953 235.409 223.027 226.591 223.027 226.591" stroke="white" stroke-width="1.64649" stroke-miterlimit="10"/>
<path d="M231.223 192.279L228.838 189.933C228.838 189.933 228.243 189.04 228.838 188.406C229.433 187.771 230.217 188.183 230.589 188.406C230.961 188.629 233.215 190.975 233.215 190.975" stroke="white" stroke-width="1.64649" stroke-miterlimit="10"/>
<path d="M241.727 188.997L243.027 185.833C243.027 185.833 243.473 184.677 244.554 185.089C245.635 185.5 245.412 186.279 245.206 186.725C245.001 187.172 244.121 189.329 244.121 189.329" stroke="white" stroke-width="1.64649" stroke-miterlimit="10"/>
</mask>
<g mask="url(#mask3_3029_6096)">
<rect x="179.676" y="213.578" width="110.226" height="50.372" transform="rotate(-29.4772 179.676 213.578)" fill="#C0006C"/>
</g>
<g opacity="0.19">
<path d="M223.81 214.067C223.81 214.067 228.055 225.24 232.917 227.42C237.78 229.599 239.565 228.649 248.113 225.63C256.66 222.61 257.054 219.148 256.104 215.293C255.154 211.437 249.566 210.321 246.55 211.494C244.519 212.159 244.366 212.29 244.366 212.29C244.366 212.29 246.607 213.59 247.224 215.656C245.434 216.242 239.71 217.721 239.71 217.721C239.71 217.721 238.817 215.485 233.928 213.669C232.861 213.271 231.854 212.99 230.931 212.798C227.613 212.111 225.294 212.579 224.685 213.082C223.893 213.73 223.81 214.067 223.81 214.067Z" stroke="white" stroke-width="1.64649" stroke-miterlimit="10"/>
<path d="M244.362 212.29C244.362 212.29 239.005 208.544 230.922 212.802" stroke="white" stroke-width="1.64649" stroke-miterlimit="10"/>
<path d="M223.81 214.514C223.81 214.514 215.04 218.426 221.184 225.801C227.049 229.079 230.922 225.801 230.922 225.801" stroke="white" stroke-width="1.64649" stroke-miterlimit="10"/>
<path d="M227.107 212.137L222.358 211.551C222.358 211.551 221.168 199.931 231.225 192.334C241.282 184.736 252.753 192.259 255.063 195.686C257.041 197.773 258.368 199.542 260.354 207.305C260.354 207.305 251.974 204.96 242.197 209.371C231.299 209.708 227.107 212.137 227.107 212.137Z" stroke="white" stroke-width="1.64649" stroke-miterlimit="10"/>
<path d="M234.313 206.412C235.485 206.412 236.435 205.462 236.435 204.29C236.435 203.117 235.485 202.167 234.313 202.167C233.14 202.167 232.19 203.117 232.19 204.29C232.19 205.462 233.14 206.412 234.313 206.412Z" fill="white" stroke="white" stroke-width="1.64649" stroke-miterlimit="10"/>
<path d="M247.334 203.169C248.506 203.169 249.456 202.219 249.456 201.047C249.456 199.875 248.506 198.924 247.334 198.924C246.161 198.924 245.211 199.875 245.211 201.047C245.211 202.219 246.161 203.169 247.334 203.169Z" fill="white" stroke="white" stroke-width="1.64649" stroke-miterlimit="10"/>
<path d="M243.04 209.003L256.463 210.504C256.463 210.504 259.863 209.616 260.349 207.301C249.885 205.366 243.04 209.003 243.04 209.003Z" fill="white" stroke="white" stroke-width="1.64649" stroke-miterlimit="10"/>
<path d="M242.686 209.157C242.686 209.157 256.104 208.947 259.903 212.448C260.796 215.131 260.35 238.895 260.35 238.895C260.35 238.895 260.87 240.308 258.787 242.47C258.936 245.971 259.754 257.219 259.754 257.219C259.754 257.219 256.179 261.241 246.866 257.665C244.778 251.109 243.811 246.715 243.811 246.715C243.811 246.715 242.993 247.311 240.831 247.162C241.33 249.919 241.798 254.462 241.798 254.462C241.798 254.462 232.782 257.889 228.686 254.759C227.421 250.217 225.706 243.363 225.706 243.363C225.706 243.363 223.106 241.871 223.027 238.667C222.953 235.464 223.027 226.645 223.027 226.645" stroke="white" stroke-width="1.64649" stroke-miterlimit="10"/>
<path d="M231.223 192.334L228.838 189.988C228.838 189.988 228.243 189.095 228.838 188.461C229.433 187.826 230.217 188.237 230.589 188.461C230.961 188.684 233.215 191.03 233.215 191.03" stroke="white" stroke-width="1.64649" stroke-miterlimit="10"/>
<path d="M241.727 189.051L243.027 185.887C243.027 185.887 243.473 184.732 244.554 185.143C245.635 185.555 245.412 186.334 245.206 186.78C245.001 187.226 244.121 189.384 244.121 189.384" stroke="white" stroke-width="1.64649" stroke-miterlimit="10"/>
</g>
<path d="M140.238 121V106.736H143.539V121H140.238ZM146.924 121V106.736H149.654L158.07 117.006H156.745V106.736H160.006V121H157.296L148.86 110.73H150.184V121H146.924ZM166.335 121V109.426H161.771V106.736H174.201V109.426H169.636V121H166.335ZM175.977 121V106.736H182.151C183.428 106.736 184.528 106.947 185.452 107.368C186.376 107.775 187.089 108.366 187.591 109.141C188.094 109.915 188.345 110.839 188.345 111.912C188.345 112.972 188.094 113.889 187.591 114.663C187.089 115.424 186.376 116.008 185.452 116.415C184.528 116.823 183.428 117.027 182.151 117.027H177.811L179.278 115.58V121H175.977ZM185.044 121L181.478 115.824H185.004L188.61 121H185.044ZM179.278 115.947L177.811 114.398H181.967C182.986 114.398 183.747 114.181 184.25 113.746C184.752 113.298 185.004 112.686 185.004 111.912C185.004 111.124 184.752 110.513 184.25 110.078C183.747 109.643 182.986 109.426 181.967 109.426H177.811L179.278 107.857V115.947ZM197.889 121.245C196.761 121.245 195.715 121.061 194.751 120.694C193.8 120.328 192.971 119.811 192.265 119.146C191.572 118.48 191.029 117.699 190.635 116.802C190.254 115.906 190.064 114.928 190.064 113.868C190.064 112.809 190.254 111.83 190.635 110.934C191.029 110.037 191.579 109.256 192.285 108.591C192.992 107.925 193.82 107.409 194.771 107.042C195.722 106.675 196.755 106.492 197.869 106.492C198.996 106.492 200.028 106.675 200.966 107.042C201.917 107.409 202.739 107.925 203.431 108.591C204.138 109.256 204.688 110.037 205.082 110.934C205.476 111.817 205.673 112.795 205.673 113.868C205.673 114.928 205.476 115.913 205.082 116.823C204.688 117.719 204.138 118.5 203.431 119.166C202.739 119.818 201.917 120.328 200.966 120.694C200.028 121.061 199.003 121.245 197.889 121.245ZM197.869 118.433C198.507 118.433 199.091 118.324 199.621 118.106C200.164 117.889 200.64 117.577 201.047 117.169C201.455 116.762 201.767 116.279 201.985 115.722C202.216 115.165 202.331 114.547 202.331 113.868C202.331 113.189 202.216 112.571 201.985 112.014C201.767 111.457 201.455 110.975 201.047 110.567C200.653 110.16 200.185 109.847 199.641 109.63C199.098 109.412 198.507 109.304 197.869 109.304C197.23 109.304 196.639 109.412 196.096 109.63C195.566 109.847 195.097 110.16 194.69 110.567C194.282 110.975 193.963 111.457 193.732 112.014C193.515 112.571 193.406 113.189 193.406 113.868C193.406 114.534 193.515 115.152 193.732 115.722C193.963 116.279 194.275 116.762 194.669 117.169C195.077 117.577 195.552 117.889 196.096 118.106C196.639 118.324 197.23 118.433 197.869 118.433ZM208.154 121V106.736H214.634C216.182 106.736 217.547 107.035 218.729 107.633C219.911 108.217 220.835 109.039 221.5 110.098C222.166 111.158 222.499 112.415 222.499 113.868C222.499 115.308 222.166 116.565 221.5 117.638C220.835 118.697 219.911 119.526 218.729 120.124C217.547 120.708 216.182 121 214.634 121H208.154ZM211.455 118.29H214.471C215.421 118.29 216.243 118.113 216.936 117.76C217.642 117.393 218.186 116.877 218.566 116.211C218.96 115.546 219.157 114.765 219.157 113.868C219.157 112.958 218.96 112.177 218.566 111.525C218.186 110.859 217.642 110.35 216.936 109.997C216.243 109.63 215.421 109.446 214.471 109.446H211.455V118.29ZM231.326 121.245C229.302 121.245 227.719 120.681 226.578 119.553C225.437 118.426 224.866 116.816 224.866 114.724V106.736H228.167V114.602C228.167 115.96 228.446 116.938 229.003 117.536C229.56 118.134 230.341 118.433 231.346 118.433C232.351 118.433 233.132 118.134 233.689 117.536C234.246 116.938 234.525 115.96 234.525 114.602V106.736H237.785V114.724C237.785 116.816 237.214 118.426 236.073 119.553C234.932 120.681 233.35 121.245 231.326 121.245ZM247.873 121.245C246.773 121.245 245.747 121.068 244.796 120.715C243.859 120.348 243.044 119.832 242.351 119.166C241.658 118.5 241.115 117.719 240.721 116.823C240.341 115.926 240.15 114.941 240.15 113.868C240.15 112.795 240.341 111.81 240.721 110.913C241.115 110.017 241.658 109.236 242.351 108.57C243.058 107.905 243.879 107.395 244.817 107.042C245.754 106.675 246.78 106.492 247.894 106.492C249.13 106.492 250.244 106.709 251.235 107.144C252.241 107.565 253.083 108.19 253.762 109.018L251.643 110.975C251.154 110.418 250.611 110.003 250.013 109.732C249.415 109.446 248.763 109.304 248.057 109.304C247.391 109.304 246.78 109.412 246.223 109.63C245.666 109.847 245.184 110.16 244.776 110.567C244.368 110.975 244.049 111.457 243.818 112.014C243.601 112.571 243.492 113.189 243.492 113.868C243.492 114.547 243.601 115.165 243.818 115.722C244.049 116.279 244.368 116.762 244.776 117.169C245.184 117.577 245.666 117.889 246.223 118.106C246.78 118.324 247.391 118.433 248.057 118.433C248.763 118.433 249.415 118.297 250.013 118.025C250.611 117.74 251.154 117.312 251.643 116.741L253.762 118.697C253.083 119.526 252.241 120.158 251.235 120.592C250.244 121.027 249.123 121.245 247.873 121.245ZM258.807 121V109.426H254.242V106.736H266.672V109.426H262.108V121H258.807ZM268.448 121V106.736H271.749V121H268.448ZM282.062 121.245C280.935 121.245 279.889 121.061 278.924 120.694C277.974 120.328 277.145 119.811 276.439 119.146C275.746 118.48 275.202 117.699 274.808 116.802C274.428 115.906 274.238 114.928 274.238 113.868C274.238 112.809 274.428 111.83 274.808 110.934C275.202 110.037 275.752 109.256 276.459 108.591C277.165 107.925 277.994 107.409 278.945 107.042C279.896 106.675 280.928 106.492 282.042 106.492C283.17 106.492 284.202 106.675 285.139 107.042C286.09 107.409 286.912 107.925 287.605 108.591C288.311 109.256 288.862 110.037 289.255 110.934C289.649 111.817 289.846 112.795 289.846 113.868C289.846 114.928 289.649 115.913 289.255 116.823C288.862 117.719 288.311 118.5 287.605 119.166C286.912 119.818 286.09 120.328 285.139 120.694C284.202 121.061 283.176 121.245 282.062 121.245ZM282.042 118.433C282.681 118.433 283.265 118.324 283.795 118.106C284.338 117.889 284.813 117.577 285.221 117.169C285.628 116.762 285.941 116.279 286.158 115.722C286.389 115.165 286.505 114.547 286.505 113.868C286.505 113.189 286.389 112.571 286.158 112.014C285.941 111.457 285.628 110.975 285.221 110.567C284.827 110.16 284.358 109.847 283.815 109.63C283.272 109.412 282.681 109.304 282.042 109.304C281.404 109.304 280.813 109.412 280.269 109.63C279.74 109.847 279.271 110.16 278.863 110.567C278.456 110.975 278.137 111.457 277.906 112.014C277.688 112.571 277.58 113.189 277.58 113.868C277.58 114.534 277.688 115.152 277.906 115.722C278.137 116.279 278.449 116.762 278.843 117.169C279.25 117.577 279.726 117.889 280.269 118.106C280.813 118.324 281.404 118.433 282.042 118.433ZM292.327 121V106.736H295.058L303.473 117.006H302.149V106.736H305.409V121H302.699L294.263 110.73H295.588V121H292.327ZM317.509 121V109.426H312.945V106.736H325.375V109.426H320.81V121H317.509ZM333.88 121.245C332.752 121.245 331.706 121.061 330.742 120.694C329.791 120.328 328.962 119.811 328.256 119.146C327.563 118.48 327.02 117.699 326.626 116.802C326.245 115.906 326.055 114.928 326.055 113.868C326.055 112.809 326.245 111.83 326.626 110.934C327.02 110.037 327.57 109.256 328.276 108.591C328.983 107.925 329.811 107.409 330.762 107.042C331.713 106.675 332.746 106.492 333.86 106.492C334.987 106.492 336.02 106.675 336.957 107.042C337.908 107.409 338.73 107.925 339.422 108.591C340.129 109.256 340.679 110.037 341.073 110.934C341.467 111.817 341.664 112.795 341.664 113.868C341.664 114.928 341.467 115.913 341.073 116.823C340.679 117.719 340.129 118.5 339.422 119.166C338.73 119.818 337.908 120.328 336.957 120.694C336.02 121.061 334.994 121.245 333.88 121.245ZM333.86 118.433C334.498 118.433 335.082 118.324 335.612 118.106C336.155 117.889 336.631 117.577 337.038 117.169C337.446 116.762 337.758 116.279 337.976 115.722C338.207 115.165 338.322 114.547 338.322 113.868C338.322 113.189 338.207 112.571 337.976 112.014C337.758 111.457 337.446 110.975 337.038 110.567C336.644 110.16 336.176 109.847 335.632 109.63C335.089 109.412 334.498 109.304 333.86 109.304C333.221 109.304 332.63 109.412 332.087 109.63C331.557 109.847 331.088 110.16 330.681 110.567C330.273 110.975 329.954 111.457 329.723 112.014C329.506 112.571 329.397 113.189 329.397 113.868C329.397 114.534 329.506 115.152 329.723 115.722C329.954 116.279 330.267 116.762 330.66 117.169C331.068 117.577 331.543 117.889 332.087 118.106C332.63 118.324 333.221 118.433 333.86 118.433ZM78.1758 158L87.7122 136.604H92.6026L102.169 158H96.9734L89.1487 139.111H91.1049L83.2496 158H78.1758ZM82.944 153.415L84.2583 149.656H95.2618L96.6066 153.415H82.944ZM104.389 158V136.604H113.651C115.566 136.604 117.216 136.92 118.602 137.552C119.988 138.163 121.057 139.05 121.811 140.211C122.565 141.373 122.942 142.758 122.942 144.368C122.942 145.957 122.565 147.333 121.811 148.494C121.057 149.656 119.988 150.552 118.602 151.184C117.216 151.795 115.566 152.101 113.651 152.101H107.14L109.341 149.87V158H104.389ZM109.341 150.42L107.14 148.066H113.375C114.904 148.066 116.045 147.74 116.799 147.088C117.553 146.436 117.93 145.529 117.93 144.368C117.93 143.186 117.553 142.269 116.799 141.617C116.045 140.965 114.904 140.639 113.375 140.639H107.14L109.341 138.285V150.42ZM126.477 158V136.604H135.739C137.654 136.604 139.305 136.92 140.69 137.552C142.076 138.163 143.146 139.05 143.9 140.211C144.653 141.373 145.03 142.758 145.03 144.368C145.03 145.957 144.653 147.333 143.9 148.494C143.146 149.656 142.076 150.552 140.69 151.184C139.305 151.795 137.654 152.101 135.739 152.101H129.228L131.429 149.87V158H126.477ZM131.429 150.42L129.228 148.066H135.464C136.992 148.066 138.133 147.74 138.887 147.088C139.641 146.436 140.018 145.529 140.018 144.368C140.018 143.186 139.641 142.269 138.887 141.617C138.133 140.965 136.992 140.639 135.464 140.639H129.228L131.429 138.285V150.42ZM157.52 158V136.604H167.24C169.563 136.604 171.611 137.053 173.383 137.949C175.156 138.825 176.542 140.058 177.54 141.648C178.539 143.237 179.038 145.122 179.038 147.302C179.038 149.462 178.539 151.347 177.54 152.957C176.542 154.546 175.156 155.789 173.383 156.686C171.611 157.562 169.563 158 167.24 158H157.52ZM162.472 153.935H166.995C168.422 153.935 169.654 153.67 170.694 153.14C171.753 152.59 172.568 151.816 173.139 150.817C173.73 149.819 174.025 148.647 174.025 147.302C174.025 145.937 173.73 144.765 173.139 143.787C172.568 142.789 171.753 142.025 170.694 141.495C169.654 140.945 168.422 140.67 166.995 140.67H162.472V153.935ZM187.326 145.224H197.627V149.075H187.326V145.224ZM187.693 154.027H199.339V158H182.772V136.604H198.941V140.578H187.693V154.027ZM209.399 158L200.168 136.604H205.517L213.586 155.555H210.438L218.629 136.604H223.55L214.289 158H209.399ZM229.891 145.224H240.191V149.075H229.891V145.224ZM230.258 154.027H241.903V158H225.337V136.604H241.506V140.578H230.258V154.027ZM245.843 158V136.604H250.794V153.965H261.523V158H245.843ZM274.323 158.367C272.632 158.367 271.063 158.092 269.616 157.542C268.19 156.991 266.947 156.217 265.887 155.219C264.848 154.22 264.033 153.048 263.442 151.704C262.871 150.359 262.586 148.892 262.586 147.302C262.586 145.713 262.871 144.246 263.442 142.901C264.033 141.556 264.858 140.384 265.918 139.386C266.977 138.387 268.22 137.613 269.647 137.063C271.073 136.513 272.622 136.238 274.293 136.238C275.984 136.238 277.533 136.513 278.939 137.063C280.365 137.613 281.598 138.387 282.637 139.386C283.697 140.384 284.522 141.556 285.113 142.901C285.704 144.225 285.999 145.692 285.999 147.302C285.999 148.892 285.704 150.369 285.113 151.734C284.522 153.079 283.697 154.251 282.637 155.249C281.598 156.227 280.365 156.991 278.939 157.542C277.533 158.092 275.994 158.367 274.323 158.367ZM274.293 154.149C275.25 154.149 276.127 153.986 276.921 153.66C277.736 153.334 278.45 152.865 279.061 152.254C279.672 151.642 280.141 150.919 280.467 150.084C280.813 149.248 280.986 148.321 280.986 147.302C280.986 146.283 280.813 145.356 280.467 144.521C280.141 143.685 279.672 142.962 279.061 142.351C278.47 141.739 277.767 141.271 276.952 140.945C276.137 140.619 275.25 140.456 274.293 140.456C273.335 140.456 272.449 140.619 271.633 140.945C270.839 141.271 270.136 141.739 269.524 142.351C268.913 142.962 268.434 143.685 268.088 144.521C267.762 145.356 267.599 146.283 267.599 147.302C267.599 148.301 267.762 149.228 268.088 150.084C268.434 150.919 268.903 151.642 269.494 152.254C270.105 152.865 270.818 153.334 271.633 153.66C272.449 153.986 273.335 154.149 274.293 154.149ZM289.72 158V136.604H298.982C300.897 136.604 302.548 136.92 303.933 137.552C305.319 138.163 306.389 139.05 307.143 140.211C307.897 141.373 308.273 142.758 308.273 144.368C308.273 145.957 307.897 147.333 307.143 148.494C306.389 149.656 305.319 150.552 303.933 151.184C302.548 151.795 300.897 152.101 298.982 152.101H292.471L294.672 149.87V158H289.72ZM294.672 150.42L292.471 148.066H298.707C300.235 148.066 301.376 147.74 302.13 147.088C302.884 146.436 303.261 145.529 303.261 144.368C303.261 143.186 302.884 142.269 302.13 141.617C301.376 140.965 300.235 140.639 298.707 140.639H292.471L294.672 138.285V150.42ZM311.809 158V136.604H315.904L325.013 151.704H322.843L331.798 136.604H335.863L335.924 158H331.279L331.248 143.726H332.104L324.952 155.738H322.72L315.415 143.726H316.454V158H311.809ZM345.555 145.224H355.855V149.075H345.555V145.224ZM345.922 154.027H357.567V158H341.001V136.604H357.17V140.578H345.922V154.027ZM361.507 158V136.604H365.602L378.226 152.009H376.239V136.604H381.13V158H377.064L364.41 142.595H366.397V158H361.507ZM390.624 158V140.639H383.777V136.604H402.422V140.639H395.575V158H390.624Z" fill="white"/>
</g>
<defs>
<filter id="filter0_f_3029_6096" x="-253.081" y="-648.081" width="1122.16" height="1122.16" filterUnits="userSpaceOnUse" color-interpolation-filters="sRGB">
<feFlood flood-opacity="0" result="BackgroundImageFix"/>
<feBlend mode="normal" in="SourceGraphic" in2="BackgroundImageFix" result="shape"/>
<feGaussianBlur stdDeviation="126.541" result="effect1_foregroundBlur_3029_6096"/>
</filter>
<linearGradient id="paint0_linear_3029_6096" x1="232.755" y1="-107.777" x2="632.565" y2="41.0291" gradientUnits="userSpaceOnUse">
<stop stop-color="#C30A72" stop-opacity="0.8"/>
<stop offset="1" stop-color="#C30A72" stop-opacity="0"/>
</linearGradient>
<clipPath id="clip0_3029_6096">
<rect width="480" height="320" fill="white"/>
</clipPath>
</defs>
</svg>
