<svg width="480" height="321" viewBox="0 0 480 321" fill="none" xmlns="http://www.w3.org/2000/svg">
<rect width="480" height="320" transform="translate(0 0.666992)" fill="#141414"/>
<path d="M125.927 67.834L132.898 48.9203H135.303L142.247 67.834H139.842L138.113 62.9705H130.061L128.305 67.834H125.927ZM130.737 61.1332H137.438L134.087 51.7844L130.737 61.1332ZM144.924 67.834V54.4323H146.977L147.112 56.8371C147.545 55.9904 148.166 55.324 148.977 54.8376C149.787 54.3513 150.706 54.1081 151.733 54.1081C153.318 54.1081 154.579 54.5944 155.515 55.5671C156.47 56.5218 156.947 57.9989 156.947 59.9983V67.834H154.678V60.2415C154.678 57.4495 153.525 56.0535 151.219 56.0535C150.067 56.0535 149.103 56.4768 148.328 57.3234C147.572 58.152 147.193 59.3409 147.193 60.89V67.834H144.924ZM167.672 67.834V48.9203H169.942V67.834H167.672ZM173.817 67.834V54.4323H175.87L176.005 56.8371C176.438 55.9904 177.059 55.324 177.87 54.8376C178.68 54.3513 179.599 54.1081 180.626 54.1081C182.211 54.1081 183.472 54.5944 184.408 55.5671C185.363 56.5218 185.84 57.9989 185.84 59.9983V67.834H183.571V60.2415C183.571 57.4495 182.418 56.0535 180.112 56.0535C178.959 56.0535 177.996 56.4768 177.221 57.3234C176.465 58.152 176.086 59.3409 176.086 60.89V67.834H173.817ZM194.575 67.834C193.35 67.834 192.386 67.5368 191.684 66.9423C190.981 66.3479 190.63 65.2761 190.63 63.727V56.3507H188.306V54.4323H190.63L190.927 51.217H192.9V54.4323H196.845V56.3507H192.9V63.727C192.9 64.5736 193.071 65.15 193.413 65.4563C193.755 65.7445 194.359 65.8886 195.223 65.8886H196.628V67.834H194.575ZM199.728 67.834V54.4323H201.781L201.971 56.9992C202.385 56.1165 203.015 55.414 203.862 54.8916C204.709 54.3693 205.753 54.1081 206.996 54.1081V56.4858H206.375C205.582 56.4858 204.853 56.6299 204.186 56.9181C203.52 57.1883 202.988 57.6566 202.592 58.3231C202.196 58.9896 201.998 59.9083 201.998 61.0791V67.834H199.728ZM215.149 68.1582C213.888 68.1582 212.753 67.87 211.744 67.2936C210.736 66.7172 209.934 65.9066 209.34 64.8618C208.763 63.7991 208.475 62.5562 208.475 61.1332C208.475 59.7101 208.772 58.4762 209.367 57.4315C209.961 56.3687 210.763 55.5491 211.771 54.9727C212.798 54.3963 213.942 54.1081 215.203 54.1081C216.464 54.1081 217.599 54.3963 218.607 54.9727C219.616 55.5491 220.409 56.3687 220.985 57.4315C221.579 58.4762 221.877 59.7101 221.877 61.1332C221.877 62.5562 221.579 63.7991 220.985 64.8618C220.391 65.9066 219.58 66.7172 218.553 67.2936C217.544 67.87 216.41 68.1582 215.149 68.1582ZM215.149 66.2128C215.923 66.2128 216.644 66.0237 217.31 65.6454C217.977 65.2671 218.517 64.6997 218.931 63.9432C219.346 63.1866 219.553 62.25 219.553 61.1332C219.553 60.0163 219.346 59.0797 218.931 58.3231C218.535 57.5666 218.004 56.9992 217.337 56.6209C216.671 56.2426 215.959 56.0535 215.203 56.0535C214.428 56.0535 213.708 56.2426 213.041 56.6209C212.375 56.9992 211.834 57.5666 211.42 58.3231C211.006 59.0797 210.799 60.0163 210.799 61.1332C210.799 62.25 211.006 63.1866 211.42 63.9432C211.834 64.6997 212.366 65.2671 213.014 65.6454C213.681 66.0237 214.392 66.2128 215.149 66.2128ZM231.112 68.1582C229.779 68.1582 228.608 67.852 227.599 67.2396C226.609 66.6271 225.834 65.7895 225.276 64.7267C224.735 63.664 224.465 62.4571 224.465 61.1061C224.465 59.7552 224.744 58.5573 225.303 57.5125C225.861 56.4498 226.636 55.6212 227.626 55.0267C228.617 54.4143 229.788 54.1081 231.139 54.1081C232.238 54.1081 233.21 54.3332 234.057 54.7836C234.903 55.2339 235.561 55.8644 236.029 56.6749V48.38H238.299V67.834H236.245L236.029 65.6184C235.597 66.2669 234.976 66.8523 234.165 67.3747C233.354 67.897 232.337 68.1582 231.112 68.1582ZM231.355 66.1858C232.256 66.1858 233.048 65.9786 233.733 65.5643C234.435 65.132 234.976 64.5376 235.354 63.7811C235.75 63.0245 235.948 62.1419 235.948 61.1332C235.948 60.1244 235.75 59.2418 235.354 58.4852C234.976 57.7287 234.435 57.1433 233.733 56.729C233.048 56.2967 232.256 56.0805 231.355 56.0805C230.472 56.0805 229.68 56.2967 228.977 56.729C228.293 57.1433 227.752 57.7287 227.356 58.4852C226.978 59.2418 226.789 60.1244 226.789 61.1332C226.789 62.1419 226.978 63.0245 227.356 63.7811C227.752 64.5376 228.293 65.132 228.977 65.5643C229.68 65.9786 230.472 66.1858 231.355 66.1858ZM246.889 68.1582C245.304 68.1582 244.043 67.6809 243.107 66.7262C242.17 65.7535 241.701 64.2674 241.701 62.268V54.4323H243.971V62.0248C243.971 64.8168 245.115 66.2128 247.403 66.2128C248.573 66.2128 249.537 65.7985 250.294 64.9699C251.068 64.1233 251.456 62.9254 251.456 61.3763V54.4323H253.725V67.834H251.672L251.51 65.4292C251.095 66.2759 250.474 66.9423 249.645 67.4287C248.835 67.915 247.916 68.1582 246.889 68.1582ZM263.621 68.1582C262.343 68.1582 261.19 67.87 260.163 67.2936C259.154 66.6992 258.353 65.8796 257.758 64.8348C257.182 63.7721 256.894 62.5382 256.894 61.1332C256.894 59.7281 257.182 58.5033 257.758 57.4585C258.353 56.3957 259.154 55.5761 260.163 54.9997C261.19 54.4053 262.343 54.1081 263.621 54.1081C265.207 54.1081 266.54 54.5224 267.62 55.351C268.719 56.1796 269.413 57.2874 269.701 58.6744H267.377C267.197 57.8458 266.756 57.2063 266.053 56.756C265.351 56.2877 264.531 56.0535 263.594 56.0535C262.838 56.0535 262.126 56.2426 261.46 56.6209C260.793 56.9992 260.253 57.5666 259.839 58.3231C259.424 59.0797 259.217 60.0163 259.217 61.1332C259.217 62.25 259.424 63.1866 259.839 63.9432C260.253 64.6997 260.793 65.2761 261.46 65.6724C262.126 66.0507 262.838 66.2398 263.594 66.2398C264.531 66.2398 265.351 66.0147 266.053 65.5643C266.756 65.096 267.197 64.4385 267.377 63.5919H269.701C269.431 64.9429 268.746 66.0417 267.647 66.8883C266.549 67.7349 265.207 68.1582 263.621 68.1582ZM277.797 67.834C276.572 67.834 275.608 67.5368 274.906 66.9423C274.203 66.3479 273.852 65.2761 273.852 63.727V56.3507H271.528V54.4323H273.852L274.149 51.217H276.122V54.4323H280.067V56.3507H276.122V63.727C276.122 64.5736 276.293 65.15 276.635 65.4563C276.977 65.7445 277.581 65.8886 278.445 65.8886H279.85V67.834H277.797ZM284.328 51.4602C283.878 51.4602 283.5 51.3161 283.193 51.0279C282.905 50.7216 282.761 50.3434 282.761 49.893C282.761 49.4607 282.905 49.1005 283.193 48.8123C283.5 48.5241 283.878 48.38 284.328 48.38C284.76 48.38 285.13 48.5241 285.436 48.8123C285.742 49.1005 285.895 49.4607 285.895 49.893C285.895 50.3434 285.742 50.7216 285.436 51.0279C285.13 51.3161 284.76 51.4602 284.328 51.4602ZM283.193 67.834V54.4323H285.463V67.834H283.193ZM295.521 68.1582C294.26 68.1582 293.125 67.87 292.117 67.2936C291.108 66.7172 290.306 65.9066 289.712 64.8618C289.136 63.7991 288.847 62.5562 288.847 61.1332C288.847 59.7101 289.145 58.4762 289.739 57.4315C290.333 56.3687 291.135 55.5491 292.144 54.9727C293.17 54.3963 294.314 54.1081 295.575 54.1081C296.836 54.1081 297.971 54.3963 298.98 54.9727C299.988 55.5491 300.781 56.3687 301.357 57.4315C301.952 58.4762 302.249 59.7101 302.249 61.1332C302.249 62.5562 301.952 63.7991 301.357 64.8618C300.763 65.9066 299.952 66.7172 298.926 67.2936C297.917 67.87 296.782 68.1582 295.521 68.1582ZM295.521 66.2128C296.296 66.2128 297.016 66.0237 297.683 65.6454C298.349 65.2671 298.89 64.6997 299.304 63.9432C299.718 63.1866 299.925 62.25 299.925 61.1332C299.925 60.0163 299.718 59.0797 299.304 58.3231C298.908 57.5666 298.376 56.9992 297.71 56.6209C297.043 56.2426 296.332 56.0535 295.575 56.0535C294.801 56.0535 294.08 56.2426 293.414 56.6209C292.747 56.9992 292.207 57.5666 291.792 58.3231C291.378 59.0797 291.171 60.0163 291.171 61.1332C291.171 62.25 291.378 63.1866 291.792 63.9432C292.207 64.6997 292.738 65.2671 293.387 65.6454C294.053 66.0237 294.765 66.2128 295.521 66.2128ZM305.405 67.834V54.4323H307.458L307.593 56.8371C308.026 55.9904 308.647 55.324 309.458 54.8376C310.268 54.3513 311.187 54.1081 312.214 54.1081C313.799 54.1081 315.06 54.5944 315.996 55.5671C316.951 56.5218 317.428 57.9989 317.428 59.9983V67.834H315.159V60.2415C315.159 57.4495 314.006 56.0535 311.7 56.0535C310.548 56.0535 309.584 56.4768 308.809 57.3234C308.053 58.152 307.674 59.3409 307.674 60.89V67.834H305.405ZM333.314 67.834C332.089 67.834 331.125 67.5368 330.423 66.9423C329.72 66.3479 329.369 65.2761 329.369 63.727V56.3507H327.045V54.4323H329.369L329.666 51.217H331.638V54.4323H335.583V56.3507H331.638V63.727C331.638 64.5736 331.81 65.15 332.152 65.4563C332.494 65.7445 333.097 65.8886 333.962 65.8886H335.367V67.834H333.314ZM344.204 68.1582C342.943 68.1582 341.808 67.87 340.799 67.2936C339.791 66.7172 338.989 65.9066 338.395 64.8618C337.818 63.7991 337.53 62.5562 337.53 61.1332C337.53 59.7101 337.827 58.4762 338.422 57.4315C339.016 56.3687 339.818 55.5491 340.826 54.9727C341.853 54.3963 342.997 54.1081 344.258 54.1081C345.519 54.1081 346.653 54.3963 347.662 54.9727C348.671 55.5491 349.464 56.3687 350.04 57.4315C350.634 58.4762 350.932 59.7101 350.932 61.1332C350.932 62.5562 350.634 63.7991 350.04 64.8618C349.446 65.9066 348.635 66.7172 347.608 67.2936C346.599 67.87 345.465 68.1582 344.204 68.1582ZM344.204 66.2128C344.978 66.2128 345.699 66.0237 346.365 65.6454C347.032 65.2671 347.572 64.6997 347.986 63.9432C348.401 63.1866 348.608 62.25 348.608 61.1332C348.608 60.0163 348.401 59.0797 347.986 58.3231C347.59 57.5666 347.059 56.9992 346.392 56.6209C345.726 56.2426 345.014 56.0535 344.258 56.0535C343.483 56.0535 342.763 56.2426 342.096 56.6209C341.43 56.9992 340.889 57.5666 340.475 58.3231C340.061 59.0797 339.854 60.0163 339.854 61.1332C339.854 62.25 340.061 63.1866 340.475 63.9432C340.889 64.6997 341.421 65.2671 342.069 65.6454C342.736 66.0237 343.447 66.2128 344.204 66.2128Z" fill="white"/>
<path d="M102.919 103.158C101.01 103.158 99.3706 102.753 98.0016 101.942C96.6326 101.114 95.5789 99.9699 94.8404 98.5109C94.1018 97.0338 93.7326 95.3316 93.7326 93.4042C93.7326 91.4768 94.1018 89.7746 94.8404 88.2975C95.5789 86.8204 96.6326 85.6676 98.0016 84.839C99.3706 84.0104 101.01 83.5961 102.919 83.5961C105.189 83.5961 107.044 84.1635 108.485 85.2983C109.944 86.4151 110.854 87.9913 111.214 90.0267H107.404C107.17 89 106.666 88.1984 105.891 87.622C105.135 87.0276 104.126 86.7304 102.865 86.7304C101.118 86.7304 99.7489 87.3248 98.7582 88.5137C97.7675 89.7025 97.2721 91.3327 97.2721 93.4042C97.2721 95.4757 97.7675 97.1059 98.7582 98.2947C99.7489 99.4656 101.118 100.051 102.865 100.051C104.126 100.051 105.135 99.7808 105.891 99.2404C106.666 98.682 107.17 97.9164 107.404 96.9437H111.214C110.854 98.8891 109.944 100.411 108.485 101.51C107.044 102.609 105.189 103.158 102.919 103.158ZM123.138 103.158C121.247 103.158 119.589 102.744 118.166 101.915C116.761 101.087 115.654 99.9429 114.843 98.4838C114.05 97.0068 113.654 95.3046 113.654 93.3772C113.654 91.4498 114.05 89.7566 114.843 88.2975C115.654 86.8204 116.761 85.6676 118.166 84.839C119.589 84.0104 121.247 83.5961 123.138 83.5961C125.011 83.5961 126.66 84.0104 128.083 84.839C129.506 85.6676 130.613 86.8204 131.406 88.2975C132.199 89.7566 132.595 91.4498 132.595 93.3772C132.595 95.3046 132.199 97.0068 131.406 98.4838C130.613 99.9429 129.506 101.087 128.083 101.915C126.66 102.744 125.011 103.158 123.138 103.158ZM123.138 100.051C124.939 100.051 126.371 99.4565 127.434 98.2677C128.515 97.0788 129.055 95.4487 129.055 93.3772C129.055 91.3057 128.515 89.6755 127.434 88.4866C126.371 87.2978 124.939 86.7034 123.138 86.7034C121.337 86.7034 119.896 87.2978 118.815 88.4866C117.734 89.6755 117.194 91.3057 117.194 93.3772C117.194 95.4487 117.734 97.0788 118.815 98.2677C119.896 99.4565 121.337 100.051 123.138 100.051ZM135.648 102.834V83.9203H139.755L145.781 95.917L151.725 83.9203H155.832V102.834H152.374V89.7836L147.105 100.132H144.376L139.107 89.7836V102.834H135.648ZM159.502 102.834V83.9203H166.5C168.013 83.9203 169.265 84.1725 170.255 84.6769C171.246 85.1813 171.985 85.8748 172.471 86.7574C172.957 87.64 173.2 88.6307 173.2 89.7295C173.2 90.7743 172.966 91.738 172.498 92.6206C172.03 93.4852 171.3 94.1877 170.309 94.7281C169.319 95.2505 168.049 95.5117 166.5 95.5117H162.96V102.834H159.502ZM162.96 92.7017H166.283C167.49 92.7017 168.355 92.4405 168.877 91.9181C169.418 91.3777 169.688 90.6482 169.688 89.7295C169.688 88.7929 169.418 88.0633 168.877 87.541C168.355 87.0006 167.49 86.7304 166.283 86.7304H162.96V92.7017ZM175.914 102.834V83.9203H188.262V86.7034H179.372V91.8911H187.451V94.593H179.372V100.051H188.262V102.834H175.914ZM195.939 102.834V86.7034H190.427V83.9203H204.936V86.7034H199.397V102.834H195.939ZM207.498 102.834V83.9203H210.957V102.834H207.498ZM219.027 102.834V86.7034H213.515V83.9203H228.024V86.7034H222.485V102.834H219.027ZM230.586 102.834V83.9203H234.045V102.834H230.586ZM243.195 102.834L236.278 83.9203H239.98L245.33 99.2944L250.707 83.9203H254.354L247.437 102.834H243.195ZM256.603 102.834V83.9203H268.951V86.7034H260.061V91.8911H268.14V94.593H260.061V100.051H268.951V102.834H256.603ZM287.227 103.158C285.318 103.158 283.678 102.753 282.309 101.942C280.94 101.114 279.887 99.9699 279.148 98.5109C278.41 97.0338 278.04 95.3316 278.04 93.4042C278.04 91.4768 278.41 89.7746 279.148 88.2975C279.887 86.8204 280.94 85.6676 282.309 84.839C283.678 84.0104 285.318 83.5961 287.227 83.5961C289.497 83.5961 291.352 84.1635 292.793 85.2983C294.252 86.4151 295.162 87.9913 295.522 90.0267H291.712C291.478 89 290.974 88.1984 290.199 87.622C289.443 87.0276 288.434 86.7304 287.173 86.7304C285.426 86.7304 284.057 87.3248 283.066 88.5137C282.075 89.7025 281.58 91.3327 281.58 93.4042C281.58 95.4757 282.075 97.1059 283.066 98.2947C284.057 99.4656 285.426 100.051 287.173 100.051C288.434 100.051 289.443 99.7808 290.199 99.2404C290.974 98.682 291.478 97.9164 291.712 96.9437H295.522C295.162 98.8891 294.252 100.411 292.793 101.51C291.352 102.609 289.497 103.158 287.227 103.158ZM307.446 103.158C305.554 103.158 303.897 102.744 302.474 101.915C301.069 101.087 299.961 99.9429 299.151 98.4838C298.358 97.0068 297.962 95.3046 297.962 93.3772C297.962 91.4498 298.358 89.7566 299.151 88.2975C299.961 86.8204 301.069 85.6676 302.474 84.839C303.897 84.0104 305.554 83.5961 307.446 83.5961C309.319 83.5961 310.967 84.0104 312.39 84.839C313.813 85.6676 314.921 86.8204 315.714 88.2975C316.506 89.7566 316.903 91.4498 316.903 93.3772C316.903 95.3046 316.506 97.0068 315.714 98.4838C314.921 99.9429 313.813 101.087 312.39 101.915C310.967 102.744 309.319 103.158 307.446 103.158ZM307.446 100.051C309.247 100.051 310.679 99.4565 311.742 98.2677C312.823 97.0788 313.363 95.4487 313.363 93.3772C313.363 91.3057 312.823 89.6755 311.742 88.4866C310.679 87.2978 309.247 86.7034 307.446 86.7034C305.644 86.7034 304.203 87.2978 303.123 88.4866C302.042 89.6755 301.501 91.3057 301.501 93.3772C301.501 95.4487 302.042 97.0788 303.123 98.2677C304.203 99.4565 305.644 100.051 307.446 100.051ZM319.956 102.834V83.9203H326.414C328.629 83.9203 330.449 84.3166 331.872 85.1092C333.313 85.8838 334.376 86.9826 335.06 88.4056C335.763 89.8106 336.114 91.4678 336.114 93.3772C336.114 95.2865 335.763 96.9527 335.06 98.3758C334.376 99.7808 333.313 100.88 331.872 101.672C330.449 102.447 328.629 102.834 326.414 102.834H319.956ZM323.415 99.8618H326.252C327.837 99.8618 329.089 99.6097 330.007 99.1053C330.926 98.5829 331.584 97.8444 331.98 96.8897C332.376 95.917 332.574 94.7462 332.574 93.3772C332.574 92.0262 332.376 90.8644 331.98 89.8916C331.584 88.9189 330.926 88.1714 330.007 87.649C329.089 87.1267 327.837 86.8655 326.252 86.8655H323.415V99.8618ZM339.165 102.834V83.9203H342.624V102.834H339.165ZM346.29 102.834V83.9203H349.748L358.638 97.241V83.9203H362.096V102.834H358.638L349.748 89.5404V102.834H346.29ZM374.031 103.158C372.247 103.158 370.689 102.753 369.356 101.942C368.023 101.132 366.988 100.006 366.249 98.5649C365.51 97.1059 365.141 95.4126 365.141 93.4852C365.141 91.5398 365.519 89.8286 366.276 88.3515C367.051 86.8565 368.14 85.6946 369.545 84.866C370.968 84.0194 372.653 83.5961 374.598 83.5961C376.814 83.5961 378.651 84.1275 380.11 85.1903C381.569 86.253 382.515 87.7211 382.947 89.5944H379.083C378.795 88.7118 378.273 88.0273 377.516 87.541C376.76 87.0366 375.787 86.7844 374.598 86.7844C372.707 86.7844 371.248 87.3878 370.221 88.5947C369.194 89.7836 368.681 91.4228 368.681 93.5123C368.681 95.6018 369.185 97.2229 370.194 98.3758C371.221 99.5106 372.608 100.078 374.355 100.078C376.066 100.078 377.354 99.6187 378.219 98.7C379.101 97.7633 379.633 96.5384 379.813 95.0254H375.03V92.4315H383.298V102.834H380.11L379.84 100.348C379.227 101.249 378.462 101.942 377.543 102.429C376.624 102.915 375.454 103.158 374.031 103.158Z" fill="#F2C94C"/>
<path d="M239.686 165.975C243.205 165.975 246.058 163.122 246.058 159.602C246.058 156.083 243.205 153.23 239.686 153.23C236.166 153.23 233.313 156.083 233.313 159.602C233.313 163.122 236.166 165.975 239.686 165.975Z" fill="white"/>
<path d="M221.391 161.042C221.067 161.041 220.747 160.971 220.452 160.837C220.157 160.703 219.893 160.508 219.679 160.265C219.465 160.022 219.305 159.736 219.209 159.426C219.113 159.116 219.084 158.79 219.124 158.468C220.363 147.952 229.095 139.801 239.684 139.801C250.273 139.801 259.005 147.952 260.243 158.468C260.283 158.79 260.254 159.117 260.159 159.426C260.063 159.736 259.903 160.022 259.688 160.265C259.474 160.508 259.211 160.703 258.915 160.837C258.62 160.971 258.3 161.041 257.976 161.042H221.391Z" fill="#B6BBB9"/>
<path d="M242.871 140.051C242.802 140.041 242.733 140.033 242.664 140.023C242.423 139.987 242.18 139.955 241.936 139.928C241.825 139.915 241.714 139.905 241.602 139.895C241.4 139.876 241.197 139.858 240.995 139.847C240.877 139.84 240.76 139.831 240.641 139.825C240.324 139.811 240.004 139.801 239.686 139.801C239.367 139.801 239.048 139.81 238.733 139.825C238.587 139.832 238.442 139.844 238.297 139.854C238.141 139.865 237.984 139.876 237.828 139.89C237.637 139.908 237.447 139.928 237.257 139.951C237.165 139.962 237.072 139.975 236.98 139.987C227.415 141.268 219.901 149.237 219.055 159.17C219.034 159.408 219.063 159.647 219.139 159.873C219.215 160.098 219.338 160.306 219.498 160.482C219.659 160.658 219.855 160.798 220.073 160.895C220.291 160.991 220.527 161.041 220.765 161.042H258.605C258.842 161.042 259.075 160.994 259.292 160.9C259.509 160.806 259.704 160.668 259.865 160.495C260.026 160.321 260.149 160.117 260.227 159.894C260.305 159.671 260.336 159.434 260.317 159.198C259.498 149.418 252.215 141.531 242.871 140.051ZM226.15 155.182C227.053 151.9 228.738 148.886 231.062 146.398C233.385 143.91 236.277 142.022 239.489 140.897C242.704 142.02 245.599 143.907 247.925 146.395C250.251 148.883 251.938 151.898 252.843 155.182C252.958 155.606 252.973 156.051 252.887 156.482C252.802 156.914 252.618 157.319 252.35 157.668C252.083 158.017 251.738 158.299 251.343 158.493C250.949 158.686 250.515 158.786 250.075 158.785H228.918C228.478 158.786 228.044 158.686 227.649 158.493C227.255 158.299 226.91 158.017 226.642 157.668C226.374 157.32 226.19 156.914 226.105 156.483C226.02 156.051 226.035 155.606 226.15 155.182Z" fill="#929694"/>
<path d="M221.411 161.042C221.084 161.041 220.762 160.971 220.465 160.836C220.167 160.701 219.902 160.505 219.686 160.26C219.47 160.015 219.309 159.727 219.213 159.415C219.116 159.103 219.087 158.775 219.127 158.451C220.374 147.942 229.103 139.801 239.686 139.801C250.268 139.801 258.997 147.942 260.243 158.451C260.283 158.775 260.254 159.103 260.158 159.415C260.062 159.727 259.9 160.015 259.684 160.26C259.469 160.505 259.203 160.701 258.906 160.836C258.609 160.971 258.286 161.041 257.96 161.042H221.411Z" stroke="#283035" stroke-width="1.95495" stroke-linecap="round" stroke-linejoin="round"/>
<path d="M239.769 114.576L239.769 139.8" stroke="#283035" stroke-width="1.95495" stroke-linejoin="round"/>
<path d="M358.438 253.414H337.781C336.446 253.414 335.365 254.495 335.365 255.83V285.514C335.365 286.848 336.446 287.93 337.781 287.93H358.438C359.772 287.93 360.854 286.848 360.854 285.514V255.83C360.854 254.495 359.772 253.414 358.438 253.414Z" fill="#E5E5E5"/>
<path d="M358.439 253.414H358.133C358.177 253.596 358.199 253.783 358.2 253.971V283.655C358.2 284.296 357.945 284.911 357.492 285.364C357.039 285.817 356.424 286.072 355.784 286.072H335.435C335.56 286.6 335.86 287.072 336.286 287.409C336.713 287.746 337.24 287.93 337.784 287.93H358.44C359.081 287.93 359.696 287.676 360.149 287.222C360.602 286.769 360.857 286.155 360.857 285.514V255.83C360.857 255.512 360.794 255.198 360.672 254.905C360.551 254.611 360.373 254.345 360.148 254.121C359.924 253.896 359.657 253.718 359.364 253.597C359.071 253.476 358.756 253.413 358.439 253.414Z" fill="#CFD1D0"/>
<path d="M358.438 253.414H337.781C336.446 253.414 335.365 254.495 335.365 255.83V285.514C335.365 286.848 336.446 287.93 337.781 287.93H358.438C359.772 287.93 360.854 286.848 360.854 285.514V255.83C360.854 254.495 359.772 253.414 358.438 253.414Z" stroke="#283035" stroke-width="1.95495" stroke-linecap="round" stroke-linejoin="round"/>
<path d="M352.357 251.411H350.233V250.614C350.233 250.051 350.009 249.511 349.611 249.112C349.213 248.714 348.672 248.49 348.109 248.49C347.546 248.49 347.005 248.714 346.607 249.112C346.209 249.511 345.985 250.051 345.985 250.614V251.411H343.861C343.298 251.411 342.757 251.635 342.359 252.033C341.961 252.431 341.737 252.972 341.737 253.535C341.737 254.098 341.961 254.639 342.359 255.037C342.757 255.435 343.298 255.659 343.861 255.659H352.357C352.921 255.659 353.461 255.435 353.859 255.037C354.258 254.639 354.481 254.098 354.481 253.535C354.481 252.972 354.258 252.431 353.859 252.033C353.461 251.635 352.921 251.411 352.357 251.411Z" fill="#B6BBB9"/>
<path d="M353.345 251.655C353.431 251.97 353.444 252.3 353.381 252.621C353.318 252.941 353.183 253.242 352.984 253.501C352.786 253.761 352.53 253.97 352.238 254.114C351.945 254.258 351.623 254.333 351.296 254.332H342.8C342.456 254.332 342.117 254.248 341.813 254.088C341.934 254.538 342.201 254.936 342.571 255.221C342.942 255.505 343.395 255.659 343.862 255.659H352.358C352.833 255.659 353.294 255.499 353.667 255.207C354.04 254.914 354.305 254.504 354.419 254.043C354.532 253.583 354.488 253.097 354.294 252.664C354.099 252.231 353.765 251.876 353.345 251.655Z" fill="#EDA762"/>
<path d="M349.17 249.287V250.083H350.163C350.089 249.796 349.956 249.528 349.772 249.296C349.588 249.064 349.357 248.872 349.095 248.734C349.144 248.914 349.17 249.1 349.17 249.287Z" fill="#EDA762"/>
<path d="M352.357 251.411H350.233V250.614C350.233 250.051 350.009 249.511 349.611 249.112C349.213 248.714 348.672 248.49 348.109 248.49C347.546 248.49 347.005 248.714 346.607 249.112C346.209 249.511 345.985 250.051 345.985 250.614V251.411H343.861C343.298 251.411 342.757 251.635 342.359 252.033C341.961 252.431 341.737 252.972 341.737 253.535C341.737 254.098 341.961 254.639 342.359 255.037C342.757 255.435 343.298 255.659 343.861 255.659H352.357C352.921 255.659 353.461 255.435 353.859 255.037C354.258 254.639 354.481 254.098 354.481 253.535C354.481 252.972 354.258 252.431 353.859 252.033C353.461 251.635 352.921 251.411 352.357 251.411Z" stroke="#283035" stroke-width="1.95495" stroke-linecap="round" stroke-linejoin="round"/>
<path d="M348.11 263.358C349.332 263.358 350.323 262.367 350.323 261.145C350.323 259.923 349.332 258.933 348.11 258.933C346.889 258.933 345.898 259.923 345.898 261.145C345.898 262.367 346.889 263.358 348.11 263.358Z" fill="#8EAFBF"/>
<path d="M348.11 263.358C349.332 263.358 350.323 262.367 350.323 261.145C350.323 259.923 349.332 258.933 348.11 258.933C346.889 258.933 345.898 259.923 345.898 261.145C345.898 262.367 346.889 263.358 348.11 263.358Z" stroke="#283035" stroke-width="1.95495" stroke-linecap="round" stroke-linejoin="round"/>
<path d="M339.674 267.961H344.985" stroke="#283035" stroke-width="1.95495" stroke-linecap="round" stroke-linejoin="round"/>
<path d="M339.674 275.174H344.984" stroke="#283035" stroke-width="1.95495" stroke-linecap="round" stroke-linejoin="round"/>
<path d="M339.674 282.387H344.985" stroke="#283035" stroke-width="1.95495" stroke-linecap="round" stroke-linejoin="round"/>
<path d="M348.493 267.676L349.878 269.518L354.021 266.403" stroke="#8BAFC1" stroke-width="1.3033" stroke-linecap="round" stroke-linejoin="round"/>
<path d="M348.493 274.89L349.878 276.731L354.021 273.617" stroke="#8BAFC1" stroke-width="1.3033" stroke-linecap="round" stroke-linejoin="round"/>
<path d="M363.483 268.187L360.854 268.553L363.196 285.383L365.825 285.017L363.483 268.187Z" fill="#D7F207"/>
<path d="M363.483 268.187L360.854 268.553L363.196 285.383L365.825 285.017L363.483 268.187Z" stroke="#283035" stroke-width="1.3033" stroke-linecap="round" stroke-linejoin="round"/>
<path d="M365.83 285.018L363.2 285.384L364.881 287.831L365.83 285.018Z" fill="#E5E5E5"/>
<path d="M365.83 285.018L363.2 285.384L364.881 287.831L365.83 285.018Z" stroke="#283035" stroke-width="1.3033" stroke-linecap="round" stroke-linejoin="round"/>
<path d="M362.513 265.515L360.936 265.735L361.302 268.363L362.88 268.144L362.513 265.515Z" fill="#E5E5E5"/>
<path d="M362.513 265.515L360.936 265.735L361.302 268.363L362.88 268.144L362.513 265.515Z" stroke="#283035" stroke-width="1.30274" stroke-linecap="round" stroke-linejoin="round"/>
<path d="M365.861 274.83C365.564 274.34 365.353 273.803 365.238 273.241C364.944 271.799 365.669 270.974 365.277 270.153C365.121 269.826 365.045 269.378 363.873 269.209" stroke="#283035" stroke-width="1.3033" stroke-linecap="round" stroke-linejoin="round"/>
<path d="M369.087 287.93H375.924" stroke="#283035" stroke-width="1.95495" stroke-linecap="round" stroke-linejoin="round"/>
<path d="M130.847 249.8L132.926 239.89L143.857 237.412" stroke="#283035" stroke-width="2.6066" stroke-linecap="round" stroke-linejoin="round"/>
<path d="M123.115 287.771H136.152C136.604 287.771 137.041 287.606 137.38 287.307C137.72 287.008 137.939 286.596 137.996 286.147L141.478 258.826H117.791L121.273 286.147C121.33 286.596 121.549 287.008 121.888 287.307C122.227 287.606 122.663 287.771 123.115 287.771Z" fill="#EAD57D"/>
<path d="M121.414 258.827L124.177 284.06C124.234 284.579 124.48 285.059 124.869 285.407C125.258 285.756 125.762 285.949 126.284 285.949H138.023L137.997 286.148C137.94 286.596 137.721 287.009 137.382 287.308C137.043 287.607 136.606 287.771 136.154 287.771H123.117C122.665 287.771 122.228 287.606 121.889 287.308C121.549 287.009 121.331 286.596 121.274 286.148L117.791 258.827H121.414Z" fill="#E5C66E"/>
<path d="M123.115 287.771H136.152C136.604 287.771 137.041 287.606 137.38 287.307C137.72 287.008 137.939 286.596 137.996 286.147L141.478 258.826H117.791L121.273 286.147C121.33 286.596 121.549 287.008 121.888 287.307C122.227 287.606 122.663 287.771 123.115 287.771V287.771Z" stroke="#283035" stroke-width="1.95495" stroke-linecap="round" stroke-linejoin="round"/>
<path d="M140.586 279.906L142.27 266.692H117L118.685 279.906H140.586Z" fill="#D7F207"/>
<path d="M140.586 279.906L142.27 266.692H117L118.685 279.906H140.586Z" fill="#D7F207"/>
<path d="M140.483 278.379L141.895 266.692H120.705L122.006 277.452C122.037 277.708 122.161 277.943 122.353 278.114C122.546 278.285 122.795 278.379 123.052 278.379H140.483Z" fill="#EFCD1A"/>
<path d="M140.586 279.906L142.27 266.692H117L118.685 279.906H140.586Z" stroke="#283035" stroke-width="1.95495" stroke-linecap="round" stroke-linejoin="round"/>
<path d="M116.272 258.827H143.003C144.616 258.827 145.924 257.519 145.924 255.906C145.924 254.293 144.616 252.985 143.003 252.985H116.272C114.659 252.985 113.351 254.293 113.351 255.906C113.351 257.519 114.659 258.827 116.272 258.827Z" fill="#D7F207"/>
<path d="M116.272 258.827H143.003C144.616 258.827 145.924 257.519 145.924 255.906C145.924 254.293 144.616 252.985 143.003 252.985H116.272C114.659 252.985 113.351 254.293 113.351 255.906C113.351 257.519 114.659 258.827 116.272 258.827Z" fill="#D7F207"/>
<path d="M119.293 257.565H143.634C144.899 257.565 145.924 256.54 145.924 255.275C145.924 254.011 144.899 252.985 143.634 252.985H119.293C118.028 252.985 117.003 254.011 117.003 255.275C117.003 256.54 118.028 257.565 119.293 257.565Z" fill="#EFCD1A"/>
<path d="M116.272 258.827H143.003C144.616 258.827 145.924 257.519 145.924 255.906C145.924 254.293 144.616 252.985 143.003 252.985H116.272C114.659 252.985 113.351 254.293 113.351 255.906C113.351 257.519 114.659 258.827 116.272 258.827Z" stroke="#283035" stroke-width="1.95495" stroke-linecap="round" stroke-linejoin="round"/>
<path d="M119.015 252.985H140.256L139.836 249.799H119.436L119.015 252.985Z" fill="#D7F207"/>
<path d="M119.436 249.799H125.668L124.193 252.985H119.015L119.436 249.799Z" fill="#D7F207"/>
<path d="M119.015 252.985H140.256L139.836 249.799H119.436L119.015 252.985Z" stroke="#283035" stroke-width="1.95495" stroke-linecap="round" stroke-linejoin="round"/>
<path d="M121.915 274.204L122.446 273.688C124.461 275.321 126.976 276.212 129.57 276.212C132.164 276.212 134.679 275.321 136.694 273.688L137.358 274.336" stroke="#283035" stroke-width="0.977473" stroke-linecap="round" stroke-linejoin="round"/>
<path d="M127.944 271.526C127.944 271.224 127.824 270.935 127.611 270.722C127.398 270.509 127.109 270.389 126.808 270.389V270.389C126.506 270.389 126.217 270.509 126.004 270.722C125.791 270.935 125.671 271.224 125.671 271.526V272.567" stroke="#283035" stroke-width="0.977473" stroke-linecap="round" stroke-linejoin="round"/>
<path d="M131.332 271.526C131.332 271.224 131.451 270.935 131.664 270.722C131.878 270.509 132.167 270.389 132.468 270.389V270.389C132.77 270.389 133.059 270.509 133.272 270.722C133.485 270.935 133.605 271.224 133.605 271.526V272.567" stroke="#283035" stroke-width="0.977473" stroke-linecap="round" stroke-linejoin="round"/>
<path d="M112.842 287.798H141.482" stroke="#283035" stroke-width="1.95495" stroke-linecap="round" stroke-linejoin="round"/>
<path d="M103.704 287.798H109.855" stroke="#283035" stroke-width="1.95495" stroke-linecap="round" stroke-linejoin="round"/>
<path d="M170.606 198.964H282.142C283.641 198.964 285.078 199.562 286.138 200.625C287.197 201.688 287.793 203.13 287.793 204.633V278.466H164.957V204.633C164.957 203.13 165.552 201.688 166.612 200.625C167.671 199.562 169.108 198.965 170.606 198.964Z" fill="#D2DCE6"/>
<path d="M170.606 198.964H282.142C283.641 198.964 285.078 199.562 286.138 200.625C287.197 201.688 287.793 203.13 287.793 204.633V278.466H164.957V204.633C164.957 203.13 165.552 201.688 166.612 200.625C167.671 199.562 169.108 198.965 170.606 198.964V198.964Z" stroke="#283035" stroke-width="1.95495" stroke-linecap="round" stroke-linejoin="round"/>
<path d="M278.671 269.017V208.414H174.082V269.017H278.671Z" fill="#389ABE"/>
<path opacity="0.3" d="M234.686 259.567H251.954" stroke="white" stroke-width="1.95495" stroke-linecap="round" stroke-linejoin="round"/>
<g opacity="0.3">
<path opacity="0.3" d="M276.665 240.576C276.995 240.555 277.323 240.646 277.596 240.835C277.868 241.023 278.07 241.298 278.167 241.614V237.83C277.804 237.724 277.428 237.669 277.05 237.667H276.665C275.834 237.667 275.418 238.083 275.418 238.914V239.359C275.418 240.16 275.834 240.576 276.665 240.576Z" fill="white"/>
<path opacity="0.3" d="M278.167 258.714C278.068 259.029 277.866 259.302 277.594 259.489C277.321 259.676 276.994 259.766 276.665 259.745C275.834 259.745 275.418 260.16 275.418 260.991V261.436C275.418 262.267 275.834 262.683 276.665 262.683H277.05C277.428 262.681 277.804 262.626 278.167 262.52V258.714Z" fill="white"/>
</g>
<path d="M278.671 269.017V208.414H174.082V269.017H278.671Z" stroke="#283035" stroke-width="1.95495" stroke-linecap="round" stroke-linejoin="round"/>
<path d="M151.295 278.466H301.462C301.812 278.466 302.149 278.604 302.397 278.85C302.645 279.097 302.784 279.43 302.784 279.779V281.351C302.784 283.092 302.087 284.761 300.847 285.992C299.607 287.223 297.925 287.915 296.171 287.915H156.586C154.832 287.915 153.15 287.223 151.91 285.992C150.669 284.761 149.973 283.092 149.973 281.351V279.779C149.973 279.43 150.112 279.097 150.36 278.85C150.608 278.604 150.945 278.466 151.295 278.466Z" fill="#E5E5E5"/>
<path d="M296.169 284.879H156.585C154.999 284.877 153.466 284.295 152.267 283.237C151.067 282.179 150.28 280.717 150.05 279.117C150.001 279.258 149.974 279.406 149.973 279.556V281.171C149.973 282.959 150.669 284.675 151.91 285.939C153.15 287.204 154.832 287.914 156.586 287.914H296.171C297.925 287.914 299.607 287.204 300.847 285.939C302.087 284.675 302.784 282.959 302.784 281.171V279.556C302.783 279.406 302.756 279.258 302.707 279.117C302.476 280.718 301.689 282.18 300.489 283.238C299.289 284.296 297.756 284.878 296.169 284.879Z" fill="#CFD1D0"/>
<path d="M151.295 278.466H301.462C301.812 278.466 302.149 278.604 302.397 278.85C302.645 279.097 302.784 279.43 302.784 279.779V281.351C302.784 283.092 302.087 284.761 300.847 285.992C299.607 287.223 297.925 287.915 296.171 287.915H156.586C154.832 287.915 153.15 287.223 151.91 285.992C150.669 284.761 149.973 283.092 149.973 281.351V279.779C149.973 279.43 150.112 279.097 150.36 278.85C150.608 278.604 150.945 278.466 151.295 278.466Z" stroke="#283035" stroke-width="1.95495" stroke-linecap="round" stroke-linejoin="round"/>
<path d="M212.528 278.466H240.223C240.223 279.157 239.946 279.82 239.451 280.309C238.956 280.798 238.285 281.072 237.586 281.072H215.166C214.466 281.072 213.796 280.798 213.301 280.309C212.806 279.82 212.528 279.157 212.528 278.466Z" fill="#686B6D"/>
<path d="M212.528 278.466H240.223C240.223 279.157 239.946 279.82 239.451 280.309C238.956 280.798 238.285 281.072 237.586 281.072H215.166C214.466 281.072 213.796 280.798 213.301 280.309C212.806 279.82 212.528 279.157 212.528 278.466Z" stroke="#283035" stroke-width="1.3033" stroke-linecap="round" stroke-linejoin="round"/>
<path d="M226.215 206.134C227.654 206.134 228.821 204.967 228.821 203.527C228.821 202.087 227.654 200.92 226.215 200.92C224.775 200.92 223.608 202.087 223.608 203.527C223.608 204.967 224.775 206.134 226.215 206.134Z" fill="#686B6D"/>
<path d="M226.215 206.134C227.654 206.134 228.821 204.967 228.821 203.527C228.821 202.087 227.654 200.92 226.215 200.92C224.775 200.92 223.608 202.087 223.608 203.527C223.608 204.967 224.775 206.134 226.215 206.134Z" stroke="#283035" stroke-width="1.3033" stroke-linecap="round" stroke-linejoin="round"/>
<path d="M306.042 287.915C306.056 285.404 307.076 283 308.877 281.23C310.678 279.46 313.114 278.466 315.653 278.466C318.193 278.466 320.629 279.46 322.43 281.23C324.231 283 325.25 285.404 325.265 287.915H306.042Z" fill="#E5E5E5"/>
<path d="M315.817 284.982C317.169 284.995 318.509 284.716 319.745 284.164C320.981 283.613 322.086 282.801 322.985 281.783C322.098 280.742 320.998 279.907 319.761 279.335C318.524 278.762 317.179 278.466 315.817 278.466C314.456 278.466 313.11 278.762 311.873 279.335C310.636 279.907 309.536 280.742 308.649 281.783C309.548 282.801 310.653 283.613 311.889 284.164C313.126 284.716 314.465 284.995 315.817 284.982Z" fill="#CFD1D0"/>
<path d="M306.042 287.915C306.056 285.404 307.076 283 308.877 281.23C310.678 279.46 313.114 278.466 315.653 278.466C318.193 278.466 320.629 279.46 322.43 281.23C324.231 283 325.25 285.404 325.265 287.915H306.042Z" stroke="#283035" stroke-width="1.95495" stroke-linecap="round" stroke-linejoin="round"/>
<g style="mix-blend-mode:multiply" opacity="0.14">
<path d="M242.13 220.143H191.726C190.259 220.143 189.07 221.328 189.07 222.791V261.807C189.07 263.269 190.259 264.455 191.726 264.455H242.13C243.597 264.455 244.786 263.269 244.786 261.807V222.791C244.786 221.328 243.597 220.143 242.13 220.143Z" fill="black"/>
</g>
<path d="M239.521 217.862H189.117C187.65 217.862 186.461 219.047 186.461 220.51V259.526C186.461 260.988 187.65 262.174 189.117 262.174H239.521C240.988 262.174 242.177 260.988 242.177 259.526V220.51C242.177 219.047 240.988 217.862 239.521 217.862Z" fill="#353F49"/>
<path d="M239.521 217.862H189.117C187.65 217.862 186.461 219.047 186.461 220.51V259.526C186.461 260.988 187.65 262.174 189.117 262.174H239.521C240.988 262.174 242.177 260.988 242.177 259.526V220.51C242.177 219.047 240.988 217.862 239.521 217.862Z" stroke="#283035" stroke-width="1.3033" stroke-linecap="round" stroke-linejoin="round"/>
<path d="M189.116 217.862H239.521C240.225 217.862 240.901 218.137 241.399 218.626C241.897 219.115 242.177 219.779 242.177 220.471V224.378H186.461V220.471C186.461 219.779 186.741 219.115 187.239 218.626C187.737 218.137 188.412 217.862 189.116 217.862Z" fill="#E9E9E9"/>
<path d="M189.116 217.862H239.521C240.225 217.862 240.901 218.137 241.399 218.626C241.897 219.115 242.177 219.779 242.177 220.471V224.378H186.461V220.471C186.461 219.779 186.741 219.115 187.239 218.626C187.737 218.137 188.412 217.862 189.116 217.862Z" stroke="#283035" stroke-width="1.3033" stroke-linecap="round" stroke-linejoin="round"/>
<path opacity="0.35" d="M191.351 222.098C191.891 222.098 192.328 221.66 192.328 221.121C192.328 220.581 191.891 220.143 191.351 220.143C190.811 220.143 190.374 220.581 190.374 221.121C190.374 221.66 190.811 222.098 191.351 222.098Z" fill="#283035"/>
<path opacity="0.35" d="M194.606 222.098C195.146 222.098 195.584 221.66 195.584 221.121C195.584 220.581 195.146 220.143 194.606 220.143C194.067 220.143 193.629 220.581 193.629 221.121C193.629 221.66 194.067 222.098 194.606 222.098Z" fill="#283035"/>
<path opacity="0.35" d="M197.703 222.098C198.333 222.098 198.844 221.66 198.844 221.121C198.844 220.581 198.333 220.143 197.703 220.143C197.074 220.143 196.563 220.581 196.563 221.121C196.563 221.66 197.074 222.098 197.703 222.098Z" fill="#283035"/>
<path d="M189.07 226.66H192.98" stroke="#D7F207" stroke-width="0.977473" stroke-miterlimit="10"/>
<path d="M194.283 226.66H204.057" stroke="#D7F207" stroke-width="0.977473" stroke-miterlimit="10"/>
<path d="M189.07 229.266H204.058" stroke="#389ABE" stroke-width="0.977473" stroke-miterlimit="10"/>
<path d="M192.326 232.199H199.494" stroke="#E5C689" stroke-width="0.977473" stroke-miterlimit="10"/>
<path d="M200.797 232.199H208.617" stroke="#EEEEEE" stroke-width="0.977473" stroke-miterlimit="10"/>
<path d="M196.239 234.805H211.227" stroke="#EEEEEE" stroke-width="0.977473" stroke-miterlimit="10"/>
<path d="M196.239 237.412H207.317" stroke="#8BAFC1" stroke-width="0.977473" stroke-miterlimit="10"/>
<path d="M192.326 240.019H208.617" stroke="#EEEEEE" stroke-width="0.977473" stroke-miterlimit="10"/>
<path d="M189.07 242.298H198.193" stroke="#389ABE" stroke-width="0.977473" stroke-miterlimit="10"/>
<g opacity="0.3">
<path opacity="0.3" d="M266.052 255.091C266.052 253.785 265.547 252.865 264.538 252.302C263.826 251.916 263.529 251.619 263.529 250.937V249.78C263.529 248.979 263.885 248.801 264.508 248.386C265.547 247.941 266.052 246.991 266.052 245.567V243.044C266.052 241.026 266.793 239.543 267.862 238.92C268.661 238.35 269.611 238.029 270.592 238H270.978C271.808 238 272.224 238.415 272.224 239.246V239.689C272.224 240.49 271.808 240.906 270.978 240.906C269.821 240.906 269.257 241.737 269.257 243.428V246.544C269.286 247.3 269.097 248.049 268.713 248.702C268.329 249.354 267.766 249.882 267.09 250.224L266.823 250.313V250.372C267.128 250.462 267.41 250.614 267.654 250.817C268.396 251.262 269.257 252.301 269.257 254.111V257.583C269.257 259.244 269.82 260.076 270.978 260.076C271.808 260.076 272.224 260.491 272.224 261.322V261.767C272.224 262.598 271.809 263.013 270.978 263.013H270.592C269.611 262.983 268.661 262.663 267.862 262.093C266.793 261.47 266.052 259.957 266.052 257.969V255.091Z" fill="white"/>
</g>
</svg>
