<svg width="480" height="320" viewBox="0 0 480 320" fill="none" xmlns="http://www.w3.org/2000/svg">
<g clip-path="url(#clip0_3025_6470)">
<rect width="480" height="320" fill="#141414"/>
<g filter="url(#filter0_f_3025_6470)">
<ellipse cx="-390.5" cy="-415.5" rx="756.5" ry="742.5" fill="#A700C2" fill-opacity="0.2"/>
</g>
<g filter="url(#filter1_f_3025_6470)">
<path d="M205.086 222.26C205.086 223.104 204.114 223.779 202.889 223.779C201.495 223.906 200.523 223.231 200.523 222.26C200.523 221.417 201.495 220.742 202.72 220.742C203.987 220.615 205.086 221.29 205.086 222.26ZM191.947 220.362C191.651 221.206 192.496 222.176 193.764 222.429C194.862 222.851 196.129 222.429 196.383 221.586C196.636 220.742 195.834 219.772 194.566 219.392C193.468 219.097 192.243 219.519 191.947 220.362ZM210.62 219.645C209.395 219.94 208.55 220.742 208.676 221.712C208.803 222.556 209.902 223.104 211.169 222.809C212.394 222.514 213.239 221.712 213.112 220.868C212.985 220.067 211.845 219.519 210.62 219.645ZM238.417 58C179.823 58 135 102.419 135 160.926C135 207.707 164.487 247.739 206.606 261.828C212.014 262.798 213.915 259.466 213.915 256.724C213.915 254.109 213.788 239.682 213.788 230.824C213.788 230.824 184.216 237.151 178.006 218.253C178.006 218.253 173.19 205.978 166.262 202.814C166.262 202.814 156.588 196.191 166.938 196.318C166.938 196.318 177.457 197.162 183.245 207.201C192.496 223.484 208 218.801 214.042 216.017C215.013 209.268 217.759 204.586 220.801 201.802C197.186 199.186 173.359 195.77 173.359 155.19C173.359 143.589 176.57 137.768 183.329 130.344C182.231 127.602 178.64 116.297 184.427 101.702C193.257 98.9597 213.577 113.091 213.577 113.091C222.026 110.729 231.109 109.505 240.107 109.505C249.106 109.505 258.188 110.729 266.637 113.091C266.637 113.091 286.958 98.9175 295.787 101.702C301.575 116.339 297.984 127.602 296.885 130.344C303.645 137.81 307.785 143.631 307.785 155.19C307.785 195.896 282.902 199.144 259.287 201.802C263.173 205.134 266.468 211.462 266.468 221.375C266.468 235.59 266.342 253.181 266.342 256.64C266.342 259.382 268.285 262.714 273.65 261.744C315.896 247.739 344.538 207.707 344.538 160.926C344.538 102.419 297.012 58 238.417 58ZM176.063 203.489C175.514 203.911 175.64 204.881 176.358 205.683C177.034 206.358 178.006 206.653 178.555 206.104C179.104 205.683 178.978 204.712 178.26 203.911C177.584 203.236 176.612 202.941 176.063 203.489ZM171.5 200.072C171.205 200.621 171.627 201.296 172.472 201.717C173.148 202.139 173.993 202.013 174.288 201.422C174.584 200.874 174.162 200.199 173.317 199.777C172.472 199.524 171.796 199.65 171.5 200.072ZM185.188 215.089C184.512 215.638 184.765 216.903 185.737 217.705C186.709 218.675 187.934 218.801 188.483 218.127C189.032 217.578 188.779 216.313 187.934 215.511C187.004 214.541 185.737 214.414 185.188 215.089ZM180.372 208.889C179.696 209.31 179.696 210.407 180.372 211.377C181.048 212.348 182.188 212.769 182.738 212.347C183.414 211.799 183.414 210.702 182.738 209.732C182.146 208.762 181.048 208.34 180.372 208.889Z" fill="white" fill-opacity="0.225"/>
</g>
<path d="M59.0812 179.73C56.1958 179.73 53.519 179.278 51.0507 178.374C48.5825 177.436 46.4445 176.115 44.6368 174.411C42.8638 172.708 41.4733 170.709 40.4651 168.414C39.457 166.085 38.9529 163.53 38.9529 160.749C38.9529 157.968 39.457 155.43 40.4651 153.136C41.4733 150.806 42.8812 148.79 44.6889 147.087C46.4967 145.383 48.6347 144.08 51.1029 143.176C53.6059 142.237 56.3349 141.768 59.2898 141.768C62.7314 141.768 65.808 142.341 68.5196 143.489C71.2312 144.636 73.4735 146.287 75.2465 148.442L68.6761 154.387C67.4246 153.031 66.0688 152.023 64.6087 151.363C63.1834 150.667 61.5842 150.32 59.8113 150.32C58.2469 150.32 56.8216 150.563 55.5353 151.05C54.249 151.536 53.154 152.249 52.2501 153.188C51.3462 154.092 50.6336 155.187 50.1121 156.473C49.6254 157.724 49.3821 159.15 49.3821 160.749C49.3821 162.279 49.6254 163.686 50.1121 164.973C50.6336 166.259 51.3462 167.371 52.2501 168.31C53.154 169.214 54.2316 169.927 55.4832 170.448C56.7694 170.935 58.1774 171.178 59.707 171.178C61.2366 171.178 62.7314 170.935 64.1915 170.448C65.6516 169.927 67.1291 169.058 68.6239 167.841L74.4121 175.089C72.3263 176.584 69.9102 177.731 67.1638 178.531C64.4175 179.33 61.7233 179.73 59.0812 179.73ZM65.2866 173.733V159.967H74.4121V175.089L65.2866 173.733ZM80.9581 179V142.498H91.283V179H80.9581ZM106.398 179V150.685H95.187V142.498H127.882V150.685H116.723V179H106.398ZM240.013 179.73C237.128 179.73 234.451 179.278 231.983 178.374C229.515 177.436 227.377 176.115 225.569 174.411C223.796 172.708 222.405 170.709 221.397 168.414C220.389 166.085 219.885 163.53 219.885 160.749C219.885 157.968 220.389 155.43 221.397 153.136C222.405 150.806 223.813 148.79 225.621 147.087C227.429 145.383 229.567 144.08 232.035 143.176C234.538 142.237 237.267 141.768 240.222 141.768C243.664 141.768 246.74 142.341 249.452 143.489C252.163 144.636 254.406 146.287 256.179 148.442L249.608 154.387C248.357 153.031 247.001 152.023 245.541 151.363C244.115 150.667 242.516 150.32 240.743 150.32C239.179 150.32 237.754 150.563 236.467 151.05C235.181 151.536 234.086 152.249 233.182 153.188C232.278 154.092 231.566 155.187 231.044 156.473C230.558 157.724 230.314 159.15 230.314 160.749C230.314 162.279 230.558 163.686 231.044 164.973C231.566 166.259 232.278 167.371 233.182 168.31C234.086 169.214 235.164 169.927 236.415 170.448C237.702 170.935 239.109 171.178 240.639 171.178C242.169 171.178 243.664 170.935 245.124 170.448C246.584 169.927 248.061 169.058 249.556 167.841L255.344 175.089C253.258 176.584 250.842 177.731 248.096 178.531C245.35 179.33 242.655 179.73 240.013 179.73ZM246.219 173.733V159.967H255.344V175.089L246.219 173.733ZM261.89 179V142.498H272.215V179H261.89ZM287.33 179V150.685H276.119V142.498H308.815V150.685H297.655V179H287.33Z" fill="white"/>
<path d="M146.904 179V142.498H157.229V179H146.904ZM164.575 179V142.498H173.075L193.203 166.798H189.188V142.498H199.304V179H190.804L170.676 154.7H174.691V179H164.575ZM346.244 179.73C343.324 179.73 340.63 179.261 338.161 178.322C335.693 177.383 333.538 176.062 331.695 174.359C329.888 172.621 328.48 170.605 327.471 168.31C326.463 166.016 325.959 163.495 325.959 160.749C325.959 158.003 326.463 155.482 327.471 153.188C328.48 150.893 329.888 148.894 331.695 147.191C333.538 145.453 335.693 144.114 338.161 143.176C340.63 142.237 343.324 141.768 346.244 141.768C349.199 141.768 351.893 142.237 354.327 143.176C356.795 144.114 358.933 145.453 360.741 147.191C362.548 148.894 363.956 150.893 364.964 153.188C366.007 155.482 366.529 158.003 366.529 160.749C366.529 163.495 366.007 166.033 364.964 168.362C363.956 170.657 362.548 172.656 360.741 174.359C358.933 176.062 356.795 177.383 354.327 178.322C351.893 179.261 349.199 179.73 346.244 179.73ZM346.244 171.178C347.635 171.178 348.921 170.935 350.103 170.448C351.319 169.961 352.362 169.266 353.231 168.362C354.135 167.424 354.831 166.311 355.317 165.025C355.839 163.739 356.1 162.313 356.1 160.749C356.1 159.15 355.839 157.724 355.317 156.473C354.831 155.187 354.135 154.092 353.231 153.188C352.362 152.249 351.319 151.536 350.103 151.05C348.921 150.563 347.635 150.32 346.244 150.32C344.853 150.32 343.55 150.563 342.333 151.05C341.151 151.536 340.108 152.249 339.204 153.188C338.335 154.092 337.64 155.187 337.118 156.473C336.632 157.724 336.388 159.15 336.388 160.749C336.388 162.313 336.632 163.739 337.118 165.025C337.64 166.311 338.335 167.424 339.204 168.362C340.108 169.266 341.151 169.961 342.333 170.448C343.55 170.935 344.853 171.178 346.244 171.178ZM388.78 179.73C383.391 179.73 379.185 178.253 376.16 175.298C373.136 172.343 371.624 168.154 371.624 162.73V142.498H381.948V162.418C381.948 165.546 382.557 167.789 383.774 169.144C385.025 170.5 386.728 171.178 388.884 171.178C391.039 171.178 392.725 170.5 393.942 169.144C395.159 167.789 395.767 165.546 395.767 162.418V142.498H405.936V162.73C405.936 168.154 404.423 172.343 401.399 175.298C398.374 178.253 394.168 179.73 388.78 179.73ZM420.14 179V150.685H408.928V142.498H441.624V150.685H430.464V179H420.14Z" fill="#A700C2"/>
<g filter="url(#filter2_f_3025_6470)">
<ellipse cx="461.299" cy="400.5" rx="259.299" ry="254.5" fill="#A700C2" fill-opacity="0.2"/>
</g>
</g>
<defs>
<filter id="filter0_f_3025_6470" x="-1500.17" y="-1511.17" width="2219.34" height="2191.34" filterUnits="userSpaceOnUse" color-interpolation-filters="sRGB">
<feFlood flood-opacity="0" result="BackgroundImageFix"/>
<feBlend mode="normal" in="SourceGraphic" in2="BackgroundImageFix" result="shape"/>
<feGaussianBlur stdDeviation="176.585" result="effect1_foregroundBlur_3025_6470"/>
</filter>
<filter id="filter1_f_3025_6470" x="128.038" y="51.0375" width="223.463" height="217.925" filterUnits="userSpaceOnUse" color-interpolation-filters="sRGB">
<feFlood flood-opacity="0" result="BackgroundImageFix"/>
<feBlend mode="normal" in="SourceGraphic" in2="BackgroundImageFix" result="shape"/>
<feGaussianBlur stdDeviation="3.48123" result="effect1_foregroundBlur_3025_6470"/>
</filter>
<filter id="filter2_f_3025_6470" x="80.9469" y="24.9469" width="760.703" height="751.106" filterUnits="userSpaceOnUse" color-interpolation-filters="sRGB">
<feFlood flood-opacity="0" result="BackgroundImageFix"/>
<feBlend mode="normal" in="SourceGraphic" in2="BackgroundImageFix" result="shape"/>
<feGaussianBlur stdDeviation="60.5265" result="effect1_foregroundBlur_3025_6470"/>
</filter>
<clipPath id="clip0_3025_6470">
<rect width="480" height="320" fill="white"/>
</clipPath>
</defs>
</svg>
