<svg width="447" height="433" viewBox="0 0 447 433" fill="none" xmlns="http://www.w3.org/2000/svg">
<g filter="url(#filter0_dd_2359_5979)">
<path d="M121.507 161.018C121.507 242.213 191.237 308.035 277.253 308.035C363.27 308.035 433 242.213 433 161.018C433 79.822 363.27 14 277.253 14C191.237 14 121.507 79.822 121.507 161.018ZM376.423 161.018C376.423 212.718 332.023 254.629 277.253 254.629C222.484 254.629 178.084 212.718 178.084 161.018C178.084 109.318 222.484 67.4065 277.253 67.4065C332.023 67.4065 376.423 109.318 376.423 161.018Z" fill="#FCFCFC"/>
</g>
<g filter="url(#filter1_dd_2359_5979)">
<path d="M14 272.2C14 353.395 83.7302 419.217 169.747 419.217C255.763 419.217 325.493 353.395 325.493 272.2C325.493 191.004 255.763 125.182 169.747 125.182C83.7302 125.182 14 191.004 14 272.2ZM268.916 272.2C268.916 323.9 224.516 365.811 169.747 365.811C114.977 365.811 70.5775 323.9 70.5775 272.2C70.5775 220.5 114.977 178.589 169.747 178.589C224.516 178.589 268.916 220.5 268.916 272.2Z" fill="#FCFCFC"/>
</g>
<defs>
<filter id="filter0_dd_2359_5979" x="107.724" y="0.217106" width="339.059" height="321.601" filterUnits="userSpaceOnUse" color-interpolation-filters="sRGB">
<feFlood flood-opacity="0" result="BackgroundImageFix"/>
<feColorMatrix in="SourceAlpha" type="matrix" values="0 0 0 0 0 0 0 0 0 0 0 0 0 0 0 0 0 0 127 0" result="hardAlpha"/>
<feOffset dx="4.5943" dy="4.5943"/>
<feGaussianBlur stdDeviation="4.5943"/>
<feComposite in2="hardAlpha" operator="out"/>
<feColorMatrix type="matrix" values="0 0 0 0 0.929167 0 0 0 0 0.929167 0 0 0 0 0.929167 0 0 0 1 0"/>
<feBlend mode="normal" in2="BackgroundImageFix" result="effect1_dropShadow_2359_5979"/>
<feColorMatrix in="SourceAlpha" type="matrix" values="0 0 0 0 0 0 0 0 0 0 0 0 0 0 0 0 0 0 127 0" result="hardAlpha"/>
<feOffset dx="-4.5943" dy="-4.5943"/>
<feGaussianBlur stdDeviation="4.5943"/>
<feComposite in2="hardAlpha" operator="out"/>
<feColorMatrix type="matrix" values="0 0 0 0 1 0 0 0 0 1 0 0 0 0 1 0 0 0 1 0"/>
<feBlend mode="normal" in2="effect1_dropShadow_2359_5979" result="effect2_dropShadow_2359_5979"/>
<feBlend mode="normal" in="SourceGraphic" in2="effect2_dropShadow_2359_5979" result="shape"/>
</filter>
<filter id="filter1_dd_2359_5979" x="0.217106" y="111.399" width="339.059" height="321.601" filterUnits="userSpaceOnUse" color-interpolation-filters="sRGB">
<feFlood flood-opacity="0" result="BackgroundImageFix"/>
<feColorMatrix in="SourceAlpha" type="matrix" values="0 0 0 0 0 0 0 0 0 0 0 0 0 0 0 0 0 0 127 0" result="hardAlpha"/>
<feOffset dx="4.5943" dy="4.5943"/>
<feGaussianBlur stdDeviation="4.5943"/>
<feComposite in2="hardAlpha" operator="out"/>
<feColorMatrix type="matrix" values="0 0 0 0 0.929167 0 0 0 0 0.929167 0 0 0 0 0.929167 0 0 0 1 0"/>
<feBlend mode="normal" in2="BackgroundImageFix" result="effect1_dropShadow_2359_5979"/>
<feColorMatrix in="SourceAlpha" type="matrix" values="0 0 0 0 0 0 0 0 0 0 0 0 0 0 0 0 0 0 127 0" result="hardAlpha"/>
<feOffset dx="-4.5943" dy="-4.5943"/>
<feGaussianBlur stdDeviation="4.5943"/>
<feComposite in2="hardAlpha" operator="out"/>
<feColorMatrix type="matrix" values="0 0 0 0 1 0 0 0 0 1 0 0 0 0 1 0 0 0 1 0"/>
<feBlend mode="normal" in2="effect1_dropShadow_2359_5979" result="effect2_dropShadow_2359_5979"/>
<feBlend mode="normal" in="SourceGraphic" in2="effect2_dropShadow_2359_5979" result="shape"/>
</filter>
</defs>
</svg>
