<svg xmlns="http://www.w3.org/2000/svg" xmlns:xlink="http://www.w3.org/1999/xlink" width="124" height="124" viewBox="0 0 124 124"><defs><style>.a{fill:#12100e;}.b,.c,.d{fill:none;stroke-width:2px;}.b,.d{stroke:#f9f9f9;}.b,.c{stroke-miterlimit:10;}.c{stroke:#4285f4;}.e{filter:url(#a);}</style><filter id="a" x="0" y="0" width="124" height="124" filterUnits="userSpaceOnUse"><feOffset dx="2" dy="2" input="SourceAlpha"/><feGaussianBlur stdDeviation="4" result="b"/><feFlood flood-color="#121212" flood-opacity="0.161"/><feComposite operator="in" in2="b"/><feComposite in="SourceGraphic"/></filter></defs><g transform="translate(10 10.182)"><g class="e" transform="matrix(1, 0, 0, 1, -10, -10.18)"><rect class="a" width="100" height="100" rx="8" transform="translate(10 10)"/></g><g transform="translate(21 26)"><path class="b" d="M46.82,57H59.271a3.037,3.037,0,0,1,3.037,3.037v32.8a3.037,3.037,0,0,1-3.037,3.037H7.037A3.037,3.037,0,0,1,4,92.835v-32.8A3.037,3.037,0,0,1,7.037,57h12.6" transform="translate(-4 -47.872)"/><g transform="translate(15.792)"><line class="c" y2="14.577" transform="translate(13.362 16.256)"/><line class="c" x2="13.362" y2="8.196" transform="translate(0 8.23)"/><line class="c" x1="13.362" y2="8.196" transform="translate(13.362 8.23)"/><path class="c" d="M82.724,16.93V31.744l-13.362,8.3L56,31.844V16.93L69.21,8.7Z" transform="translate(-56 -8.7)"/></g><path class="d" d="M0,0H15.792" transform="translate(5.746 36.033)"/><path class="d" d="M0,0H31.024" transform="translate(5.746 41.573)"/><path class="d" d="M0,0H11.08" transform="translate(41.202 36.033)"/></g></g></svg>