<svg width="87" height="87" viewBox="0 0 87 87" fill="none" xmlns="http://www.w3.org/2000/svg">
<g clip-path="url(#clip0_1501_6577)">
<g filter="url(#filter0_d_1501_6577)">
<path d="M72.9678 8.41943H14.0323C10.9324 8.41943 8.41943 10.9324 8.41943 14.0323V72.9678C8.41943 76.0677 10.9324 78.5807 14.0323 78.5807H72.9678C76.0677 78.5807 78.5807 76.0677 78.5807 72.9678V14.0323C78.5807 10.9324 76.0677 8.41943 72.9678 8.41943Z" fill="#12100E"/>
</g>
<path d="M55.9885 36.133H47.3275L46.8845 28.8953C46.8708 28.6718 46.7729 28.4617 46.6104 28.3075C46.448 28.1533 46.2331 28.0665 46.0091 28.0645H40.6397C40.4157 28.0665 40.2008 28.1534 40.0383 28.3076C39.8758 28.4618 39.7779 28.6719 39.7642 28.8955L39.3212 36.133H30.6603C28.9506 36.133 27.5381 37.5113 27.5381 39.2207V39.4657H28.5905V39.2207C28.5966 38.6768 28.8177 38.1575 29.2055 37.7761C29.5934 37.3947 30.1164 37.1824 30.6603 37.1854H55.9885C56.5324 37.1824 57.0554 37.3947 57.4432 37.7761C57.8311 38.1575 58.0522 38.6768 58.0583 39.2207V39.4657H59.1107V39.2207C59.1107 37.5113 57.6981 36.133 55.9885 36.133ZM45.8441 29.1169L45.9308 30.5201H40.718L40.8046 29.1169H45.8441ZM40.6535 31.5725H45.9952L46.273 36.133H40.3758L40.6535 31.5725Z" fill="#4285F4"/>
<path d="M59.0583 40.9566H27.591C27.4242 40.9531 27.2584 40.9829 27.1033 41.0443C26.9481 41.1057 26.8068 41.1974 26.6876 41.3141C26.5683 41.4308 26.4736 41.5701 26.4088 41.7238C26.3441 41.8776 26.3107 42.0427 26.3106 42.2096V55.321C26.3096 55.4869 26.3422 55.6513 26.4064 55.8043C26.4707 55.9573 26.5652 56.0957 26.6844 56.2111C26.804 56.3281 26.9459 56.4199 27.1016 56.4811C27.2573 56.5423 27.4237 56.5717 27.591 56.5675H38.8914C39.0592 56.5717 39.2262 56.5423 39.3826 56.481C39.5389 56.4198 39.6815 56.3279 39.8018 56.2108L41.763 54.2603C42.179 53.8487 42.7411 53.6185 43.3263 53.62C43.9115 53.6214 44.4724 53.8544 44.8864 54.268L46.847 56.2095C46.9673 56.3268 47.1098 56.4189 47.2662 56.4804C47.4227 56.5419 47.5898 56.5715 47.7578 56.5675H59.0583C59.2248 56.5717 59.3904 56.5425 59.5455 56.4818C59.7005 56.421 59.8419 56.3299 59.9612 56.2137C60.0805 56.0975 60.1753 55.9587 60.2402 55.8053C60.305 55.6519 60.3386 55.4871 60.3388 55.3206V42.2092C60.3386 42.0424 60.3052 41.8773 60.2404 41.7236C60.1757 41.5699 60.0809 41.4306 59.9617 41.3139C59.8424 41.1973 59.7011 41.1056 59.546 41.0442C59.3909 40.9829 59.2251 40.9531 59.0583 40.9566V40.9566ZM59.2864 55.3206C59.2864 55.4503 59.1877 55.515 59.0583 55.515H47.7578C47.7282 55.519 47.6981 55.5167 47.6694 55.5084C47.6407 55.5 47.6141 55.4858 47.5912 55.4666L45.6312 53.5162C45.0178 52.9073 44.1882 52.5662 43.3238 52.5676C42.4595 52.569 41.631 52.9128 41.0195 53.5237L39.0583 55.4653C39.0355 55.4847 39.0089 55.4991 38.9803 55.5077C38.9516 55.5162 38.9214 55.5187 38.8917 55.515H27.591C27.562 55.5189 27.5325 55.5166 27.5044 55.5083C27.4763 55.4999 27.4503 55.4857 27.4281 55.4666C27.407 55.4488 27.3902 55.4263 27.3789 55.4011C27.3676 55.3758 27.3622 55.3483 27.363 55.3206V42.2092C27.3631 42.1805 27.3692 42.1522 27.3811 42.126C27.393 42.0999 27.4103 42.0766 27.4318 42.0577C27.4534 42.0387 27.4788 42.0246 27.5062 42.0162C27.5336 42.0078 27.5625 42.0054 27.591 42.009H59.0583C59.0868 42.0054 59.1158 42.0078 59.1432 42.0162C59.1707 42.0247 59.1961 42.0388 59.2176 42.0578C59.2392 42.0768 59.2565 42.1001 59.2683 42.1263C59.2802 42.1525 59.2863 42.1808 59.2864 42.2096V55.3206Z" fill="white"/>
<path d="M62.893 43.4999H62.3558V42.2096C62.3558 40.4117 60.8561 38.9395 59.0583 38.9395H27.5909C25.793 38.9395 24.2933 40.4114 24.2933 42.2096V43.4999H23.7562C23.2223 43.5049 22.712 43.7204 22.3363 44.0997C21.9606 44.479 21.7499 44.9913 21.75 45.5251V52.005C21.7501 52.5382 21.9611 53.0498 22.3369 53.428C22.7128 53.8063 23.2229 54.0206 23.7562 54.0241H24.2933V55.3207C24.3016 56.1896 24.6527 57.0201 25.2703 57.6314C25.8879 58.2427 26.722 58.5853 27.5909 58.5846H38.8913C39.3197 58.5855 39.7441 58.5015 40.1399 58.3373C40.5357 58.1731 40.8949 57.9321 41.197 57.6281L43.158 55.6669C43.1798 55.645 43.2058 55.6276 43.2343 55.6157C43.2629 55.6038 43.2935 55.5976 43.3245 55.5976C43.3554 55.5975 43.3861 55.6036 43.4147 55.6154C43.4433 55.6272 43.4693 55.6445 43.4912 55.6663L45.4518 57.6281C45.7538 57.9321 46.1131 58.1732 46.509 58.3374C46.9048 58.5015 47.3292 58.5856 47.7577 58.5846H59.0583C60.8561 58.5846 62.3558 57.1188 62.3558 55.3206V54.0241H62.893C63.4262 54.0206 63.9364 53.8063 64.3123 53.428C64.6881 53.0498 64.8991 52.5382 64.8992 52.005V45.5251C64.8993 44.9913 64.6886 44.479 64.3129 44.0997C63.9372 43.7204 63.4269 43.5049 62.893 43.4999V43.4999ZM23.7562 52.9717C23.502 52.9685 23.2593 52.8652 23.0808 52.6842C22.9022 52.5032 22.8022 52.2592 22.8024 52.005V45.5251C22.802 45.2703 22.9017 45.0255 23.0802 44.8435C23.2586 44.6615 23.5014 44.557 23.7562 44.5524H24.2933V52.9717H23.7562ZM61.3034 55.3206C61.3034 56.5384 60.2757 57.5322 59.0583 57.5322H47.7577C47.4675 57.5327 47.18 57.4757 46.9119 57.3644C46.6439 57.2531 46.4006 57.0898 46.196 56.8838L44.2356 54.9226C43.994 54.6814 43.6665 54.5458 43.3251 54.5457C42.9837 54.5456 42.6561 54.6809 42.4143 54.9219L40.4532 56.8841C40.2487 57.09 40.0054 57.2532 39.7373 57.3645C39.4693 57.4757 39.1818 57.5327 38.8916 57.5322H27.5909C26.9992 57.5334 26.4311 57.3003 26.0107 56.8839C25.8025 56.6799 25.6366 56.4368 25.5225 56.1686C25.4084 55.9003 25.3483 55.6122 25.3458 55.3207V42.2093C25.3458 40.9917 26.3735 39.9919 27.5909 39.9919H59.0583C60.2761 39.9919 61.3034 40.9917 61.3034 42.2096V55.3206ZM63.8468 52.005C63.847 52.2592 63.747 52.5032 63.5684 52.6842C63.3899 52.8652 63.1472 52.9685 62.893 52.9717H62.3558V44.5524H62.893C63.1478 44.557 63.3906 44.6615 63.569 44.8435C63.7475 45.0255 63.8472 45.2703 63.8468 45.5251V52.005Z" fill="#F9F9F9"/>
<path d="M29.1023 45.5556L30.5679 44.09C30.6174 44.0413 30.6568 43.9833 30.6837 43.9193C30.7107 43.8553 30.7247 43.7865 30.725 43.7171C30.7253 43.6476 30.7118 43.5788 30.6854 43.5145C30.6589 43.4503 30.62 43.392 30.5709 43.3428C30.5218 43.2937 30.4634 43.2548 30.3992 43.2284C30.335 43.2019 30.2661 43.1884 30.1967 43.1887C30.1272 43.189 30.0585 43.203 29.9945 43.23C29.9305 43.257 29.8724 43.2964 29.8237 43.3459L28.3581 44.8115C28.2608 44.9104 28.2065 45.0438 28.207 45.1827C28.2076 45.3215 28.263 45.4544 28.3612 45.5526C28.4593 45.6508 28.5923 45.7062 28.7311 45.7067C28.8699 45.7073 29.0033 45.653 29.1023 45.5556V45.5556Z" fill="#F9F9F9"/>
<path d="M31.8166 43.7064L28.7207 46.8022C28.6712 46.8509 28.6318 46.909 28.6048 46.973C28.5778 47.037 28.5638 47.1057 28.5635 47.1752C28.5632 47.2446 28.5767 47.3135 28.6031 47.3777C28.6295 47.4419 28.6684 47.5003 28.7176 47.5494C28.7667 47.5985 28.825 47.6374 28.8892 47.6639C28.9535 47.6904 29.0223 47.7038 29.0918 47.7036C29.1612 47.7033 29.2299 47.6893 29.294 47.6623C29.358 47.6353 29.416 47.596 29.4647 47.5465L32.5606 44.4506C32.6593 44.3519 32.7148 44.2181 32.7148 44.0785C32.7148 43.9389 32.6593 43.8051 32.5607 43.7064C32.462 43.6077 32.3281 43.5523 32.1886 43.5522C32.049 43.5522 31.9152 43.6077 31.8165 43.7064H31.8166Z" fill="#F9F9F9"/>
<path d="M57.62 45.0857C57.4804 45.0857 57.3466 45.1411 57.2479 45.2398C57.1492 45.3385 57.0938 45.4723 57.0938 45.6119V52.2602C57.0938 52.3998 57.1492 52.5336 57.2479 52.6323C57.3466 52.731 57.4804 52.7864 57.62 52.7864C57.7595 52.7864 57.8934 52.731 57.992 52.6323C58.0907 52.5336 58.1462 52.3998 58.1462 52.2602V45.6119C58.1462 45.4723 58.0907 45.3385 57.992 45.2398C57.8934 45.1411 57.7595 45.0857 57.62 45.0857Z" fill="#F9F9F9"/>
<path d="M57.62 42.8743C57.4804 42.8743 57.3466 42.9297 57.2479 43.0284C57.1492 43.1271 57.0938 43.2609 57.0938 43.4005V43.8245C57.0938 43.9641 57.1492 44.0979 57.2479 44.1966C57.3466 44.2953 57.4804 44.3507 57.62 44.3507C57.7595 44.3507 57.8934 44.2953 57.992 44.1966C58.0907 44.0979 58.1462 43.9641 58.1462 43.8245V43.4006C58.1462 43.3315 58.1326 43.263 58.1061 43.1992C58.0797 43.1353 58.0409 43.0773 57.9921 43.0284C57.9432 42.9795 57.8852 42.9408 57.8214 42.9143C57.7575 42.8879 57.6891 42.8743 57.62 42.8743Z" fill="#F9F9F9"/>
</g>
<defs>
<filter id="filter0_d_1501_6577" x="2.41943" y="2.41943" width="86.1611" height="86.1614" filterUnits="userSpaceOnUse" color-interpolation-filters="sRGB">
<feFlood flood-opacity="0" result="BackgroundImageFix"/>
<feColorMatrix in="SourceAlpha" type="matrix" values="0 0 0 0 0 0 0 0 0 0 0 0 0 0 0 0 0 0 127 0" result="hardAlpha"/>
<feOffset dx="2" dy="2"/>
<feGaussianBlur stdDeviation="4"/>
<feColorMatrix type="matrix" values="0 0 0 0 0.0705882 0 0 0 0 0.0705882 0 0 0 0 0.0705882 0 0 0 0.161 0"/>
<feBlend mode="normal" in2="BackgroundImageFix" result="effect1_dropShadow_1501_6577"/>
<feBlend mode="normal" in="SourceGraphic" in2="effect1_dropShadow_1501_6577" result="shape"/>
</filter>
<clipPath id="clip0_1501_6577">
<rect width="87" height="87" fill="white"/>
</clipPath>
</defs>
</svg>
