<svg width="371" height="360" viewBox="0 0 371 360" fill="none" xmlns="http://www.w3.org/2000/svg">
<g filter="url(#filter0_dd_2231_5980)">
<path d="M106.875 137.333C106.875 199.926 160.628 250.667 226.937 250.667C293.246 250.667 347 199.926 347 137.333C347 74.7411 293.246 24 226.937 24C160.628 24 106.875 74.7411 106.875 137.333ZM303.385 137.333C303.385 177.188 269.158 209.497 226.937 209.497C184.716 209.497 150.489 177.188 150.489 137.333C150.489 97.4787 184.716 65.1701 226.937 65.1701C269.158 65.1701 303.385 97.4787 303.385 137.333Z" fill="#222222"/>
</g>
<g filter="url(#filter1_dd_2231_5980)">
<path d="M24 223.041C24 285.634 77.7538 336.375 144.062 336.375C210.371 336.375 264.125 285.634 264.125 223.041C264.125 160.449 210.371 109.708 144.062 109.708C77.7538 109.708 24 160.449 24 223.041ZM220.51 223.041C220.51 262.896 186.284 295.205 144.062 295.205C101.841 295.205 67.6146 262.896 67.6146 223.041C67.6146 183.187 101.841 150.878 144.062 150.878C186.284 150.878 220.51 183.187 220.51 223.041Z" fill="#222222"/>
</g>
<defs>
<filter id="filter0_dd_2231_5980" x="83.748" y="0.873507" width="286.378" height="272.92" filterUnits="userSpaceOnUse" color-interpolation-filters="sRGB">
<feFlood flood-opacity="0" result="BackgroundImageFix"/>
<feColorMatrix in="SourceAlpha" type="matrix" values="0 0 0 0 0 0 0 0 0 0 0 0 0 0 0 0 0 0 127 0" result="hardAlpha"/>
<feOffset dx="7.70883" dy="7.70883"/>
<feGaussianBlur stdDeviation="7.70883"/>
<feComposite in2="hardAlpha" operator="out"/>
<feColorMatrix type="matrix" values="0 0 0 0 0 0 0 0 0 0 0 0 0 0 0 0 0 0 1 0"/>
<feBlend mode="normal" in2="BackgroundImageFix" result="effect1_dropShadow_2231_5980"/>
<feColorMatrix in="SourceAlpha" type="matrix" values="0 0 0 0 0 0 0 0 0 0 0 0 0 0 0 0 0 0 127 0" result="hardAlpha"/>
<feOffset dx="-7.70883" dy="-7.70883"/>
<feGaussianBlur stdDeviation="7.70883"/>
<feComposite in2="hardAlpha" operator="out"/>
<feColorMatrix type="matrix" values="0 0 0 0 0.175 0 0 0 0 0.175 0 0 0 0 0.175 0 0 0 1 0"/>
<feBlend mode="normal" in2="effect1_dropShadow_2231_5980" result="effect2_dropShadow_2231_5980"/>
<feBlend mode="normal" in="SourceGraphic" in2="effect2_dropShadow_2231_5980" result="shape"/>
</filter>
<filter id="filter1_dd_2231_5980" x="0.873507" y="86.5815" width="286.378" height="272.92" filterUnits="userSpaceOnUse" color-interpolation-filters="sRGB">
<feFlood flood-opacity="0" result="BackgroundImageFix"/>
<feColorMatrix in="SourceAlpha" type="matrix" values="0 0 0 0 0 0 0 0 0 0 0 0 0 0 0 0 0 0 127 0" result="hardAlpha"/>
<feOffset dx="7.70883" dy="7.70883"/>
<feGaussianBlur stdDeviation="7.70883"/>
<feComposite in2="hardAlpha" operator="out"/>
<feColorMatrix type="matrix" values="0 0 0 0 0 0 0 0 0 0 0 0 0 0 0 0 0 0 1 0"/>
<feBlend mode="normal" in2="BackgroundImageFix" result="effect1_dropShadow_2231_5980"/>
<feColorMatrix in="SourceAlpha" type="matrix" values="0 0 0 0 0 0 0 0 0 0 0 0 0 0 0 0 0 0 127 0" result="hardAlpha"/>
<feOffset dx="-7.70883" dy="-7.70883"/>
<feGaussianBlur stdDeviation="7.70883"/>
<feComposite in2="hardAlpha" operator="out"/>
<feColorMatrix type="matrix" values="0 0 0 0 0.175 0 0 0 0 0.175 0 0 0 0 0.175 0 0 0 1 0"/>
<feBlend mode="normal" in2="effect1_dropShadow_2231_5980" result="effect2_dropShadow_2231_5980"/>
<feBlend mode="normal" in="SourceGraphic" in2="effect2_dropShadow_2231_5980" result="shape"/>
</filter>
</defs>
</svg>
