<svg width="24" height="24" viewBox="0 0 24 24" fill="none" xmlns="http://www.w3.org/2000/svg">
<g clip-path="url(#clip0_1130_6242)">
<g filter="url(#filter0_d_1130_6242)">
<path d="M9.37 5.51C9.19 6.15 9.1 6.82 9.1 7.5C9.1 11.58 12.42 14.9 16.5 14.9C17.18 14.9 17.85 14.81 18.49 14.63C17.45 17.19 14.93 19 12 19C8.14 19 5 15.86 5 12C5 9.07 6.81 6.55 9.37 5.51ZM12 3C7.03 3 3 7.03 3 12C3 16.97 7.03 21 12 21C16.97 21 21 16.97 21 12C21 11.54 20.96 11.08 20.9 10.64C19.92 12.01 18.32 12.9 16.5 12.9C13.52 12.9 11.1 10.48 11.1 7.5C11.1 5.69 11.99 4.08 13.36 3.1C12.92 3.04 12.46 3 12 3Z" fill="#0066A1"/>
</g>
</g>
<defs>
<filter id="filter0_d_1130_6242" x="-0.5" y="-0.5" width="25" height="25" filterUnits="userSpaceOnUse" color-interpolation-filters="sRGB">
<feFlood flood-opacity="0" result="BackgroundImageFix"/>
<feColorMatrix in="SourceAlpha" type="matrix" values="0 0 0 0 0 0 0 0 0 0 0 0 0 0 0 0 0 0 127 0" result="hardAlpha"/>
<feOffset/>
<feGaussianBlur stdDeviation="1.75"/>
<feComposite in2="hardAlpha" operator="out"/>
<feColorMatrix type="matrix" values="0 0 0 0 0 0 0 0 0 0.4 0 0 0 0 0.631373 0 0 0 0.6 0"/>
<feBlend mode="normal" in2="BackgroundImageFix" result="effect1_dropShadow_1130_6242"/>
<feBlend mode="normal" in="SourceGraphic" in2="effect1_dropShadow_1130_6242" result="shape"/>
</filter>
<clipPath id="clip0_1130_6242">
<rect width="24" height="24" fill="white"/>
</clipPath>
</defs>
</svg>
