<svg width="38" height="38" viewBox="0 0 38 38" fill="none" xmlns="http://www.w3.org/2000/svg">
<path d="M6.36025 28.2483C6.60677 28.4957 6.79567 28.7945 6.91349 29.1233C7.03131 29.4522 7.07514 29.8029 7.04187 30.1506C6.87496 31.7599 6.55851 33.3501 6.09662 34.9006C9.40975 34.1335 11.4333 33.2453 12.3524 32.7798C12.8737 32.5157 13.4741 32.4531 14.0386 32.604C15.657 33.0355 17.3251 33.2526 19 33.25C28.4905 33.25 35.625 26.5834 35.625 19C35.625 11.419 28.4905 4.75 19 4.75C9.5095 4.75 2.375 11.419 2.375 19C2.375 22.4865 3.84037 25.7213 6.36025 28.2483ZM5.18937 37.5226C4.62666 37.6342 4.06213 37.7363 3.496 37.829C3.021 37.905 2.66 37.411 2.84763 36.9692C3.05851 36.4719 3.25179 35.9673 3.42712 35.4564L3.43425 35.4326C4.02325 33.7226 4.503 31.7561 4.67875 29.925C1.76463 27.0038 0 23.18 0 19C0 9.81825 8.50725 2.375 19 2.375C29.4928 2.375 38 9.81825 38 19C38 28.1817 29.4928 35.625 19 35.625C17.1182 35.6275 15.2441 35.3832 13.4259 34.8983C12.1909 35.5229 9.53325 36.6605 5.18937 37.5226Z" fill="white"/>
</svg>
