<svg width="151" height="149" viewBox="0 0 151 149" fill="none" xmlns="http://www.w3.org/2000/svg">
<path d="M69.7963 20.8774C74.7668 17.0154 81.0056 20.2262 85.1762 23.7797C89.541 27.1162 94.1001 30.8982 98.0879 34.7717L98.8191 35.1831C109.88 45.4552 120.163 56.8586 128.607 68.9247C129.967 71.0271 131.178 73.4037 130.413 76.1917C127.602 83.2303 121.877 88.8406 116.884 94.9764C106.063 106.631 94.6486 117.897 81.8626 126.89C79.2803 128.718 75.7952 130.398 72.6987 128.958C63.2949 124.033 55.3652 115.966 47.1269 108.619C37.586 99.764 27.9994 89.4576 20.7666 78.6712C19.6926 77.163 19.3842 75.2891 19.4184 73.3009C20.3554 69.576 22.8919 66.5137 25.3143 63.3715C33.861 52.4823 44.3275 42.1416 54.9082 32.7036C55.1594 32.4637 55.6056 31.9494 55.9937 31.6981C60.53 27.7674 65.0431 24.2939 69.7963 20.8774ZM84.3422 9.54264L78.7317 1.57858C78.0344 1.16723 77.1779 0.470219 76.4237 0.264553C74.7669 -0.455328 72.9731 0.413141 71.6248 1.44145L61.4667 14.673C45.1615 34.8631 25.8628 53.7164 4.80427 68.1705C3.14751 69.4731 0.667789 70.7414 0.153624 72.8895C-0.394454 74.8092 0.610625 76.4088 1.79915 77.5972C18.6642 89.2176 34.7866 102.998 49.1264 118.72C51.6745 121.405 53.7427 124.056 56.2336 126.57C60.427 132.157 65.3633 137.779 69.2138 143.778C70.4251 145.046 70.6306 147.114 72.5274 147.731C74.0013 148.245 75.8295 148.6 77.2464 147.731L78.6518 146.326C96.0996 121.611 118.221 99.4212 142.936 81.5049C145.415 79.2882 150.134 78.4655 150.203 74.3635C150.031 72.4782 148.935 70.6043 147.301 69.576L146.901 69.5071C134.183 60.8575 122.323 51.0653 111.16 39.9704L98.8194 27.0816C93.8147 21.5399 88.9697 15.3929 84.3422 9.54264ZM71.6251 23.9166C76.6983 20.4659 81.2459 25.2877 85.1764 28.0528C100.373 40.2789 114.713 54.276 125.625 70.0899C127.008 72.1237 127.625 75.2888 126.402 77.5969C123.557 82.3274 119.741 86.635 116.119 91.0227V91.2511C107.08 100.872 97.551 110.756 87.2331 118.891C82.2056 121.965 77.5896 128.649 71.1109 124.501C56.3596 113.715 42.2369 100.312 30.2736 85.9379C28.2398 82.7729 25.0746 80.1906 23.6579 76.6027C21.6925 71.7466 26.0345 68.2616 28.514 64.6052C40.7172 49.5569 55.8797 34.7943 71.6251 23.9166ZM74.8243 33.8344L73.4533 38.2449L66.5632 58.0008C68.2886 58.1722 70.4251 58.0008 72.1162 58.1722V58.3323L71.1109 80.6704L71.2825 80.9103C73.4877 81.1159 76.2414 81.2303 78.4924 80.8415V80.4873L77.5898 58.8346L77.7266 58.1033L83.7938 58.0003C80.7659 50.0019 77.8294 41.9236 75.0072 33.8339L74.8243 33.8344ZM51.3664 64.7766C47.5043 66.719 41.8139 69.6442 42.4424 74.9459C43.2649 77.8367 46.4074 79.7106 48.8868 80.9104C62.5983 86.9434 80.8004 87.1491 95.2773 82.6472C98.8538 81.2646 103.652 79.265 104.304 74.8888C104.271 71.2667 100.442 68.9929 97.688 67.6103V67.4389C98.6478 67.0504 99.7449 66.719 100.739 66.6048V66.5135C95.8942 65.6451 91.2095 64.3768 86.5132 63.1313C87.416 65.1995 88.0674 67.3704 88.8215 69.5071C90.2383 69.0616 91.6894 68.7188 93.209 68.5131C95.6885 69.4729 99.2306 70.8555 99.5848 73.9519C99.8593 76.8428 96.6825 78.2596 94.6829 79.4251C84.068 83.2872 72.1164 83.6642 61.0444 80.7391C57.9821 79.7679 53.5714 78.5339 53.1943 74.6375C55.3653 69.5072 60.9756 68.4445 65.6718 67.1991C63.2609 65.6451 60.8045 64.2625 58.4735 62.5372C55.9483 62.6857 53.6402 63.7825 51.3664 64.7766ZM70.9737 87.0464C70.5625 94.9762 70.4596 102.312 69.8768 110.276C73.0076 110.55 76.561 110.824 79.8975 110.344L78.9035 88.1775L78.7317 87.1263C76.1723 87.2176 73.7618 87.3202 70.9737 87.0464Z" fill="#121212"/>
</svg>
