<svg xmlns="http://www.w3.org/2000/svg" xmlns:xlink="http://www.w3.org/1999/xlink" width="124" height="124" viewBox="0 0 124 124"><defs><style>.a{fill:#12100e;}.b,.c,.d,.e{fill:none;}.b,.d{stroke:#f9f9f9;}.b,.c,.d{stroke-miterlimit:10;stroke-width:2px;}.c{stroke:#4285f4;}.d{stroke-linecap:round;}.f{filter:url(#a);}</style><filter id="a" x="0" y="0" width="124" height="124" filterUnits="userSpaceOnUse"><feOffset dx="2" dy="2" input="SourceAlpha"/><feGaussianBlur stdDeviation="4" result="b"/><feFlood flood-color="#121212" flood-opacity="0.161"/><feComposite operator="in" in2="b"/><feComposite in="SourceGraphic"/></filter></defs><g transform="translate(10 10)"><g class="f" transform="matrix(1, 0, 0, 1, -10, -10)"><rect class="a" width="100" height="100" rx="8" transform="translate(10 10)"/></g><g transform="translate(26 26)"><rect class="b" width="30" height="30" rx="2" transform="translate(9 9)"/><rect class="c" width="12" height="12" rx="1" transform="translate(18 18)"/><line class="d" y1="7.81" transform="translate(16 39.19)"/><line class="d" y1="7.81" transform="translate(24 39.19)"/><line class="d" y1="7.81" transform="translate(32 39.19)"/><line class="d" y1="8" transform="translate(16 1)"/><line class="d" y1="7.9" transform="translate(24 1)"/><line class="d" y1="8" transform="translate(32 1)"/><line class="d" x1="8" transform="translate(39 32)"/><line class="d" x1="8" transform="translate(39 24)"/><line class="d" x1="8" transform="translate(39 16)"/><line class="d" x1="8" transform="translate(1 32)"/><line class="d" x1="7.87" transform="translate(1 24)"/><line class="d" x1="8" transform="translate(1 16)"/><rect class="e" width="48" height="48"/></g></g></svg>