<svg width="21" height="20" viewBox="0 0 21 20" fill="none" xmlns="http://www.w3.org/2000/svg">
<path d="M9.30126 1.56261L9.30127 1.56266L9.313 1.56129C11.262 1.33391 13.1066 1.75416 14.6574 2.64328C14.4366 2.67635 14.161 2.73206 13.8498 2.82614C13.2976 2.99307 12.6253 3.2837 11.9536 3.7869C11.4025 3.67727 10.8314 3.62585 10.2738 3.62585C9.75263 3.62585 9.191 3.6709 8.65763 3.77964C7.9766 3.28701 7.3164 2.99759 6.7718 2.82903C6.45768 2.7318 6.18264 2.67488 5.96402 2.64156C6.97177 2.07138 8.10168 1.693 9.30126 1.56261ZM15.2252 4.09433C15.2252 3.56308 15.2251 3.21998 15.2249 2.9984C15.225 2.99844 15.2251 2.99849 15.2252 2.99854V4.09433ZM16.9315 5.70905C16.9317 5.42832 16.932 4.95952 16.8435 4.42101C18.2382 5.9895 19.0891 8.07464 19.0891 10.3866C19.0891 13.5529 17.41 16.3411 14.8684 17.9098V16.7821C14.8684 16.2612 14.7793 15.7312 14.6095 15.2291C15.2338 14.9373 15.8123 14.5663 16.311 14.1026C17.3388 13.1469 17.963 11.8515 17.963 10.2835C17.963 8.9307 17.5058 7.78227 16.8614 6.85098C16.9097 6.52332 16.9315 6.15568 16.9315 5.74477C16.9315 5.73323 16.9315 5.72132 16.9315 5.70905ZM2.58472 10.2835C2.58472 11.2752 2.83441 12.158 3.27801 12.9146C3.15417 12.9228 2.98357 12.9431 2.80874 12.9931C2.64488 13.0399 2.35424 13.1452 2.0842 13.3958C1.59715 12.1139 1.39582 10.6905 1.553 9.20782C1.75388 7.40688 2.54523 5.74513 3.73303 4.43022C3.61537 4.97262 3.6159 5.43756 3.61621 5.70658C3.61623 5.71979 3.61624 5.73252 3.61624 5.74477C3.61624 6.15595 3.64417 6.5294 3.69247 6.85135C3.03837 7.81639 2.58472 9.01962 2.58472 10.2835ZM5.4257 4.09433L5.4257 2.97196C5.42578 2.97191 5.42586 2.97185 5.42594 2.9718C5.42579 3.19222 5.4257 3.54134 5.4257 4.09433Z" fill="white" stroke="white" stroke-width="3"/>
</svg>
