<svg width="21" height="20" viewBox="0 0 21 20" fill="none" xmlns="http://www.w3.org/2000/svg">
<path d="M9.30132 1.56261L9.30133 1.56266L9.31306 1.56129C11.262 1.33391 13.1066 1.75416 14.6575 2.64328C14.4367 2.67635 14.161 2.73206 13.8499 2.82614C13.2977 2.99307 12.6254 3.2837 11.9537 3.7869C11.4026 3.67727 10.8315 3.62585 10.2739 3.62585C9.75269 3.62585 9.19106 3.6709 8.65769 3.77964C7.97666 3.28701 7.31647 2.99759 6.77187 2.82903C6.45774 2.7318 6.1827 2.67488 5.96408 2.64156C6.97183 2.07138 8.10174 1.693 9.30132 1.56261ZM15.2252 4.09433C15.2252 3.56308 15.2251 3.21998 15.225 2.9984C15.2251 2.99844 15.2251 2.99849 15.2252 2.99854V4.09433ZM16.9315 5.70904C16.9317 5.42831 16.932 4.95951 16.8436 4.42101C18.2382 5.9895 19.0891 8.07464 19.0891 10.3866C19.0891 13.5529 17.4101 16.3411 14.8685 17.9098V16.7821C14.8685 16.2612 14.7794 15.7312 14.6095 15.2291C15.2338 14.9373 15.8124 14.5663 16.3111 14.1026C17.3389 13.1469 17.963 11.8515 17.963 10.2835C17.963 8.9307 17.5059 7.78227 16.8615 6.85098C16.9098 6.52332 16.9315 6.15568 16.9315 5.74477C16.9315 5.73322 16.9315 5.72131 16.9315 5.70904ZM2.58478 10.2835C2.58478 11.2752 2.83448 12.158 3.27807 12.9146C3.15423 12.9228 2.98363 12.9431 2.8088 12.9931C2.64494 13.0399 2.3543 13.1452 2.08426 13.3958C1.59721 12.1139 1.39588 10.6905 1.55306 9.2078C1.75394 7.40687 2.5453 5.74512 3.73309 4.43022C3.61543 4.97262 3.61596 5.43756 3.61627 5.70658C3.61629 5.71979 3.6163 5.73252 3.6163 5.74477C3.6163 6.15595 3.64423 6.5294 3.69253 6.85135C3.03843 7.81639 2.58478 9.01962 2.58478 10.2835ZM5.42576 4.09433L5.42576 2.97196C5.42584 2.97191 5.42592 2.97185 5.426 2.9718C5.42585 3.19222 5.42576 3.54134 5.42576 4.09433Z" stroke="#0066A1" stroke-width="3"/>
</svg>
