<svg width="480" height="320" viewBox="0 0 480 320" fill="none" xmlns="http://www.w3.org/2000/svg">
<g clip-path="url(#clip0_3012_8022)">
<rect width="480" height="320" fill="#1C1725"/>
<g style="mix-blend-mode:luminosity">
<path d="M541.409 44.1238C471.791 44.1238 415.354 96.8541 415.354 161.9C415.354 226.946 471.791 279.677 541.409 279.677" stroke="#E5E1E6" stroke-opacity="0.35" stroke-width="0.313369"/>
<path d="M541.409 44.1238C471.791 44.1238 415.354 96.8541 415.354 161.9C415.354 226.946 471.791 279.677 541.409 279.677" stroke="url(#paint0_linear_3012_8022)" stroke-width="0.313369"/>
<path d="M-62 44.1238C7.6185 44.1238 64.0554 96.8541 64.0554 161.9C64.0554 226.946 7.6185 279.677 -62 279.677" stroke="#E5E1E6" stroke-opacity="0.35" stroke-width="0.313369"/>
<path d="M-62 44.1238C7.6185 44.1238 64.0554 96.8541 64.0554 161.9C64.0554 226.946 7.6185 279.677 -62 279.677" stroke="url(#paint1_linear_3012_8022)" stroke-width="0.313369"/>
<path d="M485.706 44.1438C416.365 44.1438 360.152 96.8742 360.152 161.92C360.152 226.966 416.365 279.697 485.706 279.697" stroke="#E5E1E6" stroke-opacity="0.35" stroke-width="0.313369"/>
<path d="M485.706 44.1438C416.365 44.1438 360.152 96.8742 360.152 161.92C360.152 226.966 416.365 279.697 485.706 279.697" stroke="url(#paint2_linear_3012_8022)" stroke-width="0.313369"/>
<path d="M1.02832 44.1238C70.3695 44.1238 126.582 96.8541 126.582 161.9C126.582 226.946 70.3695 279.677 1.02832 279.677" stroke="#E5E1E6" stroke-opacity="0.35" stroke-width="0.313369"/>
<path d="M1.02832 44.1238C70.3695 44.1238 126.582 96.8541 126.582 161.9C126.582 226.946 70.3695 279.677 1.02832 279.677" stroke="url(#paint3_linear_3012_8022)" stroke-width="0.313369"/>
<path d="M415.354 44.1238C346.012 44.1238 289.8 96.8541 289.8 161.9C289.8 226.946 346.012 279.677 415.354 279.677" stroke="#E5E1E6" stroke-opacity="0.35" stroke-width="0.313369"/>
<path d="M415.354 44.1238C346.012 44.1238 289.8 96.8541 289.8 161.9C289.8 226.946 346.012 279.677 415.354 279.677" stroke="url(#paint4_linear_3012_8022)" stroke-width="0.313369"/>
<path d="M64.0557 44.1238C133.397 44.1238 189.609 96.8541 189.609 161.9C189.609 226.946 133.397 279.677 64.0557 279.677" stroke="#E5E1E6" stroke-opacity="0.35" stroke-width="0.313369"/>
<path d="M64.0557 44.1238C133.397 44.1238 189.609 96.8541 189.609 161.9C189.609 226.946 133.397 279.677 64.0557 279.677" stroke="url(#paint5_linear_3012_8022)" stroke-width="0.313369"/>
<path d="M8.75858 304.199C8.75857 239.224 112.89 186.552 241.343 186.552C369.796 186.552 473.927 239.224 473.927 304.199" stroke="#E5E1E6" stroke-opacity="0.35" stroke-width="0.313369"/>
<path d="M8.75858 304.199C8.75857 239.224 112.89 186.552 241.343 186.552C369.796 186.552 473.927 239.224 473.927 304.199" stroke="url(#paint6_linear_3012_8022)" stroke-width="0.313369"/>
<path d="M7.5137 13.9927C7.5137 78.9676 111.645 131.64 240.098 131.64C368.551 131.64 472.682 78.9676 472.682 13.9927" stroke="#E5E1E6" stroke-opacity="0.35" stroke-width="0.313369"/>
<path d="M7.5137 13.9927C7.5137 78.9676 111.645 131.64 240.098 131.64C368.551 131.64 472.682 78.9676 472.682 13.9927" stroke="url(#paint7_linear_3012_8022)" stroke-width="0.313369"/>
<path d="M35.4675 351.603C36.2617 286.632 129.283 234.769 243.235 235.765C357.188 236.761 448.921 290.237 448.127 355.209" stroke="#E5E1E6" stroke-opacity="0.35" stroke-width="0.313369"/>
<path d="M35.4675 351.603C36.2617 286.632 129.283 234.769 243.235 235.765C357.188 236.761 448.921 290.237 448.127 355.209" stroke="url(#paint8_linear_3012_8022)" stroke-width="0.313369"/>
<path d="M34.0307 -36.0001C34.1535 28.9762 126.633 81.7974 240.59 81.9794C354.547 82.1615 446.828 29.6354 446.705 -35.3408" stroke="#E5E1E6" stroke-opacity="0.35" stroke-width="0.313369"/>
<path d="M34.0307 -36.0001C34.1535 28.9762 126.633 81.7974 240.59 81.9794C354.547 82.1615 446.828 29.6354 446.705 -35.3408" stroke="url(#paint9_linear_3012_8022)" stroke-width="0.313369"/>
</g>
<g opacity="0.35" filter="url(#filter0_f_3012_8022)">
<ellipse cx="285.514" cy="162" rx="124.385" ry="73" fill="url(#paint10_linear_3012_8022)" fill-opacity="0.6"/>
</g>
<path d="M199.192 102.866H207.174V114.827H229.598V102.866H237.58V135.318H229.598V122.615H207.174V135.318H199.192V102.866Z" fill="#E5E1E6"/>
<path d="M248.314 108.661C248.806 106.992 249.621 105.616 250.759 104.535C251.928 103.422 253.528 102.866 255.558 102.866H265.201C267.262 102.866 268.908 103.422 270.138 104.535C271.368 105.616 272.23 106.992 272.722 108.661L280.658 135.318H271.799L269.63 127.53H255.004L256.85 119.741H267.462L264.97 110.654H256.019L249.191 135.318H240.332L248.314 108.661Z" fill="#E5E1E6"/>
<path d="M282.944 108.661C282.944 107.826 283.098 107.054 283.405 106.343C283.713 105.632 284.113 105.029 284.605 104.535C285.128 104.009 285.728 103.607 286.405 103.329C287.112 103.02 287.835 102.866 288.573 102.866H318.886V110.654H290.926V127.53H318.886V135.318H288.896C288.066 135.318 287.281 135.164 286.543 134.855C285.805 134.546 285.174 134.144 284.651 133.649C284.128 133.124 283.713 132.521 283.405 131.841C283.098 131.13 282.944 130.404 282.944 129.662V108.661Z" fill="#E5E1E6"/>
<path d="M323.056 102.866H331.038V115.569H338.236L348.018 102.866H357.246L345.203 118.628L359.506 135.318H349.31L338.651 123.357H331.038V135.318H323.056V102.866Z" fill="#E5E1E6"/>
<path d="M213.08 148.08H197.578V140.292H236.473V148.08H221.062V172.744H213.08V148.08Z" fill="#E5E1E6"/>
<path fill-rule="evenodd" clip-rule="evenodd" d="M239.463 146.087C239.463 145.252 239.617 144.48 239.925 143.769C240.232 143.058 240.632 142.455 241.124 141.961C241.647 141.435 242.247 141.034 242.924 140.755C243.631 140.446 244.354 140.292 245.092 140.292H272.453C273.283 140.292 274.068 140.446 274.806 140.755C275.544 141.065 276.175 141.482 276.698 142.007C277.221 142.502 277.636 143.104 277.943 143.815C278.251 144.495 278.405 145.206 278.405 145.948V166.949C278.405 167.784 278.251 168.556 277.943 169.267C277.636 169.978 277.221 170.596 276.698 171.122C276.205 171.616 275.606 172.018 274.898 172.327C274.221 172.605 273.514 172.744 272.776 172.744H245.415C244.585 172.744 243.8 172.59 243.062 172.281C242.324 171.972 241.693 171.57 241.17 171.075C240.647 170.55 240.232 169.947 239.925 169.267C239.617 168.556 239.463 167.83 239.463 167.088V146.087ZM270.423 164.956V148.08H247.445V164.956H270.423Z" fill="#E5E1E6"/>
<path fill-rule="evenodd" clip-rule="evenodd" d="M282.549 146.087C282.549 145.252 282.703 144.48 283.011 143.769C283.318 143.058 283.718 142.455 284.21 141.961C284.733 141.435 285.333 141.034 286.01 140.755C286.717 140.446 287.44 140.292 288.178 140.292H310.279C311.11 140.292 311.879 140.446 312.586 140.755C313.293 141.065 313.893 141.482 314.385 142.007C314.908 142.502 315.308 143.104 315.585 143.815C315.893 144.495 316.046 145.206 316.046 145.948V152.717C316.877 152.717 317.615 152.871 318.261 153.18C318.938 153.489 319.507 153.906 319.968 154.432C320.43 154.926 320.768 155.529 320.983 156.24C321.229 156.92 321.352 157.631 321.352 158.372V166.949C321.352 167.784 321.199 168.556 320.891 169.267C320.583 169.978 320.168 170.596 319.645 171.122C319.153 171.616 318.553 172.018 317.846 172.327C317.169 172.605 316.462 172.744 315.723 172.744H282.549V146.087ZM313.37 164.956V159.995H290.531V164.956H313.37ZM308.064 152.717V148.08H290.531V152.717H308.064Z" fill="#E5E1E6"/>
<path d="M325.028 146.087C325.028 145.252 325.182 144.48 325.489 143.769C325.797 143.058 326.197 142.455 326.689 141.961C327.212 141.435 327.812 141.034 328.489 140.755C329.196 140.446 329.919 140.292 330.657 140.292H359.725V148.08H333.01V152.253H356.08V160.041H333.01V164.956H359.725V172.744H330.98C330.15 172.744 329.365 172.59 328.627 172.281C327.889 171.972 327.258 171.57 326.735 171.075C326.212 170.55 325.797 169.947 325.489 169.267C325.182 168.556 325.028 167.83 325.028 167.088V146.087Z" fill="#E5E1E6"/>
<path d="M199.192 183.873C199.192 183.039 199.346 182.266 199.654 181.555C199.961 180.844 200.361 180.242 200.853 179.747C201.376 179.222 201.976 178.82 202.653 178.542C203.36 178.233 204.083 178.078 204.821 178.078H231.628V185.867H207.174V193.331H227.937V201.119H207.174V210.531H199.192V183.873Z" fill="#E5E1E6"/>
<path d="M234.597 183.873C234.597 183.039 234.751 182.266 235.058 181.555C235.366 180.844 235.766 180.242 236.258 179.747C236.781 179.222 237.381 178.82 238.057 178.542C238.765 178.233 239.488 178.078 240.226 178.078H269.294V185.867H242.579V190.039H265.649V197.828H242.579V202.742H269.294V210.531H240.549C239.718 210.531 238.934 210.376 238.196 210.067C237.458 209.758 236.827 209.356 236.304 208.862C235.781 208.336 235.366 207.733 235.058 207.053C234.751 206.343 234.597 205.616 234.597 204.874V183.873Z" fill="#E5E1E6"/>
<path d="M273.448 202.742H304.315V197.828H279.215C278.385 197.828 277.616 197.673 276.908 197.364C276.201 197.055 275.585 196.653 275.063 196.159C274.57 195.633 274.171 195.031 273.863 194.351C273.586 193.64 273.448 192.913 273.448 192.172V183.873C273.448 183.039 273.601 182.266 273.909 181.555C274.217 180.844 274.617 180.242 275.109 179.747C275.632 179.222 276.231 178.82 276.908 178.542C277.616 178.233 278.338 178.078 279.077 178.078H308.698V185.867H281.43V190.039H306.53C307.36 190.039 308.129 190.194 308.836 190.503C309.544 190.812 310.144 191.229 310.636 191.754C311.159 192.249 311.559 192.852 311.835 193.563C312.143 194.242 312.297 194.953 312.297 195.695V204.735C312.297 205.57 312.143 206.343 311.835 207.053C311.528 207.764 311.113 208.382 310.59 208.908C310.098 209.402 309.498 209.804 308.79 210.113C308.114 210.391 307.406 210.531 306.668 210.531H273.448V202.742Z" fill="#E5E1E6"/>
<path d="M327.798 185.867H312.295V178.078H351.19V185.867H335.78V210.531H327.798V185.867Z" fill="#E5E1E6"/>
<path fill-rule="evenodd" clip-rule="evenodd" d="M364.373 146.767C364.373 145.812 364.549 144.928 364.901 144.114C365.254 143.3 365.711 142.611 366.275 142.045C366.873 141.443 367.56 140.983 368.334 140.665C369.144 140.311 369.971 140.134 370.816 140.134H393.103C394.054 140.134 394.934 140.311 395.743 140.665C396.553 141.019 397.24 141.496 397.803 142.098C398.401 142.664 398.859 143.353 399.176 144.167C399.528 144.945 399.704 145.759 399.704 146.608L399.652 153.33C399.652 154.179 399.476 154.993 399.124 155.771C398.876 156.409 398.541 156.97 398.12 157.455C398.145 157.482 398.169 157.51 398.194 157.537C398.655 158.032 398.994 158.635 399.209 159.346C399.455 160.025 399.578 162.807 399.578 163.549V166.949C399.578 167.784 399.424 168.556 399.117 169.267C398.809 169.978 398.394 170.596 397.871 171.122C397.379 171.616 396.779 172.018 396.071 172.327C395.395 172.605 394.687 172.744 393.949 172.744H386.966V166.015L391.596 165.991V161.874H370.764C369.919 161.874 369.092 161.697 368.282 161.344C367.508 161.025 366.821 160.565 366.223 159.964C365.659 159.398 365.202 158.708 364.85 157.895C364.498 157.081 364.322 156.197 364.322 155.242L364.373 146.767ZM390.568 148.248V153.554H373.509V148.248H390.568Z" fill="#E5E1E6"/>
<path d="M372.556 166.015V172.744H364.322V162.91C364.322 162.91 365.865 166.015 369.983 166.015H372.556Z" fill="#E5E1E6"/>
<path d="M107.466 143.441H100.771L100.771 143.834L100.771 150.169L107.466 150.169L107.466 143.441H114.161V170.352H107.466L107.466 177.08L114.161 177.08V190.536H120.856V170.352H127.551V163.625L140.941 163.624V183.808H147.636V177.08L154.331 177.08L154.331 170.352H161.026V163.624L154.331 163.624L154.331 170.352H147.636L147.636 123.257H140.941V129.985L134.246 129.985V136.713H127.551V143.441L134.246 143.441L134.246 136.713H140.871L140.941 136.713L140.941 143.32L140.941 143.441V156.896H127.551L127.551 163.625L120.856 163.624L120.856 129.985H114.161V136.713H107.466V143.441Z" fill="#E5E1E6"/>
<g style="mix-blend-mode:hard-light" filter="url(#filter1_dd_3012_8022)">
<path fill-rule="evenodd" clip-rule="evenodd" d="M104.314 203.311C129.931 218.173 162.688 209.353 177.478 183.61C192.268 157.866 183.491 124.949 157.874 110.086C132.256 95.2228 99.4995 104.043 84.7093 129.786C69.9191 155.53 78.6963 188.448 104.314 203.311ZM93.2545 165.466C91.3967 175.22 91.8562 184.283 94.6023 191.379C84.3247 180.467 79.4813 165.485 81.2198 150.737C82.4855 153.031 84.1157 155.395 86.0528 157.782C88.1029 160.309 90.5188 162.888 93.2545 165.466ZM88.6472 155.657C85.4742 151.746 83.3167 148.08 82.263 144.885C83.3663 140.288 85.1361 135.771 87.6083 131.468C91.1293 125.34 95.7364 120.234 101.044 116.256C102.309 118.546 103.937 120.906 105.87 123.289C107.054 124.748 108.361 126.225 109.78 127.71C110.027 127.16 110.373 126.654 110.806 126.219C111.188 125.835 111.625 125.519 112.099 125.279C110.778 123.893 109.564 122.518 108.465 121.163C106.527 118.776 104.969 116.479 103.809 114.326C115.211 106.924 129.31 104.38 142.735 107.6C133.356 109.05 123.113 115.165 114.193 124.744C114.247 124.742 114.302 124.741 114.356 124.741L118.877 124.741C122.991 120.7 127.32 117.444 131.626 115.083C140.434 110.254 148.671 109.376 154.953 112.344L151.031 119.17C151.153 119.271 151.27 119.378 151.382 119.491C152.25 120.363 152.767 121.522 152.843 122.745L157.825 114.073C163.259 118.135 166.455 125.608 166.691 135.427C166.844 141.798 165.728 148.947 163.29 156.314C159.949 155.299 156.449 154.029 152.853 152.512L152.853 156.152C159.888 159.025 166.582 160.983 172.497 161.945C175.518 162.437 178.366 162.673 180.971 162.629C180.196 169.237 178.1 175.799 174.579 181.928C172.107 186.231 169.099 190.03 165.689 193.288C162.409 193.969 158.171 193.924 153.215 193.118C150.738 192.715 148.104 192.126 145.35 191.355C146.243 190.488 147.125 189.587 147.994 188.654C147.966 188.654 147.937 188.655 147.909 188.656C147.883 188.656 147.857 188.656 147.831 188.656L143.31 188.656C142.76 189.196 142.207 189.722 141.65 190.234C136.706 188.623 131.449 186.474 126.072 183.814V187.552C130.383 189.621 134.623 191.372 138.699 192.788C136.017 194.969 133.285 196.82 130.561 198.313C121.982 203.017 113.944 203.973 107.726 201.275L111.59 194.549C111.309 194.363 111.047 194.148 110.806 193.906C110.143 193.241 109.685 192.409 109.472 191.508L104.8 199.64C99.1002 195.656 95.739 188.049 95.4968 177.969C95.4219 174.852 95.6509 171.549 96.1899 168.124C98.2032 169.879 100.358 171.623 102.64 173.342L102.64 170.154C102.64 169.821 102.672 169.494 102.734 169.179C100.666 167.555 98.723 165.917 96.9154 164.279C97.5923 161.195 98.511 158.036 99.6756 154.847C98.8279 154.62 98.0464 154.173 97.4156 153.539C97.2036 153.326 97.0126 153.096 96.8438 152.852C95.7312 155.798 94.8165 158.731 94.099 161.62C92.0577 159.608 90.2328 157.611 88.6472 155.657ZM119.453 205.796C133.995 209.285 149.328 206.009 161.168 197.122C158.558 197.167 155.706 196.931 152.68 196.439C149.478 195.918 146.047 195.105 142.457 194.013C134.98 200.507 126.941 204.638 119.453 205.796ZM173.032 158.625C176.058 159.117 178.816 159.325 181.252 159.258C181.93 145.633 177.073 132.091 167.586 122.018C171.189 131.329 170.855 144.025 166.516 157.227C168.783 157.821 170.963 158.288 173.032 158.625Z" fill="url(#paint11_linear_3012_8022)"/>
</g>
<g opacity="0.35" filter="url(#filter2_f_3012_8022)">
<circle cx="130.95" cy="156.698" r="59.9497" fill="url(#paint12_linear_3012_8022)" fill-opacity="0.6"/>
</g>
<g filter="url(#filter3_dd_3012_8022)">
<path d="M400 57H437.057" stroke="url(#paint13_linear_3012_8022)" stroke-width="3"/>
</g>
<g filter="url(#filter4_dd_3012_8022)">
<path d="M103.5 280H53" stroke="url(#paint14_linear_3012_8022)" stroke-width="3"/>
</g>
<g filter="url(#filter5_dd_3012_8022)">
<line x1="302.975" y1="243.479" x2="422.959" y2="241.5" stroke="url(#paint15_linear_3012_8022)" stroke-width="3"/>
</g>
<g filter="url(#filter6_dd_3012_8022)">
<line x1="97" y1="71.5" x2="118" y2="71.5" stroke="url(#paint16_linear_3012_8022)" stroke-width="3"/>
</g>
</g>
<defs>
<filter id="filter0_f_3012_8022" x="38.7823" y="-33.3464" width="493.464" height="390.693" filterUnits="userSpaceOnUse" color-interpolation-filters="sRGB">
<feFlood flood-opacity="0" result="BackgroundImageFix"/>
<feBlend mode="normal" in="SourceGraphic" in2="BackgroundImageFix" result="shape"/>
<feGaussianBlur stdDeviation="61.1732" result="effect1_foregroundBlur_3012_8022"/>
</filter>
<filter id="filter1_dd_3012_8022" x="59.6298" y="90.9358" width="142.928" height="131.525" filterUnits="userSpaceOnUse" color-interpolation-filters="sRGB">
<feFlood flood-opacity="0" result="BackgroundImageFix"/>
<feColorMatrix in="SourceAlpha" type="matrix" values="0 0 0 0 0 0 0 0 0 0 0 0 0 0 0 0 0 0 127 0" result="hardAlpha"/>
<feOffset dx="5.96496"/>
<feGaussianBlur stdDeviation="5.96496"/>
<feComposite in2="hardAlpha" operator="out"/>
<feColorMatrix type="matrix" values="0 0 0 0 0.564706 0 0 0 0 0.580392 0 0 0 0 1 0 0 0 0.3 0"/>
<feBlend mode="normal" in2="BackgroundImageFix" result="effect1_dropShadow_3012_8022"/>
<feColorMatrix in="SourceAlpha" type="matrix" values="0 0 0 0 0 0 0 0 0 0 0 0 0 0 0 0 0 0 127 0" result="hardAlpha"/>
<feOffset dx="-5.96496"/>
<feGaussianBlur stdDeviation="5.96496"/>
<feComposite in2="hardAlpha" operator="out"/>
<feColorMatrix type="matrix" values="0 0 0 0 1 0 0 0 0 0.890196 0 0 0 0 0.494118 0 0 0 0.3 0"/>
<feBlend mode="normal" in2="effect1_dropShadow_3012_8022" result="effect2_dropShadow_3012_8022"/>
<feBlend mode="normal" in="SourceGraphic" in2="effect2_dropShadow_3012_8022" result="shape"/>
</filter>
<filter id="filter2_f_3012_8022" x="-51.3464" y="-25.5978" width="364.592" height="364.592" filterUnits="userSpaceOnUse" color-interpolation-filters="sRGB">
<feFlood flood-opacity="0" result="BackgroundImageFix"/>
<feBlend mode="normal" in="SourceGraphic" in2="BackgroundImageFix" result="shape"/>
<feGaussianBlur stdDeviation="61.1732" result="effect1_foregroundBlur_3012_8022"/>
</filter>
<filter id="filter3_dd_3012_8022" x="392.136" y="50.257" width="52.7862" height="13.4859" filterUnits="userSpaceOnUse" color-interpolation-filters="sRGB">
<feFlood flood-opacity="0" result="BackgroundImageFix"/>
<feColorMatrix in="SourceAlpha" type="matrix" values="0 0 0 0 0 0 0 0 0 0 0 0 0 0 0 0 0 0 127 0" result="hardAlpha"/>
<feOffset dx="2.62149"/>
<feGaussianBlur stdDeviation="2.62149"/>
<feComposite in2="hardAlpha" operator="out"/>
<feColorMatrix type="matrix" values="0 0 0 0 0.564706 0 0 0 0 0.580392 0 0 0 0 1 0 0 0 0.3 0"/>
<feBlend mode="normal" in2="BackgroundImageFix" result="effect1_dropShadow_3012_8022"/>
<feColorMatrix in="SourceAlpha" type="matrix" values="0 0 0 0 0 0 0 0 0 0 0 0 0 0 0 0 0 0 127 0" result="hardAlpha"/>
<feOffset dx="-2.62149"/>
<feGaussianBlur stdDeviation="2.62149"/>
<feComposite in2="hardAlpha" operator="out"/>
<feColorMatrix type="matrix" values="0 0 0 0 1 0 0 0 0 0.890196 0 0 0 0 0.494118 0 0 0 0.3 0"/>
<feBlend mode="normal" in2="effect1_dropShadow_3012_8022" result="effect2_dropShadow_3012_8022"/>
<feBlend mode="normal" in="SourceGraphic" in2="effect2_dropShadow_3012_8022" result="shape"/>
</filter>
<filter id="filter4_dd_3012_8022" x="45.1355" y="273.257" width="66.2289" height="13.4859" filterUnits="userSpaceOnUse" color-interpolation-filters="sRGB">
<feFlood flood-opacity="0" result="BackgroundImageFix"/>
<feColorMatrix in="SourceAlpha" type="matrix" values="0 0 0 0 0 0 0 0 0 0 0 0 0 0 0 0 0 0 127 0" result="hardAlpha"/>
<feOffset dx="2.62149"/>
<feGaussianBlur stdDeviation="2.62149"/>
<feComposite in2="hardAlpha" operator="out"/>
<feColorMatrix type="matrix" values="0 0 0 0 0.564706 0 0 0 0 0.580392 0 0 0 0 1 0 0 0 0.3 0"/>
<feBlend mode="normal" in2="BackgroundImageFix" result="effect1_dropShadow_3012_8022"/>
<feColorMatrix in="SourceAlpha" type="matrix" values="0 0 0 0 0 0 0 0 0 0 0 0 0 0 0 0 0 0 127 0" result="hardAlpha"/>
<feOffset dx="-2.62149"/>
<feGaussianBlur stdDeviation="2.62149"/>
<feComposite in2="hardAlpha" operator="out"/>
<feColorMatrix type="matrix" values="0 0 0 0 1 0 0 0 0 0.890196 0 0 0 0 0.494118 0 0 0 0.3 0"/>
<feBlend mode="normal" in2="effect1_dropShadow_3012_8022" result="effect2_dropShadow_3012_8022"/>
<feBlend mode="normal" in="SourceGraphic" in2="effect2_dropShadow_3012_8022" result="shape"/>
</filter>
<filter id="filter5_dd_3012_8022" x="295.086" y="234.758" width="135.762" height="15.4645" filterUnits="userSpaceOnUse" color-interpolation-filters="sRGB">
<feFlood flood-opacity="0" result="BackgroundImageFix"/>
<feColorMatrix in="SourceAlpha" type="matrix" values="0 0 0 0 0 0 0 0 0 0 0 0 0 0 0 0 0 0 127 0" result="hardAlpha"/>
<feOffset dx="2.62149"/>
<feGaussianBlur stdDeviation="2.62149"/>
<feComposite in2="hardAlpha" operator="out"/>
<feColorMatrix type="matrix" values="0 0 0 0 0.564706 0 0 0 0 0.580392 0 0 0 0 1 0 0 0 0.3 0"/>
<feBlend mode="normal" in2="BackgroundImageFix" result="effect1_dropShadow_3012_8022"/>
<feColorMatrix in="SourceAlpha" type="matrix" values="0 0 0 0 0 0 0 0 0 0 0 0 0 0 0 0 0 0 127 0" result="hardAlpha"/>
<feOffset dx="-2.62149"/>
<feGaussianBlur stdDeviation="2.62149"/>
<feComposite in2="hardAlpha" operator="out"/>
<feColorMatrix type="matrix" values="0 0 0 0 1 0 0 0 0 0.890196 0 0 0 0 0.494118 0 0 0 0.3 0"/>
<feBlend mode="normal" in2="effect1_dropShadow_3012_8022" result="effect2_dropShadow_3012_8022"/>
<feBlend mode="normal" in="SourceGraphic" in2="effect2_dropShadow_3012_8022" result="shape"/>
</filter>
<filter id="filter6_dd_3012_8022" x="89.1355" y="64.757" width="36.7289" height="13.4859" filterUnits="userSpaceOnUse" color-interpolation-filters="sRGB">
<feFlood flood-opacity="0" result="BackgroundImageFix"/>
<feColorMatrix in="SourceAlpha" type="matrix" values="0 0 0 0 0 0 0 0 0 0 0 0 0 0 0 0 0 0 127 0" result="hardAlpha"/>
<feOffset dx="2.62149"/>
<feGaussianBlur stdDeviation="2.62149"/>
<feComposite in2="hardAlpha" operator="out"/>
<feColorMatrix type="matrix" values="0 0 0 0 0.564706 0 0 0 0 0.580392 0 0 0 0 1 0 0 0 0.3 0"/>
<feBlend mode="normal" in2="BackgroundImageFix" result="effect1_dropShadow_3012_8022"/>
<feColorMatrix in="SourceAlpha" type="matrix" values="0 0 0 0 0 0 0 0 0 0 0 0 0 0 0 0 0 0 127 0" result="hardAlpha"/>
<feOffset dx="-2.62149"/>
<feGaussianBlur stdDeviation="2.62149"/>
<feComposite in2="hardAlpha" operator="out"/>
<feColorMatrix type="matrix" values="0 0 0 0 1 0 0 0 0 0.890196 0 0 0 0 0.494118 0 0 0 0.3 0"/>
<feBlend mode="normal" in2="effect1_dropShadow_3012_8022" result="effect2_dropShadow_3012_8022"/>
<feBlend mode="normal" in="SourceGraphic" in2="effect2_dropShadow_3012_8022" result="shape"/>
</filter>
<linearGradient id="paint0_linear_3012_8022" x1="541.409" y1="279.677" x2="542.042" y2="44.3327" gradientUnits="userSpaceOnUse">
<stop stop-color="#170F1E"/>
<stop offset="0.473958" stop-color="#170F1E" stop-opacity="0"/>
<stop offset="1" stop-color="#170F1E"/>
</linearGradient>
<linearGradient id="paint1_linear_3012_8022" x1="-62" y1="279.677" x2="-62.6324" y2="44.3327" gradientUnits="userSpaceOnUse">
<stop stop-color="#170F1E"/>
<stop offset="0.473958" stop-color="#170F1E" stop-opacity="0"/>
<stop offset="1" stop-color="#170F1E"/>
</linearGradient>
<linearGradient id="paint2_linear_3012_8022" x1="485.706" y1="279.697" x2="486.341" y2="44.3527" gradientUnits="userSpaceOnUse">
<stop stop-color="#170F1E"/>
<stop offset="0.473958" stop-color="#170F1E" stop-opacity="0"/>
<stop offset="1" stop-color="#170F1E"/>
</linearGradient>
<linearGradient id="paint3_linear_3012_8022" x1="1.02832" y1="279.677" x2="0.393362" y2="44.3327" gradientUnits="userSpaceOnUse">
<stop stop-color="#170F1E"/>
<stop offset="0.473958" stop-color="#170F1E" stop-opacity="0"/>
<stop offset="1" stop-color="#170F1E"/>
</linearGradient>
<linearGradient id="paint4_linear_3012_8022" x1="415.354" y1="279.677" x2="415.988" y2="44.3327" gradientUnits="userSpaceOnUse">
<stop stop-color="#170F1E"/>
<stop offset="0.473958" stop-color="#170F1E" stop-opacity="0"/>
<stop offset="1" stop-color="#170F1E"/>
</linearGradient>
<linearGradient id="paint5_linear_3012_8022" x1="64.0557" y1="279.677" x2="63.4207" y2="44.3327" gradientUnits="userSpaceOnUse">
<stop stop-color="#170F1E"/>
<stop offset="0.473958" stop-color="#170F1E" stop-opacity="0"/>
<stop offset="1" stop-color="#170F1E"/>
</linearGradient>
<linearGradient id="paint6_linear_3012_8022" x1="473.927" y1="304.199" x2="9.18276" y2="306.842" gradientUnits="userSpaceOnUse">
<stop stop-color="#170F1E"/>
<stop offset="0.473958" stop-color="#170F1E" stop-opacity="0"/>
<stop offset="1" stop-color="#170F1E"/>
</linearGradient>
<linearGradient id="paint7_linear_3012_8022" x1="472.682" y1="13.9927" x2="7.93788" y2="11.3501" gradientUnits="userSpaceOnUse">
<stop stop-color="#170F1E"/>
<stop offset="0.473958" stop-color="#170F1E" stop-opacity="0"/>
<stop offset="1" stop-color="#170F1E"/>
</linearGradient>
<linearGradient id="paint8_linear_3012_8022" x1="448.127" y1="355.209" x2="35.8258" y2="352.249" gradientUnits="userSpaceOnUse">
<stop stop-color="#170F1E"/>
<stop offset="0.473958" stop-color="#170F1E" stop-opacity="0"/>
<stop offset="1" stop-color="#170F1E"/>
</linearGradient>
<linearGradient id="paint9_linear_3012_8022" x1="446.705" y1="-35.3408" x2="34.3957" y2="-36.6416" gradientUnits="userSpaceOnUse">
<stop stop-color="#170F1E"/>
<stop offset="0.473958" stop-color="#170F1E" stop-opacity="0"/>
<stop offset="1" stop-color="#170F1E"/>
</linearGradient>
<linearGradient id="paint10_linear_3012_8022" x1="161.129" y1="162" x2="409.9" y2="162" gradientUnits="userSpaceOnUse">
<stop stop-color="#FFE27D"/>
<stop offset="0.505208" stop-color="#64E3FF"/>
<stop offset="1" stop-color="#9192FF"/>
</linearGradient>
<linearGradient id="paint11_linear_3012_8022" x1="92.7036" y1="117.85" x2="170.399" y2="195.165" gradientUnits="userSpaceOnUse">
<stop stop-color="#FFE27D"/>
<stop offset="0.505208" stop-color="#64E3FF"/>
<stop offset="1" stop-color="#9192FF"/>
</linearGradient>
<linearGradient id="paint12_linear_3012_8022" x1="71" y1="156.698" x2="190.899" y2="156.698" gradientUnits="userSpaceOnUse">
<stop stop-color="#FFE27D"/>
<stop offset="0.505208" stop-color="#64E3FF"/>
<stop offset="1" stop-color="#9192FF"/>
</linearGradient>
<linearGradient id="paint13_linear_3012_8022" x1="400" y1="57.5" x2="437.057" y2="57.5" gradientUnits="userSpaceOnUse">
<stop stop-color="#FFE27D"/>
<stop offset="0.505208" stop-color="#64E3FF"/>
<stop offset="1" stop-color="#9192FF"/>
</linearGradient>
<linearGradient id="paint14_linear_3012_8022" x1="53" y1="280.5" x2="103.5" y2="280.5" gradientUnits="userSpaceOnUse">
<stop stop-color="#FFE27D"/>
<stop offset="0.505208" stop-color="#64E3FF"/>
<stop offset="1" stop-color="#9192FF"/>
</linearGradient>
<linearGradient id="paint15_linear_3012_8022" x1="303.008" y1="245.479" x2="422.992" y2="243.5" gradientUnits="userSpaceOnUse">
<stop stop-color="#FFE27D"/>
<stop offset="0.505208" stop-color="#64E3FF"/>
<stop offset="1" stop-color="#9192FF"/>
</linearGradient>
<linearGradient id="paint16_linear_3012_8022" x1="97" y1="73.5" x2="118" y2="73.5" gradientUnits="userSpaceOnUse">
<stop stop-color="#FFE27D"/>
<stop offset="0.505208" stop-color="#64E3FF"/>
<stop offset="1" stop-color="#9192FF"/>
</linearGradient>
<clipPath id="clip0_3012_8022">
<rect width="480" height="320" fill="white"/>
</clipPath>
</defs>
</svg>
