<svg width="20" height="20" viewBox="0 0 20 20" fill="none" xmlns="http://www.w3.org/2000/svg">
<path d="M5.55531 0C2.49198 0 -0.000244141 2.49222 -0.000244141 5.55556V14.4444C-0.000244141 17.5078 2.49198 20 5.55531 20H14.4442C17.5075 20 19.9998 17.5078 19.9998 14.4444V5.55556C19.9998 2.49222 17.5075 0 14.4442 0H5.55531ZM5.55531 2.22222H14.4442C16.282 2.22222 17.7775 3.71778 17.7775 5.55556V14.4444C17.7775 16.2822 16.282 17.7778 14.4442 17.7778H5.55531C3.71753 17.7778 2.22198 16.2822 2.22198 14.4444V5.55556C2.22198 3.71778 3.71753 2.22222 5.55531 2.22222ZM15.5553 3.33333C15.2606 3.33333 14.978 3.4504 14.7696 3.65877C14.5613 3.86714 14.4442 4.14976 14.4442 4.44444C14.4442 4.73913 14.5613 5.02174 14.7696 5.23012C14.978 5.43849 15.2606 5.55556 15.5553 5.55556C15.85 5.55556 16.1326 5.43849 16.341 5.23012C16.5494 5.02174 16.6664 4.73913 16.6664 4.44444C16.6664 4.14976 16.5494 3.86714 16.341 3.65877C16.1326 3.4504 15.85 3.33333 15.5553 3.33333ZM9.99976 4.44444C6.93642 4.44444 4.4442 6.93667 4.4442 10C4.4442 13.0633 6.93642 15.5556 9.99976 15.5556C13.0631 15.5556 15.5553 13.0633 15.5553 10C15.5553 6.93667 13.0631 4.44444 9.99976 4.44444ZM9.99976 6.66667C11.8375 6.66667 13.3331 8.16222 13.3331 10C13.3331 11.8378 11.8375 13.3333 9.99976 13.3333C8.16198 13.3333 6.66642 11.8378 6.66642 10C6.66642 8.16222 8.16198 6.66667 9.99976 6.66667Z" fill="#0066A1"/>
</svg>
