<svg width="20" height="20" viewBox="0 0 20 20" fill="none" xmlns="http://www.w3.org/2000/svg">
<path d="M5.55543 0C2.4921 0 -0.00012207 2.49222 -0.00012207 5.55556V14.4444C-0.00012207 17.5078 2.4921 20 5.55543 20H14.4443C17.5077 20 19.9999 17.5078 19.9999 14.4444V5.55556C19.9999 2.49222 17.5077 0 14.4443 0H5.55543ZM5.55543 2.22222H14.4443C16.2821 2.22222 17.7777 3.71778 17.7777 5.55556V14.4444C17.7777 16.2822 16.2821 17.7778 14.4443 17.7778H5.55543C3.71766 17.7778 2.2221 16.2822 2.2221 14.4444V5.55556C2.2221 3.71778 3.71766 2.22222 5.55543 2.22222ZM15.5554 3.33333C15.2607 3.33333 14.9781 3.4504 14.7698 3.65877C14.5614 3.86714 14.4443 4.14976 14.4443 4.44444C14.4443 4.73913 14.5614 5.02174 14.7698 5.23012C14.9781 5.43849 15.2607 5.55556 15.5554 5.55556C15.8501 5.55556 16.1327 5.43849 16.3411 5.23012C16.5495 5.02174 16.6665 4.73913 16.6665 4.44444C16.6665 4.14976 16.5495 3.86714 16.3411 3.65877C16.1327 3.4504 15.8501 3.33333 15.5554 3.33333ZM9.99988 4.44444C6.93654 4.44444 4.44432 6.93667 4.44432 10C4.44432 13.0633 6.93654 15.5556 9.99988 15.5556C13.0632 15.5556 15.5554 13.0633 15.5554 10C15.5554 6.93667 13.0632 4.44444 9.99988 4.44444ZM9.99988 6.66667C11.8377 6.66667 13.3332 8.16222 13.3332 10C13.3332 11.8378 11.8377 13.3333 9.99988 13.3333C8.1621 13.3333 6.66654 11.8378 6.66654 10C6.66654 8.16222 8.1621 6.66667 9.99988 6.66667Z" fill="white"/>
</svg>
