<svg width="409" height="539" viewBox="0 0 409 539" fill="none" xmlns="http://www.w3.org/2000/svg">
<g filter="url(#filter0_dd_1130_6086)">
<path d="M3.67764 200.807C3.67764 301.769 90.3827 383.614 197.339 383.614C304.295 383.614 391 301.769 391 200.807C391 99.8455 304.295 18 197.339 18C90.3827 18 3.67764 99.8455 3.67764 200.807ZM320.649 200.807C320.649 265.093 265.441 317.206 197.339 317.206C129.236 317.206 74.0281 265.093 74.0281 200.807C74.0281 136.521 129.236 84.4076 197.339 84.4076C265.441 84.4076 320.649 136.521 320.649 200.807Z" fill="#FCFCFC"/>
</g>
<g filter="url(#filter1_dd_1130_6086)">
<path d="M-130 339.055C-130 440.016 -43.295 521.862 63.6611 521.862C170.617 521.862 257.322 440.016 257.322 339.055C257.322 238.093 170.617 156.248 63.6611 156.248C-43.295 156.248 -130 238.093 -130 339.055ZM186.972 339.055C186.972 403.34 131.764 455.454 63.6611 455.454C-4.44153 455.454 -59.6496 403.34 -59.6496 339.055C-59.6496 274.769 -4.44153 222.655 63.6611 222.655C131.764 222.655 186.972 274.769 186.972 339.055Z" fill="#FCFCFC"/>
</g>
<defs>
<filter id="filter0_dd_1130_6086" x="-13.4604" y="0.861843" width="421.599" height="399.89" filterUnits="userSpaceOnUse" color-interpolation-filters="sRGB">
<feFlood flood-opacity="0" result="BackgroundImageFix"/>
<feColorMatrix in="SourceAlpha" type="matrix" values="0 0 0 0 0 0 0 0 0 0 0 0 0 0 0 0 0 0 127 0" result="hardAlpha"/>
<feOffset dx="5.71272" dy="5.71272"/>
<feGaussianBlur stdDeviation="5.71272"/>
<feComposite in2="hardAlpha" operator="out"/>
<feColorMatrix type="matrix" values="0 0 0 0 0.929167 0 0 0 0 0.929167 0 0 0 0 0.929167 0 0 0 1 0"/>
<feBlend mode="normal" in2="BackgroundImageFix" result="effect1_dropShadow_1130_6086"/>
<feColorMatrix in="SourceAlpha" type="matrix" values="0 0 0 0 0 0 0 0 0 0 0 0 0 0 0 0 0 0 127 0" result="hardAlpha"/>
<feOffset dx="-5.71272" dy="-5.71272"/>
<feGaussianBlur stdDeviation="5.71272"/>
<feComposite in2="hardAlpha" operator="out"/>
<feColorMatrix type="matrix" values="0 0 0 0 1 0 0 0 0 1 0 0 0 0 1 0 0 0 1 0"/>
<feBlend mode="normal" in2="effect1_dropShadow_1130_6086" result="effect2_dropShadow_1130_6086"/>
<feBlend mode="normal" in="SourceGraphic" in2="effect2_dropShadow_1130_6086" result="shape"/>
</filter>
<filter id="filter1_dd_1130_6086" x="-147.138" y="139.11" width="421.599" height="399.89" filterUnits="userSpaceOnUse" color-interpolation-filters="sRGB">
<feFlood flood-opacity="0" result="BackgroundImageFix"/>
<feColorMatrix in="SourceAlpha" type="matrix" values="0 0 0 0 0 0 0 0 0 0 0 0 0 0 0 0 0 0 127 0" result="hardAlpha"/>
<feOffset dx="5.71272" dy="5.71272"/>
<feGaussianBlur stdDeviation="5.71272"/>
<feComposite in2="hardAlpha" operator="out"/>
<feColorMatrix type="matrix" values="0 0 0 0 0.929167 0 0 0 0 0.929167 0 0 0 0 0.929167 0 0 0 1 0"/>
<feBlend mode="normal" in2="BackgroundImageFix" result="effect1_dropShadow_1130_6086"/>
<feColorMatrix in="SourceAlpha" type="matrix" values="0 0 0 0 0 0 0 0 0 0 0 0 0 0 0 0 0 0 127 0" result="hardAlpha"/>
<feOffset dx="-5.71272" dy="-5.71272"/>
<feGaussianBlur stdDeviation="5.71272"/>
<feComposite in2="hardAlpha" operator="out"/>
<feColorMatrix type="matrix" values="0 0 0 0 1 0 0 0 0 1 0 0 0 0 1 0 0 0 1 0"/>
<feBlend mode="normal" in2="effect1_dropShadow_1130_6086" result="effect2_dropShadow_1130_6086"/>
<feBlend mode="normal" in="SourceGraphic" in2="effect2_dropShadow_1130_6086" result="shape"/>
</filter>
</defs>
</svg>
