<svg width="20" height="20" viewBox="0 0 20 20" fill="none" xmlns="http://www.w3.org/2000/svg">
<path d="M4.15231 5.9975C5.15931 5.9975 5.97565 5.18116 5.97565 4.17416C5.97565 3.16716 5.15931 2.35083 4.15231 2.35083C3.14531 2.35083 2.32898 3.16716 2.32898 4.17416C2.32898 5.18116 3.14531 5.9975 4.15231 5.9975Z" fill="white"/>
<path d="M7.6975 7.37939V17.4952H10.8383V12.4927C10.8383 11.1727 11.0867 9.89439 12.7233 9.89439C14.3375 9.89439 14.3575 11.4036 14.3575 12.5761V17.4961H17.5V11.9486C17.5 9.22356 16.9133 7.12939 13.7283 7.12939C12.1992 7.12939 11.1742 7.96856 10.755 8.76273H10.7125V7.37939H7.6975ZM2.57916 7.37939H5.725V17.4952H2.57916V7.37939Z" fill="white"/>
</svg>
