<svg width="20" height="20" viewBox="0 0 20 20" fill="none" xmlns="http://www.w3.org/2000/svg">
<path d="M4.15145 5.9975C5.15845 5.9975 5.97479 5.18116 5.97479 4.17416C5.97479 3.16716 5.15845 2.35083 4.15145 2.35083C3.14445 2.35083 2.32812 3.16716 2.32812 4.17416C2.32812 5.18116 3.14445 5.9975 4.15145 5.9975Z" fill="white"/>
<path d="M7.69646 7.37939V17.4952H10.8373V12.4927C10.8373 11.1727 11.0856 9.89439 12.7223 9.89439C14.3364 9.89439 14.3564 11.4036 14.3564 12.5761V17.4961H17.4989V11.9486C17.4989 9.22356 16.9123 7.12939 13.7273 7.12939C12.1981 7.12939 11.1731 7.96856 10.7539 8.76273H10.7114V7.37939H7.69646ZM2.57812 7.37939H5.72395V17.4952H2.57812V7.37939Z" fill="white"/>
</svg>
