<svg width="20" height="20" viewBox="0 0 20 20" fill="none" xmlns="http://www.w3.org/2000/svg">
<path d="M4.15219 5.9975C5.15919 5.9975 5.97553 5.18116 5.97553 4.17416C5.97553 3.16716 5.15919 2.35083 4.15219 2.35083C3.14519 2.35083 2.32886 3.16716 2.32886 4.17416C2.32886 5.18116 3.14519 5.9975 4.15219 5.9975Z" fill="#0066A1"/>
<path d="M7.69743 7.37939V17.4952H10.8383V12.4927C10.8383 11.1727 11.0866 9.89439 12.7233 9.89439C14.3374 9.89439 14.3574 11.4036 14.3574 12.5761V17.4961H17.4999V11.9486C17.4999 9.22356 16.9133 7.12939 13.7283 7.12939C12.1991 7.12939 11.1741 7.96856 10.7549 8.76273H10.7124V7.37939H7.69743ZM2.5791 7.37939H5.72493V17.4952H2.5791V7.37939Z" fill="#0066A1"/>
</svg>
