<svg xmlns="http://www.w3.org/2000/svg" xmlns:xlink="http://www.w3.org/1999/xlink" width="124" height="124" viewBox="0 0 124 124"><defs><style>.a{fill:#12100e;}.b,.c,.d{fill:none;stroke-width:2px;}.b,.c{stroke:#f9f9f9;}.b{stroke-linejoin:bevel;}.c,.d{stroke-miterlimit:10;}.d{stroke:#4285f4;}.e{filter:url(#a);}</style><filter id="a" x="0" y="0" width="124" height="124" filterUnits="userSpaceOnUse"><feOffset dx="2" dy="2" input="SourceAlpha"/><feGaussianBlur stdDeviation="4" result="b"/><feFlood flood-color="#121212" flood-opacity="0.161"/><feComposite operator="in" in2="b"/><feComposite in="SourceGraphic"/></filter></defs><g transform="translate(10 10)"><g class="e" transform="matrix(1, 0, 0, 1, -10, -10)"><rect class="a" width="100" height="100" rx="8" transform="translate(10 10)"/></g><g transform="translate(28 26)"><path class="b" d="M35.488,9.747a5.747,5.747,0,1,0-10.882,2.581,4.61,4.61,0,0,0-2.249-.582,5.273,5.273,0,0,0-5,5.5,5.77,5.77,0,0,0,1.452,3.873,4.778,4.778,0,0,0-1.064-.125c-3.173,0-5.747,3.133-5.747,7s2.574,7,5.747,7a4.778,4.778,0,0,0,1.077-.125,5.77,5.77,0,0,0-1.452,3.873,5.273,5.273,0,0,0,5,5.5,4.61,4.61,0,0,0,2.249-.582,5.747,5.747,0,1,0,10.869,2.581v-.25h0V10h0Z" transform="translate(-12 -4)"/><path class="c" d="M67.26,164.858a5.748,5.748,0,1,0,8.128-8.128H72.167" transform="translate(-53.452 -118.567)"/><path class="c" d="M66.26,5.684a5.747,5.747,0,1,1,8.129,8.126H71.61" transform="translate(-52.702 -4)"/><path class="c" d="M63.43,95H57.183l-7.933,7.436" transform="translate(-39.942 -72.262)"/><line class="c" x2="4.368" y2="6.194" transform="translate(8.238 20.652)"/><line class="c" y1="4.165" x2="3.011" transform="translate(12.606 35.482)"/><path class="c" d="M62.45,37.49l2.136,3.376v5" transform="translate(-49.844 -29.122)"/><line class="c" x1="12" transform="translate(23 25)"/><path class="c" d="M107,131h6l3,5.415" transform="translate(-83.262 -99.266)"/><path class="c" d="M107,53.745h6l3-5.415" transform="translate(-83.262 -37.253)"/><circle class="d" cx="4" cy="4" r="4" transform="translate(36 20)"/><ellipse class="d" cx="4" cy="3.5" rx="4" ry="3.5" transform="translate(30 38)"/><ellipse class="d" cx="4" cy="3.5" rx="4" ry="3.5" transform="translate(30 3)"/></g></g></svg>