<svg width="480" height="320" viewBox="0 0 480 320" fill="none" xmlns="http://www.w3.org/2000/svg">
<g clip-path="url(#clip0_3004_7123)">
<rect width="480" height="320" fill="url(#paint0_linear_3004_7123)"/>
<g opacity="0.7">
<circle cx="230.036" cy="28.4114" r="0.850413" fill="#69BFDC"/>
<circle cx="80.5778" cy="134.501" r="1.48822" fill="#69BFDC"/>
<circle cx="176.035" cy="214.227" r="0.850413" fill="#69BFDC"/>
<circle cx="89.295" cy="205.298" r="0.850413" fill="#69BFDC"/>
<circle cx="64.6308" cy="172.131" r="1.70083" fill="#69BFDC"/>
<circle cx="48.0482" cy="186.588" r="0.850413" fill="#69BFDC"/>
<circle cx="355.838" cy="13.0927" r="1.48822" fill="#69BFDC"/>
<circle cx="335.906" cy="91.3416" r="0.850413" fill="#69BFDC"/>
<circle cx="152.649" cy="135.563" r="0.850413" fill="#69BFDC"/>
<circle cx="313.826" cy="96.0579" r="0.850413" fill="#69BFDC"/>
<circle cx="351.555" cy="69.262" r="0.850413" fill="#69BFDC"/>
<circle cx="337.614" cy="150.446" r="0.850413" fill="#69BFDC"/>
<circle cx="316.399" cy="202.169" r="0.850413" fill="#69BFDC"/>
<circle cx="307.395" cy="229.394" r="0.850413" fill="#69BFDC"/>
<circle cx="82.9166" cy="234.212" r="0.850413" fill="#69BFDC"/>
<circle cx="22.7481" cy="233.148" r="1.48822" fill="#69BFDC"/>
<circle cx="174.274" cy="81.4808" r="0.850413" fill="#69BFDC"/>
<circle cx="135.215" cy="50.9475" r="1.27562" fill="#69BFDC"/>
<circle cx="33.592" cy="126.209" r="0.850413" fill="#69BFDC"/>
<circle cx="113.532" cy="89.2156" r="1.27562" fill="#69BFDC"/>
<circle cx="111.406" cy="157.675" r="0.850413" fill="#69BFDC"/>
<circle cx="97.3737" cy="53.0736" r="0.850413" fill="#69BFDC"/>
<circle cx="58.2528" cy="89.6414" r="0.850413" fill="#69BFDC"/>
<circle cx="57.8275" cy="53.4984" r="0.425207" fill="#69BFDC"/>
<circle cx="0.425207" cy="75.184" r="0.425207" fill="#69BFDC"/>
<circle cx="35.9302" cy="24.372" r="1.48822" fill="#69BFDC"/>
<circle cx="350.623" cy="113.67" r="0.911099" fill="#69BFDC"/>
<circle cx="391.622" cy="78.1372" r="0.911099" fill="#69BFDC"/>
<circle cx="400.278" cy="157.402" r="0.911099" fill="#69BFDC"/>
<circle cx="302.335" cy="259.901" r="0.911099" fill="#69BFDC"/>
<circle cx="337.52" cy="220.29" r="1.8222" fill="#69BFDC"/>
<circle cx="478.178" cy="126.425" r="1.8222" fill="#69BFDC"/>
<circle cx="343.79" cy="265.823" r="0.911099" fill="#69BFDC"/>
<circle cx="358.141" cy="302.951" r="1.59442" fill="#69BFDC"/>
<circle cx="292.768" cy="312.745" r="0.911099" fill="#69BFDC"/>
<circle cx="199.837" cy="303.178" r="0.911099" fill="#69BFDC"/>
<circle cx="155.648" cy="283.134" r="0.911099" fill="#69BFDC"/>
<circle cx="322.059" cy="58.2016" r="1.36665" fill="#69BFDC"/>
<circle cx="302.351" cy="131.315" r="1.59442" fill="#69BFDC"/>
<circle cx="437.406" cy="80.6423" r="2.04997" fill="#69BFDC"/>
<circle cx="457.222" cy="201.135" r="0.911099" fill="#69BFDC"/>
<circle cx="407.567" cy="205.235" r="0.455549" fill="#69BFDC"/>
<circle cx="413.489" cy="260.357" r="1.36665" fill="#69BFDC"/>
<circle cx="425.789" cy="176.536" r="0.911099" fill="#69BFDC"/>
<circle cx="479.088" cy="178.358" r="0.911099" fill="#69BFDC"/>
<circle cx="465.877" cy="244.413" r="0.911099" fill="#69BFDC"/>
<circle cx="457.222" cy="312.745" r="0.911099" fill="#69BFDC"/>
<circle cx="140.16" cy="218.446" r="0.911099" fill="#69BFDC"/>
<circle cx="165.143" cy="38.6943" r="1.36665" fill="#69BFDC"/>
<circle cx="208.492" cy="140.092" r="0.911099" fill="#69BFDC"/>
<circle cx="162.758" cy="190.439" r="0.911099" fill="#69BFDC"/>
<circle cx="166.126" cy="140.547" r="0.455549" fill="#69BFDC"/>
<circle cx="104.627" cy="163.78" r="0.455549" fill="#69BFDC"/>
<path d="M144.259 109.342C144.259 110.223 143.545 110.936 142.664 110.936C141.784 110.936 141.07 110.223 141.07 109.342C141.07 108.461 141.784 107.748 142.664 107.748C143.545 107.748 144.259 108.461 144.259 109.342Z" fill="#69BFDC"/>
<circle cx="173.53" cy="249.23" r="0.750285" fill="#69BFDC"/>
<circle cx="185.214" cy="56.4072" r="0.428734" fill="#69BFDC"/>
<circle cx="204.184" cy="198.639" r="0.750285" fill="#69BFDC"/>
<circle cx="180.927" cy="114.929" r="0.428734" fill="#69BFDC"/>
</g>
<path d="M291.585 106.284C283.543 109.962 268.452 112.198 244.28 113.039C219.196 112.564 205.001 110.01 196.959 106.301C188.916 102.592 198.799 95.2768 219.22 92.0551C222.97 91.4675 226.053 89.3553 228.596 86.3055C238.701 90.0186 249.796 90.0166 259.9 86.3C262.444 89.3624 265.534 91.46 269.285 92.0463C289.748 95.2405 299.619 102.606 291.585 106.284Z" fill="url(#paint1_linear_3004_7123)"/>
<path d="M244.489 113.288L244.043 113.39L244.489 113.288Z" fill="#A3A3A3"/>
<path d="M271.897 118.683C268.611 119.507 260.01 123.408 251.702 141.551C249.86 144.762 246.879 146.719 243.661 146.275C240.449 146.734 237.46 144.778 235.625 141.554C227.526 123.846 219.139 119.718 215.678 118.761C220.151 119.792 244.676 124.855 271.897 118.683Z" fill="url(#paint2_linear_3004_7123)"/>
<path d="M244.036 114.064L244.482 113.963L244.036 114.064Z" fill="#A3A3A3"/>
<path d="M258.24 82.2235C259.01 83.3905 258.562 85.0332 257.222 85.4321C248.785 87.9434 239.798 87.9451 231.36 85.437C230.02 85.0386 229.572 83.3953 230.342 82.2278C233.124 78.0095 235.146 72.5685 236.637 66.8765C239.225 67.4601 241.87 67.7538 244.523 67.7522C247.018 67.7526 249.506 67.4875 251.944 66.9615C253.448 72.6201 255.471 78.028 258.24 82.2235Z" fill="url(#paint3_linear_3004_7123)"/>
<path d="M251.578 63.6874C251.757 64.4285 251.296 65.1778 250.545 65.3109C248.547 65.6653 246.522 65.8462 244.491 65.8513C242.3 65.8527 240.114 65.6525 237.96 65.2539C237.214 65.1158 236.758 64.3693 236.936 63.6316C238.024 59.1129 238.859 54.5365 239.435 49.9238C242.623 50.481 245.882 50.4804 249.069 49.9221C249.648 54.5542 250.485 59.1498 251.578 63.6874Z" fill="url(#paint4_linear_3004_7123)"/>
<path d="M248.987 47.2908C249.041 47.9415 248.624 48.5443 247.985 48.6768C245.516 49.1887 243.014 49.1891 240.545 48.6781C239.905 48.5458 239.488 47.9432 239.542 47.2926C240.103 40.4653 240.429 34.3762 240.645 29.868C243.042 30.4916 245.489 30.4912 247.884 29.8667C248.103 34.3745 248.424 40.4722 248.987 47.2908Z" fill="url(#paint5_linear_3004_7123)"/>
<path d="M247.88 28.7611C245.484 29.1663 243.038 29.1667 240.641 28.7624C240.83 26.2864 240.938 24.5526 241.045 23.9049C241.719 19.7692 244.256 19.8564 244.256 19.8564C244.256 19.8564 246.786 19.775 247.475 23.9038C247.583 24.5514 247.691 26.2852 247.88 28.7611Z" fill="url(#paint6_linear_3004_7123)"/>
<g opacity="0.3">
<path d="M301.369 321.055L301.776 319.855L304.03 320.99L303.623 322.157L301.369 321.055Z" fill="white"/>
<path d="M302.211 318.656L302.673 317.489L304.872 318.688L304.438 319.823L302.211 318.656Z" fill="white"/>
<path d="M303.134 316.289L303.596 315.122L305.768 316.386L305.307 317.521L303.134 316.289Z" fill="white"/>
<path d="M304.084 313.955L304.573 312.82L306.718 314.117L306.229 315.219L304.084 313.955Z" fill="white"/>
<path d="M305.089 311.653L305.578 310.519L307.669 311.848L307.18 312.982L305.089 311.653Z" fill="white"/>
<path d="M306.655 308.319L306.128 309.453L308.194 310.821L308.721 309.687L306.655 308.319Z" fill="white"/>
<path d="M307.696 305.884L307.154 307.008L309.177 308.4L309.719 307.276L307.696 305.884Z" fill="white"/>
<path d="M308.811 303.669L308.255 304.783L310.261 306.21L310.817 305.096L308.811 303.669Z" fill="white"/>
<path d="M309.948 301.471L309.38 302.576L311.346 304.019L311.915 302.914L309.948 301.471Z" fill="white"/>
<path d="M311.1 299.361L310.52 300.457L312.47 301.93L313.051 300.834L311.1 299.361Z" fill="white"/>
<path d="M312.27 297.033L311.678 298.121L313.591 299.605L314.182 298.517L312.27 297.033Z" fill="white"/>
<path d="M313.476 295.023L312.874 296.103L314.751 297.593L315.352 296.514L313.476 295.023Z" fill="white"/>
<path d="M314.077 293.952L314.675 292.85L316.548 294.373L315.951 295.443L314.077 293.952Z" fill="white"/>
<path d="M315.299 291.812L315.924 290.742L317.743 292.234L317.146 293.303L315.299 291.812Z" fill="white"/>
<path d="M316.548 289.672L317.173 288.635L318.965 290.159L318.368 291.196L316.548 289.672Z" fill="white"/>
<path d="M317.797 287.566L318.422 286.528L320.214 288.052L319.59 289.122L317.797 287.566Z" fill="white"/>
<path d="M319.074 285.49L319.698 284.453L321.463 285.976L320.839 287.014L319.074 285.49Z" fill="white"/>
<path d="M320.35 283.415L321.002 282.378L322.74 283.934L322.088 284.939L320.35 283.415Z" fill="white"/>
<path d="M321.653 281.341L322.305 280.303L324.015 281.859L323.364 282.897L321.653 281.341Z" fill="white"/>
<path d="M322.957 279.298L323.636 278.261L325.319 279.817L324.667 280.822L322.957 279.298Z" fill="white"/>
<path d="M324.288 277.255L324.966 276.218L326.623 277.774L325.971 278.779L324.288 277.255Z" fill="white"/>
<path d="M325.618 275.213L326.297 274.176L327.953 275.732L327.274 276.769L325.618 275.213Z" fill="white"/>
<path d="M326.976 273.171L327.655 272.166L329.284 273.722L328.605 274.727L326.976 273.171Z" fill="white"/>
<path d="M328.333 271.161L329.04 270.156L330.642 271.712L329.963 272.717L328.333 271.161Z" fill="white"/>
<path d="M329.718 269.15L330.397 268.178L331.972 269.701L331.293 270.706L329.718 269.15Z" fill="white"/>
<path d="M331.076 267.173L331.782 266.201L333.329 267.724L332.651 268.729L331.076 267.173Z" fill="white"/>
<path d="M332.461 265.195L333.167 264.222L334.715 265.746L334.009 266.751L332.461 265.195Z" fill="white"/>
<path d="M333.846 263.25L334.552 262.245L336.073 263.801L335.394 264.773L333.846 263.25Z" fill="white"/>
<path d="M335.258 261.273L335.964 260.3L337.458 261.824L336.779 262.797L335.258 261.273Z" fill="white"/>
<path d="M336.67 259.327L337.376 258.322L338.87 259.878L338.164 260.851L336.67 259.327Z" fill="white"/>
<path d="M338.081 257.35L338.787 256.377L340.254 257.901L339.548 258.873L338.081 257.35Z" fill="white"/>
<path d="M339.521 255.437L340.227 254.432L341.667 255.955L340.961 256.928L339.521 255.437Z" fill="white"/>
<path d="M340.961 253.492L341.667 252.519L343.106 254.043L342.4 254.983L340.961 253.492Z" fill="white"/>
<path d="M342.399 251.546L343.105 250.574L344.517 252.097L343.811 253.07L342.399 251.546Z" fill="white"/>
<path d="M343.839 249.634L344.572 248.661L345.957 250.152L345.251 251.125L343.839 249.634Z" fill="white"/>
<path d="M345.305 247.721L346.038 246.749L347.396 248.24L346.69 249.212L345.305 247.721Z" fill="white"/>
<path d="M346.771 245.809L347.504 244.836L348.862 246.327L348.129 247.3L346.771 245.809Z" fill="white"/>
<path d="M348.238 243.895L348.971 242.923L350.329 244.414L349.596 245.354L348.238 243.895Z" fill="white"/>
<path d="M349.704 241.983L350.437 241.043L351.767 242.502L351.034 243.474L349.704 241.983Z" fill="white"/>
<path d="M351.198 240.102L351.931 239.162L353.234 240.621L352.501 241.561L351.198 240.102Z" fill="white"/>
<path d="M352.664 238.222L353.397 237.282L354.701 238.741L353.968 239.681L352.664 238.222Z" fill="white"/>
<path d="M354.13 236.342L354.89 235.434L356.166 236.861L355.433 237.801L354.13 236.342Z" fill="white"/>
<path d="M355.624 234.494L356.357 233.554L357.633 235.013L356.9 235.953L355.624 234.494Z" fill="white"/>
<path d="M357.118 232.645L357.878 231.705L359.127 233.132L358.367 234.072L357.118 232.645Z" fill="white"/>
<path d="M358.611 230.765L359.371 229.857L360.593 231.283L359.86 232.191L358.611 230.765Z" fill="white"/>
<path d="M360.131 228.918L360.865 228.01L362.086 229.404L361.353 230.344L360.131 228.918Z" fill="white"/>
<path d="M361.625 227.069L362.386 226.162L363.58 227.556L362.847 228.496L361.625 227.069Z" fill="white"/>
<path d="M363.146 225.221L363.906 224.313L365.101 225.708L364.341 226.615L363.146 225.221Z" fill="white"/>
<path d="M364.666 223.374L365.426 222.466L366.621 223.86L365.861 224.768L364.666 223.374Z" fill="white"/>
<path d="M366.187 221.558L366.975 220.65L368.115 222.012L367.355 222.92L366.187 221.558Z" fill="white"/>
<path d="M367.734 219.71L368.494 218.803L369.635 220.164L368.875 221.072L367.734 219.71Z" fill="white"/>
<path d="M369.255 217.895L370.043 216.987L371.156 218.316L370.396 219.256L369.255 217.895Z" fill="white"/>
<path d="M370.803 216.047L371.563 215.139L372.704 216.501L371.916 217.409L370.803 216.047Z" fill="white"/>
<path d="M372.351 214.231L373.138 213.323L374.225 214.652L373.464 215.56L372.351 214.231Z" fill="white"/>
<path d="M373.899 212.416L374.686 211.508L375.772 212.837L374.985 213.745L373.899 212.416Z" fill="white"/>
<path d="M375.447 210.6L376.235 209.692L377.294 210.989L376.533 211.897L375.447 210.6Z" fill="white"/>
<path d="M376.995 208.785L377.782 207.91L378.841 209.206L378.081 210.082L376.995 208.785Z" fill="white"/>
<path d="M378.542 207.002L379.33 206.094L380.362 207.391L379.602 208.298L378.542 207.002Z" fill="white"/>
<path d="M380.118 205.218L380.905 204.311L381.91 205.575L381.149 206.483L380.118 205.218Z" fill="white"/>
<path d="M381.665 203.402L382.453 202.527L383.485 203.759L382.697 204.667L381.665 203.402Z" fill="white"/>
<path d="M383.24 201.619L384.028 200.711L385.032 201.976L384.245 202.851L383.24 201.619Z" fill="white"/>
<path d="M384.814 199.837L385.602 198.929L386.607 200.161L385.819 201.069L384.814 199.837Z" fill="white"/>
<path d="M386.39 198.054L387.178 197.146L388.155 198.378L387.368 199.253L386.39 198.054Z" fill="white"/>
<path d="M387.993 196.27L388.78 195.362L389.73 196.594L388.943 197.47L387.993 196.27Z" fill="white"/>
<path d="M389.567 194.487L390.354 193.58L391.305 194.779L390.517 195.687L389.567 194.487Z" fill="white"/>
<path d="M391.143 192.703L391.957 191.828L392.88 192.995L392.093 193.903L391.143 192.703Z" fill="white"/>
<path d="M392.744 190.922L393.532 190.046L394.455 191.246L393.667 192.121L392.744 190.922Z" fill="white"/>
<path d="M394.346 189.171L395.134 188.295L396.03 189.463L395.242 190.338L394.346 189.171Z" fill="white"/>
<path d="M395.949 187.42L396.736 186.544L397.632 187.679L396.818 188.587L395.949 187.42Z" fill="white"/>
<path d="M397.524 185.669L398.338 184.794L399.207 185.929L398.42 186.804L397.524 185.669Z" fill="white"/>
<path d="M399.126 183.918L399.941 183.043L400.81 184.145L400.022 185.021L399.126 183.918Z" fill="white"/>
<path d="M400.755 182.167L401.542 181.292L402.411 182.394L401.596 183.27L400.755 182.167Z" fill="white"/>
<path d="M402.357 180.417L403.172 179.542L404.013 180.644L403.199 181.52L402.357 180.417Z" fill="white"/>
<path d="M403.958 178.667L404.773 177.824L405.615 178.894L404.8 179.769L403.958 178.667Z" fill="white"/>
<path d="M405.588 176.949L406.403 176.073L407.217 177.143L406.403 178.018L405.588 176.949Z" fill="white"/>
<path d="M407.218 175.23L408.032 174.354L408.82 175.424L408.032 176.3L407.218 175.23Z" fill="white"/>
<path d="M408.847 173.479L409.662 172.636L410.422 173.674L409.635 174.549L408.847 173.479Z" fill="white"/>
<path d="M410.476 171.761L411.291 170.918L412.051 171.955L411.236 172.831L410.476 171.761Z" fill="white"/>
<path d="M412.105 170.075L412.919 169.2L413.68 170.237L412.865 171.08L412.105 170.075Z" fill="white"/>
<path d="M413.734 168.356L414.549 167.481L415.309 168.518L414.495 169.361L413.734 168.356Z" fill="white"/>
<path d="M415.364 166.638L416.179 165.795L416.912 166.8L416.097 167.643L415.364 166.638Z" fill="white"/>
<path d="M417.02 164.953L417.835 164.078L418.541 165.083L417.726 165.926L417.02 164.953Z" fill="white"/>
<path d="M418.65 163.235L419.491 162.392L420.197 163.365L419.383 164.24L418.65 163.235Z" fill="white"/>
<path d="M420.307 161.548L421.121 160.706L421.827 161.678L421.013 162.521L420.307 161.548Z" fill="white"/>
<path d="M421.964 159.863L422.778 159.02L423.457 159.96L422.642 160.803L421.964 159.863Z" fill="white"/>
<path d="M423.62 158.177L424.434 157.334L425.113 158.274L424.298 159.117L423.62 158.177Z" fill="white"/>
<path d="M425.276 156.491L426.09 155.681L426.769 156.588L425.927 157.431L425.276 156.491Z" fill="white"/>
<path d="M426.932 154.838L427.774 153.995L428.399 154.902L427.584 155.745L426.932 154.838Z" fill="white"/>
<path d="M428.589 153.151L429.43 152.341L430.055 153.216L429.24 154.059L428.589 153.151Z" fill="white"/>
<path d="M430.272 151.498L431.114 150.655L431.711 151.563L430.897 152.374L430.272 151.498Z" fill="white"/>
<path d="M431.928 149.845L432.77 149.002L433.394 149.877L432.553 150.72L431.928 149.845Z" fill="white"/>
<path d="M433.611 148.159L434.426 147.348L435.051 148.256L434.236 149.066L433.611 148.159Z" fill="white"/>
<path d="M435.268 146.506L436.11 145.663L436.735 146.603L435.893 147.413L435.268 146.506Z" fill="white"/>
<path d="M436.952 144.852L437.793 144.009L438.418 144.949L437.576 145.76L436.952 144.852Z" fill="white"/>
<path d="M438.636 143.198L439.45 142.388L440.102 143.328L439.26 144.138L438.636 143.198Z" fill="white"/>
<path d="M440.292 141.545L441.134 140.734L441.785 141.675L440.944 142.485L440.292 141.545Z" fill="white"/>
<path d="M441.975 139.924L442.817 139.081L443.469 140.054L442.627 140.864L441.975 139.924Z" fill="white"/>
<path d="M443.659 138.271L444.528 137.46L445.179 138.433L444.337 139.244L443.659 138.271Z" fill="white"/>
<path d="M445.37 136.65L446.212 135.807L446.864 136.812L446.022 137.622L445.37 136.65Z" fill="white"/>
<path d="M447.053 134.996L447.895 134.186L448.574 135.191L447.732 136.001L447.053 134.996Z" fill="white"/>
<path d="M448.763 133.375L449.605 132.564L450.284 133.602L449.415 134.38L448.763 133.375Z" fill="white"/>
<path d="M450.448 131.754L451.316 130.976L451.968 131.981L451.126 132.792L450.448 131.754Z" fill="white"/>
<path d="M452.158 130.165L453 129.355L453.679 130.392L452.837 131.171L452.158 130.165Z" fill="white"/>
<path d="M453.87 128.545L454.711 127.767L455.39 128.804L454.548 129.582L453.87 128.545Z" fill="white"/>
<path d="M455.58 126.956L456.422 126.146L457.128 127.215L456.259 127.993L455.58 126.956Z" fill="white"/>
<path d="M457.29 125.368L458.159 124.557L458.838 125.627L457.969 126.405L457.29 125.368Z" fill="white"/>
<path d="M459.002 123.746L459.871 122.968L460.577 124.038L459.708 124.849L459.002 123.746Z" fill="white"/>
<path d="M460.739 122.158L461.581 121.38L462.287 122.482L461.418 123.26L460.739 122.158Z" fill="white"/>
<path d="M462.45 120.602L463.319 119.792L464.025 120.926L463.156 121.704L462.45 120.602Z" fill="white"/>
<path d="M464.188 119.014L465.057 118.236L465.763 119.371L464.894 120.149L464.188 119.014Z" fill="white"/>
<path d="M465.899 117.458L466.768 116.68L467.501 117.814L466.632 118.592L465.899 117.458Z" fill="white"/>
<path d="M467.636 115.869L468.505 115.091L469.238 116.258L468.369 117.036L467.636 115.869Z" fill="white"/>
<path d="M469.374 114.313L470.243 113.535L470.976 114.702L470.107 115.48L469.374 114.313Z" fill="white"/>
<path d="M471.139 112.756L472.008 112.011L472.714 113.178L471.845 113.956L471.139 112.756Z" fill="white"/>
<path d="M472.878 111.233L473.747 110.455L474.48 111.655L473.611 112.4L472.878 111.233Z" fill="white"/>
<path d="M474.615 109.677L475.484 108.899L476.244 110.098L475.348 110.877L474.615 109.677Z" fill="white"/>
<path d="M476.38 108.153L477.249 107.375L477.983 108.575L477.114 109.353L476.38 108.153Z" fill="white"/>
<path d="M478.118 106.596L479.015 105.851L479.748 107.083L478.879 107.828L478.118 106.596Z" fill="white"/>
<path d="M479.884 105.073L480.78 104.327L481.513 105.559L480.644 106.305L479.884 105.073Z" fill="white"/>
<path d="M481.376 260.656L480.507 261.435L479.72 260.138L480.589 259.392L481.376 260.656Z" fill="white"/>
<path d="M479.639 262.18L478.77 262.958L477.983 261.662L478.852 260.916L479.639 262.18Z" fill="white"/>
<path d="M477.901 263.736L477.032 264.514L476.218 263.185L477.086 262.439L477.901 263.736Z" fill="white"/>
<path d="M476.163 265.292L475.267 266.038L474.452 264.709L475.321 263.963L476.163 265.292Z" fill="white"/>
<path d="M474.398 266.817L473.529 267.595L472.687 266.233L473.583 265.455L474.398 266.817Z" fill="white"/>
<path d="M472.633 268.341L471.764 269.119L470.923 267.725L471.819 266.979L472.633 268.341Z" fill="white"/>
<path d="M470.894 269.864L469.998 270.642L469.156 269.215L470.052 268.47L470.894 269.864Z" fill="white"/>
<path d="M469.13 271.388L468.234 272.166L467.392 270.739L468.288 269.994L469.13 271.388Z" fill="white"/>
<path d="M467.365 272.911L466.497 273.689L465.628 272.231L466.497 271.485L467.365 272.911Z" fill="white"/>
<path d="M465.6 274.435L464.704 275.181L463.835 273.722L464.731 272.976L465.6 274.435Z" fill="white"/>
<path d="M463.836 275.926L462.94 276.704L462.071 275.181L462.94 274.435L463.836 275.926Z" fill="white"/>
<path d="M462.069 277.451L461.173 278.196L460.277 276.672L461.173 275.927L462.069 277.451Z" fill="white"/>
<path d="M460.278 278.942L459.409 279.687L458.485 278.131L459.382 277.418L460.278 278.942Z" fill="white"/>
<path d="M458.512 280.433L457.616 281.178L456.72 279.622L457.589 278.876L458.512 280.433Z" fill="white"/>
<path d="M456.721 281.924L455.825 282.669L454.928 281.081L455.825 280.368L456.721 281.924Z" fill="white"/>
<path d="M454.955 283.415L454.059 284.161L453.136 282.54L454.032 281.827L454.955 283.415Z" fill="white"/>
<path d="M453.164 284.907L452.267 285.62L451.344 283.999L452.24 283.286L453.164 284.907Z" fill="white"/>
<path d="M451.371 286.366L450.475 287.112L449.524 285.458L450.448 284.712L451.371 286.366Z" fill="white"/>
<path d="M449.579 287.857L448.683 288.57L447.733 286.884L448.629 286.171L449.579 287.857Z" fill="white"/>
<path d="M447.787 289.316L446.89 290.029L445.94 288.344L446.836 287.63L447.787 289.316Z" fill="white"/>
<path d="M445.995 290.774L445.099 291.488L444.121 289.769L445.017 289.056L445.995 290.774Z" fill="white"/>
<path d="M444.202 292.234L443.279 292.947L442.301 291.197L443.224 290.483L444.202 292.234Z" fill="white"/>
<path d="M442.382 293.66L441.486 294.406L440.509 292.623L441.405 291.91L442.382 293.66Z" fill="white"/>
<path d="M440.59 295.119L439.667 295.832L438.69 294.049L439.586 293.336L440.59 295.119Z" fill="white"/>
<path d="M438.771 296.545L437.875 297.259L436.871 295.475L437.794 294.762L438.771 296.545Z" fill="white"/>
<path d="M436.952 298.005L436.056 298.718L435.052 296.87L435.948 296.157L436.952 298.005Z" fill="white"/>
<path d="M435.133 299.431L434.236 300.112L433.232 298.264L434.128 297.583L435.133 299.431Z" fill="white"/>
<path d="M433.313 300.825L432.417 301.538L431.385 299.658L432.309 298.977L433.313 300.825Z" fill="white"/>
<path d="M431.493 302.251L430.597 302.964L429.565 301.051L430.489 300.371L431.493 302.251Z" fill="white"/>
<path d="M429.674 303.678L428.751 304.359L427.719 302.446L428.642 301.733L429.674 303.678Z" fill="white"/>
<path d="M427.855 305.072L426.932 305.785L425.9 303.808L426.823 303.127L427.855 305.072Z" fill="white"/>
<path d="M426.008 306.466L425.085 307.179L424.053 305.202L424.976 304.488L426.008 306.466Z" fill="white"/>
<path d="M424.163 307.86L423.267 308.541L422.208 306.564L423.131 305.883L424.163 307.86Z" fill="white"/>
<path d="M422.343 309.254L421.419 309.935L420.36 307.925L421.284 307.211L422.343 309.254Z" fill="white"/>
<path d="M420.497 310.616L419.574 311.297L418.515 309.254L419.438 308.573L420.497 310.616Z" fill="white"/>
<path d="M418.649 311.978L417.726 312.658L416.667 310.616L417.59 309.935L418.649 311.978Z" fill="white"/>
<path d="M416.776 313.339L415.852 314.02L414.821 311.945L415.744 311.297L416.776 313.339Z" fill="white"/>
<path d="M414.929 314.7L414.006 315.381L412.947 313.274L413.87 312.625L414.929 314.7Z" fill="white"/>
<path d="M413.056 316.063L412.132 316.711L411.073 314.604L412.024 313.956L413.056 316.063Z" fill="white"/>
<path d="M411.209 317.391L410.259 318.04L409.227 315.933L410.15 315.284L411.209 317.391Z" fill="white"/>
<path d="M409.336 318.721L408.385 319.369L407.353 317.229L408.277 316.581L409.336 318.721Z" fill="white"/>
<path d="M407.461 320.05L406.511 320.698L405.479 318.559L406.402 317.91L407.461 320.05Z" fill="white"/>
<path d="M405.589 321.346L404.639 321.995L403.607 319.823L404.53 319.174L405.589 321.346Z" fill="white"/>
<path d="M438.255 279.72C433.911 277.45 399.424 258.452 390.165 212.967C378.977 157.853 415.69 117.555 418.378 114.734C446.728 84.6486 487.541 81.666 518.497 99.2052C550.377 117.296 562.841 152.115 565.801 161.095L438.255 279.72Z" fill="url(#paint7_linear_3004_7123)"/>
<path d="M145.908 140.67C145.908 139.859 135.508 131.301 145.908 117.781C155.385 109.774 163.45 121.899 163.45 121.899L145.908 140.67Z" fill="url(#paint8_linear_3004_7123)"/>
<path d="M506.767 190.888C506.767 190.888 535.198 167.708 518.905 160.673C502.612 153.638 504.35 157.788 497.752 164.401C491.153 171.015 466.198 171.858 459.735 177.369C453.272 182.881 447.597 192.672 444.827 191.018C442.058 189.365 446.565 184.534 441.352 181.908C438.826 180.801 436.391 179.423 434.074 177.791C434.074 177.791 445.506 177.467 446.212 184.08C449.688 182.621 459.627 171.307 459.627 171.307C458.571 169.205 457.41 167.18 456.151 165.244C455.227 164.11 436.491 153.087 434.074 150.039C431.657 146.992 434.074 146.181 434.074 146.181C434.074 146.181 446.891 162.197 459.165 158.339C471.439 154.481 472.335 153.087 472.335 153.087L469.076 149.229C466.763 147.687 464.379 146.301 461.935 145.079C461.229 145.079 469.076 146.181 474.86 146.732C480.644 147.284 482.735 145.63 481.106 140.67C479.477 135.71 479.015 115.836 475.675 122.742C472.335 129.647 469.429 130.749 469.429 130.749C469.429 130.749 473.367 114.734 470.597 106.175C467.827 97.6161 478.743 103.419 480.047 109.774C481.35 116.128 486.292 126.6 492.321 125.757C498.349 124.914 494.384 119.273 490.691 113.372C486.998 107.472 482.925 93.5312 486.998 95.1522C491.072 96.7732 496.475 96.8056 496.475 102.058C496.475 107.31 506.468 109.093 514.615 111.978C522.761 114.864 527.622 115.479 531.586 119.856C535.551 124.233 543.208 126.664 545.815 136.812C548.422 146.959 546.684 151.92 546.684 151.92C546.684 151.92 546.168 167.449 542.34 173.835C538.511 180.222 536.203 181.162 536.203 181.162C536.203 181.162 543.996 167.935 542.095 153.443C540.194 138.952 532.401 149.521 531.532 160.284C530.663 171.047 529.468 180.676 506.767 190.888Z" fill="#626866"/>
<path d="M441.812 190.888C442.084 190.888 445.397 181.973 436.11 182.394C432.906 182.751 432.526 199.836 445.641 196.821C442.817 195.297 438.011 192.185 441.812 190.888Z" fill="#AEBDBA"/>
<path d="M430.924 223.633C430.408 224.249 429.023 224.963 430.924 226.616C432.825 228.269 434.237 226.324 434.916 227.329C435.594 228.334 434.182 229.112 434.237 230.344C434.291 231.576 434.698 234.494 434.237 234.364C433.395 234.312 432.552 234.312 431.711 234.364C431.711 234.364 434.427 238.806 434.671 239.195C434.916 239.584 424.352 232.711 425.031 231.414C425.71 230.117 432.064 234.656 430.462 231.414C428.86 228.172 425.276 224.606 427.367 222.045C429.266 218.847 431.966 216.452 435.078 215.204C439.586 213.453 440.509 213.453 441.215 215.204C441.921 216.955 448.683 217.992 455.01 215.626C461.337 213.259 453.354 219.03 462.885 219.354C472.416 219.678 468.614 222.855 476.055 222.239C483.495 221.623 483.332 224.93 472.769 224.509C462.206 224.087 430.924 223.633 430.924 223.633Z" fill="#636A68"/>
<path d="M463.292 139.763C461.873 140.006 460.548 140.755 459.492 141.912C458.436 143.069 457.697 144.58 457.372 146.247C459.232 143.942 461.209 141.777 463.292 139.763Z" fill="#62726E"/>
<path d="M405.073 153.086C403.688 152.73 410.232 153.086 413.518 151.076C416.804 149.066 417.727 145.306 419.248 146.667C420.768 148.029 421.664 149.099 420.904 150.136C420.144 151.174 416.125 155.842 405.073 153.086Z" fill="#8C9F9A"/>
<path d="M145.909 137.915C146.554 137.915 147.077 137.29 147.077 136.521C147.077 135.751 146.554 135.126 145.909 135.126C145.264 135.126 144.741 135.751 144.741 136.521C144.741 137.29 145.264 137.915 145.909 137.915Z" fill="#9CA29E"/>
</g>
<path d="M97.0962 204.81C97.0962 207.587 97.6088 210.214 98.6341 212.692C99.702 215.127 101.133 217.263 102.927 219.1C104.764 220.894 106.922 222.325 109.399 223.393C111.877 224.461 114.547 224.995 117.409 224.995C120.229 224.995 122.877 224.461 125.355 223.393C127.833 222.325 129.969 220.894 131.763 219.1C133.6 217.263 135.052 215.127 136.12 212.692C137.188 210.214 137.722 207.587 137.722 204.81C137.722 202.033 137.188 199.427 136.12 196.992C135.052 194.515 133.6 192.379 131.763 190.584C129.969 188.748 127.833 187.295 125.355 186.227C122.877 185.159 120.229 184.625 117.409 184.625C114.547 184.625 111.877 185.159 109.399 186.227C106.922 187.295 104.764 188.748 102.927 190.584C101.133 192.379 99.702 194.515 98.6341 196.992C97.6088 199.427 97.0962 202.033 97.0962 204.81ZM103.953 204.874C103.953 203.08 104.294 201.371 104.978 199.748C105.704 198.124 106.687 196.693 107.926 195.455C109.164 194.216 110.595 193.233 112.219 192.507C113.842 191.781 115.594 191.418 117.473 191.418C119.268 191.418 120.976 191.781 122.6 192.507C124.266 193.233 125.718 194.216 126.957 195.455C128.196 196.693 129.178 198.124 129.905 199.748C130.631 201.371 130.994 203.08 130.994 204.874C130.994 206.668 130.631 208.377 129.905 210C129.178 211.624 128.175 213.055 126.893 214.294C125.654 215.49 124.202 216.451 122.536 217.177C120.912 217.861 119.203 218.203 117.409 218.203C115.572 218.203 113.821 217.861 112.155 217.177C110.531 216.451 109.1 215.49 107.861 214.294C106.665 213.055 105.704 211.624 104.978 210C104.294 208.377 103.953 206.668 103.953 204.874ZM144.986 224.803H161.903C164.38 224.803 166.815 224.29 169.208 223.265C171.643 222.24 173.8 220.83 175.68 219.036C177.559 217.241 179.076 215.148 180.229 212.756C181.383 210.321 181.959 207.715 181.959 204.938C181.959 202.161 181.425 199.556 180.357 197.121C179.332 194.686 177.901 192.55 176.064 190.713C174.227 188.876 172.091 187.445 169.656 186.419C167.221 185.351 164.594 184.817 161.774 184.817H144.986V224.803ZM161.839 191.482C163.633 191.482 165.342 191.845 166.965 192.571C168.588 193.297 169.998 194.301 171.194 195.583C172.433 196.822 173.416 198.253 174.142 199.876C174.868 201.499 175.231 203.208 175.231 205.002C175.231 206.797 174.847 208.484 174.078 210.065C173.309 211.645 172.283 213.055 171.002 214.294C169.72 215.49 168.268 216.451 166.645 217.177C165.064 217.861 163.441 218.203 161.774 218.203H151.842V191.482H161.839ZM198.45 224.803H205.499V210.577L222.928 184.817H214.406L201.846 202.952L189.671 184.817H181.149L198.45 210.898V224.803ZM225.713 218.267V224.803H249.743C251.153 224.803 252.498 224.525 253.78 223.97C255.062 223.414 256.172 222.624 257.112 221.599C258.095 220.574 258.864 219.356 259.419 217.946C259.974 216.494 260.252 214.892 260.252 213.14C260.252 211.56 259.932 210.065 259.291 208.655C258.65 207.245 257.796 206.006 256.728 204.938C255.66 203.87 254.399 203.037 252.947 202.439C251.537 201.798 250.042 201.478 248.461 201.478V208.078C250.128 208.42 251.324 209.039 252.05 209.936C252.819 210.791 253.203 211.859 253.203 213.14C253.203 214.636 252.798 215.874 251.986 216.857C251.174 217.797 249.893 218.267 248.141 218.267H225.713ZM259.611 191.353V184.817H235.518C234.065 184.817 232.698 185.095 231.416 185.65C230.178 186.206 229.088 186.996 228.148 188.021C227.209 189.047 226.461 190.285 225.906 191.738C225.35 193.148 225.073 194.728 225.073 196.48C225.073 198.06 225.372 199.556 225.97 200.965C226.611 202.375 227.465 203.614 228.533 204.682C229.601 205.75 230.84 206.604 232.249 207.245C233.659 207.843 235.176 208.142 236.799 208.142V201.606C235.133 201.264 233.916 200.666 233.147 199.812C232.42 198.915 232.057 197.804 232.057 196.48C232.057 195.027 232.463 193.81 233.275 192.827C234.086 191.845 235.347 191.353 237.055 191.353H259.611ZM267.014 218.267V224.803H291.044C292.454 224.803 293.799 224.525 295.081 223.97C296.363 223.414 297.473 222.624 298.413 221.599C299.396 220.574 300.165 219.356 300.72 217.946C301.275 216.494 301.553 214.892 301.553 213.14C301.553 211.56 301.233 210.065 300.592 208.655C299.951 207.245 299.097 206.006 298.029 204.938C296.961 203.87 295.7 203.037 294.248 202.439C292.838 201.798 291.343 201.478 289.762 201.478V208.078C291.429 208.42 292.625 209.039 293.351 209.936C294.12 210.791 294.504 211.859 294.504 213.14C294.504 214.636 294.098 215.874 293.287 216.857C292.475 217.797 291.194 218.267 289.442 218.267H267.014ZM300.912 191.353V184.817H276.818C275.366 184.817 273.999 185.095 272.717 185.65C271.479 186.206 270.389 186.996 269.449 188.021C268.51 189.047 267.762 190.285 267.207 191.738C266.651 193.148 266.374 194.728 266.374 196.48C266.374 198.06 266.673 199.556 267.271 200.965C267.912 202.375 268.766 203.614 269.834 204.682C270.902 205.75 272.141 206.604 273.55 207.245C274.96 207.843 276.477 208.142 278.1 208.142V201.606C276.434 201.264 275.217 200.666 274.448 199.812C273.721 198.915 273.358 197.804 273.358 196.48C273.358 195.027 273.764 193.81 274.576 192.827C275.387 191.845 276.648 191.353 278.356 191.353H300.912ZM338.988 202.567V209.103H318.739V202.567H338.988ZM308.935 224.803V184.817H339.373V191.353H315.792V218.267H339.373V224.803H308.935ZM361.714 224.803H368.763V210.577L386.192 184.817H377.67L365.11 202.952L352.935 184.817H344.413L361.714 210.898V224.803Z" fill="white"/>
<path d="M153.708 253.547H159.159V254.605H152.586V243.382H159.079V244.44H153.708V248.417H158.678V249.475H153.708V253.547ZM167.661 254.605H166.395L163.894 251.303L161.392 254.605H160.126L163.268 250.453L160.334 246.589H161.601L163.894 249.619L166.186 246.589H167.453L164.535 250.453L167.661 254.605ZM173.398 246.396C174.541 246.396 175.514 246.803 176.316 247.615C177.128 248.427 177.534 249.421 177.534 250.597C177.534 251.773 177.128 252.767 176.316 253.579C175.514 254.392 174.541 254.798 173.398 254.798C171.976 254.798 170.896 254.21 170.159 253.034V257.812H169.101V246.589H170.159V248.16C170.896 246.984 171.976 246.396 173.398 246.396ZM171.073 252.858C171.682 253.467 172.43 253.772 173.317 253.772C174.205 253.772 174.953 253.467 175.562 252.858C176.171 252.238 176.476 251.484 176.476 250.597C176.476 249.71 176.171 248.962 175.562 248.352C174.953 247.732 174.205 247.422 173.317 247.422C172.43 247.422 171.682 247.732 171.073 248.352C170.463 248.962 170.159 249.71 170.159 250.597C170.159 251.484 170.463 252.238 171.073 252.858ZM179.294 254.605V242.901H180.352V254.605H179.294ZM189.316 253.595C188.503 254.397 187.509 254.798 186.333 254.798C185.158 254.798 184.158 254.397 183.335 253.595C182.523 252.783 182.117 251.784 182.117 250.597C182.117 249.411 182.523 248.417 183.335 247.615C184.158 246.803 185.158 246.396 186.333 246.396C187.509 246.396 188.503 246.803 189.316 247.615C190.139 248.417 190.55 249.411 190.55 250.597C190.55 251.784 190.139 252.783 189.316 253.595ZM184.089 252.858C184.698 253.467 185.446 253.772 186.333 253.772C187.221 253.772 187.969 253.467 188.578 252.858C189.187 252.238 189.492 251.484 189.492 250.597C189.492 249.71 189.187 248.962 188.578 248.352C187.969 247.732 187.221 247.422 186.333 247.422C185.446 247.422 184.698 247.732 184.089 248.352C183.479 248.962 183.175 249.71 183.175 250.597C183.175 251.484 183.479 252.238 184.089 252.858ZM193.379 247.92C193.871 246.947 194.715 246.46 195.912 246.46V247.487C195.186 247.487 194.582 247.7 194.101 248.128C193.62 248.556 193.379 249.229 193.379 250.148V254.605H192.321V246.589H193.379V247.92ZM200.581 246.396C201.768 246.396 202.724 246.819 203.451 247.663C204.189 248.497 204.557 249.485 204.557 250.629C204.557 250.747 204.547 250.912 204.525 251.126H197.487C197.594 251.939 197.936 252.585 198.513 253.066C199.101 253.537 199.822 253.772 200.677 253.772C201.287 253.772 201.81 253.649 202.249 253.403C202.698 253.146 203.034 252.815 203.259 252.409L204.189 252.954C203.836 253.521 203.355 253.969 202.746 254.301C202.136 254.632 201.442 254.798 200.661 254.798C199.4 254.798 198.374 254.402 197.583 253.611C196.792 252.82 196.396 251.816 196.396 250.597C196.396 249.4 196.787 248.401 197.567 247.599C198.347 246.797 199.352 246.396 200.581 246.396ZM200.581 247.422C199.747 247.422 199.047 247.674 198.481 248.176C197.925 248.668 197.594 249.309 197.487 250.1H203.467C203.36 249.256 203.034 248.598 202.489 248.128C201.944 247.658 201.308 247.422 200.581 247.422ZM212.013 253.243L211.051 256.85H210.089L210.73 253.243H212.013ZM218.27 243.382H219.392V254.605H218.27V243.382ZM228.699 243.382H229.757V254.605H228.699V253.034C227.961 254.21 226.882 254.798 225.46 254.798C224.316 254.798 223.338 254.392 222.526 253.579C221.724 252.767 221.323 251.773 221.323 250.597C221.323 249.421 221.724 248.427 222.526 247.615C223.338 246.803 224.316 246.396 225.46 246.396C226.882 246.396 227.961 246.984 228.699 248.16V243.382ZM223.296 252.858C223.905 253.467 224.653 253.772 225.54 253.772C226.427 253.772 227.176 253.467 227.785 252.858C228.394 252.238 228.699 251.484 228.699 250.597C228.699 249.71 228.394 248.962 227.785 248.352C227.176 247.732 226.427 247.422 225.54 247.422C224.653 247.422 223.905 247.732 223.296 248.352C222.686 248.962 222.382 249.71 222.382 250.597C222.382 251.484 222.686 252.238 223.296 252.858ZM235.701 246.396C236.888 246.396 237.844 246.819 238.571 247.663C239.309 248.497 239.678 249.485 239.678 250.629C239.678 250.747 239.667 250.912 239.646 251.126H232.607C232.714 251.939 233.056 252.585 233.633 253.066C234.221 253.537 234.942 253.772 235.798 253.772C236.407 253.772 236.931 253.649 237.369 253.403C237.818 253.146 238.154 252.815 238.379 252.409L239.309 252.954C238.956 253.521 238.475 253.969 237.866 254.301C237.257 254.632 236.562 254.798 235.781 254.798C234.52 254.798 233.494 254.402 232.703 253.611C231.912 252.82 231.517 251.816 231.517 250.597C231.517 249.4 231.907 248.401 232.687 247.599C233.467 246.797 234.472 246.396 235.701 246.396ZM235.701 247.422C234.868 247.422 234.167 247.674 233.601 248.176C233.045 248.668 232.714 249.309 232.607 250.1H238.587C238.48 249.256 238.154 248.598 237.609 248.128C237.064 247.658 236.428 247.422 235.701 247.422ZM248.255 246.589H249.313V254.605H248.255V253.034C247.518 254.21 246.438 254.798 245.017 254.798C243.873 254.798 242.895 254.392 242.082 253.579C241.281 252.767 240.88 251.773 240.88 250.597C240.88 249.421 241.281 248.427 242.082 247.615C242.895 246.803 243.873 246.396 245.017 246.396C246.438 246.396 247.518 246.984 248.255 248.16V246.589ZM242.852 252.858C243.461 253.467 244.209 253.772 245.097 253.772C245.984 253.772 246.732 253.467 247.341 252.858C247.951 252.238 248.255 251.484 248.255 250.597C248.255 249.71 247.951 248.962 247.341 248.352C246.732 247.732 245.984 247.422 245.097 247.422C244.209 247.422 243.461 247.732 242.852 248.352C242.243 248.962 241.938 249.71 241.938 250.597C241.938 251.484 242.243 252.238 242.852 252.858ZM255.803 247.615H253.494V252.473C253.494 252.911 253.58 253.227 253.751 253.419C253.922 253.601 254.178 253.697 254.52 253.708C254.862 253.708 255.29 253.697 255.803 253.676V254.605C254.681 254.776 253.836 254.696 253.27 254.365C252.714 254.034 252.436 253.403 252.436 252.473V247.615H250.752V246.589H252.436V244.665L253.494 244.344V246.589H255.803V247.615ZM260.785 246.396C261.971 246.396 262.928 246.819 263.655 247.663C264.392 248.497 264.761 249.485 264.761 250.629C264.761 250.747 264.751 250.912 264.729 251.126H257.69C257.797 251.939 258.139 252.585 258.717 253.066C259.305 253.537 260.026 253.772 260.881 253.772C261.49 253.772 262.014 253.649 262.452 253.403C262.901 253.146 263.238 252.815 263.463 252.409L264.392 252.954C264.04 253.521 263.559 253.969 262.949 254.301C262.34 254.632 261.645 254.798 260.865 254.798C259.604 254.798 258.578 254.402 257.787 253.611C256.996 252.82 256.6 251.816 256.6 250.597C256.6 249.4 256.99 248.401 257.771 247.599C258.551 246.797 259.556 246.396 260.785 246.396ZM260.785 247.422C259.951 247.422 259.251 247.674 258.685 248.176C258.129 248.668 257.797 249.309 257.69 250.1H263.671C263.564 249.256 263.238 248.598 262.693 248.128C262.148 247.658 261.512 247.422 260.785 247.422ZM272.217 253.243L271.255 256.85H270.293L270.934 253.243H272.217ZM283.716 254.798C282.017 254.798 280.611 254.237 279.5 253.114C278.388 251.992 277.832 250.618 277.832 248.994C277.832 247.369 278.388 245.995 279.5 244.873C280.611 243.751 282.017 243.19 283.716 243.19C284.753 243.19 285.704 243.441 286.57 243.943C287.436 244.435 288.104 245.103 288.574 245.947L287.58 246.525C287.228 245.841 286.704 245.295 286.009 244.889C285.314 244.483 284.55 244.28 283.716 244.28C282.316 244.28 281.172 244.734 280.285 245.643C279.398 246.551 278.954 247.668 278.954 248.994C278.954 250.319 279.398 251.436 280.285 252.345C281.172 253.253 282.316 253.708 283.716 253.708C284.55 253.708 285.314 253.505 286.009 253.098C286.704 252.692 287.228 252.147 287.58 251.463L288.574 252.024C288.115 252.869 287.447 253.542 286.57 254.044C285.704 254.547 284.753 254.798 283.716 254.798ZM291.318 247.92C291.81 246.947 292.654 246.46 293.851 246.46V247.487C293.124 247.487 292.521 247.7 292.04 248.128C291.559 248.556 291.318 249.229 291.318 250.148V254.605H290.26V246.589H291.318V247.92ZM298.52 246.396C299.706 246.396 300.663 246.819 301.39 247.663C302.128 248.497 302.496 249.485 302.496 250.629C302.496 250.747 302.486 250.912 302.464 251.126H295.426C295.532 251.939 295.874 252.585 296.452 253.066C297.04 253.537 297.761 253.772 298.616 253.772C299.225 253.772 299.749 253.649 300.187 253.403C300.636 253.146 300.973 252.815 301.198 252.409L302.128 252.954C301.775 253.521 301.294 253.969 300.684 254.301C300.075 254.632 299.38 254.798 298.6 254.798C297.339 254.798 296.313 254.402 295.522 253.611C294.731 252.82 294.335 251.816 294.335 250.597C294.335 249.4 294.725 248.401 295.506 247.599C296.286 246.797 297.291 246.396 298.52 246.396ZM298.52 247.422C297.686 247.422 296.986 247.674 296.42 248.176C295.864 248.668 295.532 249.309 295.426 250.1H301.406C301.299 249.256 300.973 248.598 300.428 248.128C299.883 247.658 299.247 247.422 298.52 247.422ZM311.074 246.589H312.132V254.605H311.074V253.034C310.336 254.21 309.257 254.798 307.835 254.798C306.691 254.798 305.713 254.392 304.901 253.579C304.099 252.767 303.699 251.773 303.699 250.597C303.699 249.421 304.099 248.427 304.901 247.615C305.713 246.803 306.691 246.396 307.835 246.396C309.257 246.396 310.336 246.984 311.074 248.16V246.589ZM305.671 252.858C306.28 253.467 307.028 253.772 307.915 253.772C308.803 253.772 309.551 253.467 310.16 252.858C310.769 252.238 311.074 251.484 311.074 250.597C311.074 249.71 310.769 248.962 310.16 248.352C309.551 247.732 308.803 247.422 307.915 247.422C307.028 247.422 306.28 247.732 305.671 248.352C305.061 248.962 304.757 249.71 304.757 250.597C304.757 251.484 305.061 252.238 305.671 252.858ZM318.622 247.615H316.313V252.473C316.313 252.911 316.398 253.227 316.569 253.419C316.74 253.601 316.997 253.697 317.339 253.708C317.681 253.708 318.108 253.697 318.622 253.676V254.605C317.499 254.776 316.655 254.696 316.088 254.365C315.532 254.034 315.255 253.403 315.255 252.473V247.615H313.571V246.589H315.255V244.665L316.313 244.344V246.589H318.622V247.615ZM323.604 246.396C324.79 246.396 325.747 246.819 326.474 247.663C327.211 248.497 327.58 249.485 327.58 250.629C327.58 250.747 327.569 250.912 327.548 251.126H320.509C320.616 251.939 320.958 252.585 321.535 253.066C322.123 253.537 322.845 253.772 323.7 253.772C324.309 253.772 324.833 253.649 325.271 253.403C325.72 253.146 326.057 252.815 326.281 252.409L327.211 252.954C326.858 253.521 326.377 253.969 325.768 254.301C325.159 254.632 324.464 254.798 323.684 254.798C322.422 254.798 321.396 254.402 320.605 253.611C319.814 252.82 319.419 251.816 319.419 250.597C319.419 249.4 319.809 248.401 320.589 247.599C321.37 246.797 322.374 246.396 323.604 246.396ZM323.604 247.422C322.77 247.422 322.07 247.674 321.503 248.176C320.947 248.668 320.616 249.309 320.509 250.1H326.49C326.383 249.256 326.057 248.598 325.512 248.128C324.966 247.658 324.33 247.422 323.604 247.422Z" fill="white"/>
</g>
<defs>
<linearGradient id="paint0_linear_3004_7123" x1="0" y1="0" x2="480" y2="320" gradientUnits="userSpaceOnUse">
<stop stop-color="#810A65"/>
<stop offset="0.645833" stop-color="#450867"/>
</linearGradient>
<linearGradient id="paint1_linear_3004_7123" x1="244.267" y1="86.3027" x2="244.272" y2="113.039" gradientUnits="userSpaceOnUse">
<stop stop-color="#00F1FB"/>
<stop offset="1" stop-color="#6E128E"/>
</linearGradient>
<linearGradient id="paint2_linear_3004_7123" x1="243.787" y1="118.688" x2="243.792" y2="146.341" gradientUnits="userSpaceOnUse">
<stop stop-color="#00F1FB"/>
<stop offset="1" stop-color="#6E128E"/>
</linearGradient>
<linearGradient id="paint3_linear_3004_7123" x1="244.287" y1="66.8752" x2="244.291" y2="87.3168" gradientUnits="userSpaceOnUse">
<stop stop-color="#00F1FB"/>
<stop offset="1" stop-color="#6E128E"/>
</linearGradient>
<linearGradient id="paint4_linear_3004_7123" x1="244.256" y1="49.923" x2="244.258" y2="65.8513" gradientUnits="userSpaceOnUse">
<stop stop-color="#00F1FB"/>
<stop offset="1" stop-color="#6E128E"/>
</linearGradient>
<linearGradient id="paint5_linear_3004_7123" x1="244.262" y1="29.8673" x2="244.265" y2="49.061" gradientUnits="userSpaceOnUse">
<stop stop-color="#00F1FB"/>
<stop offset="1" stop-color="#6E128E"/>
</linearGradient>
<linearGradient id="paint6_linear_3004_7123" x1="244.259" y1="19.8563" x2="244.261" y2="29.0653" gradientUnits="userSpaceOnUse">
<stop stop-color="#00F1FB"/>
<stop offset="1" stop-color="#6E128E"/>
</linearGradient>
<linearGradient id="paint7_linear_3004_7123" x1="349.578" y1="-1.84238" x2="526.845" y2="211.294" gradientUnits="userSpaceOnUse">
<stop stop-color="#9415AF"/>
<stop offset="1" stop-color="#400A67"/>
</linearGradient>
<linearGradient id="paint8_linear_3004_7123" x1="143.485" y1="115.248" x2="155.031" y2="130.193" gradientUnits="userSpaceOnUse">
<stop offset="0.0144211" stop-color="#F7BE80"/>
<stop offset="1" stop-color="#3F0B67"/>
</linearGradient>
<clipPath id="clip0_3004_7123">
<rect width="480" height="320" fill="white"/>
</clipPath>
</defs>
</svg>
