<svg width="16" height="16" viewBox="0 0 16 16" fill="none" xmlns="http://www.w3.org/2000/svg">
<path d="M1.724 1.053C1.6403 1.01113 1.54653 0.993602 1.45336 1.0024C1.36019 1.01119 1.27135 1.04595 1.19696 1.10274C1.12257 1.15952 1.06561 1.23604 1.03256 1.32359C0.999506 1.41115 0.991689 1.50622 1.01 1.598L2.413 6.448C2.43916 6.53838 2.49029 6.61955 2.56052 6.68217C2.63075 6.74479 2.71722 6.78632 2.81 6.802L8.5 7.755C8.768 7.808 8.768 8.192 8.5 8.245L2.81 9.198C2.71722 9.21367 2.63075 9.25521 2.56052 9.31783C2.49029 9.38045 2.43916 9.46161 2.413 9.552L1.01 14.402C0.991689 14.4938 0.999506 14.5888 1.03256 14.6764C1.06561 14.764 1.12257 14.8405 1.19696 14.8973C1.27135 14.954 1.36019 14.9888 1.45336 14.9976C1.54653 15.0064 1.6403 14.9889 1.724 14.947L14.724 8.447C14.8069 8.40543 14.8767 8.3416 14.9254 8.26266C14.9741 8.18372 15 8.09277 15 8C15 7.90722 14.9741 7.81628 14.9254 7.73733C14.8767 7.65839 14.8069 7.59457 14.724 7.553L1.724 1.053Z" fill="#808080"/>
</svg>
