<svg width="19" height="16" viewBox="0 0 19 16" fill="none" xmlns="http://www.w3.org/2000/svg">
<path d="M12.707 0.941407C10.7253 0.941407 9.11567 2.55244 9.11567 4.53277C9.11567 4.90399 9.2398 5.15187 9.2398 5.39887C6.26858 5.2761 3.6691 3.79076 1.93576 1.6862C1.56454 2.18164 1.43924 2.79874 1.43924 3.4184C1.43924 4.65629 2.05924 5.64939 3.05013 6.51606C2.43191 6.39184 1.93468 6.26653 1.43924 6.01953C1.43924 7.75287 2.6767 9.11554 4.28581 9.48676C3.91459 9.61099 3.6668 9.6109 3.29557 9.6109C3.17135 9.6109 2.92191 9.48676 2.67491 9.48676C3.17036 10.8489 4.4089 11.9609 6.01801 11.9609C4.78012 12.8276 3.16966 13.4477 1.56055 13.4477H0.694444C2.30356 14.4371 4.16181 15.0586 6.14214 15.0586C12.7043 15.0586 16.2956 9.60972 16.2956 4.90517V4.40864C16.9152 3.91319 17.5323 3.29481 18.0306 2.54948C17.2882 2.92215 16.6684 3.04592 15.926 3.17014C16.6684 2.67614 17.2871 2.05634 17.5341 1.18967C16.9144 1.56089 16.172 1.93155 15.3053 2.05577C14.6857 1.31333 13.6979 0.941407 12.707 0.941407Z" fill="white"/>
</svg>
